<svg id="advantages_project_base_learning1" xmlns="http://www.w3.org/2000/svg" xmlns:xlink="http://www.w3.org/1999/xlink" width="526" height="550" viewBox="0 0 526 550">
  <defs>
    <clipPath id="clip-path">
      <rect id="Rectangle_7887" data-name="Rectangle 7887" width="526" height="550" fill="none"/>
    </clipPath>
    <clipPath id="clip-path-2">
      <rect id="Rectangle_7865" data-name="Rectangle 7865" width="525.999" height="549.999" fill="none"/>
    </clipPath>
    <clipPath id="clip-path-3">
      <rect id="Rectangle_7851" data-name="Rectangle 7851" width="471.444" height="422.857" fill="none"/>
    </clipPath>
    <clipPath id="clip-path-4">
      <rect id="Rectangle_7852" data-name="Rectangle 7852" width="59.351" height="50.73" fill="none"/>
    </clipPath>
    <clipPath id="clip-path-5">
      <rect id="Rectangle_7853" data-name="Rectangle 7853" width="69.927" height="44.868" fill="none"/>
    </clipPath>
    <clipPath id="clip-path-6">
      <rect id="Rectangle_7854" data-name="Rectangle 7854" width="46.892" height="42.292" fill="none"/>
    </clipPath>
    <clipPath id="clip-path-7">
      <rect id="Rectangle_7855" data-name="Rectangle 7855" width="86.042" height="91.283" fill="none"/>
    </clipPath>
    <clipPath id="clip-path-8">
      <rect id="Rectangle_7856" data-name="Rectangle 7856" width="232.577" height="140.682" fill="none"/>
    </clipPath>
    <clipPath id="clip-path-9">
      <rect id="Rectangle_7857" data-name="Rectangle 7857" width="466.247" height="380.265" fill="none"/>
    </clipPath>
    <clipPath id="clip-path-10">
      <rect id="Rectangle_7858" data-name="Rectangle 7858" width="38.537" height="61.018" fill="none"/>
    </clipPath>
    <clipPath id="clip-path-11">
      <rect id="Rectangle_7859" data-name="Rectangle 7859" width="27.009" height="24.394" fill="none"/>
    </clipPath>
    <clipPath id="clip-path-12">
      <rect id="Rectangle_7860" data-name="Rectangle 7860" width="28.691" height="21.317" fill="none"/>
    </clipPath>
    <clipPath id="clip-path-13">
      <rect id="Rectangle_7861" data-name="Rectangle 7861" width="34.069" height="26.072" fill="none"/>
    </clipPath>
    <clipPath id="clip-path-14">
      <rect id="Rectangle_7862" data-name="Rectangle 7862" width="114.712" height="30.136" fill="none"/>
    </clipPath>
    <clipPath id="clip-path-15">
      <rect id="Rectangle_7863" data-name="Rectangle 7863" width="84.541" height="110.792" fill="none"/>
    </clipPath>
    <clipPath id="clip-path-16">
      <rect id="Rectangle_7864" data-name="Rectangle 7864" width="29.933" height="33.503" fill="none"/>
    </clipPath>
    <clipPath id="clip-path-17">
      <path id="Path_10353" data-name="Path 10353" d="M679.266,1277.336c-11.594,12.367-8,31.225,5.042,40.947,52.848,38.871,111.449,65.944,174.941,82.119a42.118,42.118,0,0,0,9.784,1.132c14.624,0,30.048-7.2,34.566-21.834,4.915-16.6-9.283-30.791-24.416-34.141q-5.509-1.315-10.974-2.751c-50.724-13.3-97.917-34.546-141.115-64.49q-3.119-2.158-6.216-4.385a32.029,32.029,0,0,0-18.955-6.124,31.036,31.036,0,0,0-22.658,9.527" transform="translate(-672.267 -1267.809)" fill="none"/>
    </clipPath>
    <clipPath id="clip-path-19">
      <rect id="Rectangle_7866" data-name="Rectangle 7866" width="232.316" height="111.962" fill="none"/>
    </clipPath>
    <clipPath id="clip-path-20">
      <rect id="Rectangle_7867" data-name="Rectangle 7867" width="155.878" height="94.832" fill="none"/>
    </clipPath>
    <clipPath id="clip-path-21">
      <rect id="Rectangle_7868" data-name="Rectangle 7868" width="104.625" height="65.732" fill="none"/>
    </clipPath>
    <clipPath id="clip-path-22">
      <rect id="Rectangle_7869" data-name="Rectangle 7869" width="120.374" height="171.203" fill="none"/>
    </clipPath>
    <clipPath id="clip-path-23">
      <rect id="Rectangle_7870" data-name="Rectangle 7870" width="18.762" height="15.767" fill="none"/>
    </clipPath>
    <clipPath id="clip-path-24">
      <rect id="Rectangle_7871" data-name="Rectangle 7871" width="77.049" height="44.462" fill="none"/>
    </clipPath>
    <clipPath id="clip-path-25">
      <rect id="Rectangle_7872" data-name="Rectangle 7872" width="67.438" height="22.957" fill="none"/>
    </clipPath>
    <clipPath id="clip-path-26">
      <rect id="Rectangle_7873" data-name="Rectangle 7873" width="15.489" height="18.914" fill="none"/>
    </clipPath>
    <clipPath id="clip-path-27">
      <rect id="Rectangle_7874" data-name="Rectangle 7874" width="14.364" height="12.912" fill="none"/>
    </clipPath>
    <clipPath id="clip-path-28">
      <rect id="Rectangle_7875" data-name="Rectangle 7875" width="14.267" height="12.081" fill="none"/>
    </clipPath>
    <clipPath id="clip-path-29">
      <rect id="Rectangle_7876" data-name="Rectangle 7876" width="63.617" height="24.685" fill="none"/>
    </clipPath>
    <clipPath id="clip-path-30">
      <rect id="Rectangle_7877" data-name="Rectangle 7877" width="0.549" height="0.532" fill="none"/>
    </clipPath>
    <clipPath id="clip-path-31">
      <rect id="Rectangle_7878" data-name="Rectangle 7878" width="87.762" height="50.795" fill="none"/>
    </clipPath>
    <clipPath id="clip-path-32">
      <rect id="Rectangle_7879" data-name="Rectangle 7879" width="63.022" height="23.568" fill="none"/>
    </clipPath>
    <clipPath id="clip-path-33">
      <rect id="Rectangle_7880" data-name="Rectangle 7880" width="162.292" height="102.066" fill="none"/>
    </clipPath>
    <clipPath id="clip-path-34">
      <rect id="Rectangle_7881" data-name="Rectangle 7881" width="42.933" height="48.215" fill="none"/>
    </clipPath>
    <clipPath id="clip-path-35">
      <rect id="Rectangle_7882" data-name="Rectangle 7882" width="20.869" height="23.389" fill="none"/>
    </clipPath>
    <clipPath id="clip-path-36">
      <rect id="Rectangle_7883" data-name="Rectangle 7883" width="8.58" height="9.342" fill="none"/>
    </clipPath>
    <clipPath id="clip-path-37">
      <rect id="Rectangle_7884" data-name="Rectangle 7884" width="76.643" height="53.808" fill="none"/>
    </clipPath>
    <clipPath id="clip-path-38">
      <rect id="Rectangle_7885" data-name="Rectangle 7885" width="34.551" height="30.073" fill="none"/>
    </clipPath>
  </defs>
  <g id="Group_5393" data-name="Group 5393" clip-path="url(#clip-path)">
    <g id="Group_5328" data-name="Group 5328" transform="translate(0 0.001)">
      <g id="Group_5327" data-name="Group 5327" clip-path="url(#clip-path-2)">
        <path id="Path_10292" data-name="Path 10292" d="M535.129,812.826A263.405,263.405,0,0,1,337.074,1006.3C195.1,1038.174,54.223,948.657,22.424,806.4A263.828,263.828,0,0,1,69.842,588.9c8.468-11.183,26.271-5.884,27.131,8.132q.46,7.094,1.272,14.234a271.142,271.142,0,0,0,4.645,27.381A265.472,265.472,0,0,0,121.6,693.493c1.451,3.065,2.94,6.086,4.488,9.084q5.689,11,12.3,21.287,4.78,7.454,10.024,14.511,2.535,3.429,5.191,6.761,6.62,8.353,13.891,16.107,3.95,4.25,8.094,8.3c1.937,1.9,3.9,3.763,5.9,5.6a263.478,263.478,0,0,0,23.084,18.986c.741.547,1.489,1.079,2.229,1.612q6.744,4.823,13.771,9.212c1.092.682,2.177,1.349,3.276,2.016,4.675,2.841,9.448,5.517,14.28,8.05q3.927,2.069,7.929,3.98c.561.278,1.122.547,1.691.81.4.187.785.375,1.189.562.86.4,1.728.795,2.588,1.184q6.889,3.125,13.951,5.854c1.414.555,2.835,1.079,4.264,1.6,1.533.562,3.074,1.117,4.623,1.649,4.062,1.4,8.191,2.713,12.327,3.913,6.448,1.9,12.978,3.515,19.576,4.9q10.155,2.113,20.5,3.433a260.165,260.165,0,0,0,54.232,1.214q2.715-.214,5.446-.495c3.9-.4,7.824-.877,11.737-1.462q9.661-1.427,19.359-3.59c.426-.1.853-.187,1.272-.3a262.632,262.632,0,0,0,92.972-41.472c11.392-8.057,26.734,2.466,23.338,16.032" transform="translate(-12.799 -465.893)" fill="#ffda22"/>
        <g id="Group_5287" data-name="Group 5287" transform="translate(7.217 116.968)" opacity="0.35">
          <g id="Group_5286" data-name="Group 5286">
            <g id="Group_5285" data-name="Group 5285" clip-path="url(#clip-path-3)">
              <path id="Path_10293" data-name="Path 10293" d="M68.846,614.267A263.454,263.454,0,0,0,42.452,799.394c31.793,142.249,172.678,231.758,314.64,199.9A262.38,262.38,0,0,0,507.48,903.744a263.149,263.149,0,0,1-351.508,5.968,27.3,27.3,0,0,0,9.071-5.184c-.486.416-.981.816-1.489,1.2q-1.8-1.5-3.576-3.035A27.191,27.191,0,0,0,170.668,896a27.546,27.546,0,0,0,2.16-2.5l0,.011c6.3-15.667.759-38.078-15.006-55.233-19.343-21.054-46.762-26.211-61.225-11.511a27.158,27.158,0,0,0-2.874,3.442,264.917,264.917,0,0,1,3.852-247.34,14.827,14.827,0,0,0-11.724,6.034,265.665,265.665,0,0,0-30.873,52.213,265.807,265.807,0,0,1,13.873-26.854" transform="translate(-36.035 -582.873)" fill="#371a45"/>
            </g>
          </g>
        </g>
        <g id="Group_5290" data-name="Group 5290" transform="translate(368.926 404.863)" opacity="0.35">
          <g id="Group_5289" data-name="Group 5289">
            <g id="Group_5288" data-name="Group 5288" clip-path="url(#clip-path-4)">
              <path id="Path_10294" data-name="Path 10294" d="M1872.3,2017.488c-16.387-.2-29.9,11-30.191,25.008s12.764,25.522,29.151,25.717,29.9-11,30.191-25.008-12.765-25.521-29.151-25.717" transform="translate(-1842.106 -2017.485)" fill="#371a45"/>
            </g>
          </g>
        </g>
        <g id="Group_5293" data-name="Group 5293" transform="translate(207.067 370.044)" opacity="0.35">
          <g id="Group_5292" data-name="Group 5292">
            <g id="Group_5291" data-name="Group 5291" clip-path="url(#clip-path-5)">
              <path id="Path_10295" data-name="Path 10295" d="M1071.969,1888.8c19.233.816,33.444-8.545,31.741-20.907s-18.677-23.045-37.91-23.861-33.444,8.545-31.741,20.907,18.677,23.046,37.91,23.861" transform="translate(-1033.92 -1843.982)" fill="#371a45"/>
            </g>
          </g>
        </g>
        <path id="Path_10296" data-name="Path 10296" d="M1086.963,1947.175c16.7,1.259,28.65-4.151,26.7-12.082s-17.065-15.381-33.761-16.639-28.65,4.151-26.7,12.082,17.065,15.381,33.761,16.64" transform="translate(-842.107 -1533.319)" fill="#ffda22"/>
        <path id="Path_10297" data-name="Path 10297" d="M1926.318,2097.833c-11.516,4.339-17.781,15.329-13.993,24.549s16.195,13.176,27.711,8.837,17.782-15.329,13.994-24.548-16.2-13.176-27.712-8.838" transform="translate(-1528.454 -1675.439)" fill="#ffda22"/>
        <path id="Path_10298" data-name="Path 10298" d="M1121.645,2419.842a28.494,28.494,0,0,1-.968,7.4c-4.626,17.372-24.4,26.821-44.183,21.108-14.854-4.3-25.488-15.925-27.894-28.8Z" transform="translate(-838.593 -1934.008)" fill="#ffda22"/>
        <path id="Path_10299" data-name="Path 10299" d="M1119.622,2417.057c.811,9.017-3.419,18.445-10.6,24.349a35.122,35.122,0,0,1-12.155,6.564,40.512,40.512,0,0,1-13.661,1.679,42.744,42.744,0,0,1-25.186-9.709,38.551,38.551,0,0,1-8.815-10.319,32.789,32.789,0,0,1-4.291-12.709.748.748,0,0,1,1.463-.288l0,.014a37.475,37.475,0,0,0,14.172,20.045,41.826,41.826,0,0,0,22.879,7.983,37.42,37.42,0,0,0,12.032-1.406,32.713,32.713,0,0,0,10.808-5.308,28.659,28.659,0,0,0,7.916-9.085,30.977,30.977,0,0,0,2.418-5.661,30.461,30.461,0,0,0,1.161-6.146.929.929,0,0,1,1.852,0" transform="translate(-835.644 -1931.224)" fill="#371a45"/>
        <path id="Path_10300" data-name="Path 10300" d="M297.2,1680.4c-9.256-1.261-18.2.162-25.841,4.675-13.852,8.178-19.508,24.113-18.074,42.727.941,12.211,5.265,25.353,13.094,37.7,19.764,31.16,54.382,45.441,77.322,31.9,8.536-5.039,14.252-13.221,17.047-23.115,4.716-16.694.342-37.745-12.067-57.31Z" transform="translate(-202.382 -1342.829)" fill="#ffda22"/>
        <path id="Path_10301" data-name="Path 10301" d="M262.371,1705.444a36.025,36.025,0,0,0-9.072,9.225,38.444,38.444,0,0,0-5.245,11.574,51.766,51.766,0,0,0-1.749,12.57,71.132,71.132,0,0,0,.855,12.691c.327,2.093.762,4.171,1.285,6.224.5,2.06,1.1,4.094,1.746,6.112a84.75,84.75,0,0,0,4.911,11.724,94.428,94.428,0,0,0,14.384,20.876,84.585,84.585,0,0,0,9.175,8.723,75.62,75.62,0,0,0,10.361,7.2,64.3,64.3,0,0,0,11.4,5.251c.983.355,1.991.619,2.987.937,1.01.247,2.016.53,3.032.745s2.033.452,3.062.589c1.024.185,2.055.3,3.088.394a40.637,40.637,0,0,0,12.353-.719,34.757,34.757,0,0,0,11.461-4.783,35.471,35.471,0,0,0,9.228-8.655,46.379,46.379,0,0,0,6.132-11.467,40.929,40.929,0,0,1-4.648,12.45,36.484,36.484,0,0,1-8.879,10.241A38.023,38.023,0,0,1,326,1823.635a42.894,42.894,0,0,1-13.72,1.65,51.614,51.614,0,0,1-13.579-2.308,70.065,70.065,0,0,1-12.645-5.3,81.859,81.859,0,0,1-21.311-16.9,92.246,92.246,0,0,1-15.09-22.545,80.873,80.873,0,0,1-7.445-26.081,60.718,60.718,0,0,1,2.86-26.878,39.1,39.1,0,0,1,6.823-11.683,32.976,32.976,0,0,1,10.475-8.145" transform="translate(-193.399 -1363.201)" fill="#371a45"/>
        <path id="Path_10302" data-name="Path 10302" d="M1856.637,2056.228a34.512,34.512,0,0,1-18.7-4.516,31.666,31.666,0,0,1-7.67-6.315,27.1,27.1,0,0,1-5.076-8.746,25.477,25.477,0,0,1,1.659-20.013,28.624,28.624,0,0,1,6.323-7.974,32.964,32.964,0,0,1,8.429-5.512,39.855,39.855,0,0,1,9.589-2.841,41.289,41.289,0,0,1,9.949-.217,40.543,40.543,0,0,1,9.655,2.41,33.439,33.439,0,0,1,8.588,5.051,26.756,26.756,0,0,1,9.985,16.88,23.55,23.55,0,0,1-.607,9.86,24.247,24.247,0,0,1-1.806,4.56,35.562,35.562,0,0,1-2.643,4.066.743.743,0,0,1-1.27-.767l.054-.1a33.954,33.954,0,0,0,2.055-4.036,22.4,22.4,0,0,0,1.663-8.685,23.238,23.238,0,0,0-9.963-18.52c-9.36-6.989-22.709-7.989-33.178-3.124a27.093,27.093,0,0,0-12.5,11.28,21.258,21.258,0,0,0-1.784,16.313,25.486,25.486,0,0,0,10.395,13.467,34.815,34.815,0,0,0,16.875,5.623h.005a.929.929,0,0,1-.026,1.855" transform="translate(-1458.593 -1598.56)" fill="#371a45"/>
        <path id="Path_10303" data-name="Path 10303" d="M1848.3,2064.106a32.981,32.981,0,0,1,6.02,17.9,34.58,34.58,0,0,1-4.891,18.585,40.812,40.812,0,0,1-13.456,13.759,49.718,49.718,0,0,1-17.881,6.917,53.05,53.05,0,0,1-19.107-.14,47.638,47.638,0,0,1-17.659-7.237,40.481,40.481,0,0,1-12.987-13.9,33.787,33.787,0,0,1-4.112-18.334.747.747,0,0,1,1.491.019v.012a34.1,34.1,0,0,0,5.3,16.706,39.034,39.034,0,0,0,12.529,12.022,48.231,48.231,0,0,0,33.665,5.943,46.179,46.179,0,0,0,16.141-6.165,41.652,41.652,0,0,0,6.861-5.252c.528-.49.987-1.046,1.486-1.565.474-.54,1.016-1.027,1.438-1.609l1.31-1.712c.217-.287.449-.563.654-.859l.564-.916,1.136-1.833c.352-.625.627-1.29.947-1.932a28.275,28.275,0,0,0,1.584-4,12.7,12.7,0,0,0,.577-2.077l.492-2.107c.139-1.432.373-2.868.431-4.316a33.069,33.069,0,0,0-4.108-16.927.929.929,0,0,1,1.573-.981" transform="translate(-1410.836 -1649.575)" fill="#371a45"/>
        <g id="Group_5296" data-name="Group 5296" transform="translate(222.702 460.655)" opacity="0.35">
          <g id="Group_5295" data-name="Group 5295">
            <g id="Group_5294" data-name="Group 5294" clip-path="url(#clip-path-6)">
              <path id="Path_10304" data-name="Path 10304" d="M1112.291,2320.313c1.34,7.6,7.943,14.341,17.348,16.666,12.523,3.091,25.275-2.819,28.487-13.2a16.144,16.144,0,0,0,.729-4.408c.774-16.307-13.187-23.608-24.776-23.858-13.1-.282-24.047,7.966-21.788,24.8" transform="translate(-1111.993 -2295.507)" fill="#371a45"/>
            </g>
          </g>
        </g>
        <path id="Path_10305" data-name="Path 10305" d="M1119.88,2372.476c1.339,7.6,7.943,14.341,17.347,16.666,12.523,3.091,25.275-2.819,28.487-13.2a16.147,16.147,0,0,0,.729-4.408,26.649,26.649,0,0,0-16.184-11.009c-12.72-3.138-25.659,2.146-30.379,11.949" transform="translate(-895.598 -1886.1)" fill="#ffda22"/>
        <path id="Path_10306" data-name="Path 10306" d="M1134.049,2294.912a26.888,26.888,0,0,1,13.333,7.292,25.329,25.329,0,0,1,4.587,6.406,22.29,22.29,0,0,1,2.2,7.734,18.982,18.982,0,0,1-.885,8.116,20.908,20.908,0,0,1-3.978,7.2,24.2,24.2,0,0,1-14.031,7.689,28.664,28.664,0,0,1-27.924-11.581,22.359,22.359,0,0,1-4.069-15.061,19.464,19.464,0,0,1,2.419-7.448,18.942,18.942,0,0,1,5.074-5.746.747.747,0,0,1,1.048.146.755.755,0,0,1-.072.986,17.989,17.989,0,0,0-5.357,12.288,19.658,19.658,0,0,0,4.284,12.4,25.171,25.171,0,0,0,23.737,9.1,19.719,19.719,0,0,0,11.2-6.016,16.5,16.5,0,0,0,4.152-11.758,20.435,20.435,0,0,0-4.958-12.1,27.173,27.173,0,0,0-11.275-7.865l-.012,0a.93.93,0,0,1,.526-1.778" transform="translate(-882.227 -1834.359)" fill="#371a45"/>
        <g id="Group_5299" data-name="Group 5299" transform="translate(62.311 352.523)" opacity="0.35">
          <g id="Group_5298" data-name="Group 5298">
            <g id="Group_5297" data-name="Group 5297" clip-path="url(#clip-path-7)">
              <path id="Path_10307" data-name="Path 10307" d="M380.1,1776c-18.948-20.6-45.928-25.512-60.261-10.982s-10.591,43,8.357,63.6,45.928,25.512,60.261,10.982,10.591-43-8.357-63.6" transform="translate(-311.131 -1756.672)" fill="#371a45"/>
            </g>
          </g>
        </g>
        <path id="Path_10308" data-name="Path 10308" d="M375.486,1866.173c-17.691-16.566-39.89-20.325-49.581-8.4s-3.207,35.029,14.485,51.6,39.89,20.325,49.581,8.4,3.207-35.03-14.485-51.6" transform="translate(-257.037 -1479.393)" fill="#ffda22"/>
        <path id="Path_10309" data-name="Path 10309" d="M359.352,1830.747a31.685,31.685,0,0,0,13.341-1.572A25.307,25.307,0,0,0,383.4,1821.8a28.381,28.381,0,0,0,5.9-11.584A40.962,40.962,0,0,0,390.46,1797a59.563,59.563,0,0,0-8.1-25.557,65.963,65.963,0,0,0-17.711-20.243c-7.145-5.381-15.665-9.09-24.329-9.549a26.632,26.632,0,0,0-12.473,2.26,24.686,24.686,0,0,0-9.763,7.987,31.362,31.362,0,0,0-5.141,12,44.911,44.911,0,0,0-.693,13.486,65.661,65.661,0,0,0,8.559,26.194l0,0a.958.958,0,0,1-1.617,1.024,63.405,63.405,0,0,1-10.916-26.746,48.147,48.147,0,0,1,.027-14.835,35.118,35.118,0,0,1,5.446-14.157,29.408,29.408,0,0,1,11.657-10.163,32.523,32.523,0,0,1,15.124-3.121,43.339,43.339,0,0,1,14.843,3.173,57.825,57.825,0,0,1,6.791,3.237,67.115,67.115,0,0,1,6.281,4.068,70.781,70.781,0,0,1,19.386,22.278,69.359,69.359,0,0,1,5.794,13.67,57.551,57.551,0,0,1,2.476,14.711,45.768,45.768,0,0,1-1.849,14.931,33.2,33.2,0,0,1-7.556,13.17,28.872,28.872,0,0,1-12.934,7.761,31.38,31.38,0,0,1-7.394,1.11,36.3,36.3,0,0,1-7.344-.585,1.19,1.19,0,0,1,.3-2.359Z" transform="translate(-246.094 -1387.277)" fill="#371a45"/>
        <g id="Group_5302" data-name="Group 5302" transform="translate(135.629 279.244)" opacity="0.35">
          <g id="Group_5301" data-name="Group 5301">
            <g id="Group_5300" data-name="Group 5300" clip-path="url(#clip-path-8)">
              <path id="Path_10310" data-name="Path 10310" d="M909.8,1490.485c-.1.285-.209.57-.322.847a23.475,23.475,0,0,1-.927,5.172c-5.558,18-27.587,24.742-44.358,20.71q-11.77-3-23.309-6.506a7.532,7.532,0,0,1-.673,2.016l-6.448,12.937c-3.127,6.274-11.587,8.395-18.888,4.744s-10.689-11.715-7.563-17.989l5.528-11.086a497.4,497.4,0,0,1-84.916-40.512,7.543,7.543,0,0,1-1.511,3.125l-9.141,11.191c-4.436,5.427-13.158,5.629-19.471.45s-7.847-13.784-3.411-19.218l9.126-11.176q-7.192-4.913-14.258-10.1c-10.412-7.757-14.8-21.339-10.248-32.792a25.206,25.206,0,0,1,3.388-10.786q6.62,8.354,13.891,16.108,3.95,4.25,8.094,8.3c1.938,1.9,3.9,3.763,5.9,5.6a263.523,263.523,0,0,0,23.084,18.986c.74.547,1.488,1.08,2.229,1.612q6.744,4.823,13.771,9.212c1.092.682,2.177,1.349,3.276,2.016,4.675,2.841,9.448,5.517,14.28,8.05q3.927,2.069,7.929,3.98c.561.277,1.122.547,1.69.81.4.188.786.375,1.189.562.86.4,1.728.795,2.588,1.185q6.889,3.125,13.951,5.854c1.414.555,2.835,1.079,4.264,1.6,1.533.562,3.074,1.117,4.623,1.649,4.062,1.4,8.191,2.714,12.328,3.913,6.448,1.9,12.978,3.515,19.576,4.9q10.154,2.114,20.5,3.433a260.12,260.12,0,0,0,54.232,1.214" transform="translate(-677.22 -1391.509)" fill="#371a45"/>
            </g>
          </g>
        </g>
        <path id="Path_10311" data-name="Path 10311" d="M1034.258,1872.077c-3.046,2.791-5.2,6.424-5.284,10.248l-.036,1.415.19,1.407a5.96,5.96,0,0,0,.109.7l.2.686a14.088,14.088,0,0,0,.423,1.358,18.093,18.093,0,0,0,1.258,2.6c.258.413.459.85.757,1.243l.881,1.18a32.028,32.028,0,0,0,9.12,7.747,49.263,49.263,0,0,0,11.23,4.9c.993.27,1.975.585,2.978.822l3.024.655,3.06.463c1.022.129,2.049.209,3.075.318a49.382,49.382,0,0,0,12.287-.573,30.221,30.221,0,0,0,11.331-4.259,18.079,18.079,0,0,0,4.461-3.982l.862-1.228a10.045,10.045,0,0,0,.712-1.322,14.955,14.955,0,0,0,1.076-2.847l.04-.112a.742.742,0,0,1,1.435.337,15.93,15.93,0,0,1-2.136,6.53,19.744,19.744,0,0,1-4.611,5.149,31.134,31.134,0,0,1-12.3,5.771,48,48,0,0,1-13.429,1.263,54.736,54.736,0,0,1-13.28-2.2,51.063,51.063,0,0,1-12.378-5.491,41.991,41.991,0,0,1-5.486-4.122c-.853-.774-1.657-1.615-2.466-2.44l-1.112-1.353a12.193,12.193,0,0,1-1.048-1.407l-.969-1.477c-.322-.49-.559-1.05-.838-1.571a20.428,20.428,0,0,1-1.351-3.32c-.19-.568-.266-1.183-.4-1.77l-.175-.889a8.847,8.847,0,0,1-.071-.91l-.082-1.82.191-1.816a14.958,14.958,0,0,1,2.635-6.617,18.139,18.139,0,0,1,4.982-4.727.928.928,0,0,1,1.285.272.937.937,0,0,1-.155,1.2" transform="translate(-819.975 -1495.099)" fill="#371a45"/>
        <path id="Path_10312" data-name="Path 10312" d="M1164.929,2022.32a44.683,44.683,0,0,0,15.849,1.928,50.021,50.021,0,0,0,15.417-3.429,42.36,42.36,0,0,0,13.349-8.222c3.81-3.552,6.717-8.116,7.324-13.5l0-.015a.751.751,0,0,1,1.49-.021,17.987,17.987,0,0,1-1.127,8.8,25.037,25.037,0,0,1-4.717,7.6,38.881,38.881,0,0,1-14.468,9.992,46.532,46.532,0,0,1-8.437,2.512,42.816,42.816,0,0,1-8.769.706,33.3,33.3,0,0,1-16.691-4.665.935.935,0,0,1,.766-1.688Z" transform="translate(-930.648 -1597.382)" fill="#371a45"/>
        <g id="Group_5305" data-name="Group 5305" transform="translate(56.557 116.966)" opacity="0.5">
          <g id="Group_5304" data-name="Group 5304">
            <g id="Group_5303" data-name="Group 5303" clip-path="url(#clip-path-9)">
              <path id="Path_10313" data-name="Path 10313" d="M747.014,802.346c-3.217-8.575-14.2-13.241-22.893-7.094a263.366,263.366,0,0,1-262.826,23.571c1.352,1.054,2.71,2.074,4.071,3.075-.264-.119-.533-.228-.8-.348-.86-.39-1.728-.779-2.588-1.184-.4-.187-.793-.375-1.19-.562-.569-.262-1.13-.532-1.691-.81-2.02-.964-4.019-1.968-6.009-2.992-.639-.329-1.282-.652-1.919-.988q-6.788-3.558-13.384-7.516c-.3-.179-.6-.353-.9-.534-1.1-.667-2.184-1.334-3.276-2.016q-7.024-4.373-13.771-9.212c-.74-.532-1.488-1.064-2.229-1.612q-6.025-4.407-11.8-9.159-2.888-2.374-5.709-4.832t-5.572-5c-.771-.706-1.529-1.42-2.287-2.134q-1.069-1.006-2.123-2.026c-.5-.48-1-.955-1.492-1.439q-4.14-4.048-8.093-8.3c-.907-.968-1.8-1.951-2.693-2.934q-5.806-6.389-11.2-13.173c-.652-.819-1.3-1.649-1.938-2.479-1.1-1.416-2.187-2.84-3.253-4.282-.233-.314-.46-.633-.691-.948q-2.574-3.5-5.037-7.1-2.19-3.2-4.3-6.468-6.62-10.287-12.3-21.287c-1-1.929-1.961-3.874-2.914-5.828-.528-1.082-1.057-2.164-1.574-3.257a265.45,265.45,0,0,1-18.708-54.851c-.763-3.421-1.434-6.845-2.059-10.271-1.042-5.708-1.917-11.418-2.586-17.11-.106-.922-.185-1.844-.282-2.766-.4-3.829-.743-7.656-.99-11.468a15.352,15.352,0,0,0-1.33-5.423,15.225,15.225,0,0,0-16.261-8.543,14.736,14.736,0,0,0-1.572.344,14.579,14.579,0,0,0-1.8.629q-.548.232-1.081.512-.593.311-1.165.681a15.461,15.461,0,0,0-3.926,3.667c-.165.217-.322.44-.486.658A15.1,15.1,0,0,1,302,603.047q.46,7.094,1.272,14.234a271.231,271.231,0,0,0,4.645,27.38,265.454,265.454,0,0,0,18.708,54.851q2.177,4.6,4.488,9.084,5.689,11,12.3,21.287,4.78,7.454,10.023,14.511,2.536,3.43,5.191,6.761,6.62,8.354,13.891,16.108,3.949,4.25,8.094,8.3c1.937,1.9,3.9,3.763,5.9,5.6a263.458,263.458,0,0,0,23.084,18.986c.741.547,1.489,1.08,2.229,1.612q6.744,4.823,13.771,9.212c1.092.682,2.177,1.349,3.276,2.016q7.013,4.261,14.28,8.05,3.927,2.069,7.929,3.98c.561.278,1.122.547,1.691.81.4.187.785.375,1.19.562.86.4,1.728.795,2.588,1.184q6.889,3.126,13.95,5.854c1.414.555,2.835,1.08,4.264,1.6,1.534.562,3.074,1.117,4.623,1.649,4.062,1.4,8.191,2.713,12.327,3.913q7.5,2.206,15.145,3.929c99.782,37.639,207.645-28.009,221.681-25.453,8.843,1.616,6.9,15.062,2.877,27.861a265.271,265.271,0,0,1-85.125,116.2c.218-.157.441-.308.659-.466l.031-.022c.651-.473,1.285-.966,1.931-1.444q3.328-2.461,6.566-5.021,4.115-3.249,8.094-6.645,9.1-7.8,17.441-16.345,5.215-5.359,10.112-11t9.461-11.531q2.283-2.947,4.48-5.956a265.26,265.26,0,0,0,19.792-31.525q1.9-3.562,3.7-7.181.9-1.81,1.769-3.634a263.6,263.6,0,0,0,17.831-49.53,14.744,14.744,0,0,0-1.155-10.48" transform="translate(-282.396 -582.858)" fill="#fff"/>
            </g>
          </g>
        </g>
        <path id="Path_10314" data-name="Path 10314" d="M267.082,1003.075A267.582,267.582,0,0,1,10.454,809.8c-.773-2.719-1.432-5.147-2.018-7.43-.61-2.383-1.2-4.847-1.81-7.533-.436-1.925-.862-3.908-1.263-5.893s-.773-3.926-1.126-5.89c-.34-1.9-.663-3.814-.962-5.712-.164-1.031-.319-2.07-.472-3.111-.112-.766-.218-1.521-.324-2.279l-.082-.587c-.136-1.022-.263-2.02-.385-3.025-.121-.979-.241-1.957-.348-2.938s-.214-1.958-.309-2.941c-.1-.959-.193-1.942-.281-2.921S.9,757.576.828,756.6l-.033-.424c-.065-.839-.13-1.674-.181-2.509-.025-.32-.05-.694-.073-1.069l-.132-2.261c-.059-.947-.1-1.921-.145-2.9-.211-4.693-.3-9.447-.251-14.119L.034,731.2c.019-1.237.051-2.456.093-3.679l0-.112c.017-.606.033-1.213.061-1.824.155-4.107.412-8.294.763-12.418.048-.578.1-1.17.154-1.764l.038-.417c.03-.342.061-.684.1-1.023.078-.877.18-1.828.285-2.787.388-3.649.88-7.451,1.462-11.291.134-.925.284-1.873.441-2.817C4.626,685.7,6.163,678.244,8,670.923q.659-2.627,1.369-5.241c1.032-3.763,2.115-7.42,3.22-10.874.232-.748.481-1.522.738-2.292,1.189-3.618,2.506-7.347,3.911-11.072.6-1.589,1.215-3.159,1.846-4.728.883-2.218,1.822-4.479,2.784-6.709.486-1.122.982-2.245,1.482-3.357,3.3-7.387,7-14.731,10.992-21.829,1.364-2.423,2.783-4.853,4.22-7.226.82-1.358,1.66-2.72,2.506-4.069.9-1.446,1.827-2.876,2.763-4.312,1.62-2.477,3.329-4.988,5.223-7.678,1.094-1.55,2.277-3.182,3.617-4.993.607-.82,1.227-1.644,1.841-2.459a17.581,17.581,0,0,1,1.241-1.476c.086-.1.194-.217.31-.331.179-.19.362-.365.551-.54a3.625,3.625,0,0,1,.314-.289c.1-.091.205-.181.308-.269l.178-.154c.2-.17.351-.284.5-.4l.2-.154c.118-.094.238-.188.359-.277l.14-.1a17.687,17.687,0,0,1,9.874-3.264c.043,0,.137-.009.23-.01l.5-.007h.057a17.828,17.828,0,0,1,2.3.189,18.249,18.249,0,0,1,15.681,15.831c.057.417.094.851.124,1.294.081,1.341.172,2.654.283,3.966.062.846.131,1.649.2,2.465.126,1.421.258,2.844.415,4.26.088.913.185,1.779.284,2.657.566,5,1.287,10.022,2.143,14.939.142.865.29,1.7.446,2.53.157.89.321,1.748.492,2.61.453,2.327.883,4.417,1.318,6.405l-3.1.824L93,624.071q.025.107.047.214l.195.868c.165.735.33,1.469.5,2.2l.146.624c.206.878.412,1.756.636,2.635.141.59.277,1.134.417,1.671.21.837.417,1.636.631,2.44.059.237.1.42.156.6l.032.112c.285,1.095.585,2.179.893,3.266q.509,1.841,1.04,3.623c.476,1.618.975,3.21,1.476,4.8.262.826.527,1.657.8,2.485.117.361.236.711.354,1.062l.191.569a257.386,257.386,0,0,0,59.355,97.732,261.058,261.058,0,0,0,165.5,79.008,257.345,257.345,0,0,0,44.24-.036c.566-.047,1.12-.1,1.672-.151l.905-.084c.438-.042.886-.09,1.334-.138.98-.093,1.923-.2,2.858-.3.58-.064,1.155-.134,1.73-.2,1.6-.188,3.172-.4,4.754-.621,1.948-.269,3.93-.565,6.069-.908,1.171-.2,2.371-.4,3.576-.617,1.26-.22,2.512-.452,3.772-.7l.185-.036q1.864-.363,3.732-.752c1.174-.248,2.355-.5,3.543-.763,6.39-1.424,12.833-3.118,19.151-5.035,1.035-.316,2.076-.635,3.113-.965,1.057-.33,2.085-.671,3.114-1.011s2.042-.682,3.044-1.026a259,259,0,0,0,54.391-26.2l.818-.52c.609-.388,1.218-.775,1.821-1.171l2.1-1.394c1.1-.73,2.2-1.464,3.276-2.215l2.6-1.824a18.254,18.254,0,0,1,7.06-3.045c.41-.08.827-.146,1.241-.189a15.354,15.354,0,0,1,2.4-.132l.773.031a17.962,17.962,0,0,1,3.908.665,19.145,19.145,0,0,1,6.975,3.739,18.342,18.342,0,0,1,5.73,8.7,18.016,18.016,0,0,1,.51,8.025c-.029.23-.085.548-.148.85s-.129.591-.2.876c-.549,2.206-1.17,4.547-1.891,7.124q-.5,1.783-1.02,3.551c-1.03,3.484-2.158,7.035-3.356,10.556-.89,2.6-1.7,4.869-2.482,6.952A269.022,269.022,0,0,1,503.423,858.9q-.782,1.5-1.561,2.968l-.108.2c-.562,1.042-1.127,2.092-1.7,3.127-.547.991-1.106,1.988-1.666,2.986-1.468,2.567-2.774,4.782-4,6.792-2.55,4.2-5.262,8.394-8.051,12.449-.158.233-.326.476-.5.717l-.833,1.2q-.468.672-.945,1.34c-.067.1-.135.195-.209.289l-.45.634c-.29.416-.582.818-.874,1.221l-.674.92c-.165.241-.346.481-.525.714-.321.446-.652.895-.983,1.343l-.076.1c-.224.3-.453.609-.69.906-.3.419-.616.83-.928,1.236l-.8,1.047c-.18.25-.365.489-.56.721-.106.145-.213.283-.321.421-.64.824-1.28,1.643-1.934,2.455a3.747,3.747,0,0,1-.28.35c-.407.516-.816,1.022-1.226,1.529l-.175.214c-.261.322-.525.646-.793.961-.709.881-1.481,1.809-2.263,2.733l-2.54-1.972,2.472,2.051q-.094.115-.194.226c-.119.132-.236.273-.353.416-.315.378-.629.741-.944,1.1s-.652.769-1.007,1.165c-.155.188-.317.373-.479.559l-.218.25c-.013.02-.089.1-.166.186-.47.537-.933,1.064-1.4,1.588l-.4.444c-.542.606-1.122,1.241-1.7,1.869-.205.237-.416.468-.625.7l-.246.27c-.48.519-.934,1.006-1.4,1.491l-.095.1c-.191.207-.384.417-.581.619-.327.352-.7.75-1.085,1.149l-.71.741c-.382.4-.769.8-1.156,1.189l-.579.6c-.683.7-1.374,1.393-2.065,2.082-.065.069-.175.181-.3.3l-.614.605c-.358.355-.715.708-1.076,1.058-.144.148-.338.34-.539.526l-1.361,1.312c-.514.5-1.031.991-1.555,1.482-.581.553-1.178,1.12-1.788,1.674-.248.24-.5.469-.757.695q-1.008.935-2.04,1.858c-.239.223-.518.47-.8.721l-.194.173c-.147.136-.34.306-.537.477l-.147.128c-.232.211-.5.445-.773.683-.35.317-.772.681-1.2,1.046l-.172.148c-.083.075-.167.147-.25.217l-.108.093c-.765.659-1.53,1.319-2.311,1.972-.225.2-.5.426-.777.647-.586.5-1.227,1.024-1.87,1.553l-.525.432c-.1.091-.229.2-.368.3-.21.18-.429.356-.647.523-.591.487-1.255,1.018-1.928,1.545l-.12.1c-.1.087-.182.148-.227.182l-.5.394c-.523.409-1.043.816-1.575,1.224-.222.18-.493.393-.782.6-.776.6-1.552,1.2-2.339,1.781-.425.327-.9.688-1.379,1.034-.506.375-1.041.766-1.583,1.161l0,.01-3.149,2.266c-.133.1-.317.225-.5.351-.553.389-1.147.8-1.744,1.213l-.632.436c-1.567,1.092-3.251,2.223-5.293,3.557-2.379,1.555-4.567,2.937-6.688,4.221-.74.464-1.532.941-2.327,1.407-.126.086-.251.164-.377.233-.4.24-.807.475-1.213.712-.47.282-.919.546-1.376.806-.607.356-1.25.72-1.893,1.085l-.541.307c-.832.477-1.678.947-2.524,1.416-.108.066-.281.159-.459.247-.7.384-1.346.742-2.008,1.091-.719.39-1.474.79-2.235,1.188-.513.271-1.035.545-1.564.815-.191.106-.379.2-.573.3-.22.117-.446.232-.669.339-.548.287-1.1.564-1.652.841-1.08.543-2.114,1.055-3.153,1.556-1.528.741-3.076,1.476-4.632,2.186l-2.835,1.318-.024-.013-1.093.488-1.958.875-.024-.013-.015.007c-.725.315-1.371.589-2.013.854l-1.08.462c-.5.21-.967.4-1.429.581-.17.077-.34.146-.519.211-.269.114-.542.226-.816.337l-.783.313c-.385.154-.772.308-1.162.457-.087.04-.19.083-.3.124l-.659.262c-.535.209-1.087.425-1.643.629l-.211.081c-.18.071-.361.14-.544.207-.068.028-.14.054-.212.079-.364.144-.731.279-1.108.416-.292.117-.592.229-.886.334-.174.063-.371.133-.569.2-.147.062-.3.118-.452.17-.242.092-.482.177-.728.26-.428.161-.862.317-1.305.47l-1.119.395c-.237.091-.476.172-.724.249-.481.176-.973.34-1.477.507l-1.117.382c-.677.227-1.373.457-2.071.686l-2.284.736c-.718.225-1.437.451-2.158.673-1.079.332-2.156.656-3.235.964-.167.059-.332.109-.5.151q-.776.225-1.555.447l-.012.023-3.246.883c-.661.18-1.33.359-2,.536l-1.938.5c-.419.117-.888.232-1.366.344-.305.085-.6.159-.915.235-.52.127-1.049.252-1.569.372-.268.073-.523.134-.78.185-.414.1-.824.2-1.236.3l-.207.052c-.538.12-1.023.23-1.516.335-.368.088-.8.184-1.232.279l-.742.164c-.386.084-.773.169-1.161.251l-1.3.272-.035.071-1.721.285c-.789.165-1.572.314-2.353.462-.46.089-.9.171-1.347.251l-.57.105c-.676.126-1.368.251-2.049.371l-.306.053c-.14.025-.279.051-.42.072-.92.164-1.912.328-2.9.482-.014,0-.073.014-.134.022l-.606.1c-.741.119-1.478.236-2.215.341-.614.094-1.257.185-1.9.276l-1.006.145c-.73.1-1.431.192-2.135.285l-.811.107c-.987.127-1.966.243-2.946.358-.709.083-1.42.161-2.129.237l-.8.087a262.137,262.137,0,0,1-27.191,1.412M61.15,576.3l-.075.07c-.159.148-.261.238-.357.343l-.3.315a11.01,11.01,0,0,0-.784.934c-.606.8-1.214,1.613-1.811,2.418-1.311,1.773-2.466,3.367-3.53,4.874-1.849,2.625-3.517,5.077-5.095,7.49-.912,1.4-1.813,2.79-2.7,4.2q-1.244,1.986-2.455,3.986c-1.4,2.319-2.789,4.691-4.119,7.052-3.892,6.925-7.5,14.092-10.727,21.3l0,0c-.487,1.086-.972,2.184-1.445,3.277-.938,2.172-1.852,4.375-2.718,6.548-.621,1.54-1.215,3.068-1.8,4.611-1.37,3.633-2.657,7.275-3.822,10.819-.247.738-.482,1.467-.709,2.2-1.086,3.4-2.144,6.968-3.151,10.639q-.692,2.546-1.335,5.11c-1.794,7.144-3.293,14.417-4.457,21.618-.152.915-.3,1.819-.426,2.72-.569,3.765-1.049,7.471-1.429,11.037-.1.926-.2,1.835-.282,2.752-.041.367-.066.656-.093.944l-.039.433c-.051.562-.1,1.14-.15,1.71-.343,4.031-.594,8.115-.746,12.147-.027.6-.043,1.166-.059,1.733l0,.135c-.042,1.2-.072,2.38-.091,3.553l-.021,2.1c-.043,4.56.04,9.2.246,13.783.04.953.083,1.885.14,2.826l.129,2.206c.022.347.045.694.071,1.039.052.849.114,1.646.177,2.449l.035.441c.069.954.155,1.9.24,2.851s.177,1.909.274,2.856c.094.971.2,1.925.3,2.876s.219,1.9.338,2.852c.12.991.244,1.963.375,2.939l.079.57c.1.743.206,1.482.317,2.231.149,1.012.3,2.027.461,3.039.294,1.862.609,3.729.941,5.584q.519,2.877,1.1,5.755c.391,1.93.806,3.865,1.231,5.743.595,2.627,1.173,5.034,1.768,7.356.571,2.228,1.217,4.6,1.971,7.262A259.768,259.768,0,0,0,293.592,995.268l.789-.086c.69-.074,1.382-.149,2.072-.23.956-.113,1.911-.224,2.861-.348l3.881-.526c.621-.089,1.242-.177,1.866-.273.734-.1,1.437-.216,2.142-.329l.738-.116c.965-.155,1.916-.311,2.861-.478l.313-.055c.137-.025.274-.05.412-.071.594-.106,1.264-.224,1.925-.349l.6-.11c.418-.075.836-.152,1.253-.233l1.013-.194.053-.107,1.907-.283c.758-.154,1.526-.316,2.3-.477.445-.092.8-.172,1.165-.251l.735-.162c.4-.089.8-.178,1.211-.274.512-.11.955-.21,1.4-.309l.127-.033c.458-.108.915-.216,1.376-.33l.186-.041c.136-.026.269-.058.412-.1l.135-.034c.514-.12,1.038-.242,1.555-.369.268-.065.512-.123.762-.2l.158-.041c.417-.1.827-.2,1.244-.312l1.938-.5c.654-.173,1.309-.348,1.968-.527l1.837-.506c.98-.273,1.963-.555,2.94-.839l.341-.106c1.074-.3,2.146-.627,3.222-.958q1.063-.326,2.116-.661l2.2-.71c.683-.224,1.364-.448,2.045-.677l1.044-.358c.547-.182,1-.331,1.44-.495l.186-.063c.13-.039.256-.078.38-.127l.975-.345c.11-.042.224-.082.339-.121.414-.142.811-.285,1.2-.432l.118-.042c.2-.067.391-.135.587-.209l.137-.05c.024-.007.015,0-.009.012l.39-.158c.189-.062.38-.131.563-.2.252-.09.485-.177.711-.268l.1-.039c.356-.129.7-.255,1.045-.393l.281-.1c.154-.056.308-.116.46-.174l.284-.109c.547-.2,1.056-.4,1.564-.6l.895-.361c.394-.152.786-.308,1.177-.462l.729-.29c.274-.112.548-.224.815-.339l.537-.218c.444-.172.885-.355,1.325-.537l1.093-.468c.652-.27,1.261-.528,1.862-.789.422-.184.766-.334,1.1-.478l.925-.4c.756-.338,1.518-.677,2.274-1.02h0l1.4-.8.161.081.048-.021c1.533-.7,3.036-1.414,4.526-2.135q1.517-.733,3.01-1.487c.594-.3,1.126-.563,1.654-.841l.108-.054c.169-.081.34-.168.507-.258l.144-.074c.117-.056.231-.115.346-.179l.1-.054c.523-.267,1.04-.539,1.556-.81.741-.387,1.467-.773,2.185-1.162.679-.359,1.315-.71,1.951-1.06l.211-.111c.047-.024.1-.049.142-.077.9-.5,1.718-.954,2.535-1.423l.557-.316c.618-.35,1.234-.7,1.85-1.06.447-.255.852-.493,1.259-.738l.1-.058c.406-.235.81-.47,1.208-.709l.245-.154c.783-.459,1.564-.929,2.327-1.406,2.1-1.27,4.223-2.613,6.541-4.128,1.988-1.3,3.622-2.4,5.144-3.456l.643-.445c.582-.4,1.162-.8,1.74-1.209.15-.1.262-.178.368-.257l2.73-1.968q1.011-.737,2.014-1.475c.464-.333.876-.65,1.29-.968.817-.606,1.574-1.192,2.333-1.776l.108-.08c.2-.142.388-.292.581-.446.574-.442,1.078-.837,1.583-1.233l.732-.582c.721-.565,1.364-1.08,2-1.6.217-.169.366-.285.5-.407l.953-.782c.624-.514,1.247-1.028,1.87-1.552.269-.219.486-.4.7-.581.8-.669,1.541-1.307,2.279-1.945l.546-.471c.383-.328.764-.653,1.135-.99.3-.258.522-.456.75-.661l.195-.171c.149-.13.3-.257.44-.39l.244-.219c.251-.223.5-.444.747-.672.709-.635,1.374-1.241,2.031-1.85l.079-.072c.193-.167.38-.338.563-.516l.086-.081c.587-.532,1.162-1.079,1.737-1.626.516-.484,1.009-.955,1.5-1.435l1.414-1.362c.172-.16.29-.277.41-.4.4-.393.749-.735,1.1-1.079l.848-.841c.713-.711,1.379-1.376,2.031-2.047l.6-.625c.39-.4.758-.777,1.123-1.155l.679-.708c.364-.382.726-.762,1.086-1.149.2-.21.353-.374.5-.537l.14-.152c.473-.5.905-.961,1.34-1.432l.25-.276c.177-.193.355-.387.528-.588l.068-.077c.569-.62,1.142-1.247,1.707-1.879l.4-.448c.425-.474.871-.982,1.316-1.491,0-.009.073-.084.144-.16l-.067.079.312-.362c.134-.154.269-.307.4-.464l.1-.115c.326-.362.637-.729.948-1.1s.6-.686.875-1.023c.175-.211.354-.425.535-.624l.176-.208c.692-.821,1.434-1.71,2.163-2.615.291-.346.528-.637.762-.925l.17-.209c.416-.514.84-1.039,1.262-1.576l.232-.287c.63-.783,1.246-1.572,1.866-2.368.076-.1.153-.193.225-.3l.21-.269c.115-.131.219-.268.322-.413l.9-1.176c.287-.374.575-.748.848-1.131l.115-.15c.2-.252.4-.514.587-.772l.074-.1c.323-.437.648-.879.963-1.316l.065-.088c.125-.163.255-.331.369-.5l.746-1.022c.272-.374.543-.748.808-1.127l.665-.932q.487-.685.967-1.373l.154-.225.7-1c.165-.227.293-.417.422-.606,2.728-3.966,5.373-8.054,7.866-12.163,1.2-1.965,2.476-4.124,3.9-6.614.54-.962,1.091-1.946,1.636-2.933.567-1.02,1.118-2.042,1.664-3.058l.1-.188c.507-.95,1.015-1.925,1.525-2.9a262.581,262.581,0,0,0,12.925-29.158c.762-2.032,1.552-4.248,2.419-6.779,1.167-3.432,2.27-6.9,3.273-10.3q.507-1.723,1-3.464c.7-2.517,1.311-4.8,1.853-6.98.06-.228.1-.42.142-.611.025-.125.055-.288.077-.449a11.721,11.721,0,0,0-.308-5.254,11.925,11.925,0,0,0-3.728-5.637,12.649,12.649,0,0,0-4.6-2.467,11.552,11.552,0,0,0-3-.444l-.316,0a9.43,9.43,0,0,0-1.183.082l-.118.015c-.238.024-.476.063-.711.108a11.926,11.926,0,0,0-4.609,2.006l-2.615,1.832q-1.688,1.173-3.4,2.3l-2.112,1.4c-.643.422-1.278.826-1.914,1.231l-.812.517a265.415,265.415,0,0,1-55.717,26.841c-1.076.37-2.123.728-3.169,1.068s-2.107.7-3.181,1.033c-1.045.332-2.109.658-3.173.984-6.479,1.966-13.079,3.7-19.625,5.159-1.211.271-2.415.525-3.618.78q-1.932.4-3.858.777l-.184.036c-1.288.252-2.57.487-3.855.712-1.214.215-2.428.421-3.642.628-2.217.356-4.244.658-6.227.932-1.618.229-3.242.445-4.873.637-.583.072-1.185.145-1.782.212-.968.11-1.952.218-2.927.31-.429.047-.9.1-1.384.144l-.9.083c-.578.055-1.157.109-1.732.157a263.633,263.633,0,0,1-45.327.035,267.471,267.471,0,0,1-169.566-80.944,263.779,263.779,0,0,1-60.83-100.162l-.187-.557q-.188-.557-.371-1.116c-.276-.839-.547-1.691-.817-2.542-.516-1.636-1.027-3.267-1.511-4.914-.363-1.219-.721-2.465-1.067-3.716-.311-1.1-.619-2.208-.911-3.33-.075-.258-.141-.519-.206-.78-.208-.779-.422-1.609-.633-2.447-.144-.551-.289-1.14-.429-1.725-.222-.869-.438-1.788-.653-2.707l-.136-.582c-.187-.788-.357-1.548-.528-2.309l-.281-1.262c-.436-1.989-.876-4.128-1.336-6.491-.178-.893-.349-1.8-.509-2.7-.158-.851-.315-1.727-.46-2.606-.872-5.011-1.611-10.165-2.191-15.287-.1-.912-.2-1.814-.29-2.72-.156-1.419-.294-2.887-.424-4.352-.075-.851-.149-1.691-.209-2.534-.112-1.325-.206-2.687-.29-4.054-.018-.277-.042-.572-.081-.868a11.915,11.915,0,0,0-10.238-10.307,11.517,11.517,0,0,0-1.439-.123l-.551.013a11.323,11.323,0,0,0-6.38,2.106ZM318.824,994.882l.009,0-.055-.229Zm37.186-14.026,0,0Zm18.079-7.373h0Zm53.847-32.834-.022.018ZM26.279,627.967h0Z" transform="translate(0 -453.075)" fill="#371a45"/>
        <path id="Path_10315" data-name="Path 10315" d="M193.554,1005.925A71.72,71.72,0,0,0,192,982.212c-5.75-25.264-22.546-43.673-37.515-41.119s-22.443,25.106-16.694,50.37,22.545,43.673,37.515,41.119Z" transform="translate(-108.645 -752.049)" fill="#ffda22"/>
        <path id="Path_10316" data-name="Path 10316" d="M146.5,945.858a25.186,25.186,0,0,0-8.353,10.529,47.669,47.669,0,0,0-3.557,13.268,77.544,77.544,0,0,0-.47,13.869c.123,2.312.337,4.621.676,6.888.175,1.13.368,2.255.636,3.32.352,1.1.663,2.216,1.025,3.312a94.208,94.208,0,0,0,5.167,12.753,67.664,67.664,0,0,0,7.179,11.562,44.456,44.456,0,0,0,4.47,5.043,33.7,33.7,0,0,0,5.156,4.227,24.652,24.652,0,0,0,5.91,2.941,19.272,19.272,0,0,0,6.588.91h.018a.752.752,0,0,1,.232,1.475,17.6,17.6,0,0,1-7.486.368,24.268,24.268,0,0,1-7.151-2.445,35.119,35.119,0,0,1-6.216-4.206,48.411,48.411,0,0,1-5.239-5.285,61.932,61.932,0,0,1-10.678-19.2c-.409-1.149-.772-2.313-1.118-3.481-.307-1.18-.634-2.352-.893-3.54-.295-1.179-.507-2.377-.722-3.571-.262-1.243-.445-2.458-.6-3.672-.3-2.425-.453-4.842-.517-7.26a77.4,77.4,0,0,1,.969-14.464,48.573,48.573,0,0,1,4.326-13.912,26.859,26.859,0,0,1,9.628-10.979.925.925,0,0,1,1.276.3.935.935,0,0,1-.26,1.255" transform="translate(-104.39 -754.694)" fill="#371a45"/>
        <g id="Group_5308" data-name="Group 5308" transform="translate(38.904 202.601)" opacity="0.35">
          <g id="Group_5307" data-name="Group 5307">
            <g id="Group_5306" data-name="Group 5306" clip-path="url(#clip-path-10)">
              <path id="Path_10317" data-name="Path 10317" d="M194.541,1037.214a51.248,51.248,0,0,0,6.947,20.86c4.161,6.806,9.668,11.543,15.324,12.394,10.481,1.589,17.511-10.718,15.694-27.489-1.726-16.006-10.888-30.3-20.842-32.951a11.668,11.668,0,0,0-1.428-.3c-10.482-1.589-17.511,10.717-15.694,27.488" transform="translate(-194.255 -1009.589)" fill="#371a45"/>
            </g>
          </g>
        </g>
        <path id="Path_10318" data-name="Path 10318" d="M250.218,1128.438c-6.539-11.876-16.95-18.057-23.254-13.8s-6.114,17.328.425,29.2,16.95,18.057,23.254,13.8,6.114-17.328-.425-29.2" transform="translate(-177.825 -889.879)" fill="#ffda22"/>
        <path id="Path_10319" data-name="Path 10319" d="M224.394,1054.327a48.636,48.636,0,0,0-2.022-15.75,50.336,50.336,0,0,0-2.734-7.406,47.431,47.431,0,0,0-3.866-6.771,33.455,33.455,0,0,0-5.062-5.654,16.116,16.116,0,0,0-6.149-3.48,8.664,8.664,0,0,0-6.218.457,11.386,11.386,0,0,0-4.676,4.663,23.15,23.15,0,0,0-2.511,6.926,36.436,36.436,0,0,0-.731,7.637c-.048,1.294.1,2.592.152,3.891.179,1.291.254,2.6.526,3.88a55.477,55.477,0,0,0,1.861,7.633,52.781,52.781,0,0,0,3.07,7.23,39.156,39.156,0,0,0,4.323,6.506,22.945,22.945,0,0,0,5.8,5.024,12.2,12.2,0,0,0,7.239,1.8h.014a.749.749,0,0,1,.236,1.475,13.515,13.515,0,0,1-8.584-1.13,24.565,24.565,0,0,1-7.008-5.057,40.548,40.548,0,0,1-5.22-6.79,49.608,49.608,0,0,1-3.754-7.666l-.708-2.014c-.246-.67-.464-1.347-.645-2.036l-.58-2.057-.448-2.092c-.334-1.388-.469-2.818-.7-4.229-.109-1.43-.305-2.854-.3-4.3a36.923,36.923,0,0,1,.671-8.675,28.021,28.021,0,0,1,2.984-8.453,15.815,15.815,0,0,1,6.83-6.65,13.63,13.63,0,0,1,9.726-.7,20.626,20.626,0,0,1,7.9,4.674,34.063,34.063,0,0,1,5.623,6.721,49.866,49.866,0,0,1,3.9,7.651,54.143,54.143,0,0,1,2.42,8.152,44.279,44.279,0,0,1,.481,16.8.928.928,0,0,1-1.841-.2Z" transform="translate(-148.483 -807.284)" fill="#371a45"/>
        <path id="Path_10320" data-name="Path 10320" d="M762.24,1663.959c-4.434,5.429-13.153,5.63-19.469.451s-7.848-13.788-3.414-19.217,13.149-5.625,19.47-.441,7.843,13.783,3.413,19.206" transform="translate(-589.254 -1311.683)" fill="#95ebf9"/>
        <g id="Group_5311" data-name="Group 5311" transform="translate(148.511 329.308)" opacity="0.7">
          <g id="Group_5310" data-name="Group 5310">
            <g id="Group_5309" data-name="Group 5309" clip-path="url(#clip-path-11)">
              <path id="Path_10321" data-name="Path 10321" d="M766.015,1663.96a10.954,10.954,0,0,1-1.4,1.424c2.274-5.3.366-12.172-5-16.58-5.707-4.677-13.382-4.969-18.072-.982a10.855,10.855,0,0,1,1.593-2.631c4.428-5.427,13.15-5.622,19.471-.442s7.839,13.784,3.411,19.211" transform="translate(-741.539 -1640.99)" fill="#fff"/>
            </g>
          </g>
        </g>
        <path id="Path_10322" data-name="Path 10322" d="M764.618,1668.926a11.206,11.206,0,0,1-2.379,5.382c-4.436,5.427-13.15,5.63-19.471.45s-7.847-13.792-3.411-19.218a10.593,10.593,0,0,1,1.623-1.6c-.763,4.767,1.309,10.156,5.79,13.836,5.618,4.609,13.135,4.954,17.848,1.154" transform="translate(-589.253 -1322.03)" fill="#54c6d1"/>
        <path id="Path_10323" data-name="Path 10323" d="M784.68,1695.2c-1.73,2.119-5.133,2.2-7.6.176s-3.063-5.38-1.332-7.5,5.131-2.195,7.6-.172,3.06,5.379,1.332,7.495" transform="translate(-619.597 -1347.846)" fill="#371a45"/>
        <path id="Path_10324" data-name="Path 10324" d="M780.449,1603.185a7.6,7.6,0,0,1,1.063,10.673l-9.139,11.189c4.43-5.423,2.9-14.027-3.413-19.206s-15.04-4.983-19.47.44l9.139-11.189a7.559,7.559,0,0,1,10.652-1.066Z" transform="translate(-599.387 -1272.772)" fill="#4bc5d1"/>
        <path id="Path_10325" data-name="Path 10325" d="M742.868,1660.682a19.1,19.1,0,0,1-18.314-15.342,13.958,13.958,0,0,1,13.76-16.846,19.084,19.084,0,0,1,18.7,15.338,13.959,13.959,0,0,1-13.758,16.845c-.13,0-.26,0-.389,0m-4.171-27.175q-.135,0-.27,0a8.953,8.953,0,0,0-8.944,10.951,14.08,14.08,0,0,0,13.657,11.2,8.954,8.954,0,0,0,8.945-10.951,14.1,14.1,0,0,0-13.388-11.2" transform="translate(-579.242 -1301.689)" fill="#371a45"/>
        <path id="Path_10326" data-name="Path 10326" d="M766.575,1616.635l-3.874-3.177a9.327,9.327,0,0,0,1.8-7.667,14.08,14.08,0,0,0-13.658-11.2,9.283,9.283,0,0,0-7.144,3.278l-3.874-3.177v0l9.137-11.188a10.059,10.059,0,0,1,14.176-1.418l11.168,9.158a10.12,10.12,0,0,1,1.414,14.2l-9.133,11.181-.007.008m-15.467-27.064a19.1,19.1,0,0,1,18.318,15.342c.016.086.03.172.044.258l2.371-2.9a5.091,5.091,0,0,0-.711-7.144l-11.168-9.158a5.066,5.066,0,0,0-7.13.713l-2.371,2.9c.088,0,.176-.007.264-.009.127,0,.255,0,.383,0" transform="translate(-591.653 -1262.77)" fill="#371a45"/>
        <path id="Path_10327" data-name="Path 10327" d="M1335.131,1928.467c-3.129,6.276-11.589,8.4-18.889,4.746s-10.692-11.712-7.563-17.988,11.585-8.394,18.892-4.736,10.686,11.708,7.56,17.977" transform="translate(-1045.653 -1525.667)" fill="#95ebf9"/>
        <g id="Group_5314" data-name="Group 5314" transform="translate(261.95 383.032)" opacity="0.7">
          <g id="Group_5313" data-name="Group 5313">
            <g id="Group_5312" data-name="Group 5312" clip-path="url(#clip-path-12)">
              <path id="Path_10328" data-name="Path 10328" d="M1335.483,1928.465a10.844,10.844,0,0,1-.942,1.551c.688-5.494-2.671-11.423-8.64-14.414-6.657-3.335-14.28-1.859-17.945,3.17a11.1,11.1,0,0,1,1.077-3.545c3.127-6.274,11.587-8.4,18.9-4.737s10.682,11.708,7.555,17.974" transform="translate(-1307.957 -1908.7)" fill="#fff"/>
            </g>
          </g>
        </g>
        <path id="Path_10329" data-name="Path 10329" d="M1335.131,1953.156c-3.127,6.281-11.587,8.4-18.887,4.752s-10.689-11.715-7.563-17.989a2.921,2.921,0,0,1,.179-.33,15.521,15.521,0,0,0,8.55,10.906c7.173,3.59,15.461,1.6,18.708-4.415a11.422,11.422,0,0,1-.987,7.076" transform="translate(-1045.655 -1550.359)" fill="#54c6d1"/>
        <path id="Path_10330" data-name="Path 10330" d="M1342.847,1863.119a7.592,7.592,0,0,1,3.389,10.174l-6.449,12.935c3.125-6.269-.26-14.323-7.56-17.978s-15.767-1.533-18.893,4.736l6.449-12.935a7.562,7.562,0,0,1,10.154-3.4Z" transform="translate(-1050.309 -1483.429)" fill="#4bc5d1"/>
        <path id="Path_10331" data-name="Path 10331" d="M1313.6,1927.5a19.007,19.007,0,0,1-8.5-2.044,18.54,18.54,0,0,1-8.883-9.281,13.97,13.97,0,0,1,9.709-19.474,19.065,19.065,0,0,1,21.619,10.823,14.267,14.267,0,0,1-.2,12.064c-2.526,5.067-7.9,7.913-13.744,7.913m-3.464-26.3a12.323,12.323,0,0,0-3,.365,8.96,8.96,0,0,0-6.311,12.659,13.527,13.527,0,0,0,6.507,6.742c6.057,3.03,13.023,1.406,15.531-3.623a9.324,9.324,0,0,0,.063-7.874,13.522,13.522,0,0,0-6.5-6.738,14.1,14.1,0,0,0-6.29-1.531" transform="translate(-1035.626 -1515.664)" fill="#371a45"/>
        <path id="Path_10332" data-name="Path 10332" d="M1333.084,1877.344l-4.479-2.242,0-.009a9.327,9.327,0,0,0,.059-7.865,14.068,14.068,0,0,0-15.789-7.9,9.288,9.288,0,0,0-6.247,4.778l-4.479-2.242,6.449-12.934a10.062,10.062,0,0,1,13.512-4.519l12.91,6.462a10.115,10.115,0,0,1,4.509,13.54Zm-17.21-23.4A19.087,19.087,0,0,1,1324.4,1856a18.523,18.523,0,0,1,8.878,9.278q.051.12.1.242l1.673-3.355a5.088,5.088,0,0,0-2.268-6.81l-12.91-6.462a5.061,5.061,0,0,0-6.8,2.273l-1.673,3.355.254-.066a17.322,17.322,0,0,1,4.212-.514" transform="translate(-1041.367 -1473.423)" fill="#371a45"/>
        <path id="Path_10333" data-name="Path 10333" d="M850.722,1436.961c-63.493-16.177-122.094-43.252-174.937-82.124-13.049-9.72-16.641-28.576-5.042-40.943,10.767-11.415,29.1-12.6,41.613-3.4,47.947,34.469,100.928,57.987,158.306,71.625,15.129,3.348,29.328,17.542,24.416,34.143-5.562,17.991-27.591,24.741-44.356,20.7" transform="translate(-530.812 -1042.609)" fill="#fff"/>
        <path id="Path_10334" data-name="Path 10334" d="M851.648,1431.4a44.627,44.627,0,0,1-10.413-1.208l-.029-.007c-64.536-16.444-123.655-44.2-175.711-82.491a31.82,31.82,0,0,1-12.846-22.59,27.761,27.761,0,0,1,7.5-21.706c11.387-12.073,30.964-13.685,44.576-3.677,46.62,33.515,99.615,57.491,157.5,71.25,9.733,2.153,18.727,8.471,23.437,16.477a25.342,25.342,0,0,1,2.612,20.492c-4.86,15.72-21.066,23.46-36.619,23.46m-9.35-5.578c16.072,3.862,36.646-2.925,41.674-19.187a20.927,20.927,0,0,0-2.184-16.9c-4.1-6.968-11.981-12.477-20.573-14.378-58.485-13.9-112.013-38.122-159.13-71.994-11.84-8.7-28.819-7.326-38.673,3.122a23.308,23.308,0,0,0-6.293,18.224,27.309,27.309,0,0,0,11.041,19.37c51.576,37.94,110.166,65.445,174.137,81.746" transform="translate(-521.849 -1033.654)" fill="#371a45"/>
        <path id="Path_10335" data-name="Path 10335" d="M820.189,629.393a61.294,61.294,0,0,1-17.541.5c-18.724-1.891-40.325-10.388-61.762-19.706-14.453-6.288-28.06-3.447-29.824-8.073-2.529-6.646,10.056-8.358,10.056-8.358s1.739-3.507-16.455-10.959c-14.69-6.014-13.161-16.193,2.765-18.158,29.443-3.632,56.374,9.016,80.795,18.631,6.584,2.593,12.986,4.966,19.209,6.738,9.352,2.666,18.287,3.979,26.814,2.645L824.3,618.643Z" transform="translate(-555.417 -450.823)" fill="#fff"/>
        <g id="Group_5317" data-name="Group 5317" transform="translate(139.091 118.126)" opacity="0.35">
          <g id="Group_5316" data-name="Group 5316">
            <g id="Group_5315" data-name="Group 5315" clip-path="url(#clip-path-13)">
              <path id="Path_10336" data-name="Path 10336" d="M704.661,602.493c-9.742-3.99-12.353-9.812-8.357-13.852.735,2.9,3.066,5.395,7.416,6.784,25.855,8.268,24.85,16.1,24.85,16.1a64.6,64.6,0,0,1-12.386,3.183,26.276,26.276,0,0,1,4.933-1.262s1.739-3.507-16.455-10.958" transform="translate(-694.506 -588.641)" fill="#371a45"/>
            </g>
          </g>
        </g>
        <g id="Group_5320" data-name="Group 5320" transform="translate(155.31 149.329)" opacity="0.35">
          <g id="Group_5319" data-name="Group 5319">
            <g id="Group_5318" data-name="Group 5318" clip-path="url(#clip-path-14)">
              <path id="Path_10337" data-name="Path 10337" d="M884.953,773.37a61.294,61.294,0,0,1-17.541.5c-18.724-1.891-40.325-10.388-61.762-19.706-14.453-6.288-28.06-3.447-29.823-8.073a4.6,4.6,0,0,1-.325-1.966c8.417,4.26,23.987,1.813,36.408,7.215,21.437,9.318,43.143,6.722,61.867,8.613a62.446,62.446,0,0,0,16.427-.307l-1.135,2.97Z" transform="translate(-775.491 -744.128)" fill="#371a45"/>
            </g>
          </g>
        </g>
        <path id="Path_10338" data-name="Path 10338" d="M798.146,621.323c-21.642,0-47.432-10.319-70.469-20.336-6.878-2.99-13.572-3.8-18.952-4.446-6.124-.738-10.96-1.321-12.483-5.315a7.045,7.045,0,0,1,.438-6.289c1.528-2.581,4.6-4.121,7.285-5.016-1.984-1.409-5.667-3.517-12.454-6.3-8.3-3.4-12.658-8.392-11.951-13.7.718-5.381,6.361-9.112,15.485-10.237,27.127-3.34,52.3,6.787,74.516,15.727,18.831,7.578,36.615,14.742,52.209,12.3a3.01,3.01,0,0,1,.925,5.949c-17.217,2.69-35.752-4.766-55.373-12.663-22.593-9.092-45.951-18.5-71.543-15.338-6.7.826-10.015,3.2-10.263,5.059s2.213,4.845,8.268,7.326c10.825,4.434,16.731,8.3,18.055,11.821a4.067,4.067,0,0,1-.046,3.263,3,3,0,0,1-2.284,1.641c-2.626.366-6.753,1.695-7.661,3.234-.094.158-.233.394-.017,1,.778.727,4.721,1.2,7.612,1.552,5.462.659,12.945,1.561,20.626,4.9,26.112,11.354,55.787,23.12,77.548,19.007a3.01,3.01,0,0,1,1.115,5.916,56.923,56.923,0,0,1-10.586.936" transform="translate(-543.403 -438.86)" fill="#371a45"/>
        <path id="Path_10339" data-name="Path 10339" d="M812.007,696.063c.51.08,1.164.122,1.752.155s1.212.046,1.808.034a13.615,13.615,0,0,0,3.372-.408l.18-.051a1.507,1.507,0,0,1,1.347,2.629,16.464,16.464,0,0,1-3.893,2.213c-.661.284-1.325.531-2,.766-.687.233-1.314.445-2.091.64l-.207.052a3.079,3.079,0,0,1-1.492-5.974,3.138,3.138,0,0,1,1.222-.055" transform="translate(-646.545 -556.118)" fill="#371a45"/>
        <path id="Path_10340" data-name="Path 10340" d="M1087.246,684.773a2.508,2.508,0,0,1-2.206-3.691c8.334-15.63,7.648-40.868,7.641-41.121a2.5,2.5,0,1,1,5.005-.159c.034,1.087.741,26.82-8.229,43.644a2.5,2.5,0,0,1-2.21,1.327" transform="translate(-867.499 -509.467)" fill="#371a45"/>
        <path id="Path_10341" data-name="Path 10341" d="M1619.266,752.144l-2.988,11.5-1.524,5.857-26.259,101s6.974,1.4,16.477,2.532c1.859.221,3.815.432,5.834.62,15.044,1.406,33.6,1.53,41.828-4.828,12.3-9.509,24.268-64.843,19.235-88.6-2.3-10.888-22.685-19.22-37.391-23.884-1.642-.525-3.217-1-4.685-1.426-6.19-1.807-10.526-2.769-10.526-2.769" transform="translate(-1270.361 -601.207)" fill="#fff"/>
        <g id="Group_5323" data-name="Group 5323" transform="translate(318.132 162.435)" opacity="0.35">
          <g id="Group_5322" data-name="Group 5322">
            <g id="Group_5321" data-name="Group 5321" clip-path="url(#clip-path-15)">
              <path id="Path_10342" data-name="Path 10342" d="M1616.278,809.442l-1.524,5.856-20.85,80.193-5.409,20.8.423.082c.079.014.173.032.272.052l.257.047c.068.016.136.026.2.041.027,0,.057.012.084.015.126.023.267.05.415.074a.661.661,0,0,0,.1.02l.383.07c.183.035.372.066.572.1.143.022.294.053.446.078l.478.083c.2.036.421.071.641.112.448.073.921.155,1.423.234.441.077.906.15,1.392.224.56.087,1.146.181,1.755.271,2.249.337,4.83.694,7.634,1.027.545.065,1.1.128,1.663.192.39.044.793.087,1.2.129.97.1,1.969.205,2.976.3,15.049,1.408,33.6,1.53,41.823-4.83,10.131-7.828,20.04-46.728,20.407-73.488-3.4,22.7-10.9,46.238-18.539,52.138-3.775,2.917-10.1,4.365-17.332,4.937a3.957,3.957,0,0,1-3.785-5.774l.034-.066a69.616,69.616,0,0,0,6.081-18.23c3.009-15.46,5.149-38.13-8.112-59.387-.309-.5-7-2.7-15.1-5.3" transform="translate(-1588.493 -809.442)" fill="#371a45"/>
            </g>
          </g>
        </g>
        <path id="Path_10343" data-name="Path 10343" d="M1611.21,863.269c-18,0-36.8-3.716-38.068-3.97l-3.1-.625,32.3-124.216,2.814.624c5.2,1.152,50.948,11.795,54.886,30.38,2.884,13.611.279,35.218-3.122,50.9-1.673,7.719-7.861,33.464-17.216,40.695-6.129,4.738-17.153,6.212-28.489,6.212m-33.775-9.261c15.237,2.718,48.018,6.486,58.609-1.7,10.462-8.087,23.254-61.474,18.14-85.6-2.25-10.612-29.222-20.679-47.517-25.118Z" transform="translate(-1255.601 -587.07)" fill="#371a45"/>
        <path id="Path_10344" data-name="Path 10344" d="M1828.345,1116.707l-20.3-2.742a4.01,4.01,0,0,0-4.253,2.459c-2.533,6.211-7.639,20.859-2.422,27.163,4.33,5.232,12.882,6.543,18.721,3.4,6.532-3.52,10.2-18.172,11.655-25.5a4.022,4.022,0,0,0-3.4-4.774" transform="translate(-1438.799 -890.39)" fill="#fff"/>
        <g id="Group_5326" data-name="Group 5326" transform="translate(360.316 224.782)" opacity="0.35">
          <g id="Group_5325" data-name="Group 5325">
            <g id="Group_5324" data-name="Group 5324" clip-path="url(#clip-path-16)">
              <path id="Path_10345" data-name="Path 10345" d="M1803.8,1121.374c-2.536,6.208-7.639,20.857-2.421,27.159,4.331,5.234,12.88,6.544,18.722,3.4,4.015-2.168,6.949-8.544,8.95-14.836a17.168,17.168,0,0,1-5.664,6.666c-12.145,7.664-17.215-5.491-17.215-5.491s-1.9,2.529-2.972,2.468c-4.488-.259-.7-13.705,1.416-20.618a3.9,3.9,0,0,0-.815,1.256" transform="translate(-1799.117 -1120.118)" fill="#371a45"/>
            </g>
          </g>
        </g>
        <path id="Path_10346" data-name="Path 10346" d="M1805.08,1142.7a17.26,17.26,0,0,1-13.215-5.825c-5.711-6.9-1.13-21.259,2.11-29.2a6.013,6.013,0,0,1,6.374-3.688l20.3,2.742a6.026,6.026,0,0,1,5.1,7.156c-2.036,10.243-5.887,23.221-12.669,26.876a16.877,16.877,0,0,1-8,1.943m-5.539-34.757a2,2,0,0,0-1.858,1.247c-4.863,11.924-5.885,21.316-2.735,25.123,3.616,4.371,11.05,5.7,16.231,2.91,4.1-2.209,8.074-11.228,10.639-24.126a2.016,2.016,0,0,0-1.707-2.394h0l-20.3-2.741a2,2,0,0,0-.271-.018" transform="translate(-1430.832 -882.4)" fill="#371a45"/>
        <path id="Path_10347" data-name="Path 10347" d="M1831.684,1180.082a8.085,8.085,0,0,1-.816-.845c-.225-.267-.44-.536-.633-.812a14.448,14.448,0,0,1-1.057-1.695,17.288,17.288,0,0,1-1.45-3.6,21.9,21.9,0,0,1-.752-7.457,38.349,38.349,0,0,1,1.264-7.136c.3-1.153.647-2.3,1.05-3.429a18.2,18.2,0,0,1,1.523-3.354.6.6,0,0,1,1.047.57l-.035.072a17.725,17.725,0,0,0-1.053,3.163c-.275,1.11-.494,2.238-.674,3.375a36.175,36.175,0,0,0-.521,6.771,18.915,18.915,0,0,0,1.283,6.37,13.77,13.77,0,0,0,1.451,2.771,10.7,10.7,0,0,0,.925,1.2c.162.19.332.36.5.525a4.206,4.206,0,0,0,.44.376,2.025,2.025,0,1,1-2.341,3.278Z" transform="translate(-1461.04 -920.393)" fill="#371a45"/>
        <path id="Path_10348" data-name="Path 10348" d="M1849.86,844.723c2.554.153,5.063.369,7.592.622s5.048.553,7.573.925,5.052.786,7.587,1.345a53.689,53.689,0,0,1,7.668,2.182,3,3,0,0,1-2.131,5.611q-.136-.052-.265-.116l-.01-.006a48.4,48.4,0,0,0-6.61-2.578c-2.313-.75-4.7-1.384-7.1-1.977s-4.833-1.123-7.274-1.611-4.9-.939-7.343-1.323l-.018,0a1.547,1.547,0,0,1,.332-3.072" transform="translate(-1478.074 -675.205)" fill="#371a45"/>
        <path id="Path_10349" data-name="Path 10349" d="M903.6,1379.7c-4.518,14.638-19.943,21.834-34.566,21.834a42.118,42.118,0,0,1-9.784-1.132c-63.492-16.175-122.093-43.248-174.941-82.119-13.046-9.722-16.636-28.58-5.042-40.947a31.037,31.037,0,0,1,22.658-9.527,32.029,32.029,0,0,1,18.955,6.124q3.1,2.226,6.216,4.385c43.2,29.944,90.392,51.185,141.115,64.49,3.635.959,7.3,1.874,10.973,2.75,15.133,3.351,29.33,17.539,24.416,34.142" transform="translate(-537.63 -1013.389)" fill="#1a8bfc"/>
      </g>
    </g>
    <g id="Group_5330" data-name="Group 5330" transform="translate(134.637 254.42)">
      <g id="Group_5329" data-name="Group 5329" clip-path="url(#clip-path-17)">
        <path id="Path_10350" data-name="Path 10350" d="M1142.764,1410.824l9.081,74.974,18.129,9.552-10.091-74.653Z" transform="translate(-1048.536 -1382.124)" fill="#fff"/>
        <path id="Path_10351" data-name="Path 10351" d="M962.764,1320.823l9.081,74.974,18.129,9.552L979.883,1330.7Z" transform="translate(-904.586 -1310.185)" fill="#fff"/>
        <path id="Path_10352" data-name="Path 10352" d="M1322.764,1475.824l9.081,74.974,18.129,9.552-10.091-74.653Z" transform="translate(-1192.487 -1434.08)" fill="#fff"/>
      </g>
    </g>
    <g id="Group_5392" data-name="Group 5392" transform="translate(0 0.001)">
      <g id="Group_5391" data-name="Group 5391" clip-path="url(#clip-path-2)">
        <g id="Group_5333" data-name="Group 5333" transform="translate(134.643 253.416)" opacity="0.4">
          <g id="Group_5332" data-name="Group 5332">
            <g id="Group_5331" data-name="Group 5331" clip-path="url(#clip-path-19)">
              <path id="Path_10354" data-name="Path 10354" d="M879.2,1340.557q-5.509-1.315-10.973-2.75c-50.724-13.3-97.917-34.546-141.115-64.49q-3.12-2.159-6.216-4.385a32.029,32.029,0,0,0-18.955-6.124,31.037,31.037,0,0,0-22.658,9.527,25.411,25.411,0,0,0-6.993,17.474,25.6,25.6,0,0,1,5.992-10.45,31.037,31.037,0,0,1,22.658-9.527,32.031,32.031,0,0,1,18.955,6.124q3.1,2.226,6.216,4.385c43.2,29.944,90.392,51.186,141.115,64.49q5.454,1.439,10.973,2.751c12.968,2.871,25.236,13.7,25.393,27.19.007-.025.017-.048.024-.072,4.915-16.6-9.283-30.791-24.416-34.142" transform="translate(-672.294 -1262.808)" fill="#fff"/>
            </g>
          </g>
        </g>
        <g id="Group_5336" data-name="Group 5336" transform="translate(174.701 264.927)" opacity="0.3">
          <g id="Group_5335" data-name="Group 5335">
            <g id="Group_5334" data-name="Group 5334" clip-path="url(#clip-path-20)">
              <path id="Path_10355" data-name="Path 10355" d="M1028.193,1384.664c-4.548,18.289-17.422,31.045-34.634,30.311-43.6-1.866-31.552-32.71-30.632-40.19.7-5.644-27.453-18.581-41.448-9.714-12.3,7.788-32.647,3.612-43.471-9.879-13.276-16.547-.431-30.768,9.069-35.018,43.2,29.944,90.392,51.186,141.115,64.49" transform="translate(-872.314 -1320.173)" fill="#371a45"/>
            </g>
          </g>
        </g>
        <path id="Path_10356" data-name="Path 10356" d="M860.168,1394.842a44.58,44.58,0,0,1-10.412-1.208l-.029-.007c-64.537-16.443-123.655-44.2-175.711-82.49a31.823,31.823,0,0,1-12.846-22.591,27.761,27.761,0,0,1,7.5-21.706c11.387-12.071,30.964-13.686,44.577-3.677,46.622,33.517,99.617,57.493,157.5,71.25,9.734,2.154,18.727,8.471,23.437,16.478a25.341,25.341,0,0,1,2.611,20.491c-4.86,15.72-21.066,23.46-36.619,23.46m-9.347-5.576c16.072,3.86,36.644-2.926,41.671-19.188a20.921,20.921,0,0,0-2.183-16.9c-4.1-6.968-11.981-12.477-20.573-14.379-58.483-13.9-112.011-38.12-159.13-71.994-11.838-8.7-28.82-7.327-38.674,3.122a23.307,23.307,0,0,0-6.292,18.223,27.311,27.311,0,0,0,11.042,19.371c51.575,37.94,110.168,65.446,174.139,81.747" transform="translate(-528.663 -1004.432)" fill="#371a45"/>
        <path id="Path_10357" data-name="Path 10357" d="M1061.4,795.035c-9.38,9.264-18.214,13.582-18.663,31.2-.277,10.876,3.748,17.419-1.653,32.267-7.719,21.219-20.526,32.89-43.431,22.306-13.936-6.446-13.719-19.368-8.64-29.884a38.376,38.376,0,0,1,8.378-11.423c-6.957-7.608-12.53-20.927-8.228-42.941,0,0-.06-.09-.187-.247a14.575,14.575,0,0,0-7.181-4.625c-16.771-5.164-20.7,2.129-24.572,14.631-1.234,3.987-3.067,16.348-8.647,21.032-11.729,9.856-33.115,17.007-48.966-.585-7.278-8.08-6.582-15.605-1.937-21.714,3.808-5.037,10.293-9.114,17.19-11.768-6.388-42.806,40.969-47.88,40.969-47.88s23.2-44.185,28.462-80.463l88.694,6.993c6.426,24.817,9.4,44.417,9.964,60.12,1.317,36.1-10.083,51.666-21.55,62.983" transform="translate(-715.081 -531.501)" fill="#fff"/>
        <g id="Group_5339" data-name="Group 5339" transform="translate(179.076 240.258)" opacity="0.3">
          <g id="Group_5338" data-name="Group 5338">
            <g id="Group_5337" data-name="Group 5337" clip-path="url(#clip-path-21)">
              <path id="Path_10358" data-name="Path 10358" d="M998.783,1209.1a33.4,33.4,0,0,0-9.807,12.689,14.582,14.582,0,0,0-7.181-4.625c-16.771-5.164-20.7,2.129-24.573,14.631-1.234,3.987-3.067,16.347-8.647,21.032-11.729,9.857-33.115,17.007-48.966-.584-7.278-8.08-6.583-15.605-1.937-21.714,2.977,10.823,9.837,20.567,19.247,21.662,13.053,1.522,23.892,1.26,31.275-12.24,7.884-14.429,2.723-31.878,8.356-38.316s18.606-4.853,27.371-1.3a61.238,61.238,0,0,1,14.863,8.765" transform="translate(-894.157 -1197.241)" fill="#371a45"/>
            </g>
          </g>
        </g>
        <g id="Group_5342" data-name="Group 5342" transform="translate(247.598 182.066)" opacity="0.3">
          <g id="Group_5341" data-name="Group 5341">
            <g id="Group_5340" data-name="Group 5340" clip-path="url(#clip-path-22)">
              <path id="Path_10359" data-name="Path 10359" d="M1335.024,988.731c-9.38,9.264-18.214,13.582-18.663,31.2-.277,10.876,3.747,17.419-1.653,32.267-7.72,21.219-20.526,32.89-43.43,22.306-13.936-6.446-13.719-19.368-8.64-29.884-.426,4.647-.336,10.561,1.945,14.871,5.109,9.661,23.5,11.595,32.95,3.193,7.428-6.611,14.4-17.164,11.931-30.042s-6.119-26.526-1.212-35.393c3.276-5.929,18.043-8.987,22.336-20.335,1.751-4.63-10.516-8.715-19.169-10.979a12.913,12.913,0,0,0-11.366,2.644,10.674,10.674,0,0,1-10.486,1.695l-46.37-17.584a10.731,10.731,0,0,1-6.2-13.791l1.945-5.142,7.4-19.578a10.691,10.691,0,0,1,13.764-6.221l46.355,17.584a10.214,10.214,0,0,1,1.922.959,10.757,10.757,0,0,1,4.286,12.832l-4.713,12.487c11.52,1.477,35.217,6.753,35.83,5.06,4.93-13.522,5.333-14.893,4.556-30.386a42.121,42.121,0,0,1,5.947-1.1,5.694,5.694,0,0,1,2.289.36c1.317,36.1-10.083,51.665-21.55,62.983" transform="translate(-1236.303 -907.263)" fill="#371a45"/>
            </g>
          </g>
        </g>
        <path id="Path_10360" data-name="Path 10360" d="M966.547,710.89c-1.069,4.5-2.267,8.974-3.7,13.366-1.393,4.409-2.955,8.759-4.621,13.068s-3.451,8.572-5.381,12.769c-1.915,4.216-3.964,8.322-6.26,12.413l-.835,1.489-1.494.1h0c-1.247.152-2.713.424-4.071.713q-2.072.454-4.12,1.038a60.307,60.307,0,0,0-7.968,2.888,43.024,43.024,0,0,0-13.7,9.292,31.107,31.107,0,0,0-4.877,6.5,32.825,32.825,0,0,0-3.022,7.523,42.788,42.788,0,0,0-.574,16.507l.345,2.371-2.231.871a47.8,47.8,0,0,0-8.668,4.365,29.056,29.056,0,0,0-7,6.146,13.11,13.11,0,0,0-3.1,7.7,13.431,13.431,0,0,0,2.634,7.9,22.466,22.466,0,0,0,3.01,3.538l1.687,1.682c.594.517,1.232.974,1.842,1.468a30.074,30.074,0,0,0,3.9,2.571c.688.354,1.41.635,2.11.962.354.154.7.327,1.06.469l1.108.334a22.214,22.214,0,0,0,2.226.63l2.283.409c.764.12,1.548.112,2.321.18.388.017.774.071,1.164.06l1.172-.053a34.689,34.689,0,0,0,4.686-.5,41.3,41.3,0,0,0,4.606-1.237,40.324,40.324,0,0,0,8.711-4.083c.706-.392,1.341-.894,2.016-1.333s1.307-.939,1.937-1.438l.95-.742.688-.656a11.914,11.914,0,0,0,1.252-1.622,32.964,32.964,0,0,0,3.6-8.694c.453-1.594.856-3.222,1.257-4.893l.63-2.571c.106-.424.26-.951.39-1.381l.4-1.265a39.717,39.717,0,0,1,4.543-10.212A19.621,19.621,0,0,1,949.4,807.1a15.286,15.286,0,0,1,2.54-2.041,14.46,14.46,0,0,1,2.945-1.453,16.715,16.715,0,0,1,3.1-.691,29.09,29.09,0,0,1,11.387,1.23l1.319.363c.465.152.956.3,1.427.488a18.511,18.511,0,0,1,2.771,1.329,17.41,17.41,0,0,1,2.535,1.795c.4.345.784.7,1.156,1.088.187.191.371.4.555.607l.277.336c.1.131.166.208.328.439l.692.991-.231,1.268a85.391,85.391,0,0,0-1.363,10.822,56.461,56.461,0,0,0,.464,10.722,39.732,39.732,0,0,0,2.825,10.12,31.788,31.788,0,0,0,5.571,8.673l1.979,2.219-2.171,2.021a35.394,35.394,0,0,0-9.377,14.71,22.808,22.808,0,0,0-1.151,8.345,14.345,14.345,0,0,0,2.565,7.43,14.5,14.5,0,0,0,2.728,2.929,20.055,20.055,0,0,0,1.65,1.241c.6.362,1.184.748,1.819,1.071a40.868,40.868,0,0,0,4.055,1.823c.7.279,1.4.545,2.109.77.7.253,1.416.456,2.127.651a27.539,27.539,0,0,0,8.539,1.062,21.9,21.9,0,0,0,4.111-.63,20.626,20.626,0,0,0,3.848-1.493c4.935-2.567,8.757-7.328,11.623-12.632a65.957,65.957,0,0,0,3.79-8.366,49.7,49.7,0,0,0,2.511-8.68,36.981,36.981,0,0,0,.5-8.85c-.182-3.018-.673-6.152-.931-9.505-.146-1.662-.19-3.376-.171-5.086.011-.854.084-1.7.125-2.55a24.3,24.3,0,0,1,.245-2.556,30.932,30.932,0,0,1,8.828-18.719c2.344-2.481,4.814-4.606,7.135-6.735a81.016,81.016,0,0,0,12.345-13.737c.807-1.289,1.711-2.521,2.445-3.852l2.146-4.026,1.794-4.207a19.384,19.384,0,0,0,.766-2.161l.708-2.185c.226-.732.5-1.448.688-2.193l.518-2.252.521-2.251a21.288,21.288,0,0,0,.464-2.267c.4-3.076,1.029-6.11,1.14-9.241.974-12.438-.036-25.092-1.82-37.6l-1.493-9.383-1.889-9.332c-.326-1.553-.6-3.115-.969-4.662l-1.118-4.636-2.234-9.272-.023-.1a2.992,2.992,0,1,1,5.816-1.407l2.266,9.4,1.132,4.7c.371,1.569.655,3.161.986,4.74l1.92,9.494,1.526,9.587c1.822,12.811,2.887,25.847,1.863,38.966-.124,3.281-.776,6.543-1.215,9.812a24.226,24.226,0,0,1-.5,2.435l-.561,2.427-.564,2.427c-.206.8-.5,1.591-.745,2.388l-.774,2.382a22.446,22.446,0,0,1-.839,2.36l-1.974,4.624c-.764,1.493-1.577,2.965-2.367,4.446-.813,1.468-1.8,2.831-2.7,4.249a86.881,86.881,0,0,1-13.237,14.76c-2.393,2.189-4.773,4.25-6.821,6.426a24.966,24.966,0,0,0-7.236,15.344,19.687,19.687,0,0,0-.213,2.221c-.034.748-.1,1.5-.112,2.245-.014,1.492.019,2.982.154,4.51.227,3.032.73,6.235.939,9.61a43.08,43.08,0,0,1-.581,10.28,55.647,55.647,0,0,1-2.806,9.745,71.857,71.857,0,0,1-4.131,9.109,45.5,45.5,0,0,1-5.811,8.448,29.5,29.5,0,0,1-8.305,6.63,26.54,26.54,0,0,1-5.073,1.968,27.809,27.809,0,0,1-5.347.823,33.459,33.459,0,0,1-10.408-1.265c-.829-.227-1.654-.465-2.455-.751-.815-.26-1.607-.56-2.393-.873a46.4,46.4,0,0,1-4.682-2.113c-.787-.4-1.547-.893-2.309-1.363a25.874,25.874,0,0,1-2.182-1.638,20.334,20.334,0,0,1-7.43-14.554,28.762,28.762,0,0,1,1.419-10.575,41.467,41.467,0,0,1,11.047-17.321l-.191,4.241a37.794,37.794,0,0,1-6.636-10.311,45.736,45.736,0,0,1-3.266-11.654,62.461,62.461,0,0,1-.521-11.9,91.233,91.233,0,0,1,1.467-11.669l.46,2.259c.038.055-.03-.039-.062-.077l-.134-.163c-.1-.114-.2-.231-.318-.347-.222-.235-.474-.461-.727-.684a11.413,11.413,0,0,0-1.683-1.188,12.534,12.534,0,0,0-1.885-.9c-.327-.133-.665-.23-1.018-.348l-1.173-.322a23.539,23.539,0,0,0-9.011-1.068,10.779,10.779,0,0,0-1.939.416,8.493,8.493,0,0,0-1.672.836,9.349,9.349,0,0,0-1.487,1.184,13.732,13.732,0,0,0-1.28,1.62,34.431,34.431,0,0,0-3.785,8.669l-.384,1.2c-.118.4-.209.7-.313,1.111l-.6,2.459c-.4,1.687-.83,3.411-1.321,5.138a38.466,38.466,0,0,1-4.357,10.341,17.819,17.819,0,0,1-1.915,2.459c-.39.378-.8.786-1.188,1.125l-1.086.853c-.722.571-1.443,1.144-2.214,1.643s-1.5,1.067-2.3,1.518a46.3,46.3,0,0,1-9.97,4.672,47.163,47.163,0,0,1-5.373,1.436,40.585,40.585,0,0,1-5.583.6l-1.41.057c-.47.012-.943-.045-1.415-.065-.943-.076-1.891-.082-2.828-.225l-2.805-.5a28.081,28.081,0,0,1-2.745-.77l-1.364-.422c-.442-.173-.872-.378-1.308-.567-.864-.4-1.749-.754-2.589-1.189a36.06,36.06,0,0,1-4.729-3.1c-.732-.587-1.493-1.146-2.2-1.761l-1.983-1.965a28.21,28.21,0,0,1-3.669-4.342,22.324,22.324,0,0,1-2.71-5.311,16.93,16.93,0,0,1,.356-12.237,21.766,21.766,0,0,1,3.052-5.142,34.926,34.926,0,0,1,8.455-7.473,53.78,53.78,0,0,1,9.771-4.927L900,809.435a48.738,48.738,0,0,1,.7-18.9,38.816,38.816,0,0,1,3.6-8.969,37.1,37.1,0,0,1,5.784-7.714,48.983,48.983,0,0,1,15.569-10.6,66.344,66.344,0,0,1,8.752-3.173q2.234-.638,4.508-1.135c1.543-.324,2.995-.605,4.692-.813h0l-2.329,1.585,5.756-12.311c1.918-4.12,3.832-8.245,5.7-12.389,1.9-4.135,3.727-8.3,5.548-12.474l5.408-12.575.008-.018a1.5,1.5,0,0,1,2.838.944" transform="translate(-703.184 -547.212)" fill="#371a45"/>
        <path id="Path_10361" data-name="Path 10361" d="M1665.887,596.307c-.122-.381-.248-.774-.39-1.174l.577.979Z" transform="translate(-1331.943 -475.704)" fill="#fff"/>
        <path id="Path_10362" data-name="Path 10362" d="M1389.779,1363.135c-16.779,0-35.143-4.732-39-16.719a2.5,2.5,0,1,1,4.764-1.539c4.269,13.267,36.1,16.109,53.071,10.79a2.508,2.508,0,0,1,1.494,4.788,71,71,0,0,1-20.329,2.68" transform="translate(-1080.157 -1073.601)" fill="#371a45"/>
        <path id="Path_10363" data-name="Path 10363" d="M1063.917,1174.914c-.05,0-.1,0-.153,0-9.905-.6-33.443-9.03-42.178-21.014-2.87-3.937-3.83-7.88-2.857-11.719a2.5,2.5,0,1,1,4.853,1.237c-.589,2.32.1,4.851,2.047,7.523,7.458,10.232,29.394,18.419,38.436,18.965a2.509,2.509,0,0,1-.149,5.013" transform="translate(-814.411 -911.458)" fill="#371a45"/>
        <path id="Path_10364" data-name="Path 10364" d="M1201.113,934.327a9.38,9.38,0,1,0,11.745-6.171,9.4,9.4,0,0,0-11.745,6.171" transform="translate(-960.22 -741.553)" fill="#fff"/>
        <g id="Group_5345" data-name="Group 5345" transform="translate(240.466 189.206)" opacity="0.35">
          <g id="Group_5344" data-name="Group 5344">
            <g id="Group_5343" data-name="Group 5343" clip-path="url(#clip-path-23)">
              <path id="Path_10365" data-name="Path 10365" d="M1201.122,946.411a9.38,9.38,0,1,0,18.239,1.494,9.374,9.374,0,0,1-16.184-5.06,9.294,9.294,0,0,0-2.055,3.566" transform="translate(-1200.693 -942.844)" fill="#371a45"/>
            </g>
          </g>
        </g>
        <path id="Path_10366" data-name="Path 10366" d="M1200.088,939.05a11.9,11.9,0,1,1,5.5-1.367,11.887,11.887,0,0,1-5.5,1.367m-6.576-13.963a6.9,6.9,0,0,0,4.514,8.627,6.887,6.887,0,0,0,4.1-13.152,6.878,6.878,0,0,0-8.609,4.524" transform="translate(-950.229 -731.567)" fill="#371a45"/>
        <path id="Path_10367" data-name="Path 10367" d="M1231.992,919.073l46.366,17.586a10.7,10.7,0,0,0,13.763-6.218l9.338-24.724a10.745,10.745,0,0,0-4.287-12.831,10.349,10.349,0,0,0-1.918-.959l-46.359-17.584a10.69,10.69,0,0,0-13.763,6.218l-7.4,19.58-1.944,5.141a10.735,10.735,0,0,0,6.206,13.791" transform="translate(-979.743 -698.331)" fill="#fff"/>
        <g id="Group_5348" data-name="Group 5348" transform="translate(245.355 194.556)" opacity="0.35">
          <g id="Group_5347" data-name="Group 5347">
            <g id="Group_5346" data-name="Group 5346" clip-path="url(#clip-path-24)">
              <path id="Path_10368" data-name="Path 10368" d="M1231.992,995.687l46.366,17.586a10.7,10.7,0,0,0,13.763-6.218l9.338-24.724a10.745,10.745,0,0,0-4.287-12.831c-3.295.753-5.39,1.24-5.39,1.24-9.754,18.989-19.132,26.746-43.878,17.82-10.681-3.856-16.769-8.02-20.172-11.806l-1.944,5.141a10.735,10.735,0,0,0,6.206,13.791" transform="translate(-1225.098 -969.5)" fill="#371a45"/>
            </g>
          </g>
        </g>
        <path id="Path_10369" data-name="Path 10369" d="M1274.115,931.344a12.588,12.588,0,0,1-4.475-.823l-46.363-17.586a12.726,12.726,0,0,1-7.369-16.378l9.342-24.727a12.683,12.683,0,0,1,16.344-7.384l46.363,17.586a12.741,12.741,0,0,1,7.367,16.378l-9.341,24.727a12.7,12.7,0,0,1-11.87,8.207m-37-63.707a8.689,8.689,0,0,0-8.12,5.614l-9.342,24.727a8.706,8.706,0,0,0,5.041,11.2l46.363,17.586a8.7,8.7,0,0,0,11.181-5.05l9.34-24.727a8.726,8.726,0,0,0-5.04-11.2L1240.177,868.2a8.607,8.607,0,0,0-3.061-.563" transform="translate(-971.737 -690.314)" fill="#371a45"/>
        <path id="Path_10370" data-name="Path 10370" d="M1250.573,975.849a9.5,9.5,0,0,0,1.792.889l46.367,17.586a10.681,10.681,0,0,0,11.3-2.434,10.522,10.522,0,0,0,2.451-3.786l4.154-10.982,1.37-3.624,3.821-10.116a10.735,10.735,0,0,0-6.205-13.79l-10.02-3.8a10.738,10.738,0,0,1,4.428,12.907l-5.041,13.356-4.3,11.375a10.7,10.7,0,0,1-13.763,6.218Z" transform="translate(-1000.117 -755.995)" fill="#fff"/>
        <g id="Group_5351" data-name="Group 5351" transform="translate(250.456 216.06)" opacity="0.35">
          <g id="Group_5350" data-name="Group 5350">
            <g id="Group_5349" data-name="Group 5349" clip-path="url(#clip-path-25)">
              <path id="Path_10371" data-name="Path 10371" d="M1250.573,1080.458a9.508,9.508,0,0,0,1.792.889l46.367,17.586a10.688,10.688,0,0,0,13.755-6.22l5.524-14.606c-2.141,2.139-5.433,4.512-8.911,3.573-1.91-.511-3.219-2.524-4.106-5.015l-4.3,11.375a10.7,10.7,0,0,1-13.763,6.218Z" transform="translate(-1250.573 -1076.664)" fill="#371a45"/>
            </g>
          </g>
        </g>
        <path id="Path_10372" data-name="Path 10372" d="M1298.231,989.542a12.566,12.566,0,0,1-4.467-.825L1247.4,971.13a11.882,11.882,0,0,1-2.149-1.062l1.772-3.578,36.364,13.8a8.691,8.691,0,0,0,11.175-5.051l9.343-24.727a8.707,8.707,0,0,0-3.595-10.489l1.754-3.589,10.015,3.8a12.744,12.744,0,0,1,7.367,16.381l-9.341,24.725a12.744,12.744,0,0,1-11.873,8.21m-6.452-5.869,3.4,1.291a8.693,8.693,0,0,0,11.175-5.051v0l9.341-24.726a8.727,8.727,0,0,0-5.041-11.206l-3.061-1.16a12.7,12.7,0,0,1,.051,9.109l-9.342,24.726a12.591,12.591,0,0,1-6.529,7.018" transform="translate(-995.859 -748.511)" fill="#371a45"/>
        <path id="Path_10373" data-name="Path 10373" d="M1425.3,1006.972c-.34.916-1.8,8.792-1.8,8.792l5.21,1.942c3.587,1.337,7.877-1.3,9.582-5.892s.178-9.4-3.41-10.734l-5.209-1.942s-3.818,6.341-4.372,7.834" transform="translate(-1138.412 -798.635)" fill="#22a7f0"/>
        <g id="Group_5354" data-name="Group 5354" transform="translate(285.089 200.504)" opacity="0.35">
          <g id="Group_5353" data-name="Group 5353">
            <g id="Group_5352" data-name="Group 5352" clip-path="url(#clip-path-26)">
              <path id="Path_10374" data-name="Path 10374" d="M1425.3,1006.972c-.34.916-1.8,8.792-1.8,8.792l5.21,1.942c3.587,1.337,7.877-1.3,9.582-5.892s.178-9.4-3.41-10.734l-5.209-1.942s-3.818,6.341-4.372,7.834" transform="translate(-1423.502 -999.138)" fill="#371a45"/>
            </g>
          </g>
        </g>
        <path id="Path_10375" data-name="Path 10375" d="M1423.845,1012.211a7.065,7.065,0,0,1-2.477-.446l-6.394-2.383.231-1.244c.348-1.877,1.512-8.078,1.869-9.041h0c.587-1.579,4.1-7.425,4.494-8.086l.642-1.068,6.378,2.377c4.358,1.625,6.283,7.309,4.293,12.669a11.685,11.685,0,0,1-4.708,5.927,8.267,8.267,0,0,1-4.329,1.3m-5.453-4.768,4.025,1.5a4.757,4.757,0,0,0,4.186-.6,8.661,8.661,0,0,0,3.463-4.411c1.413-3.806.281-7.753-2.525-8.8l-4.039-1.505c-1.432,2.412-3.288,5.645-3.61,6.507-.178.519-.862,3.92-1.5,7.3" transform="translate(-1131.593 -791.283)" fill="#371a45"/>
        <path id="Path_10376" data-name="Path 10376" d="M1403.694,1003.645c-1.7,4.591-.178,9.4,3.409,10.734s7.877-1.3,9.582-5.892.178-9.4-3.409-10.734-7.877,1.3-9.581,5.892" transform="translate(-1122.014 -797.25)" fill="#22a7f0"/>
        <g id="Group_5357" data-name="Group 5357" transform="translate(280.984 204.564)" opacity="0.35">
          <g id="Group_5356" data-name="Group 5356">
            <g id="Group_5355" data-name="Group 5355" clip-path="url(#clip-path-27)">
              <path id="Path_10377" data-name="Path 10377" d="M1407.111,1031.937c3.583,1.337,7.872-1.3,9.578-5.892a10.993,10.993,0,0,0,.677-3.152c-2.033,3.433-5.631,5.205-8.7,4.061-2.764-1.031-4.306-4.121-4.086-7.583a11.206,11.206,0,0,0-.875,1.83c-1.708,4.594-.178,9.4,3.41,10.735" transform="translate(-1403.002 -1019.372)" fill="#371a45"/>
            </g>
          </g>
        </g>
        <g id="Group_5360" data-name="Group 5360" transform="translate(281.102 200.155)" opacity="0.7">
          <g id="Group_5359" data-name="Group 5359">
            <g id="Group_5358" data-name="Group 5358" clip-path="url(#clip-path-28)">
              <path id="Path_10378" data-name="Path 10378" d="M1403.593,1005.878c1.912-3.97,5.832-6.136,9.152-4.9,3,1.117,4.566,4.674,3.989,8.5.154-.318.3-.656.427-1,1.706-4.59.178-9.4-3.41-10.735s-7.877,1.3-9.578,5.892a11.1,11.1,0,0,0-.58,2.238" transform="translate(-1403.593 -997.4)" fill="#fff"/>
            </g>
          </g>
        </g>
        <path id="Path_10379" data-name="Path 10379" d="M1403.085,1010.26a7.065,7.065,0,0,1-2.478-.446c-4.358-1.624-6.283-7.308-4.293-12.669s7.153-8.4,11.514-6.777,6.283,7.308,4.293,12.669a11.694,11.694,0,0,1-4.707,5.927,8.27,8.27,0,0,1-4.329,1.3m-3.955-12.066c-1.413,3.806-.281,7.753,2.525,8.8a4.761,4.761,0,0,0,4.188-.595,8.671,8.671,0,0,0,3.462-4.411c1.413-3.806.28-7.753-2.525-8.8s-6.236,1.2-7.649,5.006" transform="translate(-1116.042 -791.275)" fill="#371a45"/>
        <path id="Path_10380" data-name="Path 10380" d="M1325.827,931.723a1.5,1.5,0,0,1-1.417-2l5.471-15.585a1.879,1.879,0,0,0-.274-1.759l-3.834-5.078a4.875,4.875,0,0,1-.678-4.666l7.729-20.674a1.5,1.5,0,1,1,2.813,1.056l-7.729,20.674a1.875,1.875,0,0,0,.261,1.794l3.835,5.078a4.891,4.891,0,0,1,.712,4.574l-5.472,15.585a1.5,1.5,0,0,1-1.417,1.006" transform="translate(-1059.098 -704.187)" fill="#371a45"/>
        <path id="Path_10381" data-name="Path 10381" d="M1590.671,1065.257a6.237,6.237,0,0,1,7.809,7.115,10.937,10.937,0,0,1-.465,1.671,13.458,13.458,0,0,1-8.213,8.357s-18.608,5.646-51.232-8.264a6.268,6.268,0,0,1-3.775-5.009c-.429-3.595.062-8.91,5.664-11.855a6.13,6.13,0,0,1,5.635.013c6.774,3.475,26.9,12.552,44.577,7.97" transform="translate(-1227.321 -844.56)" fill="#fff"/>
        <g id="Group_5363" data-name="Group 5363" transform="translate(307.354 214.286)" opacity="0.35">
          <g id="Group_5362" data-name="Group 5362">
            <g id="Group_5361" data-name="Group 5361" clip-path="url(#clip-path-29)">
              <path id="Path_10382" data-name="Path 10382" d="M1535.643,1081.828c34.432,15.527,54.153,9.543,54.153,9.543a13.464,13.464,0,0,0,8.213-8.355,8.931,8.931,0,0,0,.274-.88,12.655,12.655,0,0,1-5.248,3.46s-17.828,5.409-49.174-7.4a9.342,9.342,0,0,1-5.74-10.248c.007-.042.016-.084.024-.127-5.909,5.207-2.5,14.01-2.5,14.01" transform="translate(-1534.667 -1067.819)" fill="#371a45"/>
            </g>
          </g>
        </g>
        <path id="Path_10383" data-name="Path 10383" d="M1569,1075.821c-9.047,0-23.22-1.808-41.771-9.774a8.029,8.029,0,0,1-4.819-6.178c-1.061-6.888,1.585-12.445,7.259-15.244a8.126,8.126,0,0,1,7.31.052c5.918,3.066,26.57,12.68,43.939,7.674a8.048,8.048,0,0,1,10.272,7.74,13.411,13.411,0,0,1-.817,4.575,15.965,15.965,0,0,1-9.892,9.91,42.784,42.784,0,0,1-11.481,1.245M1533.28,1048.8a3.173,3.173,0,0,0-1.4.328c-3.736,1.844-5.258,5.2-4.523,9.98a3.088,3.088,0,0,0,1.844,2.331c31.448,13.5,49.712,8.373,49.891,8.32a10.952,10.952,0,0,0,6.578-6.815,8.4,8.4,0,0,0,.512-2.868,2.974,2.974,0,0,0-1.2-2.4,3.034,3.034,0,0,0-2.684-.5c-19.14,5.519-41.289-4.758-47.623-8.038a3.042,3.042,0,0,0-1.4-.336" transform="translate(-1217.326 -834.32)" fill="#371a45"/>
        <path id="Path_10384" data-name="Path 10384" d="M1366.973,1249.824c-.107.074-.434.286-.653.452-.244.191-.488.385-.724.6a16.2,16.2,0,0,0-1.355,1.381,21.638,21.638,0,0,0-2.278,3.236,31.23,31.23,0,0,0-1.79,3.591l-.735,1.884-.64,1.928-.034.1a3.008,3.008,0,1,1-5.709-1.9,3.3,3.3,0,0,1,.207-.48l1.094-2.033,1.2-1.98a35.921,35.921,0,0,1,2.767-3.746,25.572,25.572,0,0,1,3.338-3.316,19.58,19.58,0,0,1,1.952-1.393c.34-.216.7-.414,1.066-.6a9.986,9.986,0,0,1,1.263-.537,1.479,1.479,0,0,1,1.32,2.614Z" transform="translate(-1081.951 -996.7)" fill="#371a45"/>
        <g id="Group_5366" data-name="Group 5366" transform="translate(319.546 239.839)" opacity="0.35">
          <g id="Group_5365" data-name="Group 5365">
            <g id="Group_5364" data-name="Group 5364" clip-path="url(#clip-path-30)">
              <path id="Path_10385" data-name="Path 10385" d="M1595.552,1195.148c.035.172.075.345.112.512.288.018.437.02.437.02a5.905,5.905,0,0,1-.549-.532" transform="translate(-1595.552 -1195.148)" fill="#371a45"/>
            </g>
          </g>
        </g>
        <path id="Path_10386" data-name="Path 10386" d="M1764.84,711.694a333.2,333.2,0,0,1,41.514,12.934c11.992,4.767,33.368,13.973,41,34.2,7.039,18.659-.594,41.038-.594,41.038l-30.008-2.946s-7.911-28.78-43.245-27.864" transform="translate(-1411.39 -568.874)" fill="#fff"/>
        <g id="Group_5369" data-name="Group 5369" transform="translate(351.187 180.201)" opacity="0.3">
          <g id="Group_5368" data-name="Group 5368">
            <g id="Group_5367" data-name="Group 5367" clip-path="url(#clip-path-31)">
              <path id="Path_10387" data-name="Path 10387" d="M1837.723,948.769l-30-2.95s-7.91-28.78-43.248-27.86c-5.865-.826-11.052,3.353-10.925.909.24-4.625,7.6-7.854,6.1-9.934-3.631-5.035-5.972-11.256-3.417-10.949,22.838,2.751,33.893,23.4,54.322,24.722s28.463,10.282,28.463,10.282a70.918,70.918,0,0,0,2.265-9.205,79.4,79.4,0,0,1-3.555,24.985" transform="translate(-1753.542 -897.973)" fill="#371a45"/>
            </g>
          </g>
        </g>
        <path id="Path_10388" data-name="Path 10388" d="M1836.833,791.1l-34.43-3.38-.548-1.994c-.3-1.074-7.8-26.494-40.272-25.654a3.01,3.01,0,0,1-.155-6.019c31.638-.805,42.8,21.2,45.51,28.064l25.645,2.518c1.623-5.976,5.266-22.665-.042-36.736-7.476-19.818-29.775-28.684-39.3-32.47a332.844,332.844,0,0,0-41.086-12.8,3.01,3.01,0,0,1,1.356-5.865,339.377,339.377,0,0,1,41.945,13.068c10.26,4.079,34.287,13.632,42.7,35.937,7.336,19.448-.236,42.12-.561,43.076Z" transform="translate(-1399.389 -556.877)" fill="#371a45"/>
        <path id="Path_10389" data-name="Path 10389" d="M1919.571,842.765a2.5,2.5,0,0,1-2.429-1.912c-.23-.941-5.517-23.209,4.13-37.128,4.143-5.977,10.368-9.492,18.5-10.447a2.508,2.508,0,0,1,.583,4.983c-6.642.781-11.678,3.578-14.966,8.316-8.364,12.049-3.437,32.877-3.386,33.086a2.509,2.509,0,0,1-2.435,3.1" transform="translate(-1531.869 -634.072)" fill="#371a45"/>
        <path id="Path_10390" data-name="Path 10390" d="M1986.278,969.824c-1.882,6.664-6.818,12.607-15.156,13.2-11.922.85-26.243-2.907-26.243-2.907a21.351,21.351,0,0,1-14.8.789c-4.557-1.5-6.785-4.777-6.82-8.664-.05-4.931,3.424-10.849,10.168-15.4,12.055-8.135,9.036-17.269,18.861-20.108s30.7,11.088,33.9,20.409a21.83,21.83,0,0,1,.1,12.676" transform="translate(-1538.078 -748.458)" fill="#fff"/>
        <g id="Group_5372" data-name="Group 5372" transform="translate(385.178 211.126)" opacity="0.3">
          <g id="Group_5371" data-name="Group 5371">
            <g id="Group_5370" data-name="Group 5370" clip-path="url(#clip-path-32)">
              <path id="Path_10391" data-name="Path 10391" d="M1986.281,1062.312c-1.882,6.664-6.818,12.607-15.156,13.2-11.922.85-26.242-2.907-26.242-2.907a21.353,21.353,0,0,1-14.8.789c-4.558-1.5-6.785-4.777-6.82-8.664a11.842,11.842,0,0,0,7.8,3.955c9.172,1.248,14.584-5.873,10.978-8.387,0,0-3.551-2.968,2.32-4.586s5.563-4.166,8.7-3.547,12.912,4.572,17.969,8.232c3.917,2.831,11.566,4.24,15.259,1.912" transform="translate(-1923.258 -1052.072)" fill="#371a45"/>
            </g>
          </g>
        </g>
        <path id="Path_10392" data-name="Path 10392" d="M1953.988,973.2a104.089,104.089,0,0,1-22.272-2.865,24.783,24.783,0,0,1-16.117.45c-5.066-1.669-8.351-5.37-9.011-10.152-.944-6.835,3.475-14.457,11.531-19.892,5.225-3.526,7.18-7.14,9.072-10.635,2.148-3.972,4.371-8.079,10.733-9.917,11.624-3.362,34.214,11.5,38,22.548a25.77,25.77,0,0,1-2.917,21.482,19.37,19.37,0,0,1-15.082,8.848c-1.3.092-2.617.134-3.94.134m-22.888-9.954,1.2.3c.139.036,13.949,3.6,25.15,2.8a12.472,12.472,0,0,0,9.957-5.847,18.981,18.981,0,0,0,2.168-15.582c-2.672-7.784-21.827-20.564-29.793-18.27-3.659,1.057-4.735,3.047-6.69,6.659-2.063,3.815-4.631,8.562-11.224,13.01-6.621,4.467-9.105,9.943-8.629,13.388.308,2.234,1.807,3.809,4.455,4.681a18.159,18.159,0,0,0,12.3-.619Z" transform="translate(-1524.649 -735.14)" fill="#371a45"/>
        <path id="Path_10393" data-name="Path 10393" d="M1987.447,1074.557a11.594,11.594,0,0,1,1.8.015,11.98,11.98,0,0,1,1.734.269,9.829,9.829,0,0,1,3.4,1.475,8.544,8.544,0,0,1,2.645,2.966,13.01,13.01,0,0,1,.75,1.714,14.527,14.527,0,0,1,.5,1.728,12.346,12.346,0,0,1,.278,3.753,9.372,9.372,0,0,1-4.186,7.165,13.144,13.144,0,0,1-3.642,1.661l-.091.027a3.377,3.377,0,0,1-1.9-6.482,3.709,3.709,0,0,1,.488-.1,4.775,4.775,0,0,0,3.17-1.43,5.269,5.269,0,0,0,.932-3.784,9.561,9.561,0,0,0-.159-1.182,8.714,8.714,0,0,0-.284-1.083,4.123,4.123,0,0,0-1.064-1.637,5.8,5.8,0,0,0-1.9-1.162,8.925,8.925,0,0,0-2.343-.545l-.172-.015a1.679,1.679,0,0,1,.034-3.347" transform="translate(-1588.165 -858.896)" fill="#371a45"/>
        <path id="Path_10394" data-name="Path 10394" d="M2043.233,970.958a22.227,22.227,0,0,0-1.533,6.35c-.138,2.07.313,3.827,1.42,4.864a5.878,5.878,0,0,0,2.122,1.347c1.077.452,2.162.887,3.262,1.316a63.487,63.487,0,0,1,6.862,2.922c.577.3,1.19.676,1.715,1.008.466.294.953.589,1.444.873.983.574,1.992,1.11,3,1.632a40.714,40.714,0,0,0,6.154,2.583,12.393,12.393,0,0,0,5.646.706,2.835,2.835,0,0,0,1.626-.857,4.909,4.909,0,0,0,.947-2.055l.017-.076a2.5,2.5,0,0,1,4.906.991,9.541,9.541,0,0,1-1.867,4.466,8.109,8.109,0,0,1-4.426,2.729,12.627,12.627,0,0,1-4.5.209,23.561,23.561,0,0,1-3.956-.861,42.678,42.678,0,0,1-7.05-2.947c-1.116-.57-2.2-1.194-3.269-1.841-.537-.324-1.066-.657-1.6-1.012-.481-.315-.883-.572-1.359-.835-1.84-1.026-4.019-1.915-6.238-2.874-1.109-.479-2.225-.973-3.334-1.486a10.7,10.7,0,0,1-3.685-2.758,8.87,8.87,0,0,1-1.956-4.319,11.808,11.808,0,0,1,.167-4.317,18.482,18.482,0,0,1,3.349-7.064,1.256,1.256,0,0,1,2.178,1.2Z" transform="translate(-1629.404 -774.665)" fill="#371a45"/>
        <path id="Path_10395" data-name="Path 10395" d="M1114.366,128.207c47.271,97.963,185.356,37.053,150.229-61.651-46.014-101.43-188.69-38.334-150.229,61.651" transform="translate(-885.985 -12.009)" fill="#fff"/>
        <path id="Path_10396" data-name="Path 10396" d="M1114.366,128.207c47.271,97.963,185.356,37.053,150.229-61.651-46.014-101.43-188.69-38.334-150.229,61.651" transform="translate(-885.985 -12.009)" fill="#fff"/>
        <path id="Path_10397" data-name="Path 10397" d="M1114.366,128.207c47.271,97.963,185.356,37.053,150.229-61.651-46.014-101.43-188.69-38.334-150.229,61.651" transform="translate(-885.985 -12.009)" fill="#fff"/>
        <path id="Path_10398" data-name="Path 10398" d="M1179.15,171.459a79.107,79.107,0,0,1-25.875-4.3c-21.118-7.3-38.193-23.413-49.38-46.6l-.069-.162c-9.182-23.871-8.861-47.368.93-67.952,8.735-18.365,24.376-33.032,44.043-41.3,19.627-8.252,40.886-9.081,59.861-2.33,21.394,7.61,38.452,24.3,49.328,48.279l.068.167c18.769,52.741-10.575,92.658-45.781,107.426a85.689,85.689,0,0,1-33.123,6.772m-71.376-52.68c23.63,48.876,68.674,56.3,102.851,41.965,33.392-14.007,61.217-51.882,43.44-101.962-22.88-50.329-69.742-57.937-103.617-43.694-34.21,14.383-62.141,52.962-42.675,103.691" transform="translate(-877.434 -3.432)" fill="#371a45"/>
        <g id="Group_5375" data-name="Group 5375" transform="translate(221.921 63.662)" opacity="0.35">
          <g id="Group_5374" data-name="Group 5374">
            <g id="Group_5373" data-name="Group 5373" clip-path="url(#clip-path-33)">
              <path id="Path_10399" data-name="Path 10399" d="M1114.548,369.776c39.359,85.326,160.593,52.4,155.686-37.816-7.858,28.391-17.91,28.681-34.373,42.053-50.8,44.16-120.895,2.348-125.087-56.77a81.507,81.507,0,0,0,3.775,52.533" transform="translate(-1108.087 -317.242)" fill="#371a45"/>
            </g>
          </g>
        </g>
        <path id="Path_10400" data-name="Path 10400" d="M1175.711,168.893a79.962,79.962,0,0,1-26.154-4.35c-21.339-7.377-38.585-23.641-49.874-47.035l-.1-.227c-9.269-24.1-8.939-47.829.956-68.632,8.826-18.556,24.624-33.374,44.486-41.724,19.825-8.335,41.305-9.169,60.481-2.347,21.619,7.69,38.848,24.542,49.822,48.734l.095.234c8.477,23.822,7.707,47.185-2.23,67.563a85.342,85.342,0,0,1-44.029,40.946,86.55,86.55,0,0,1-33.455,6.839m-70.586-53.884c23.39,48.339,67.935,55.69,101.731,41.513,33.023-13.852,60.538-51.31,42.975-100.845C1227.182,5.9,1180.837-1.63,1147.343,12.454c-33.831,14.224-61.452,52.379-42.218,102.555" transform="translate(-873.996 -0.004)" fill="#293856"/>
        <path id="Path_10401" data-name="Path 10401" d="M1175.711,168.893a79.962,79.962,0,0,1-26.154-4.35c-21.339-7.377-38.585-23.641-49.874-47.035l-.1-.227c-9.269-24.1-8.939-47.829.956-68.632,8.826-18.556,24.624-33.374,44.486-41.724,19.825-8.335,41.305-9.169,60.481-2.347,21.619,7.69,38.848,24.542,49.822,48.734l.095.234c8.477,23.822,7.707,47.185-2.23,67.563a85.342,85.342,0,0,1-44.029,40.946,86.55,86.55,0,0,1-33.455,6.839m-70.586-53.884c23.39,48.339,67.935,55.69,101.731,41.513,33.023-13.852,60.538-51.31,42.975-100.845C1227.182,5.9,1180.837-1.63,1147.343,12.454c-33.831,14.224-61.452,52.379-42.218,102.555" transform="translate(-873.996 -0.004)" fill="#371a45"/>
        <path id="Path_10402" data-name="Path 10402" d="M1125.158,209.278c74.355,59.8,157.033-25.254,103.323-89.286-64.508-68.06-159.13,9.8-103.323,89.286" transform="translate(-886.279 -75.086)" fill="#371a45"/>
        <path id="Path_10403" data-name="Path 10403" d="M1120.85,374c-12.66,85.41,108.29,110.163,132.655,33.98-45.7,40.352-115.749,10.679-132.655-33.98" transform="translate(-895.633 -298.949)" fill="#21102b"/>
        <path id="Path_10404" data-name="Path 10404" d="M1172.579,199.6a68.2,68.2,0,0,1-26.606-5.32c-17.387-7.356-31.438-22.013-40.634-42.387l-.006-.014c-14.965-33.832-4.338-83.921,35.332-104.562l.314-.131c20.863-6.674,44.6-3.9,65.125,7.615,20.453,11.475,35.157,30.18,40.341,51.32,9.736,44.629-18.069,78.876-50.563,89.664a73.985,73.985,0,0,1-23.3,3.814m-63.587-49.352c20.333,45.035,58.837,50.624,85.63,41.728,30.792-10.224,57.141-42.686,47.921-84.947-4.908-20.014-18.907-37.792-38.4-48.725-19.505-10.943-42.015-13.616-61.787-7.346-37.544,19.648-47.571,67.167-33.367,99.29" transform="translate(-878.783 -34.863)" fill="#371a45"/>
        <path id="Path_10405" data-name="Path 10405" d="M1165.992,220.652c-18.721,0-37.533-7.2-54.661-20.979l-.331-.266-.244-.347c-13.529-19.268-19.385-39.892-16.934-59.642a68.886,68.886,0,0,1,24.734-44.961,67.388,67.388,0,0,1,47.449-15.307c19.057,1.293,37.276,10.572,52.69,26.835l.12.136c12.674,15.109,18.82,32.377,17.778,49.939a67.574,67.574,0,0,1-19.386,43.03,71.292,71.292,0,0,1-47.111,21.448q-2.051.116-4.105.116m-50.585-25.39c37.729,30.115,76.141,21.546,97.522-.365,19.4-19.883,27.337-53.821,1.364-84.849-31.857-33.553-69.129-29.684-91.945-10.953-23.444,19.245-34.635,56.414-6.941,96.167" transform="translate(-874.324 -63.143)" fill="#371a45"/>
        <path id="Path_10406" data-name="Path 10406" d="M1786.516,439.087c-10.551,36.883-48.33,29.391-41.8-6.837,9.642-39.063,50.027-31.06,41.8,6.837" transform="translate(-1394.694 -324.959)" fill="#fff"/>
        <g id="Group_5378" data-name="Group 5378" transform="translate(349.203 90.292)" opacity="0.35">
          <g id="Group_5377" data-name="Group 5377">
            <g id="Group_5376" data-name="Group 5376" clip-path="url(#clip-path-34)">
              <path id="Path_10407" data-name="Path 10407" d="M1758.523,497.82c-11.341-2.162-17.775-17.249-13.632-32.766,4.964,17.512,25.979-7.458,28.247-15.118,28.344,11.366,6.13,52.3-14.615,47.884" transform="translate(-1743.628 -449.937)" fill="#371a45"/>
            </g>
          </g>
        </g>
        <path id="Path_10408" data-name="Path 10408" d="M1750.1,454.437a19.355,19.355,0,0,1-4.4-.5c-10.552-2.464-19.575-13.97-15.943-34.12l.04-.187c5.351-21.682,20.147-30.233,31.994-27.475,10.718,2.5,20.181,14.722,15.634,35.669l-.048.189c-5.345,18.685-17.095,26.425-27.274,26.425m-14.474-33.46c-2.891,16.214,3.65,25.3,11.428,27.119,8.28,1.934,19.467-4.023,24.54-21.642,3.64-16.917-3.226-26.611-11.161-28.458-8.978-2.091-20.37,5.132-24.807,22.981m38.871,6.21h0Z" transform="translate(-1382.676 -313.059)" fill="#371a45"/>
        <path id="Path_10409" data-name="Path 10409" d="M1833.227,476.315c-8.582,29.88-36.978,24.747-31.7-4.556,7.753-32.047,38.607-26.434,31.7,4.556" transform="translate(-1440.209 -359.891)" fill="#fff"/>
        <path id="Path_10410" data-name="Path 10410" d="M1803.983,488.916a13.956,13.956,0,0,1-3.179-.362c-7.96-1.862-14.685-11-11.765-27.206l.031-.146c4.349-17.972,15.935-25.2,25.122-23.06,8.178,1.908,15.251,11.72,11.455,28.754l-.037.147c-4.437,15.447-13.734,21.872-21.626,21.872m-10.031-26.6c-2.3,12.921,2.347,20.036,7.991,21.356,6.16,1.443,14.679-3.559,18.833-17.939,3.019-13.653-1.88-21.338-7.721-22.7-6.782-1.583-15.511,4.535-19.1,19.283m29.251,4.038h0Z" transform="translate(-1430.186 -349.927)" fill="#371a45"/>
        <g id="Group_5381" data-name="Group 5381" transform="translate(324.909 75.163)" opacity="0.5">
          <g id="Group_5380" data-name="Group 5380">
            <g id="Group_5379" data-name="Group 5379" clip-path="url(#clip-path-35)">
              <path id="Path_10411" data-name="Path 10411" d="M1642.317,389.814c-6.251,14.539-22.852,7.676-19.562-5.8,5.107-16.767,24.8-8.995,19.563,5.8" transform="translate(-1622.328 -374.547)" fill="#fff"/>
            </g>
          </g>
        </g>
        <g id="Group_5384" data-name="Group 5384" transform="translate(324.507 106.456)" opacity="0.5">
          <g id="Group_5383" data-name="Group 5383">
            <g id="Group_5382" data-name="Group 5382" clip-path="url(#clip-path-36)">
              <path id="Path_10412" data-name="Path 10412" d="M1628.42,536.963c-2.711,5.422-10.029,2.561-7.628-3.6,2.711-5.421,10.029-2.561,7.628,3.6" transform="translate(-1620.316 -530.491)" fill="#fff"/>
            </g>
          </g>
        </g>
        <g id="Group_5387" data-name="Group 5387" transform="translate(234.961 29.101)" opacity="0.5">
          <g id="Group_5386" data-name="Group 5386">
            <g id="Group_5385" data-name="Group 5385" clip-path="url(#clip-path-37)">
              <path id="Path_10413" data-name="Path 10413" d="M1173.277,198.829c-2.62-60.432,59.566-60.461,76.563-45.579-39.582-2.205-59.98,19.9-76.563,45.579" transform="translate(-1173.197 -145.022)" fill="#fff"/>
            </g>
          </g>
        </g>
        <g id="Group_5390" data-name="Group 5390" transform="translate(358.918 105.923)" opacity="0.35">
          <g id="Group_5389" data-name="Group 5389">
            <g id="Group_5388" data-name="Group 5388" clip-path="url(#clip-path-38)">
              <path id="Path_10414" data-name="Path 10414" d="M1792.141,540.49a27.608,27.608,0,0,1,3.2-12.665c2.848,21.3,24.689,14.8,31.34.613.755,31.071-31.966,41.437-34.537,12.052" transform="translate(-1792.141 -527.826)" fill="#371a45"/>
            </g>
          </g>
        </g>
        <path id="Path_10415" data-name="Path 10415" d="M1359.471,1962.923c-1.215,2.452-4.514,3.289-7.366,1.87s-4.183-4.56-2.968-7.012,4.512-3.287,7.367-1.866,4.181,4.558,2.967,7.008" transform="translate(-1078.581 -1562.855)" fill="#371a45"/>
      </g>
    </g>
  </g>
</svg>
