<svg id="advantages_project_base_learning2" xmlns="http://www.w3.org/2000/svg" xmlns:xlink="http://www.w3.org/1999/xlink" width="410" height="550" viewBox="0 0 410 550">
  <defs>
    <clipPath id="clip-path">
      <rect id="Rectangle_7977" data-name="Rectangle 7977" width="410" height="550" fill="none"/>
    </clipPath>
    <clipPath id="clip-path-2">
      <rect id="Rectangle_7976" data-name="Rectangle 7976" width="409.999" height="549.999" fill="none"/>
    </clipPath>
    <clipPath id="clip-path-3">
      <rect id="Rectangle_7944" data-name="Rectangle 7944" width="337.96" height="52.309" fill="rgba(255,255,255,0.5)"/>
    </clipPath>
    <clipPath id="clip-path-4">
      <rect id="Rectangle_7945" data-name="Rectangle 7945" width="96.897" height="69.599" fill="none"/>
    </clipPath>
    <clipPath id="clip-path-5">
      <rect id="Rectangle_7946" data-name="Rectangle 7946" width="44.517" height="39.083" fill="none"/>
    </clipPath>
    <clipPath id="clip-path-6">
      <rect id="Rectangle_7947" data-name="Rectangle 7947" width="96.898" height="69.599" fill="none"/>
    </clipPath>
    <clipPath id="clip-path-7">
      <rect id="Rectangle_7948" data-name="Rectangle 7948" width="44.516" height="39.083" fill="none"/>
    </clipPath>
    <clipPath id="clip-path-8">
      <rect id="Rectangle_7949" data-name="Rectangle 7949" width="300.967" height="229.904" fill="none"/>
    </clipPath>
    <clipPath id="clip-path-9">
      <rect id="Rectangle_7950" data-name="Rectangle 7950" width="270.867" height="181.288" fill="none"/>
    </clipPath>
    <clipPath id="clip-path-10">
      <rect id="Rectangle_7951" data-name="Rectangle 7951" width="56.588" height="54.711" fill="none"/>
    </clipPath>
    <clipPath id="clip-path-11">
      <rect id="Rectangle_7952" data-name="Rectangle 7952" width="163.516" height="110.322" fill="none"/>
    </clipPath>
    <clipPath id="clip-path-12">
      <rect id="Rectangle_7953" data-name="Rectangle 7953" width="89.968" height="12.991" fill="none"/>
    </clipPath>
    <clipPath id="clip-path-13">
      <rect id="Rectangle_7954" data-name="Rectangle 7954" width="95.666" height="123.973" fill="none"/>
    </clipPath>
    <clipPath id="clip-path-14">
      <rect id="Rectangle_7955" data-name="Rectangle 7955" width="95.657" height="123.975" fill="none"/>
    </clipPath>
    <clipPath id="clip-path-15">
      <rect id="Rectangle_7956" data-name="Rectangle 7956" width="184.403" height="93.175" fill="none"/>
    </clipPath>
    <clipPath id="clip-path-16">
      <rect id="Rectangle_7957" data-name="Rectangle 7957" width="53.523" height="25.724" fill="none"/>
    </clipPath>
    <clipPath id="clip-path-17">
      <rect id="Rectangle_7958" data-name="Rectangle 7958" width="53.528" height="20.476" fill="none"/>
    </clipPath>
    <clipPath id="clip-path-19">
      <rect id="Rectangle_7960" data-name="Rectangle 7960" width="53.536" height="20.537" fill="none"/>
    </clipPath>
    <clipPath id="clip-path-20">
      <rect id="Rectangle_7961" data-name="Rectangle 7961" width="109.75" height="23.845" fill="none"/>
    </clipPath>
    <clipPath id="clip-path-21">
      <rect id="Rectangle_7962" data-name="Rectangle 7962" width="109.748" height="74.297" fill="none"/>
    </clipPath>
    <clipPath id="clip-path-22">
      <rect id="Rectangle_7963" data-name="Rectangle 7963" width="42.567" height="53.081" fill="none"/>
    </clipPath>
    <clipPath id="clip-path-23">
      <rect id="Rectangle_7964" data-name="Rectangle 7964" width="62.226" height="69.291" fill="none"/>
    </clipPath>
    <clipPath id="clip-path-24">
      <rect id="Rectangle_7965" data-name="Rectangle 7965" width="66.95" height="37.32" fill="none"/>
    </clipPath>
    <clipPath id="clip-path-25">
      <rect id="Rectangle_7966" data-name="Rectangle 7966" width="66.949" height="37.32" fill="none"/>
    </clipPath>
    <clipPath id="clip-path-26">
      <rect id="Rectangle_7967" data-name="Rectangle 7967" width="19.468" height="15.597" fill="none"/>
    </clipPath>
    <clipPath id="clip-path-27">
      <rect id="Rectangle_7968" data-name="Rectangle 7968" width="13.431" height="21.07" fill="none"/>
    </clipPath>
    <clipPath id="clip-path-28">
      <rect id="Rectangle_7969" data-name="Rectangle 7969" width="27.663" height="38.661" fill="none"/>
    </clipPath>
    <clipPath id="clip-path-29">
      <rect id="Rectangle_7970" data-name="Rectangle 7970" width="30.395" height="33.765" fill="none"/>
    </clipPath>
    <clipPath id="clip-path-30">
      <rect id="Rectangle_7971" data-name="Rectangle 7971" width="239.15" height="136.8" fill="none"/>
    </clipPath>
    <clipPath id="clip-path-31">
      <rect id="Rectangle_7972" data-name="Rectangle 7972" width="31.024" height="42.144" fill="none"/>
    </clipPath>
    <clipPath id="clip-path-32">
      <rect id="Rectangle_7973" data-name="Rectangle 7973" width="16.932" height="19.24" fill="none"/>
    </clipPath>
    <clipPath id="clip-path-33">
      <rect id="Rectangle_7974" data-name="Rectangle 7974" width="167.086" height="160.485" fill="none"/>
    </clipPath>
    <clipPath id="clip-path-34">
      <rect id="Rectangle_7975" data-name="Rectangle 7975" width="97.204" height="109.804" fill="none"/>
    </clipPath>
  </defs>
  <g id="Group_5656" data-name="Group 5656" clip-path="url(#clip-path)">
    <g id="Group_5655" data-name="Group 5655" transform="translate(0 0.001)">
      <g id="Group_5654" data-name="Group 5654" clip-path="url(#clip-path-2)">
        <g id="Group_5560" data-name="Group 5560" transform="translate(2.425 497.691)" opacity="0.3">
          <g id="Group_5559" data-name="Group 5559">
            <g id="Group_5558" data-name="Group 5558" clip-path="url(#clip-path-3)">
              <path id="Path_10562" data-name="Path 10562" d="M350.736,2642.644c0,14.444-75.655,26.154-168.981,26.154s-168.981-11.71-168.981-26.154,75.655-26.155,168.981-26.155,168.981,11.71,168.981,26.155" transform="translate(-12.775 -2616.49)" fill="rgba(255,255,255,0.5)"/>
            </g>
          </g>
        </g>
        <path id="Path_10563" data-name="Path 10563" d="M210.418,964.943c-1.656-14.607-18.241-51.937-34.1-69.606,0,0,51.577,24.69,96.91,24.69" transform="translate(-142.844 -725.032)" fill="#f92323"/>
        <g id="Group_5563" data-name="Group 5563" transform="translate(33.487 170.315)" opacity="0.7">
          <g id="Group_5562" data-name="Group 5562">
            <g id="Group_5561" data-name="Group 5561" clip-path="url(#clip-path-4)">
              <path id="Path_10564" data-name="Path 10564" d="M260.489,929.209c-35.682-5.458-65.406-21.868-67.076-20.459s16.1,33.316,19.38,52.92l-2.338,3.32c-1.656-14.614-18.228-51.928-34.084-69.6.8.379,51.917,24.679,96.9,24.679Z" transform="translate(-176.371 -895.391)" fill="#fff"/>
            </g>
          </g>
        </g>
        <g id="Group_5566" data-name="Group 5566" transform="translate(62.334 192.602)" opacity="0.35">
          <g id="Group_5565" data-name="Group 5565">
            <g id="Group_5564" data-name="Group 5564" clip-path="url(#clip-path-5)">
              <path id="Path_10565" data-name="Path 10565" d="M372.825,1031.78l-27.779,19.861c-6.272-12.3-17.637-35.51-16.682-38.659s12.575,12.082,44.461,18.8" transform="translate(-328.308 -1012.559)" fill="#371a45"/>
            </g>
          </g>
        </g>
        <path id="Path_10566" data-name="Path 10566" d="M197.056,954.725a3.133,3.133,0,0,1-3.107-2.783c-1.539-13.573-17.41-50.139-33.315-67.863a3.134,3.134,0,0,1,3.677-4.927c.51.244,51.482,24.384,95.562,24.384a3.136,3.136,0,0,1,0,6.273c-33.153,0-69.008-12.72-86.866-20.024,13.877,20.05,25.754,49.027,27.162,61.449a3.134,3.134,0,0,1-2.757,3.47,3.067,3.067,0,0,1-.357.021" transform="translate(-129.485 -711.679)" fill="#371a45"/>
        <path id="Path_10567" data-name="Path 10567" d="M1136.638,964.943c1.656-14.607,18.241-51.937,34.1-69.606,0,0-51.577,24.69-96.91,24.69" transform="translate(-869.942 -725.032)" fill="#f92323"/>
        <g id="Group_5569" data-name="Group 5569" transform="translate(203.885 170.315)" opacity="0.7">
          <g id="Group_5568" data-name="Group 5568">
            <g id="Group_5567" data-name="Group 5567" clip-path="url(#clip-path-6)">
              <path id="Path_10568" data-name="Path 10568" d="M1086.621,929.209c35.682-5.458,65.406-21.868,67.076-20.459s-16.1,33.316-19.38,52.92l2.338,3.32c1.656-14.614,18.228-51.928,34.084-69.6-.8.379-51.917,24.679-96.9,24.679Z" transform="translate(-1073.842 -895.391)" fill="#fff"/>
            </g>
          </g>
        </g>
        <g id="Group_5572" data-name="Group 5572" transform="translate(227.419 192.602)" opacity="0.35">
          <g id="Group_5571" data-name="Group 5571">
            <g id="Group_5570" data-name="Group 5570" clip-path="url(#clip-path-7)">
              <path id="Path_10569" data-name="Path 10569" d="M1197.786,1031.78l27.779,19.861c6.272-12.3,17.637-35.51,16.682-38.659s-12.576,12.082-44.461,18.8" transform="translate(-1197.787 -1012.559)" fill="#371a45"/>
            </g>
          </g>
        </g>
        <path id="Path_10570" data-name="Path 10570" d="M1123.283,954.725a3.067,3.067,0,0,1-.357-.021,3.134,3.134,0,0,1-2.757-3.47c1.409-12.423,13.287-41.4,27.162-61.45-17.857,7.3-53.712,20.024-86.865,20.024a3.136,3.136,0,0,1,0-6.273c44.079,0,95.052-24.14,95.561-24.384a3.134,3.134,0,0,1,3.677,4.927c-15.9,17.722-31.775,54.289-33.315,67.863a3.133,3.133,0,0,1-3.107,2.782" transform="translate(-856.583 -711.679)" fill="#371a45"/>
        <path id="Path_10571" data-name="Path 10571" d="M291.708,1140.384c-37.76-.07-75.244-9.142-75.244-9.142l-1.517-.006s-37.525,8.682-75.285,8.482c0,0-19.307,122.848-74.972,219.346,0,0,51.885,12.945,107.278-6.2,0,0,19.559,13.169,43.191,13.253s43.252-12.944,43.252-12.944c55.3,19.542,107.248,6.969,107.248,6.969-55.216-96.895-73.952-219.759-73.952-219.759" transform="translate(-52.408 -916.061)" fill="#ff2261"/>
        <path id="Path_10572" data-name="Path 10572" d="M365.659,1360.138a142.788,142.788,0,0,1-15.008,2.476c-19.371,2.316-55.044,3.7-92.239-9.442,0,0-19.615,13.03-43.249,12.946s-43.19-13.258-43.19-13.258c-37.2,12.853-72.81,11.245-92.189,8.793a142.245,142.245,0,0,1-15.092-2.594c55.667-96.494,74.97-219.343,74.97-219.343,37.758.2,75.29-8.482,75.29-8.482l1.513.008s37.481,9.072,75.248,9.139c0,0,18.732,122.866,73.945,219.755" transform="translate(-52.41 -916.06)" fill="#f92323"/>
        <g id="Group_5575" data-name="Group 5575" transform="translate(12.283 215.176)" opacity="0.7">
          <g id="Group_5574" data-name="Group 5574">
            <g id="Group_5573" data-name="Group 5573" clip-path="url(#clip-path-8)">
              <path id="Path_10573" data-name="Path 10573" d="M365.659,1360.138s-1.757.429-4.978,1c-49.722-80.026-69.816-175.383-69.816-175.383-37.347-.059-74.416-7.724-74.416-7.724l-1.5-.008s-37.111,7.336-74.449,7.168c0,0-19.842,95.34-69.934,175.063-3.792-.674-5.877-1.2-5.877-1.2,55.667-96.494,74.97-219.343,74.97-219.343,37.758.2,75.29-8.482,75.29-8.482l1.513.008s37.481,9.072,75.248,9.139c0,0,18.732,122.866,73.945,219.755" transform="translate(-64.693 -1131.236)" fill="#fff"/>
            </g>
          </g>
        </g>
        <g id="Group_5578" data-name="Group 5578" transform="translate(27.374 268.771)" opacity="0.35">
          <g id="Group_5577" data-name="Group 5577">
            <g id="Group_5576" data-name="Group 5576" clip-path="url(#clip-path-9)">
              <path id="Path_10574" data-name="Path 10574" d="M415.045,1590.784c-19.371,2.316-55.044,3.7-92.24-9.442,0,0-19.615,13.03-43.248,12.946s-43.19-13.258-43.19-13.258c-37.2,12.853-72.81,11.245-92.189,8.794,49.84-75.116,67.118-170.237,67.118-170.237,34.118.168,68.018-6.587,68.018-6.587h1.379s33.866,7.092,67.984,7.159c0,0,16.857,95.154,66.369,170.624" transform="translate(-144.178 -1413)" fill="#371a45"/>
            </g>
          </g>
        </g>
        <path id="Path_10575" data-name="Path 10575" d="M194.952,1355.9h-.244c-21.023-.075-38.673-9.92-43.59-12.936-55.074,18.525-105.487,6.324-107.625,5.791l-4.034-1.006,2.079-3.606c54.723-94.862,74.4-217.042,74.59-218.265l.419-2.662,2.69.014c36.922.161,74.192-8.316,74.564-8.4l.353-.082,2.245.007.358.086c.371.09,37.58,8.986,74.515,9.054l2.684.005.405,2.658c.186,1.223,19.294,123.423,73.576,218.678l2.065,3.624-4.049.98c-2.139.518-52.606,12.359-107.6-6.562-4.915,2.972-22.494,12.624-43.408,12.624m-42.971-19.864,1.294.871c.185.125,19.1,12.64,41.455,12.72h.217c22.259,0,41.109-12.3,41.3-12.424l1.3-.858,1.47.517c45,15.9,88.147,10.1,101.361,7.707-48.859-87.821-68.688-196.218-71.768-214.422-34.813-.446-69.047-8.211-72.952-9.123l-.8,0c-3.883.866-38.158,8.287-72.983,8.48-3.169,18.221-23.5,126.557-72.765,214.019,13.2,2.484,56.379,8.589,101.4-6.974Z" transform="translate(-31.967 -902.706)" fill="#371a45"/>
        <g id="Group_5581" data-name="Group 5581" transform="translate(351.518 145.028)" opacity="0.6">
          <g id="Group_5580" data-name="Group 5580">
            <g id="Group_5579" data-name="Group 5579" clip-path="url(#clip-path-10)">
              <path id="Path_10576" data-name="Path 10576" d="M1906.57,800.356a37.139,37.139,0,0,1-15.089,16.8c4.454-7.041,7.431-15.353,5.409-23.811-3.6-15.042-28.093-21.025-45.489-24.474,2.534-1.3,10.582-5.432,11.443-5.81,9.978-4.349,53.491,14.967,43.725,37.293" transform="translate(-1851.401 -762.447)" fill="#fff"/>
            </g>
          </g>
        </g>
        <path id="Path_10577" data-name="Path 10577" d="M1336.844,805.322c-.19.425-.38.851-.59,1.26-.157.332-.312.654-.485.96-.132.271-.271.529-.421.785-.235.426-.478.839-.719,1.241-.212.33-.414.663-.635.981-.37.573-.757,1.12-1.163,1.65-.215.3-.442.59-.665.872-.307.4-.63.769-.953,1.141s-.628.713-.956,1.061-.654.685-.991,1.019c-.817.8-1.657,1.566-2.52,2.28-.251.209-.5.419-.761.614-.51.405-1.026.787-1.551,1.166-.256.185-.523.368-.791.551-.466.315-.943.627-1.417.929l-.471.291c-.967.588-1.948,1.139-2.916,1.637-.231.124-.472.246-.7.36-.115.062-.241.122-.354.173,0,0-.011,0,0,.011-.074.027-.139.068-.213.1a53.273,53.273,0,0,1-5.818,2.414c-.258.1-.5.183-.755.258-1.5.507-2.913.92-4.224,1.258-.429.111-.858.222-1.271.314-.44.108-.866.208-1.266.293q-.513.113-.987.2c-1.7.335-3.019.514-3.815.616-.113.007-.206.018-.3.03-.345.041-.538.051-.538.051l-62.072,39.542-76.244,48.562-10.629-73.117s25.787-14,55.541-30.059c11.734-6.329,24.081-12.983,35.713-19.213,5.678-3.053,11.186-6,16.374-8.777.575-.3,1.141-.614,1.7-.916,6.531-3.489,12.493-6.653,17.565-9.323.614-.325,1.2-.644,1.778-.944,3.423-1.8,6.385-3.344,8.767-4.57.291-.144.574-.3.853-.436l.026-.016q.685-.341,1.3-.666c.711-.357,1.344-.666,1.889-.94.215-.106.42-.214.609-.3.569-.279,1.021-.485,1.346-.632,9.978-4.349,53.491,14.967,43.726,37.293" transform="translate(-931.374 -621.44)" fill="#fff"/>
        <path id="Path_10578" data-name="Path 10578" d="M1668.553,805.322c-.19.425-.381.851-.59,1.26-.157.332-.312.654-.485.96-.132.271-.271.529-.421.785-.235.426-.478.839-.719,1.241-.212.33-.414.663-.635.981-.371.573-.757,1.12-1.163,1.65-.215.3-.442.59-.665.872-.307.4-.63.769-.953,1.141s-.628.713-.956,1.061-.654.685-.991,1.019c-.817.8-1.657,1.566-2.52,2.28-.251.209-.5.419-.761.614-.51.405-1.026.787-1.551,1.166-.256.185-.523.368-.791.551-.469.326-.943.627-1.417.929l-.472.291c-.967.588-1.948,1.139-2.916,1.637-.231.124-.472.246-.7.36-.115.062-.241.122-.354.173a2.309,2.309,0,0,1-.215.106,53.263,53.263,0,0,1-5.818,2.414c-.258.1-.5.183-.754.258-1.5.507-2.913.92-4.224,1.258-.442.119-.868.219-1.271.314-.439.108-.866.208-1.266.293q-.513.113-.987.2c-1.7.335-3.019.514-3.815.616-.113.007-.206.018-.3.03-.345.041-.538.051-.538.051l-62.072,39.542a58.068,58.068,0,0,1-8.536-23.017c-3.942-27.582,12.916-50.81,12.916-50.81,5.678-3.053,11.186-6,16.374-8.777.574-.3,1.141-.614,1.7-.916,6.53-3.489,12.492-6.653,17.565-9.323.614-.325,1.2-.644,1.778-.944,3.423-1.8,6.385-3.344,8.767-4.57.291-.144.575-.3.853-.436l.026-.016q.685-.341,1.3-.666c.711-.357,1.343-.666,1.889-.94.215-.106.42-.214.609-.3.569-.279,1.021-.485,1.347-.632,9.978-4.349,53.491,14.967,43.726,37.293" transform="translate(-1263.083 -621.44)" fill="#fff"/>
        <path id="Path_10579" data-name="Path 10579" d="M1146.924,907.762a3.133,3.133,0,0,1-3.1-2.685L1133.2,831.96a3.137,3.137,0,0,1,1.608-3.209c5.455-2.961,133.719-72.56,143.707-76.913,8.364-3.648,29.836,4.689,41.024,15.927,8.052,8.087,10.473,17.144,6.818,25.5-9.569,21.879-35.082,25.752-40.064,26.305l-137.685,87.7a3.125,3.125,0,0,1-1.68.49m-7.216-74.539,9.617,66.157,134.236-85.5A3.128,3.128,0,0,1,1285,813.4c.262-.021,26.74-2.353,35.616-22.647,2.625-6,.769-12.242-5.515-18.554-10.988-11.036-29.6-16.562-34.094-14.6-9.095,3.964-124.878,66.727-141.3,75.634" transform="translate(-918.015 -608.126)" fill="#371a45"/>
        <path id="Path_10580" data-name="Path 10580" d="M1798.628,901.9a45.771,45.771,0,0,1,12.986,3.2,39.615,39.615,0,0,1,6.118,3.069,23.248,23.248,0,0,1,5.644,4.631,11.934,11.934,0,0,1,2.209,3.572,8.919,8.919,0,0,1,.528,4.772c-.095.4-.2.794-.311,1.186a9.514,9.514,0,0,1-.371.977,9.129,9.129,0,0,1-.43.924,8.246,8.246,0,0,1-.51.91,10.98,10.98,0,0,1-2.956,3.213,10.53,10.53,0,0,1-4.029,1.733,14.115,14.115,0,0,1-4.05.2,19.387,19.387,0,0,1-3.721-.705c-.594-.174-1.179-.362-1.758-.574a19.281,19.281,0,0,1-1.79-.757l4.089-2.5c0,.646-.029,1.089-.068,1.617-.039.508-.091,1.009-.154,1.508a28.752,28.752,0,0,1-.535,2.974,25.021,25.021,0,0,1-2.1,5.79,18.791,18.791,0,0,1-3.854,5.117,16.92,16.92,0,0,1-5.519,3.437,19.212,19.212,0,0,1-6.162,1.225,23.04,23.04,0,0,1-5.962-.506c-.943-.244-1.89-.475-2.8-.788a28.614,28.614,0,0,1-2.666-1.067,26.539,26.539,0,0,1-4.894-2.9.476.476,0,0,1,.313-.857h.01c3.748.259,7.258.713,10.646.8,3.358.033,6.608-.163,9.31-1.384a13.248,13.248,0,0,0,6.314-5.9,19.918,19.918,0,0,0,1.751-4.382,23.051,23.051,0,0,0,.517-2.373c.067-.4.122-.8.162-1.2.042-.377.075-.841.084-1.1l0-.117a2.792,2.792,0,0,1,2.88-2.7,2.837,2.837,0,0,1,1.206.319c.287.151.78.375,1.194.54.435.175.879.33,1.326.463a13.9,13.9,0,0,0,2.657.538,5.959,5.959,0,0,0,4.312-.973,5.066,5.066,0,0,0,1.344-1.614,3.6,3.6,0,0,0,.262-.523,8.143,8.143,0,0,0,.415-1.116,2.818,2.818,0,0,1,.088-.394,3.412,3.412,0,0,0-.287-1.61,7.41,7.41,0,0,0-1.238-1.918,19.417,19.417,0,0,0-1.93-1.943c-.739-.618-1.5-1.246-2.314-1.84-1.629-1.184-3.373-2.314-5.165-3.414-3.582-2.216-7.334-4.337-11.076-6.694l-.013-.008a.469.469,0,0,1,.289-.864" transform="translate(-1438.293 -730.346)" fill="#371a45"/>
        <path id="Path_10581" data-name="Path 10581" d="M1957.746,861.967c.62,2.472,1.137,4.792,1.748,6.981.288,1.1.653,2.146.909,3.181a18.582,18.582,0,0,1,.592,3.124l.015.3a2.781,2.781,0,0,1-5.169,1.558,10.356,10.356,0,0,1-1.283-3.856,15.436,15.436,0,0,1,.008-3.992,20.891,20.891,0,0,1,.8-3.847,15.686,15.686,0,0,1,1.614-3.6.42.42,0,0,1,.763.122Z" transform="translate(-1583.352 -697.732)" fill="#371a45"/>
        <path id="Path_10582" data-name="Path 10582" d="M1558.285,981.49a2.345,2.345,0,0,1-1.988-1.1c-9.71-15.416-12.011-33.543-6.652-52.421a83.056,83.056,0,0,1,11.12-24.049,2.349,2.349,0,0,1,3.8,2.764c-.262.363-26.01,36.725-4.3,71.2a2.351,2.351,0,0,1-1.984,3.608" transform="translate(-1253.134 -731.2)" fill="#371a45"/>
        <g id="Group_5584" data-name="Group 5584" transform="translate(224.3 186.178)" opacity="0.35">
          <g id="Group_5583" data-name="Group 5583">
            <g id="Group_5582" data-name="Group 5582" clip-path="url(#clip-path-11)">
              <path id="Path_10583" data-name="Path 10583" d="M1343.47,995.462s-.011,0,0,.011c-.074.027-.139.068-.213.1a53.287,53.287,0,0,1-5.818,2.414c-.257.1-.5.183-.754.258-1.5.507-2.914.92-4.224,1.258-.442.119-.868.219-1.271.314-.439.108-.866.208-1.266.293q-.513.113-.987.2c-1.7.335-3.019.514-3.815.616-.113.007-.206.018-.3.03-.345.041-.538.051-.538.051l-62.072,39.542-76.244,48.562-4.61-31.71,19.042-16.853c16.671-9.519,33.411-6.481,48.567-12.054,3.353-1.233,6.429-2.422,8.731-3.42a219.7,219.7,0,0,0,30.129-15.866c-8.477-4.672.107-14.608.107-14.608,25.839,4.231,29.359-14.629,32.965-15.687s20.867,4.964,20.867,4.964c3.973,2.727,3.668,7.125,1.7,11.588" transform="translate(-1181.358 -978.786)" fill="#371a45"/>
            </g>
          </g>
        </g>
        <path id="Path_10584" data-name="Path 10584" d="M557.7,1469.489c-.051.489-.118.969-.21,1.44-2.531,14.328-20.094,19.44-51.707,15.5-14.318-1.786-34.11-3.9-39.33-14.791-10.417-21.74.219-65.733-1.018-93.916v-.051a122.085,122.085,0,0,1-25.777,0c-.009.227-.017.463-.025.691-1.059,28.209,9.341,71.7-1,93.276-5.221,10.891-25,13.005-39.322,14.791-31.654,3.942-49.218-1.179-51.723-15.549q-.126-.682-.2-1.39c-1.825-17.5,23.735-25.631,23.735-25.631s-5.574-37.154-9.248-70.669c-9.122-83.261,23.272-183.5,23.272-183.5h134.8s32.4,100.242,23.272,183.5c-3.674,33.515-9.24,70.669-9.24,70.669s25.551,8.128,23.726,25.631" transform="translate(-281.355 -963.392)" fill="#fff"/>
        <path id="Path_10585" data-name="Path 10585" d="M367.221,2366.979c2.169,16.022,3.9,27.568,3.9,27.568s-25.559,8.127-23.735,25.631q.076.707.2,1.39c2.505,14.37,20.069,19.49,51.723,15.549,14.318-1.786,34.1-3.9,39.322-14.791,6.622-13.819,4.739-36.62,2.806-58.641-35.927,12.772-61.746,7.65-74.221,3.294" transform="translate(-281.355 -1914.081)" fill="#33aef1"/>
        <path id="Path_10586" data-name="Path 10586" d="M1022.716,2388.821s1.916-12.792,4.242-30.132c-11.5,4.382-37.517,10.62-74.448-2.074-1.973,22.434-4.07,45.888,2.685,59.985,5.221,10.891,25.013,13.005,39.331,14.791,31.613,3.942,49.176-1.171,51.707-15.5.092-.471.16-.951.21-1.44,1.824-17.5-23.726-25.631-23.726-25.631" transform="translate(-770.094 -1908.355)" fill="#33aef1"/>
        <g id="Group_5587" data-name="Group 5587" transform="translate(126.224 401.308)" opacity="0.35">
          <g id="Group_5586" data-name="Group 5586">
            <g id="Group_5585" data-name="Group 5585" clip-path="url(#clip-path-12)">
              <path id="Path_10587" data-name="Path 10587" d="M664.808,2109.783s23.8,3.834,42.175,3.834,47.794-3.834,47.794-3.834-17.661,13.557-45.818,12.973c-28.863-.6-44.15-12.973-44.15-12.973" transform="translate(-664.808 -2109.783)" fill="#371a45"/>
            </g>
          </g>
        </g>
        <g id="Group_5590" data-name="Group 5590" transform="translate(66.234 400.346)" opacity="0.35">
          <g id="Group_5589" data-name="Group 5589">
            <g id="Group_5588" data-name="Group 5588" clip-path="url(#clip-path-13)">
              <path id="Path_10588" data-name="Path 10588" d="M439.894,2212.623c-5.221,10.891-25,13.005-39.322,14.791-31.654,3.942-49.218-1.179-51.723-15.549,25.912,9.838,71.591,4.22,79.4-8.263,10.114-16.164,11.754-32.319-3.977-52.458s-16.941-46.419-16.941-46.419c7.516,5.29,22.978,11.034,33.563,14.623-1.059,28.208,9.341,71.7-1,93.276" transform="translate(-348.848 -2104.724)" fill="#371a45"/>
            </g>
          </g>
        </g>
        <g id="Group_5593" data-name="Group 5593" transform="translate(180.482 400.346)" opacity="0.35">
          <g id="Group_5592" data-name="Group 5592">
            <g id="Group_5591" data-name="Group 5591" clip-path="url(#clip-path-14)">
              <path id="Path_10589" data-name="Path 10589" d="M1046.232,2211.916c-2.531,14.328-20.094,19.44-51.707,15.5-14.318-1.786-34.11-3.9-39.331-14.791-10.417-21.74.219-65.733-1.018-93.916,8.761-2.619,24.979-7.977,33.521-13.982,0,0,4.3,18.9-14.016,44.734-14.78,20.847-15.857,37.432-5.742,53.587,7.172,11.464,49.807,16.172,78.291,8.869" transform="translate(-950.576 -2104.725)" fill="#371a45"/>
            </g>
          </g>
        </g>
        <path id="Path_10590" data-name="Path 10590" d="M372.882,1185.855c-2.333,10.446-4.677,20.889-6.878,31.34-.563,2.611-1.13,5.219-1.647,7.839l-1.629,7.839c-1.008,5.241-2.09,10.465-3.033,15.715l-1.4,7.876-.7,3.937-.613,3.951c-.829,5.264-1.755,10.517-2.391,15.806-.7,5.282-1.454,10.557-1.95,15.858l-.839,7.943c-.3,2.647-.4,5.306-.611,7.958l-.536,7.963c-.113,1.327-.127,2.656-.164,3.984l-.1,3.985-.211,7.971c-.062,1.33-.009,2.655.016,3.982l.093,3.98.187,7.96c0,1.33.141,2.647.238,3.968l.312,3.962.623,7.923c.224,2.644.573,5.312.86,7.966,2.47,21.252,5.339,42.5,8.454,63.673l.384,2.612-2.532.843c-.972.324-2.119.771-3.169,1.219-1.069.457-2.128.945-3.165,1.469a46.053,46.053,0,0,0-5.928,3.543c-3.7,2.617-6.9,5.895-8.4,9.667a13.045,13.045,0,0,0-.932,5.869,14.575,14.575,0,0,0,1.562,5.826c1.823,3.5,5.4,6,9.6,7.482a49.573,49.573,0,0,0,13.589,2.494,110.59,110.59,0,0,0,14.34-.175c4.805-.319,9.615-.951,14.5-1.565a143.168,143.168,0,0,0,14.235-2.408,40.759,40.759,0,0,0,12.7-4.87,13.725,13.725,0,0,0,4.282-4.166,5.683,5.683,0,0,0,.348-.612,5.483,5.483,0,0,0,.334-.684l.668-1.531c.378-1.064.788-2.113,1.083-3.226.349-1.085.576-2.229.852-3.351.206-1.151.46-2.285.608-3.457.37-2.321.565-4.7.733-7.078.28-4.776.258-9.617.083-14.473-.376-9.723-1.328-19.5-2.174-29.342-.818-9.851-1.674-19.768-1.286-29.94l.128-3.343,3.364.367c2.005.219,4.149.376,6.233.485s4.2.165,6.291.169,4.193-.059,6.291-.169,4.228-.266,6.233-.485l3.364-.367.127,3.343c.389,10.172-.468,20.089-1.286,29.94-.846,9.843-1.8,19.62-2.174,29.342-.174,4.856-.2,9.7.083,14.473.168,2.38.363,4.757.733,7.078.149,1.172.4,2.307.608,3.457.276,1.122.5,2.266.852,3.351.3,1.113.7,2.161,1.083,3.226l.668,1.531a5.428,5.428,0,0,0,.334.684,5.61,5.61,0,0,0,.348.612,13.726,13.726,0,0,0,4.281,4.166,40.762,40.762,0,0,0,12.7,4.87,143.167,143.167,0,0,0,14.235,2.408c4.881.614,9.691,1.246,14.5,1.565a110.593,110.593,0,0,0,14.34.175,49.571,49.571,0,0,0,13.588-2.494c4.2-1.485,7.775-3.98,9.6-7.482a14.584,14.584,0,0,0,1.562-5.826,13.046,13.046,0,0,0-.932-5.869c-1.5-3.773-4.7-7.05-8.4-9.667a46.078,46.078,0,0,0-5.928-3.543c-1.037-.524-2.1-1.012-3.165-1.469-1.05-.448-2.2-.9-3.169-1.219l-2.533-.843.385-2.612q4.3-29.223,7.858-58.587c.557-4.88,1.183-9.8,1.617-14.651.2-2.429.491-4.848.626-7.284l.432-7.306c.4-9.758.341-19.544-.068-29.323a447.868,447.868,0,0,0-6.542-58.411c-1.669-9.647-3.41-19.377-5.192-28.938-1.979-9.607-3.855-19.272-5.9-28.878l0-.014a1.05,1.05,0,0,1,1.973-.675,124.617,124.617,0,0,1,5.471,13.927c1.567,4.719,3,9.465,4.274,14.272,2.421,9.721,4.388,19.383,5.962,29.2,1.616,9.793,2.837,19.65,3.922,29.521.535,4.937.97,9.886,1.4,14.836l.512,7.438c.172,2.479.25,4.967.379,7.449.416,9.938.475,19.9.068,29.868l-.441,7.471c-.138,2.491-.432,4.975-.641,7.462-.447,4.98-1.069,9.85-1.631,14.774q-3.523,29.461-7.883,58.777l-2.148-3.455c1.363.454,2.507.91,3.722,1.424q1.791.765,3.531,1.639a52.2,52.2,0,0,1,6.735,4.03,35.955,35.955,0,0,1,6.058,5.326,24.006,24.006,0,0,1,4.53,7.126,19.362,19.362,0,0,1,1.368,8.605,20.819,20.819,0,0,1-2.268,8.341,19.789,19.789,0,0,1-5.679,6.585,27.437,27.437,0,0,1-7.323,3.871,55.6,55.6,0,0,1-15.346,2.859,116.681,116.681,0,0,1-15.161-.179c-5.018-.334-9.972-.987-14.854-1.6a149.064,149.064,0,0,1-14.863-2.521c-4.954-1.19-10-2.712-14.7-5.728a19.94,19.94,0,0,1-6.172-6.1,10.91,10.91,0,0,1-.566-.992,9.514,9.514,0,0,1-.478-.975l-.809-1.858c-.454-1.255-.932-2.508-1.273-3.779-.4-1.265-.659-2.541-.968-3.813-.233-1.274-.51-2.549-.674-3.823-.4-2.55-.613-5.092-.791-7.627-.3-5.068-.27-10.1-.091-15.093.388-9.986,1.351-19.846,2.193-29.647.819-9.786,1.64-19.571,1.269-29.122l3.492,2.975c-2.274.248-4.424.4-6.638.52s-4.4.174-6.615.177-4.415-.062-6.615-.177-4.364-.272-6.638-.52l3.492-2.975c-.37,9.551.45,19.336,1.269,29.122.841,9.8,1.805,19.661,2.193,29.647.179,4.995.207,10.025-.091,15.093-.178,2.536-.387,5.078-.791,7.627-.163,1.274-.441,2.549-.674,3.823-.309,1.272-.568,2.548-.969,3.813-.341,1.271-.819,2.524-1.273,3.779l-.808,1.858a9.57,9.57,0,0,1-.477.975,11.042,11.042,0,0,1-.566.992,19.943,19.943,0,0,1-6.172,6.1c-4.7,3.016-9.749,4.538-14.7,5.728a149.081,149.081,0,0,1-14.863,2.521c-4.882.613-9.837,1.266-14.855,1.6a116.682,116.682,0,0,1-15.161.179,55.6,55.6,0,0,1-15.346-2.859,27.449,27.449,0,0,1-7.323-3.871,19.793,19.793,0,0,1-5.679-6.585,20.828,20.828,0,0,1-2.269-8.341,19.364,19.364,0,0,1,1.368-8.605,24.009,24.009,0,0,1,4.53-7.126,35.96,35.96,0,0,1,6.058-5.326,52.214,52.214,0,0,1,6.735-4.03q1.74-.878,3.531-1.639c1.215-.514,2.359-.97,3.723-1.424l-2.148,3.455c-3.128-21.264-6-42.53-8.482-63.885-.289-2.676-.637-5.328-.867-8.026l-.64-8.113-.319-4.056c-.1-1.352-.243-2.7-.243-4.058l-.192-8.121-.1-4.061c-.033-1.353-.093-2.707-.038-4.058l.168-8.111.085-4.056c.03-1.352.039-2.7.145-4.051l.5-8.089c.184-2.694.264-5.4.534-8.085l.763-8.063.382-4.031c.116-1.346.258-2.687.441-4.024l1.045-8.026c1.382-10.7,3.215-21.337,5.314-31.91.492-2.65,1.126-5.271,1.681-7.907.586-2.63,1.118-5.271,1.763-7.888,1.293-5.231,2.533-10.472,4.029-15.65a292.91,292.91,0,0,1,10.16-30.686,1.046,1.046,0,0,1,1.991.621Z" transform="translate(-268.095 -959.238)" fill="#371a45"/>
        <g id="Group_5596" data-name="Group 5596" transform="translate(78.947 294.048)" opacity="0.35">
          <g id="Group_5595" data-name="Group 5595">
            <g id="Group_5594" data-name="Group 5594" clip-path="url(#clip-path-15)">
              <path id="Path_10591" data-name="Path 10591" d="M600.206,1600.015a13.108,13.108,0,0,1-8.651,4.8c-10.938,1.322-26.417,2.249-37.9-.9-8.122,13.494-22.633,27.021-48.4,35.149-25.811-8.136-40.323-21.706-48.436-35.217-11.5,3.234-27.14,2.3-38.154.969a12.791,12.791,0,0,1-2.859-.682c.126-8.457.572-16.913,1.227-25.261a12.988,12.988,0,0,1,3.2-.4c.2,0,.42,0,.622.008a254.293,254.293,0,0,0,26.845,0,62.275,62.275,0,0,1-.572-16.661c14.839-14.858,58.122-15.936,58.122-15.936s43.291,1.078,58.13,15.936a62.227,62.227,0,0,1-.58,16.678,255.572,255.572,0,0,0,26.56-.017c.2-.008.42-.008.622-.008a13.145,13.145,0,0,1,9.349,3.917c.42,5.837.723,11.725.874,17.621" transform="translate(-415.802 -1545.889)" fill="#371a45"/>
            </g>
          </g>
        </g>
        <path id="Path_10592" data-name="Path 10592" d="M440.924,1680.357c-11.64,4.72-29.652,3.733-41.933,2.244a13.22,13.22,0,0,1,2.2-26.327c11.487.539,28.716.792,39.627-1.633" transform="translate(-313.843 -1339.907)" fill="#f92323"/>
        <g id="Group_5599" data-name="Group 5599" transform="translate(73.558 315.714)" opacity="0.7">
          <g id="Group_5598" data-name="Group 5598">
            <g id="Group_5597" data-name="Group 5597" clip-path="url(#clip-path-16)">
              <path id="Path_10593" data-name="Path 10593" d="M401.209,1666.327c11.487.539,28.716.792,39.627-1.633l.088,20.822.021-.008-.109-25.715c-10.911,2.425-28.141,2.172-39.627,1.633a13.19,13.19,0,0,0-13.648,11.271h0a13.225,13.225,0,0,0,.1,4.4,13.178,13.178,0,0,1,13.55-10.771" transform="translate(-387.422 -1659.793)" fill="#fff"/>
            </g>
          </g>
        </g>
        <g id="Group_5602" data-name="Group 5602" transform="translate(73.556 323.45)" opacity="0.35">
          <g id="Group_5601" data-name="Group 5601">
            <g id="Group_5600" data-name="Group 5600" clip-path="url(#clip-path-17)">
              <path id="Path_10594" data-name="Path 10594" d="M440.938,1717.458c-11.643,4.727-29.656,3.73-41.935,2.251a13.243,13.243,0,0,1-10.094-19.249A13.16,13.16,0,0,0,399,1707.448c12.258,1.49,30.241,2.477,41.884-2.22Z" transform="translate(-387.41 -1700.46)" fill="#371a45"/>
            </g>
          </g>
        </g>
        <path id="Path_10595" data-name="Path 10595" d="M404.418,1673.421a161.97,161.97,0,0,1-19.168-1.252,16.356,16.356,0,0,1,2.72-32.573c16.918.794,30.7.239,38.8-1.562,1.634-.364,5.708-.381,8.1,7.341,2.429,7.827,2.156,20.977-6.145,24.344-6.832,2.771-15.605,3.7-24.315,3.7M387.2,1645.85A10.084,10.084,0,0,0,386,1665.941c17.551,2.127,31.894,1.4,40.382-2.037,2.485-1.008,3.211-5.042,3.409-6.73.7-5.973-1.107-11.523-2.248-12.891-11.072,2.325-27.737,2.147-39.868,1.578q-.242-.011-.481-.011" transform="translate(-300.478 -1326.361)" fill="#371a45"/>
        <path id="Path_10596" data-name="Path 10596" d="M1138.221,1680.357c11.64,4.72,29.652,3.733,41.933,2.244a13.22,13.22,0,0,0-2.2-26.327c-11.487.539-28.716.792-39.627-1.633" transform="translate(-922.112 -1339.907)" fill="#f92323"/>
        <g id="Group_5605" data-name="Group 5605" transform="translate(216.109 314.734)" opacity="0.7">
          <g id="Group_5604" data-name="Group 5604">
            <g id="Group_5603" data-name="Group 5603" clip-path="url(#clip-path-16)">
              <path id="Path_10597" data-name="Path 10597" d="M1138.329,1660.522c10.911,2.425,28.14,2.172,39.627,1.633a13.179,13.179,0,0,1,13.45,10.261,13.193,13.193,0,0,0-13.45-16.141c-11.487.539-28.716.792-39.627-1.633l-.109,25.715.025.009Z" transform="translate(-1138.22 -1654.641)" fill="#fff"/>
            </g>
          </g>
        </g>
        <g id="Group_5608" data-name="Group 5608" transform="translate(216.103 323.389)" opacity="0.35">
          <g id="Group_5607" data-name="Group 5607">
            <g id="Group_5606" data-name="Group 5606" clip-path="url(#clip-path-19)">
              <path id="Path_10598" data-name="Path 10598" d="M1180.129,1719.447c-12.279,1.48-30.292,2.476-41.935-2.251l.051-12.343c11.643,4.7,29.626,3.71,41.884,2.22a13.127,13.127,0,0,0,10.063-6.937,13.223,13.223,0,0,1-10.063,19.311" transform="translate(-1138.193 -1700.137)" fill="#371a45"/>
            </g>
          </g>
        </g>
        <path id="Path_10599" data-name="Path 10599" d="M1124.448,1673.425c-8.711,0-17.483-.932-24.316-3.7-8.3-3.366-8.573-16.516-6.144-24.343,2.4-7.722,6.473-7.7,8.105-7.342,8.107,1.8,21.882,2.355,38.8,1.562a16.356,16.356,0,0,1,2.721,32.573,162.152,162.152,0,0,1-19.169,1.252m-23.126-29.138c-1.141,1.368-2.947,6.918-2.249,12.891.2,1.688.924,5.722,3.409,6.73,8.487,3.443,22.83,4.166,40.383,2.037a10.083,10.083,0,0,0-1.675-20.08c-12.131.57-28.794.749-39.867-1.578" transform="translate(-885.199 -1326.365)" fill="#371a45"/>
        <path id="Path_10600" data-name="Path 10600" d="M995.04,2348.314c-11.11,0-25.514-2.095-43.969-8.126a3.136,3.136,0,0,1,1.941-5.964c54.52,17.815,70.483-.5,70.637-.684a3.133,3.133,0,0,1,4.893,3.914c-.494.627-8.955,10.86-33.5,10.86" transform="translate(-768.744 -1888.745)" fill="#371a45"/>
        <path id="Path_10601" data-name="Path 10601" d="M465.02,2363.572c-11.71,0-22.971-2.105-30.207-8.5a3.134,3.134,0,0,1,4.14-4.7c18.149,16.03,70.522-.466,71.049-.635a3.136,3.136,0,0,1,1.9,5.976c-1.492.477-24.968,7.862-46.886,7.862" transform="translate(-351.398 -1902.663)" fill="#371a45"/>
        <path id="Path_10602" data-name="Path 10602" d="M652.8,1606.221c62.063-19.574,54.593-72.54,54.593-72.54-13.935-13.961-54.593-14.969-54.593-14.969s-40.657,1.007-54.593,14.969c0,0-7.471,52.965,54.593,72.54" transform="translate(-484.398 -1229.834)" fill="#33aef1"/>
        <g id="Group_5611" data-name="Group 5611" transform="translate(113.524 288.876)" opacity="0.7">
          <g id="Group_5610" data-name="Group 5610">
            <g id="Group_5609" data-name="Group 5609" clip-path="url(#clip-path-20)">
              <path id="Path_10603" data-name="Path 10603" d="M707.564,1542.546c-.084-1.23-.177-1.9-.177-1.9-13.94-13.957-54.6-14.967-54.6-14.967s-40.651,1.01-54.591,14.967c0,0-.092.674-.176,1.9a49.608,49.608,0,0,1,.176-8.878c13.94-13.957,54.591-14.968,54.591-14.968s40.659,1.011,54.6,14.968a49.625,49.625,0,0,1,.177,8.878" transform="translate(-597.918 -1518.7)" fill="#fff"/>
            </g>
          </g>
        </g>
        <g id="Group_5614" data-name="Group 5614" transform="translate(113.525 302.091)" opacity="0.35">
          <g id="Group_5613" data-name="Group 5613">
            <g id="Group_5612" data-name="Group 5612" clip-path="url(#clip-path-21)">
              <path id="Path_10604" data-name="Path 10604" d="M707.39,1589.928a23.265,23.265,0,0,0-1.978-1.756c-.656,14.7-7.251,46.257-49.9,60.905a8.36,8.36,0,0,1-5.424,0c-42.652-14.648-49.246-46.2-49.9-60.905a23.265,23.265,0,0,0-1.978,1.756s-7.47,52.966,54.593,72.54c62.063-19.574,54.593-72.54,54.593-72.54" transform="translate(-597.923 -1588.172)" fill="#371a45"/>
            </g>
          </g>
        </g>
        <path id="Path_10605" data-name="Path 10605" d="M813.034,1616.688l10.929,1.545a1.8,1.8,0,0,1,1.008,3.065l-7.872,7.751a1.8,1.8,0,0,0-.51,1.595l1.911,10.891a1.8,1.8,0,0,1-2.6,1.908l-9.791-5.1a1.793,1.793,0,0,0-1.672.007l-9.748,5.186a1.8,1.8,0,0,1-2.614-1.886l1.821-10.906a1.8,1.8,0,0,0-.523-1.591l-7.936-7.685a1.8,1.8,0,0,1,.983-3.073l10.916-1.635a1.8,1.8,0,0,0,1.348-.99l4.844-9.936a1.8,1.8,0,0,1,3.221-.013l4.926,9.9a1.8,1.8,0,0,0,1.356.979" transform="translate(-635.866 -1299.561)" fill="#fff"/>
        <path id="Path_10606" data-name="Path 10606" d="M639.413,1596.152l-.94-.3c-33.262-10.49-46.941-30.532-52.56-45.5a67.514,67.514,0,0,1-4.192-30.473l.146-1.038.74-.74c14.652-14.679,55.017-15.844,56.728-15.886l.078,0,.078,0c1.71.042,42.077,1.207,56.729,15.886l.74.74.147,1.038a67.513,67.513,0,0,1-4.193,30.473c-5.619,14.965-19.3,35.007-52.56,45.5ZM587.819,1521.8a63.84,63.84,0,0,0,4.055,26.618c7.416,19.48,23.407,33.322,47.539,41.154,24.132-7.832,40.123-21.675,47.539-41.154a63.845,63.845,0,0,0,4.056-26.618c-13.319-11.944-49.651-13.246-51.595-13.306-1.943.061-38.275,1.362-51.594,13.306" transform="translate(-471.014 -1216.477)" fill="#371a45"/>
        <path id="Path_10607" data-name="Path 10607" d="M177.366,1743.606c-32.55-6.65-23.146-37.305-22.927-38.033l.01-.01c-1.333-.847-2.607-1.705-3.841-2.552,0,0,44.014-5.373,52.552-25.781a16.3,16.3,0,0,0,.786-2.253h.01c25.972,38.711,2.886,74.65-26.589,68.629" transform="translate(-122.012 -1356.375)" fill="#fff"/>
        <path id="Path_10608" data-name="Path 10608" d="M84.012,1196.735c.076.076.151.152.219.228,42.315,43.311,17.379,88.845-15.512,82.124-32.941-6.73-22.919-38.038-22.919-38.038-83.588-53.309,38.213-118.933,38.213-118.933a326.578,326.578,0,0,1,46.7-20.771L115.835,1146.9l-11.813,36.194c-15.966,6.941-20.01,13.645-20.01,13.645" transform="translate(-13.364 -891.855)" fill="#fff"/>
        <g id="Group_5617" data-name="Group 5617" transform="translate(54.817 252.026)" opacity="0.35">
          <g id="Group_5616" data-name="Group 5616">
            <g id="Group_5615" data-name="Group 5615" clip-path="url(#clip-path-22)">
              <path id="Path_10609" data-name="Path 10609" d="M328.079,1334.729l-3.523,29.448c-15.966,6.941-20.01,13.645-20.01,13.645.076.076.151.152.219.228-4.279-3.538-10.022-7.581-16.05-9.847,0,0,11.115-6.115,14.823-10.487,15.991-18.859,11.863-34.509,26.9-32.588,2.363.3-.793,6.364-2.354,9.6" transform="translate(-288.714 -1324.969)" fill="#371a45"/>
            </g>
          </g>
        </g>
        <path id="Path_10610" data-name="Path 10610" d="M61.693,1269.521a34.742,34.742,0,0,1-6.96-.711c-10.763-2.2-18.441-7.115-22.825-14.615-5.56-9.514-4.1-20.385-3.064-25.093C9.108,1215.984-.584,1200.907.027,1184.262,1.544,1142.9,66.4,1107.49,69.163,1106a332.952,332.952,0,0,1,47.174-20.972,3.136,3.136,0,0,1,2.01,5.94,326.264,326.264,0,0,0-46.19,20.54c-.673.364-64.5,35.209-65.875,72.988-.54,14.788,8.825,28.433,27.833,40.556l2.038,1.3-.738,2.3c-.037.118-3.86,12.566,1.917,22.405,3.451,5.874,9.725,9.777,18.651,11.6,12.283,2.509,23.721-2.959,29.848-14.271,7.61-14.049,7.031-37.928-17.417-62.81l-1.709-1.739,1.262-2.086c.411-.68,4.417-6.834,18.329-13.471a3.135,3.135,0,0,1,2.692,5.663c-7.881,3.759-12.113,7.271-14.132,9.3,24.875,26.605,24.938,52.516,16.477,68.135-6.215,11.474-17.392,18.135-29.642,18.136" transform="translate(0 -878.507)" fill="#371a45"/>
        <path id="Path_10611" data-name="Path 10611" d="M298.728,1562.42c-1.067-1.113-2.262-2.256-3.44-3.347s-2.407-2.168-3.653-3.211a54.834,54.834,0,0,0-7.985-5.649,56.1,56.1,0,0,1,9.44,3.269q2.3,1.011,4.56,2.137c1.514.76,2.978,1.52,4.5,2.4Z" transform="translate(-229.795 -1255.342)" fill="#371a45"/>
        <path id="Path_10612" data-name="Path 10612" d="M166.55,1822.852c1.3.783,2.648,1.631,3.972,2.465l4.007,2.513,4.047,2.5c1.359.835,2.738,1.639,4.15,2.469a34.821,34.821,0,0,1-4.865-.595c-1.6-.306-3.187-.7-4.754-1.135s-3.117-.926-4.639-1.482-3.028-1.115-4.538-1.813Z" transform="translate(-132.805 -1476.122)" fill="#371a45"/>
        <g id="Group_5620" data-name="Group 5620" transform="translate(31.001 318.603)" opacity="0.3">
          <g id="Group_5619" data-name="Group 5619">
            <g id="Group_5618" data-name="Group 5618" clip-path="url(#clip-path-23)">
              <path id="Path_10613" data-name="Path 10613" d="M187.633,1743.606c-32.55-6.65-23.146-37.305-22.927-38.033l.01-.01s5.652,30.346,35.077,22.022c18.818-5.334,17.225-31.9,13.633-50.355a16.307,16.307,0,0,0,.786-2.253h.01c25.972,38.711,2.886,74.65-26.589,68.629" transform="translate(-163.281 -1674.978)" fill="#421861"/>
            </g>
          </g>
        </g>
        <path id="Path_10614" data-name="Path 10614" d="M562.645,1138.129v9.863s-43.61,6.275-66.95-37a103.7,103.7,0,0,1-8.467-21.335l23.878,3.757a155.124,155.124,0,0,0,23.18,28.8c8.349,7.909,18.228,14.673,28.359,15.919" transform="translate(-394.721 -882.389)" fill="#f92323"/>
        <g id="Group_5623" data-name="Group 5623" transform="translate(100.975 228.602)" opacity="0.35">
          <g id="Group_5622" data-name="Group 5622">
            <g id="Group_5621" data-name="Group 5621" clip-path="url(#clip-path-24)">
              <path id="Path_10615" data-name="Path 10615" d="M598.771,1228.959v9.863s-43.61,6.275-66.95-37c5.877,6.393,22.675,23.854,30.444,23.424,7.1-.387-8.317-11.348-7.586-14.085s17.978,18.928,21.669,12.577c1.009-1.743-7.508-4.574-5.936-10.7,8.349,7.909,18.228,14.673,28.359,15.92" transform="translate(-531.821 -1201.82)" fill="#371a45"/>
            </g>
          </g>
        </g>
        <path id="Path_10616" data-name="Path 10616" d="M542.841,1138.358a73.015,73.015,0,0,1-25.6-4.711c-15.577-5.914-36.227-20.373-46.141-55.666l-.991-3.529,28.572,4.493.566.94c.243.4,24.622,40.493,49.816,43.6l2.062.254v13.979l-2.014.29a47.745,47.745,0,0,1-6.269.35m-66.169-58.112c7.8,24.84,21.992,41.317,42.233,49a67.875,67.875,0,0,0,27.523,4.286v-5.7c-24.675-4.709-46.716-38.324-50.625-44.576Z" transform="translate(-380.851 -870.078)" fill="#371a45"/>
        <path id="Path_10617" data-name="Path 10617" d="M935.98,1093.411s-24.9,41.435-51.542,44.722v9.859s56.736,8.16,75.416-58.336Z" transform="translate(-716.513 -882.389)" fill="#f92323"/>
        <path id="Path_10618" data-name="Path 10618" d="M880.355,1138.358a47.705,47.705,0,0,1-6.269-.35l-2.015-.29V1123.74l2.062-.254c25.193-3.108,49.574-43.2,49.818-43.6l.564-.94,28.572-4.493-.991,3.529c-9.915,35.293-30.565,49.752-46.142,55.666a73.015,73.015,0,0,1-25.6,4.711m-3.587-4.827a68.154,68.154,0,0,0,27.72-4.358c20.137-7.721,34.266-24.171,42.037-48.927l-19.131,3.008c-3.909,6.252-25.951,39.867-50.625,44.576Z" transform="translate(-706.495 -870.078)" fill="#371a45"/>
        <path id="Path_10619" data-name="Path 10619" d="M452.968,1324.248c-.863,7.951-1.9,15.8-3.015,23.652-.571,3.92-1.107,7.846-1.823,11.735s-1.471,7.776-2.524,11.586l0,.013a3.141,3.141,0,0,1-6.151-1.166,108.551,108.551,0,0,1,2.019-11.768c.841-3.887,1.888-7.732,2.96-11.57s2.235-7.657,3.487-11.451c1.275-3.789,2.608-7.564,4.185-11.258a.452.452,0,0,1,.865.227" transform="translate(-356.002 -1071.953)" fill="#371a45"/>
        <path id="Path_10620" data-name="Path 10620" d="M45.011,1609.052a2.35,2.35,0,0,1-2.348-2.346c-.023-9.271,7.691-18.9,19.653-24.518,13.61-6.4,34.3-8.1,51.527,6.319a2.35,2.35,0,0,1-3.009,3.611c-15.538-13-34.22-11.457-46.524-5.672-10.316,4.85-16.97,12.8-16.951,20.247a2.351,2.351,0,0,1-2.343,2.358Z" transform="translate(-34.563 -1277.393)" fill="#371a45"/>
        <g id="Group_5626" data-name="Group 5626" transform="translate(167.924 228.602)" opacity="0.35">
          <g id="Group_5625" data-name="Group 5625">
            <g id="Group_5624" data-name="Group 5624" clip-path="url(#clip-path-25)">
              <path id="Path_10621" data-name="Path 10621" d="M884.436,1228.959v9.863s43.61,6.275,66.95-37c-5.877,6.393-22.675,23.854-30.444,23.424-7.1-.387,8.317-11.348,7.586-14.085s-17.978,18.928-21.669,12.577c-1.009-1.743,7.508-4.574,5.936-10.7-8.349,7.909-18.228,14.673-28.359,15.92" transform="translate(-884.436 -1201.82)" fill="#371a45"/>
            </g>
          </g>
        </g>
        <path id="Path_10622" data-name="Path 10622" d="M810.4,1284.3l3.379-7.153a1.915,1.915,0,0,1,3.436-.057l3.612,7.038a1.917,1.917,0,0,0,1.46,1.026l7.835,1.009a1.921,1.921,0,0,1,1.116,3.257l-5.565,5.616a1.922,1.922,0,0,0-.523,1.708l1.463,7.777a1.917,1.917,0,0,1-2.747,2.069l-7.051-3.567a1.913,1.913,0,0,0-1.783.029l-6.93,3.8a1.917,1.917,0,0,1-2.813-1.978l1.207-7.821a1.922,1.922,0,0,0-.579-1.69l-5.747-5.43a1.921,1.921,0,0,1,1.008-3.292l7.8-1.266a1.917,1.917,0,0,0,1.425-1.074" transform="translate(-647.752 -1033.328)" fill="#ffce00"/>
        <g id="Group_5629" data-name="Group 5629" transform="translate(164.569 242.721)" opacity="0.7">
          <g id="Group_5628" data-name="Group 5628">
            <g id="Group_5627" data-name="Group 5627" clip-path="url(#clip-path-26)">
              <path id="Path_10623" data-name="Path 10623" d="M885.676,1289.425l-2.2,2.224a1.883,1.883,0,0,0-1.589-1.373l-7.836-1.011a1.894,1.894,0,0,1-1.463-1.028l-3.607-7.033a1.911,1.911,0,0,0-2.211-.977l1.455-3.074a1.916,1.916,0,0,1,3.439-.059l3.607,7.042a1.9,1.9,0,0,0,1.463,1.019l7.836,1.011a1.923,1.923,0,0,1,1.11,3.26" transform="translate(-866.767 -1276.052)" fill="#fff"/>
            </g>
          </g>
        </g>
        <g id="Group_5632" data-name="Group 5632" transform="translate(151.812 252.692)" opacity="0.35">
          <g id="Group_5631" data-name="Group 5631">
            <g id="Group_5630" data-name="Group 5630" clip-path="url(#clip-path-27)">
              <path id="Path_10624" data-name="Path 10624" d="M813,1346.609l-4.9,2.687a1.914,1.914,0,0,1-2.808-1.979l1.2-7.817a1.929,1.929,0,0,0-.572-1.693l-5.751-5.424a1.924,1.924,0,0,1,1.009-3.293l3.842-.623a1.86,1.86,0,0,0,.572,1.036l5.742,5.433a1.888,1.888,0,0,1,.58,1.685l-1.2,7.825a1.909,1.909,0,0,0,2.287,2.165" transform="translate(-799.573 -1328.467)" fill="#371a45"/>
            </g>
          </g>
        </g>
        <path id="Path_10625" data-name="Path 10625" d="M797.153,1299.429a4.278,4.278,0,0,1-4.212-4.93l1.174-7.6-5.582-5.274a4.274,4.274,0,0,1,2.243-7.325l7.574-1.23,3.282-6.947a4.26,4.26,0,0,1,7.646-.126l3.508,6.836,7.61.98a4.273,4.273,0,0,1,2.482,7.247l-5.4,5.455,1.421,7.554a4.266,4.266,0,0,1-6.113,4.6l-6.848-3.464L799.2,1298.9a4.257,4.257,0,0,1-2.049.528m-4.761-20.621,5.11,4.829a4.28,4.28,0,0,1,1.289,3.757l-1.074,6.958,6.163-3.377a4.257,4.257,0,0,1,3.967-.066l6.272,3.173-1.3-6.916a4.278,4.278,0,0,1,1.163-3.8l4.95-5-6.967-.9a4.264,4.264,0,0,1-3.248-2.284l-3.212-6.258-3,6.361h0a4.267,4.267,0,0,1-3.172,2.389Z" transform="translate(-637.731 -1023.314)" fill="#371a45"/>
        <path id="Path_10626" data-name="Path 10626" d="M1491.481,478.428h0a2.437,2.437,0,0,1-2.611-2.252l-5.227-70.1a2.439,2.439,0,0,1,2.248-2.615,25.571,25.571,0,0,1,27.389,23.625l1.782,23.9a25.588,25.588,0,0,1-23.582,27.439" transform="translate(-1201.945 -326.659)" fill="#fff"/>
        <path id="Path_10627" data-name="Path 10627" d="M1488.9,476.593a3,3,0,0,1-2.985-2.78l-5.227-70.1a3,3,0,0,1,2.767-3.219,26.134,26.134,0,0,1,27.991,24.145l1.782,23.9a26.181,26.181,0,0,1-24.1,28.043c-.076.005-.153.008-.228.008m-3.461-75.047q-.946,0-1.9.071a1.876,1.876,0,0,0-1.729,2.012l5.227,70.1a1.875,1.875,0,0,0,2.008,1.732,25.053,25.053,0,0,0,23.062-26.835l-1.782-23.9a25.014,25.014,0,0,0-24.885-23.176" transform="translate(-1199.546 -324.254)" fill="#371a45"/>
        <g id="Group_5635" data-name="Group 5635" transform="translate(285.528 113.121)" opacity="0.35">
          <g id="Group_5634" data-name="Group 5634">
            <g id="Group_5633" data-name="Group 5633" clip-path="url(#clip-path-28)">
              <path id="Path_10628" data-name="Path 10628" d="M1530.595,594.711l.838,11.211a25.6,25.6,0,0,1-23.585,27.442,2.443,2.443,0,0,1-2.611-2.257l-1.4-18.635a2.44,2.44,0,0,0,2.318,1.279l1.659-.129a25.549,25.549,0,0,0,22.777-18.911" transform="translate(-1503.841 -594.711)" fill="#371a45"/>
            </g>
          </g>
        </g>
        <path id="Path_10629" data-name="Path 10629" d="M1477.933,468.217a5.57,5.57,0,0,1-5.541-5.162l-5.227-70.1a5.572,5.572,0,0,1,5.137-5.977,28.7,28.7,0,0,1,30.743,26.519l1.782,23.9a28.755,28.755,0,0,1-26.469,30.8c-.142.011-.284.016-.425.016m-4.472-75.025,5.122,68.692a22.482,22.482,0,0,0,20-24.015l-1.782-23.9a22.441,22.441,0,0,0-23.341-20.772" transform="translate(-1188.588 -313.304)" fill="#371a45"/>
        <path id="Path_10630" data-name="Path 10630" d="M178.127,494.6h0a2.437,2.437,0,0,1,2.611,2.252l5.227,70.1a2.439,2.439,0,0,1-2.248,2.615,25.571,25.571,0,0,1-27.389-23.625l-1.782-23.9A25.588,25.588,0,0,1,178.127,494.6" transform="translate(-125.144 -400.519)" fill="#fff"/>
        <path id="Path_10631" data-name="Path 10631" d="M179.375,567.808a26.141,26.141,0,0,1-26.006-24.219l-1.782-23.9a26.181,26.181,0,0,1,24.1-28.043,3,3,0,0,1,3.213,2.772l5.227,70.1a3.006,3.006,0,0,1-2.767,3.219q-1,.074-1.986.074m-3.46-75.048c-.048,0-.1,0-.144.006A25.053,25.053,0,0,0,152.71,519.6l1.782,23.9a25.008,25.008,0,0,0,26.786,23.1,1.878,1.878,0,0,0,1.729-2.012l-5.227-70.1a1.875,1.875,0,0,0-1.864-1.737" transform="translate(-122.747 -398.118)" fill="#371a45"/>
        <g id="Group_5638" data-name="Group 5638" transform="translate(30.435 135.361)" opacity="0.35">
          <g id="Group_5637" data-name="Group 5637">
            <g id="Group_5636" data-name="Group 5636" clip-path="url(#clip-path-29)">
              <path id="Path_10632" data-name="Path 10632" d="M189.238,723.256l1.448,19.447a2.445,2.445,0,0,1-2.253,2.617A25.562,25.562,0,0,1,161.049,721.7l-.752-10.073a25.555,25.555,0,0,0,24.335,13.258l2.554-.191a2.464,2.464,0,0,0,2.052-1.437" transform="translate(-160.297 -711.627)" fill="#371a45"/>
            </g>
          </g>
        </g>
        <path id="Path_10633" data-name="Path 10633" d="M168.413,559.433a28.709,28.709,0,0,1-28.562-26.6l-1.782-23.9a28.755,28.755,0,0,1,26.469-30.8,5.569,5.569,0,0,1,5.966,5.146l5.227,70.1a5.58,5.58,0,0,1-5.137,5.977c-.729.054-1.457.082-2.181.082m-4.1-74.987a22.483,22.483,0,0,0-20,24.015l1.782,23.9a22.441,22.441,0,0,0,23.341,20.772Z" transform="translate(-111.79 -387.17)" fill="#371a45"/>
        <path id="Path_10634" data-name="Path 10634" d="M511.453,135.853c.236,66.158-53.107,119.981-119.144,120.217s-119.762-53.2-120-119.362S325.419,16.727,391.456,16.491s119.762,53.2,120,119.362" transform="translate(-220.608 -13.354)" fill="#fff"/>
        <path id="Path_10635" data-name="Path 10635" d="M389.47,254.235A120.243,120.243,0,0,1,269.349,134.31c-.235-66.363,53.463-120.546,119.7-120.782A120.242,120.242,0,0,1,509.615,133.451a120.246,120.246,0,0,1-119.7,120.783h-.44m.024-239.581h-.438c-65.62.235-118.817,53.91-118.583,119.652a119.116,119.116,0,0,0,119,118.8h.437A119.12,119.12,0,0,0,508.49,133.455a119.116,119.116,0,0,0-119-118.8" transform="translate(-218.208 -10.954)" fill="#371a45"/>
        <g id="Group_5641" data-name="Group 5641" transform="translate(51.698 105.922)" opacity="0.35">
          <g id="Group_5640" data-name="Group 5640">
            <g id="Group_5639" data-name="Group 5639" clip-path="url(#clip-path-30)">
              <path id="Path_10636" data-name="Path 10636" d="M510.227,556.856a119.252,119.252,0,0,1,1.207,16.579c.227,66.156-53.113,119.978-119.148,120.22s-119.758-53.21-120-119.366c-.008-1.9.029-3.807.114-5.682A119.661,119.661,0,0,0,391.193,671.394c64.136-.234,116.287-51.006,119.034-114.538" transform="translate(-272.286 -556.857)" fill="#371a45"/>
            </g>
          </g>
        </g>
        <path id="Path_10637" data-name="Path 10637" d="M378.513,245.857a122.813,122.813,0,0,1-122.69-122.488C255.583,55.588,310.429.246,378.087,0h.451A122.812,122.812,0,0,1,501.226,122.492,122.816,122.816,0,0,1,378.963,245.856h-.45m.024-239.581h-.428c-64.2.229-116.253,52.747-116.024,117.07a116.441,116.441,0,1,0,198.482-83.2,115.57,115.57,0,0,0-82.03-33.873" transform="translate(-207.251 -0.004)" fill="#371a45"/>
        <path id="Path_10638" data-name="Path 10638" d="M515.934,295.972a107.584,107.584,0,0,1-19.4,63.585c-9.485,13.679-49.071,38.05-98.489,39.419-45.821,1.27-87.974-22.429-97.963-35.744a107.571,107.571,0,0,1-21.76-62.814c-1.156-62.021,51.553-88.728,117.172-89.956s119.287,23.488,120.443,85.51" transform="translate(-225.461 -170.395)" fill="#371a45"/>
        <path id="Path_10639" data-name="Path 10639" d="M381.056,388.807c-45.975,0-86.618-23.424-96.837-37.045a110.6,110.6,0,0,1-22.387-64.64C261.265,256.69,273.009,233,296.738,216.7c20.7-14.212,50.2-22.072,85.338-22.729s64.915,6.093,86.126,19.521c24.32,15.4,36.939,38.633,37.506,69.066a110.618,110.618,0,0,1-19.963,65.432c-9.359,13.5-48.586,39.313-100.974,40.765-1.24.034-2.481.051-3.714.051m5.69-188.607q-2.261,0-4.555.043c-34.78.651-115.523,10.408-114.1,86.762a104.366,104.366,0,0,0,21.132,60.989c9.526,12.7,50.668,35.742,95.374,34.492,49.538-1.373,87.547-25.877,96-38.073a104.381,104.381,0,0,0,18.845-61.737c-.526-28.19-12.163-49.683-34.591-63.881-19.263-12.2-46.2-18.6-78.109-18.6" transform="translate(-212.103 -157.041)" fill="#371a45"/>
        <g id="Group_5644" data-name="Group 5644" transform="translate(236.191 96.803)" opacity="0.7">
          <g id="Group_5643" data-name="Group 5643">
            <g id="Group_5642" data-name="Group 5642" clip-path="url(#clip-path-31)">
              <path id="Path_10640" data-name="Path 10640" d="M1244.363,527.531c-1.869,11.557,3.393,22.026,11.753,23.383s16.651-6.913,18.519-18.47-3.393-22.026-11.753-23.383-16.651,6.913-18.519,18.47" transform="translate(-1243.987 -508.916)" fill="#fff"/>
            </g>
          </g>
        </g>
        <g id="Group_5647" data-name="Group 5647" transform="translate(225.24 150.591)" opacity="0.7">
          <g id="Group_5646" data-name="Group 5646">
            <g id="Group_5645" data-name="Group 5645" clip-path="url(#clip-path-32)">
              <path id="Path_10641" data-name="Path 10641" d="M1186.814,798.857c-1.581,5.135.7,10.4,5.1,11.759s9.246-1.7,10.827-6.837-.7-10.4-5.1-11.759-9.246,1.7-10.827,6.837" transform="translate(-1186.313 -791.698)" fill="#fff"/>
            </g>
          </g>
        </g>
        <g id="Group_5650" data-name="Group 5650" transform="translate(123.405 68.149)" opacity="0.35">
          <g id="Group_5649" data-name="Group 5649">
            <g id="Group_5648" data-name="Group 5648" clip-path="url(#clip-path-33)">
              <path id="Path_10642" data-name="Path 10642" d="M792.841,358.279c14.783,13.613,23.717,32.515,24.185,57.424a107.643,107.643,0,0,1-19.4,63.588c-9.488,13.679-49.078,38.048-98.495,39.423a147.237,147.237,0,0,1-49.174-7.463c60.709-2.987,108.926-32.891,120.689-49.857a136.507,136.507,0,0,0,24.623-80.7,121.485,121.485,0,0,0-2.429-22.418" transform="translate(-649.958 -358.279)" fill="#111a28"/>
            </g>
          </g>
        </g>
        <path id="Path_10643" data-name="Path 10643" d="M306.987,184.166a3.136,3.136,0,0,1-2.564-4.934c20.414-31.278,60.8-49.755,110.816-50.692,49.617-.935,90.666,15.426,112.563,44.877a3.134,3.134,0,0,1-4.4,4.432l-.337-.263-.189-.291c-20.651-27.891-59.86-43.369-107.522-42.484-47.946.9-86.483,18.362-105.731,47.915l-.164.228a3.121,3.121,0,0,1-2.473,1.211m-.2-3.3.2.159Z" transform="translate(-246.166 -104.06)" fill="#371a45"/>
        <g id="Group_5653" data-name="Group 5653" transform="translate(73.95 56.616)" opacity="0.7">
          <g id="Group_5652" data-name="Group 5652">
            <g id="Group_5651" data-name="Group 5651" clip-path="url(#clip-path-34)">
              <path id="Path_10644" data-name="Path 10644" d="M395.766,407.451s-20.315-60.826,12.145-85.823,79.815-25.785,78.765-22.722c0,0-52.187,13.7-71.925,55.6-15.22,32.313-18.984,52.946-18.984,52.946" transform="translate(-389.488 -297.647)" fill="#fff"/>
            </g>
          </g>
        </g>
        <path id="Path_10645" data-name="Path 10645" d="M688.43,2119.934a33.079,33.079,0,0,1-4.776-.77c-1.542-.351-3.06-.786-4.556-1.281a60.939,60.939,0,0,1-8.694-3.674c-1.42-.67-2.771-1.5-4.14-2.253-1.343-.821-2.678-1.641-3.959-2.55a53.953,53.953,0,0,1-7.228-5.961.425.425,0,0,1,.464-.7l.016.007c2.837,1.231,5.566,2.511,8.4,3.561,1.376.594,2.826,1.031,4.208,1.581,1.421.476,2.826.963,4.248,1.406,2.832.912,5.7,1.679,8.537,2.477l2.132.588q1.068.279,2.128.585c1.4.378,2.87.783,4.163,1.177l.154.047a2.948,2.948,0,0,1-1.093,5.758" transform="translate(-530.596 -1702.751)" fill="#371a45"/>
        <path id="Path_10646" data-name="Path 10646" d="M957.171,2114.128c1.293-.394,2.764-.8,4.163-1.177q1.059-.307,2.127-.585l2.132-.588c2.84-.8,5.706-1.565,8.538-2.477,1.422-.443,2.828-.93,4.248-1.406,1.383-.55,2.832-.987,4.208-1.581,2.831-1.049,5.56-2.33,8.4-3.561l.015-.007a.425.425,0,0,1,.465.7,53.932,53.932,0,0,1-7.228,5.961c-1.281.909-2.616,1.729-3.959,2.551-1.37.757-2.72,1.583-4.14,2.253a60.966,60.966,0,0,1-8.694,3.674c-1.5.5-3.014.931-4.556,1.281a33.1,33.1,0,0,1-4.776.77,2.948,2.948,0,0,1-1.094-5.758Z" transform="translate(-773.622 -1702.75)" fill="#371a45"/>
        <path id="Path_10647" data-name="Path 10647" d="M460.512,2505.088a43.862,43.862,0,0,1,5.985-.977c.992-.116,1.987-.186,2.982-.235.994-.07,1.992-.093,2.989-.1a73.072,73.072,0,0,1,11.938.9,65.078,65.078,0,0,1,11.619,3.016,41.141,41.141,0,0,1,10.412,5.82.423.423,0,0,1-.417.726l-.017-.007a58.324,58.324,0,0,0-10.919-3.165,87.668,87.668,0,0,0-11.187-1.113c-3.751-.1-7.5.039-11.239.2-3.717.178-7.538.477-11.142.727l-.118.008a2.945,2.945,0,0,1-.886-5.8" transform="translate(-371.247 -2027.523)" fill="#371a45"/>
        <path id="Path_10648" data-name="Path 10648" d="M1135.552,2510.882c-3.6-.251-7.425-.549-11.142-.727-3.742-.166-7.488-.3-11.239-.2a87.629,87.629,0,0,0-11.187,1.113,58.342,58.342,0,0,0-10.919,3.165l-.017.007a.423.423,0,0,1-.417-.725,41.127,41.127,0,0,1,10.412-5.82,65.1,65.1,0,0,1,11.619-3.016,73.1,73.1,0,0,1,11.938-.9c1,0,1.995.028,2.989.1,1,.049,1.99.118,2.982.235a43.784,43.784,0,0,1,5.984.977,2.945,2.945,0,0,1-.885,5.8Z" transform="translate(-883.427 -2027.522)" fill="#371a45"/>
      </g>
    </g>
  </g>
</svg>
