<svg id="advantages_project_base_learning3" xmlns="http://www.w3.org/2000/svg" xmlns:xlink="http://www.w3.org/1999/xlink" width="360" height="550" viewBox="0 0 360 550">
  <defs>
    <clipPath id="clip-path">
      <rect id="Rectangle_7943" data-name="Rectangle 7943" width="360" height="550" fill="none"/>
    </clipPath>
    <clipPath id="clip-path-3">
      <rect id="Rectangle_7914" data-name="Rectangle 7914" width="86.006" height="69.96" fill="none"/>
    </clipPath>
    <clipPath id="clip-path-4">
      <rect id="Rectangle_7915" data-name="Rectangle 7915" width="35.517" height="35.955" fill="none"/>
    </clipPath>
    <clipPath id="clip-path-5">
      <rect id="Rectangle_7916" data-name="Rectangle 7916" width="29.043" height="23.852" fill="none"/>
    </clipPath>
    <clipPath id="clip-path-6">
      <rect id="Rectangle_7917" data-name="Rectangle 7917" width="180.817" height="79.294" fill="none"/>
    </clipPath>
    <clipPath id="clip-path-7">
      <rect id="Rectangle_7918" data-name="Rectangle 7918" width="46.802" height="39.655" fill="none"/>
    </clipPath>
    <clipPath id="clip-path-8">
      <rect id="Rectangle_7919" data-name="Rectangle 7919" width="318.752" height="209.757" fill="none"/>
    </clipPath>
    <clipPath id="clip-path-9">
      <rect id="Rectangle_7920" data-name="Rectangle 7920" width="324.178" height="213.926" fill="none"/>
    </clipPath>
    <clipPath id="clip-path-10">
      <rect id="Rectangle_7921" data-name="Rectangle 7921" width="37.594" height="49.459" fill="none"/>
    </clipPath>
    <clipPath id="clip-path-11">
      <rect id="Rectangle_7922" data-name="Rectangle 7922" width="67.454" height="67.653" fill="none"/>
    </clipPath>
    <clipPath id="clip-path-12">
      <rect id="Rectangle_7923" data-name="Rectangle 7923" width="80.613" height="82.719" fill="none"/>
    </clipPath>
    <clipPath id="clip-path-13">
      <rect id="Rectangle_7924" data-name="Rectangle 7924" width="44.712" height="44.843" fill="none"/>
    </clipPath>
    <clipPath id="clip-path-14">
      <rect id="Rectangle_7925" data-name="Rectangle 7925" width="27.163" height="36.934" fill="none"/>
    </clipPath>
    <clipPath id="clip-path-15">
      <rect id="Rectangle_7926" data-name="Rectangle 7926" width="24.576" height="32.73" fill="none"/>
    </clipPath>
    <clipPath id="clip-path-16">
      <rect id="Rectangle_7927" data-name="Rectangle 7927" width="25.088" height="36.469" fill="none"/>
    </clipPath>
    <clipPath id="clip-path-17">
      <rect id="Rectangle_7928" data-name="Rectangle 7928" width="28.905" height="38.028" fill="none"/>
    </clipPath>
    <clipPath id="clip-path-18">
      <rect id="Rectangle_7929" data-name="Rectangle 7929" width="34.378" height="34.48" fill="none"/>
    </clipPath>
    <clipPath id="clip-path-19">
      <rect id="Rectangle_7930" data-name="Rectangle 7930" width="34.625" height="22.662" fill="none"/>
    </clipPath>
    <clipPath id="clip-path-20">
      <rect id="Rectangle_7931" data-name="Rectangle 7931" width="2.075" height="2.766" fill="none"/>
    </clipPath>
    <clipPath id="clip-path-21">
      <rect id="Rectangle_7932" data-name="Rectangle 7932" width="185.447" height="81.713" fill="none"/>
    </clipPath>
    <clipPath id="clip-path-22">
      <rect id="Rectangle_7933" data-name="Rectangle 7933" width="221.55" height="134.661" fill="none"/>
    </clipPath>
    <clipPath id="clip-path-23">
      <rect id="Rectangle_7934" data-name="Rectangle 7934" width="173.891" height="147.475" fill="none"/>
    </clipPath>
    <clipPath id="clip-path-24">
      <rect id="Rectangle_7935" data-name="Rectangle 7935" width="57.592" height="63.98" fill="none"/>
    </clipPath>
    <clipPath id="clip-path-25">
      <rect id="Rectangle_7936" data-name="Rectangle 7936" width="44.614" height="45.99" fill="none"/>
    </clipPath>
    <clipPath id="clip-path-26">
      <rect id="Rectangle_7937" data-name="Rectangle 7937" width="47.947" height="105.925" fill="none"/>
    </clipPath>
    <clipPath id="clip-path-27">
      <rect id="Rectangle_7938" data-name="Rectangle 7938" width="29.641" height="34.578" fill="none"/>
    </clipPath>
    <clipPath id="clip-path-28">
      <rect id="Rectangle_7939" data-name="Rectangle 7939" width="12.285" height="14.243" fill="none"/>
    </clipPath>
    <clipPath id="clip-path-29">
      <rect id="Rectangle_7940" data-name="Rectangle 7940" width="21.238" height="28.775" fill="none"/>
    </clipPath>
    <clipPath id="clip-path-30">
      <rect id="Rectangle_7941" data-name="Rectangle 7941" width="82.773" height="78.031" fill="none"/>
    </clipPath>
  </defs>
  <g id="Group_5556" data-name="Group 5556" clip-path="url(#clip-path)">
    <g id="Group_5555" data-name="Group 5555" transform="translate(0 0)">
      <g id="Group_5554" data-name="Group 5554" clip-path="url(#clip-path)">
        <path id="Path_10493" data-name="Path 10493" d="M291.229,969.873c-1.4,23.8-9.274,48.55-35.29,52-51.808,6.849-47.523-58.765-47.523-58.765s-12.467-2.8-17.889-12.468a51.179,51.179,0,0,1-4.619-11.065c-2.643-9.328-1.461-15.888-1.461-15.888H287.63s4.98,22.619,3.6,46.189" transform="translate(-146.886 -736.084)" fill="#fff"/>
        <path id="Path_10494" data-name="Path 10494" d="M234.388,1011.8c-10.912,0-20.024-3.375-27.162-10.078-15.778-14.816-16.844-41.307-16.732-50.135-4.448-1.541-12.858-5.375-17.339-13.363-8.82-15.724-6.585-28.824-6.486-29.374a3.612,3.612,0,0,1,3.551-2.974H273.405a3.612,3.612,0,0,1,3.524,2.839c.514,2.339,12.383,57.609-7.618,86.243-6.5,9.3-15.623,14.785-27.128,16.307a59.463,59.463,0,0,1-7.794.534m-60.813-98.685a43.7,43.7,0,0,0,5.87,21.559c4.547,8.107,15.434,10.688,15.543,10.713a3.628,3.628,0,0,1,2.805,3.766c-.021.316-1.851,32.078,14.381,47.3,7.12,6.677,16.9,9.247,29.065,7.637,9.551-1.264,16.8-5.61,22.16-13.285,15.789-22.6,9.152-66.184,7.038-77.69Z" transform="translate(-132.661 -721.891)" fill="#371a45"/>
        <path id="Path_10495" data-name="Path 10495" d="M1085.868,711.965c.164-.867,11.222-29.255,9.562-44.955-1.447-13.688-23.024-46.39-52.262-56.044-29.344-9.689-40.751,58.458-40.751,58.458Z" transform="translate(-799.427 -486.127)" fill="#fff"/>
        <path id="Path_10496" data-name="Path 10496" d="M1088.415,704.523c-1.425,4.3-2.5,7.166-2.553,7.428l-83.454-42.542a180.949,180.949,0,0,1,6.829-26.13c6.279-18.041,17.185-37.856,33.929-32.328,29.237,9.654,50.807,42.362,52.259,56.051,1.146,10.875-3.807,27.831-7.009,37.521" transform="translate(-799.419 -486.116)" fill="#fff"/>
        <g id="Group_5472" data-name="Group 5472" transform="translate(202.989 155.875)" opacity="0.35">
          <g id="Group_5471" data-name="Group 5471">
            <g id="Group_5470" data-name="Group 5470" clip-path="url(#clip-path-3)">
              <path id="Path_10497" data-name="Path 10497" d="M1088.415,830.013c-1.425,4.3-2.5,7.166-2.553,7.428L1002.408,794.9a180.947,180.947,0,0,1,6.829-26.13,22.612,22.612,0,0,1,14.7-.127c35.119,10.776,61.957,44.478,64.167,58.313a25.261,25.261,0,0,1,.307,3.058" transform="translate(-1002.408 -767.48)" fill="#371a45"/>
            </g>
          </g>
        </g>
        <path id="Path_10498" data-name="Path 10498" d="M1072.773,703.144l-90.1-45.929.439-2.621c.322-1.924,8.116-47.252,28.087-59.346a20.04,20.04,0,0,1,17.351-1.952c30.667,10.126,53.179,44.5,54.723,59.1,1.023,9.676-2.084,24.832-9.237,45.047-.189.535-.328.926-.4,1.15Zm.9-4.735-.011.057c0-.022.008-.041.011-.057M990.7,653.189l77.368,39.439c7.688-22.315,8.629-33.763,8.026-39.468-1.223-11.566-21.307-43.579-49.8-52.988a12.959,12.959,0,0,0-11.361,1.27c-13.313,8.059-21.549,37.944-24.23,51.746" transform="translate(-783.682 -471.896)" fill="#371a45"/>
        <path id="Path_10499" data-name="Path 10499" d="M1232.5,805.215c.2-8.268,4.268-25.99,13.213-25.089s27.013,13.763,21.787,37.988c-4.053,18.792-35.2-4.631-35-12.9" transform="translate(-982.918 -621.655)" fill="#fff"/>
        <g id="Group_5475" data-name="Group 5475" transform="translate(249.582 167.622)" opacity="0.35">
          <g id="Group_5474" data-name="Group 5474">
            <g id="Group_5473" data-name="Group 5473" clip-path="url(#clip-path-4)">
              <path id="Path_10500" data-name="Path 10500" d="M1268.012,851.289c-.135.932-.307,1.891-.514,2.868-4.051,18.792-35.2-4.633-35-12.9a50.12,50.12,0,0,1,3.311-15.933c3.148,7.681,19.792,21.37,32.205,25.967" transform="translate(-1232.496 -825.322)" fill="#371a45"/>
            </g>
          </g>
        </g>
        <path id="Path_10501" data-name="Path 10501" d="M1245.118,814.652a17.2,17.2,0,0,1-2.041-.126c-11.6-1.384-28.584-15.5-28.392-23.6h0c.166-7,2.8-20.212,9.143-25.834a10.358,10.358,0,0,1,8.038-2.77c5.527.556,13.686,4.678,19.453,12.631,4.188,5.776,8.542,15.621,5.5,29.723-1.385,6.424-5.6,9.975-11.7,9.975M1221.9,791.091c.148,3.251,12.981,15.48,22.395,16.286,3.216.275,4.755-.911,5.471-4.23,2.478-11.485-.962-19.355-4.283-23.936-4.731-6.524-11.166-9.368-14.338-9.687a3.171,3.171,0,0,0-2.539.994c-4.086,3.619-6.557,14.456-6.7,20.572m0,.009Z" transform="translate(-968.709 -607.454)" fill="#371a45"/>
        <path id="Path_10502" data-name="Path 10502" d="M1289.993,794.584c-.483,2.263-.9,4.605-1.255,6.915s-.635,4.636-.808,6.932a43.676,43.676,0,0,0-.069,6.7,14.992,14.992,0,0,0,.489,2.906c.219.833.659,1.416.7,1.336a3.614,3.614,0,0,1-5.105,5.116,8.235,8.235,0,0,1-1.61-2.675,11.393,11.393,0,0,1-.615-2.4,21.679,21.679,0,0,1-.177-4.2,49.5,49.5,0,0,1,1.025-7.544c.5-2.425,1.1-4.794,1.761-7.135s1.384-4.637,2.2-6.962a1.807,1.807,0,0,1,3.472.979Z" transform="translate(-1022.009 -631.43)" fill="#371a45"/>
        <path id="Path_10503" data-name="Path 10503" d="M743.119,858.691a14.5,14.5,0,0,1-3.771,6.822c-7.875,7.881-21.173,1.05-23.879-.47-.316-.172-.487-.28-.487-.28a80.924,80.924,0,0,1-1.949,8.061,98.984,98.984,0,0,1-9.815,22.927c-20.74,34.472-58.89,4.506-58.89,4.506l-112.114-11.68-24.826-2.588s-21.028-8.206-21.84-60.05c-.514-32.771,69.426-32.373,102.3-29.767,64.257,5.1,83.814,62.836,89.94,55.227,4.736-5.89,5.9-26.275,12.206-32.843,5.71-5.953,22-3.719,37.816,9.572,13.91,11.708,17.212,22.846,15.309,30.563" transform="translate(-387.223 -633.615)" fill="#fff"/>
        <g id="Group_5478" data-name="Group 5478" transform="translate(326.853 211.772)" opacity="0.35">
          <g id="Group_5477" data-name="Group 5477">
            <g id="Group_5476" data-name="Group 5476" clip-path="url(#clip-path-5)">
              <path id="Path_10504" data-name="Path 10504" d="M1643.12,1056.005a14.5,14.5,0,0,1-3.771,6.822c-7.875,7.881-21.172,1.05-23.879-.47-.415-9.536-2.869-19.407-.081-19.652,3.6-.308,7.4,24.836,27.731,13.3" transform="translate(-1614.077 -1042.702)" fill="#371a45"/>
            </g>
          </g>
        </g>
        <g id="Group_5481" data-name="Group 5481" transform="translate(144.992 199.424)" opacity="0.35">
          <g id="Group_5480" data-name="Group 5480">
            <g id="Group_5479" data-name="Group 5479" clip-path="url(#clip-path-6)">
              <path id="Path_10505" data-name="Path 10505" d="M896.827,1021.681a98.988,98.988,0,0,1-9.815,22.927c-20.74,34.472-58.89,4.506-58.89,4.506l-112.114-11.681c10.266-25.641,28.867-57.38,55.263-55.453,43.969,3.194,57.437,40.208,90.626,61.244,20.135,12.757,34.487-23.461,34.487-23.461s.153.688.442,1.918" transform="translate(-716.009 -981.897)" fill="#371a45"/>
            </g>
          </g>
        </g>
        <path id="Path_10506" data-name="Path 10506" d="M662.007,901.6c-15.484,0-29.642-9.558-33.257-12.2L492.318,875.184l-.452-.177c-.951-.371-23.3-9.7-24.141-63.368a23.527,23.527,0,0,1,7.836-18.088c20.462-19.265,75.6-17.144,98.361-15.338,45.786,3.634,69.263,32.634,81.877,48.215,2.076,2.565,4.362,5.389,5.858,6.847,1.289-2.685,2.444-7.323,3.487-11.506,1.935-7.772,3.936-15.808,8.037-20.081,7.923-8.261,26.7-4.167,42.731,9.317,13.6,11.439,16.793,21.637,17.075,28.179a19.061,19.061,0,0,1-5.3,14.54c-7.529,7.526-18.372,4.565-24.388,2a103.374,103.374,0,0,1-11.207,27.547c-6.014,9.994-14,15.972-23.747,17.767a34.927,34.927,0,0,1-6.335.566M494.182,868.1l137.341,14.314.818.643c.176.137,18.064,13.943,34.726,10.854,7.611-1.411,13.952-6.25,18.846-14.383A97.265,97.265,0,0,0,697.206,849.8l.9-5.258,4.534,2.779c.175.107,13.284,7.94,19.949,1.276a11.91,11.91,0,0,0,3.188-9.1c-.309-7.192-5.46-15.341-14.5-22.944-14.516-12.208-28.945-13.96-32.894-9.844-2.766,2.881-4.609,10.284-6.235,16.816-1.669,6.7-3.11,12.489-5.766,15.791a5.215,5.215,0,0,1-4.095,2.037h-.01c-3.69,0-6.494-3.464-12.078-10.361-11.931-14.739-34.141-42.173-76.844-45.562-35.054-2.782-77.851-.723-92.853,13.4a16.338,16.338,0,0,0-5.559,12.7c.7,44.454,16.649,55.135,19.241,56.576" transform="translate(-373.008 -619.262)" fill="#371a45"/>
        <path id="Path_10507" data-name="Path 10507" d="M1606.266,1036.03c.277,1.668.5,3.283.7,4.933s.359,3.294.488,4.956a78.512,78.512,0,0,1,.177,10.158v.012a3.625,3.625,0,1,1-7.24-.385,3.914,3.914,0,0,1,.1-.671,72.212,72.212,0,0,0,1.553-9.191q.256-2.361.415-4.749c.1-1.584.18-3.2.212-4.76v-.042a1.81,1.81,0,0,1,3.6-.261" transform="translate(-1276.307 -824.404)" fill="#371a45"/>
        <path id="Path_10508" data-name="Path 10508" d="M1394.157,1042.247c1.182,1.46,2.228,2.86,3.289,4.321s2.068,2.926,3.049,4.429a61.492,61.492,0,0,1,5.215,9.535,1.81,1.81,0,0,1-3.187,1.688l-.026-.041a57.243,57.243,0,0,0-6.269-7.842q-1.735-1.857-3.563-3.631c-1.207-1.171-2.476-2.364-3.691-3.421a3.628,3.628,0,0,1,4.742-5.493,3.962,3.962,0,0,1,.441.456" transform="translate(-1106.708 -829.497)" fill="#371a45"/>
        <path id="Path_10509" data-name="Path 10509" d="M1158.932,918.674c-4.537,13.047-13.847,25.551-29.878,30.853l-16.923-10.984s14.948-8.233,22.065-23.244q1.326-2.809,2.318-5.428c6.955-18.34,2.382-29.984,2.382-29.984s10.239-8.225,18.872.8c5.124,5.356,6.694,22.077,1.164,37.991" transform="translate(-886.924 -698.448)" fill="#fff"/>
        <g id="Group_5484" data-name="Group 5484" transform="translate(225.207 211.423)" opacity="0.35">
          <g id="Group_5483" data-name="Group 5483">
            <g id="Group_5482" data-name="Group 5482" clip-path="url(#clip-path-7)">
              <path id="Path_10510" data-name="Path 10510" d="M1158.932,1049.782c-4.537,13.047-13.847,25.551-29.878,30.853l-16.923-10.984s14.948-8.234,22.065-23.244q1.326-2.809,2.318-5.428c2.643,3.836,6.251,7.555,10.735,8.677a24.924,24.924,0,0,0,11.682.127" transform="translate(-1112.131 -1040.979)" fill="#371a45"/>
            </g>
          </g>
        </g>
        <path id="Path_10511" data-name="Path 10511" d="M1114.829,938.891a3.621,3.621,0,0,1-1.129-7.058c19.665-6.5,26.688-23.95,29.124-33.773,3.49-14.068,1.143-25.957-1.892-29.13-4.41-4.611-9.375-3.113-12.076-1.7,1.211,5.486,2.492,18.276-5.626,35.372-7.539,15.878-22.943,24.5-23.594,24.857a3.617,3.617,0,0,1-3.478-6.342c.231-.129,14.062-7.952,20.556-21.627,9.285-19.554,4.632-32.432,4.585-32.56l-.925-2.46,2.038-1.667c4.433-3.558,15.1-7.9,23.728,1.117,5.793,6.056,7.345,21.149,3.688,35.888-4.757,19.177-17.1,33.356-33.868,38.9a3.6,3.6,0,0,1-1.131.183" transform="translate(-872.696 -684.194)" fill="#371a45"/>
        <path id="Path_10512" data-name="Path 10512" d="M281.992,1407.714c-77.413,43.14-175.029,15.178-218.042-62.464a160.968,160.968,0,0,1-16.085-41.807,158.5,158.5,0,0,1-3.181-18.732,160.982,160.982,0,0,1,81.538-158.141,160.01,160.01,0,0,1,218.042,62.456,160.878,160.878,0,0,1,17.642,49.339c11.953,65.919-18.277,135-79.914,169.348" transform="translate(-34.879 -881.608)" fill="#ffa726"/>
        <g id="Group_5487" data-name="Group 5487" transform="translate(10.85 336.622)" opacity="0.35">
          <g id="Group_5486" data-name="Group 5486">
            <g id="Group_5485" data-name="Group 5485" clip-path="url(#clip-path-8)">
              <path id="Path_10513" data-name="Path 10513" d="M289.848,1846.906c-77.413,43.14-175.029,15.178-218.042-62.464a160.96,160.96,0,0,1-16.085-41.807c-.846-3.645-1.564-7.312-2.138-10.98a177.317,177.317,0,0,0,120.026,64.881l-.733-.773a26.8,26.8,0,0,1,.642-15.322c5.107-14.716,17.022-24.878,40.157-16.792,13.192,4.607,21.835,16.027,22.485,28.038a177.349,177.349,0,0,0,41.4-16.686c.7-.394,1.4-.788,2.093-1.19-2.342-9.321.219-20.49,7.669-29.432,10.616-12.731,27.4-16.474,38.865-9.154a178.48,178.48,0,0,0,38.555-77.8,161.315,161.315,0,0,1,5.017,20.134c11.953,65.919-18.277,135-79.914,169.348" transform="translate(-53.582 -1657.422)" fill="#371a45"/>
            </g>
          </g>
        </g>
        <g id="Group_5490" data-name="Group 5490" transform="translate(6.994 222.807)" opacity="0.4">
          <g id="Group_5489" data-name="Group 5489">
            <g id="Group_5488" data-name="Group 5488" clip-path="url(#clip-path-9)">
              <path id="Path_10514" data-name="Path 10514" d="M358.716,1231.385a165.518,165.518,0,0,0-12.807-29.575,163.283,163.283,0,0,0-152.077-84.043l.008.03c2.327,9.287-7.444,19.75-21.818,23.372s-27.916-.967-30.242-10.254a10.98,10.98,0,0,1-.25-1.314,162.456,162.456,0,0,0-17.8,8.563c-62.887,35.051-93.7,105.562-81.393,172.8-23.39-72.928,6.955-154.636,76.265-193.265,78.874-43.96,178.351-15.469,222.183,63.646a163.823,163.823,0,0,1,17.935,50.043" transform="translate(-34.538 -1097.034)" fill="#fff"/>
            </g>
          </g>
        </g>
        <path id="Path_10515" data-name="Path 10515" d="M193.852,1416.141a164.449,164.449,0,0,1-143.7-84.726C6.2,1252.078,34.793,1151.668,113.9,1107.581s179.215-15.408,223.173,63.93a164.6,164.6,0,0,1-143.217,244.63m-.5-321.679a155.229,155.229,0,0,0-75.784,19.742C42.1,1156.261,14.824,1252.05,56.757,1327.734a156.674,156.674,0,1,0,136.59-233.272" transform="translate(-23.543 -866.141)" fill="#371a45"/>
        <path id="Path_10516" data-name="Path 10516" d="M687.811,2184.758a29.142,29.142,0,0,1,1.957,5,28.206,28.206,0,0,1,.942,5.364,27.309,27.309,0,0,1-.152,5.5,41.346,41.346,0,0,1-1.035,5.293,32.736,32.736,0,0,1-4.537,10.076,26.332,26.332,0,0,1-8.4,7.739,29.435,29.435,0,0,1-10.75,3.559,46,46,0,0,1-10.947.134c-1.8-.214-3.529-.468-5.322-.829a38.478,38.478,0,0,1-5.369-1.482,36.858,36.858,0,0,1-5.124-2.232,33.323,33.323,0,0,1-4.748-2.984,36.1,36.1,0,0,1-7.87-8.026,31.283,31.283,0,0,1-4.868-10.239,29.336,29.336,0,0,1,2.7-22.119,31.287,31.287,0,0,1,16.68-13.9,34.878,34.878,0,0,1,20.954-.849,1.133,1.133,0,0,1-.421,2.218,34.891,34.891,0,0,0-18.731,3,27.257,27.257,0,0,0-12.98,12.456,23.572,23.572,0,0,0-1.342,17.229,27.588,27.588,0,0,0,10.32,14.153,32.566,32.566,0,0,0,7.94,4.22,31.023,31.023,0,0,0,4.357,1.244c1.508.319,3.109.569,4.657.766a39.463,39.463,0,0,0,9.22.193,25.014,25.014,0,0,0,8.454-2.387c5.178-2.584,8.973-7.589,11.055-13.525a44.247,44.247,0,0,0,1.358-4.55,24.579,24.579,0,0,0,.642-4.587,27.073,27.073,0,0,0-1.223-9.368l-.009-.03a1.4,1.4,0,0,1,2.593-1.038" transform="translate(-494.881 -1724.13)" fill="#371a45"/>
        <g id="Group_5493" data-name="Group 5493" transform="translate(184.019 329.745)" opacity="0.4">
          <g id="Group_5492" data-name="Group 5492">
            <g id="Group_5491" data-name="Group 5491" clip-path="url(#clip-path-10)">
              <path id="Path_10517" data-name="Path 10517" d="M932.554,1670.474a24.573,24.573,0,0,1-23.3-.816,22.172,22.172,0,0,0,12.428.447,22.415,22.415,0,0,0-10.894-43.486c-.7.177-1.383.388-2.055.627.661-.409,1.339-.783,2.045-1.133a24.709,24.709,0,0,1,21.778,44.361" transform="translate(-908.731 -1623.563)" fill="#fff"/>
            </g>
          </g>
        </g>
        <g id="Group_5496" data-name="Group 5496" transform="translate(49.612 354.64)" opacity="0.35">
          <g id="Group_5495" data-name="Group 5495">
            <g id="Group_5494" data-name="Group 5494" clip-path="url(#clip-path-11)">
              <path id="Path_10518" data-name="Path 10518" d="M311.424,1771.721a33.725,33.725,0,1,1-40.919-24.558,33.826,33.826,0,0,1,40.919,24.558" transform="translate(-244.994 -1746.135)" fill="#371a45"/>
            </g>
          </g>
        </g>
        <g id="Group_5499" data-name="Group 5499" transform="translate(51.847 347.214)" opacity="0.4">
          <g id="Group_5498" data-name="Group 5498">
            <g id="Group_5497" data-name="Group 5497" clip-path="url(#clip-path-12)">
              <path id="Path_10519" data-name="Path 10519" d="M334.364,1737.408a41.239,41.239,0,1,1-77.915,27.055c-.148-.429-.287-.854-.419-1.282a33.816,33.816,0,1,0,7.3-38.229,41.171,41.171,0,0,1,71.03,12.456" transform="translate(-256.031 -1709.572)" fill="#fff"/>
            </g>
          </g>
        </g>
        <path id="Path_10520" data-name="Path 10520" d="M246.875,1736.719a35.494,35.494,0,0,1,21.113-11.425,37.474,37.474,0,0,1,24.206,4.412,38.2,38.2,0,0,1,9.772,7.992L303,1738.91l.515.608.46.65c.6.873,1.229,1.736,1.81,2.627l1.56,2.788c.511.934.886,1.936,1.315,2.911a40.1,40.1,0,0,1,2.8,12.422,39.022,39.022,0,0,1-1.414,12.677,37.681,37.681,0,0,1-5.467,11.493,38.585,38.585,0,0,1-8.843,9.1,39.152,39.152,0,0,1-11.319,5.614c-1.018.272-2.01.637-3.047.823l-3.106.544a40.561,40.561,0,0,1-6.284.251,37.012,37.012,0,0,1-12.2-2.509,38.409,38.409,0,0,1-10.564-6.38,35.874,35.874,0,0,1-11.968-20.657,1.128,1.128,0,0,1,2.174-.58l.01.03a35.038,35.038,0,0,0,12.7,17.5,34.514,34.514,0,0,0,9.511,4.839,33.705,33.705,0,0,0,10.422,1.518,34.257,34.257,0,0,0,5.221-.478l2.556-.583c.855-.174,1.665-.521,2.5-.767a31.931,31.931,0,0,0,20.477-21.815,34.389,34.389,0,0,0,1.162-10.223,32.44,32.44,0,0,0-24.822-29.924,30.716,30.716,0,0,0-10.53-.868,34.352,34.352,0,0,0-19.792,8.193,1.4,1.4,0,0,1-1.975-.164,1.413,1.413,0,0,1,.018-1.837" transform="translate(-189.184 -1374.517)" fill="#371a45"/>
        <path id="Path_10521" data-name="Path 10521" d="M1192.806,2019.738a26.816,26.816,0,0,1,5.019,1,24.925,24.925,0,0,1,4.776,2.074,24.327,24.327,0,0,1,7.808,7.1,27.491,27.491,0,0,1,4.273,9.8,30.424,30.424,0,0,1,.38,10.652,36.339,36.339,0,0,1-2.908,10.186,44.063,44.063,0,0,1-5.575,8.958,46.5,46.5,0,0,1-7.711,7.176,40.6,40.6,0,0,1-9.352,4.973,36.3,36.3,0,0,1-10.483,2.086,28.679,28.679,0,0,1-10.746-1.416,27.081,27.081,0,0,1-9.476-5.514,25.243,25.243,0,0,1-6.366-8.86,30.228,30.228,0,0,1-.773-20.77,38.115,38.115,0,0,1,4.4-9.2,40.323,40.323,0,0,1,6.652-7.471,1.129,1.129,0,0,1,1.618,1.564l-.027.033a45.166,45.166,0,0,0-5.115,7.721,36.9,36.9,0,0,0-2.973,8.545,26.207,26.207,0,0,0,1.852,16.936,20.351,20.351,0,0,0,12.344,10.191,26.563,26.563,0,0,0,16.51-.92,38.052,38.052,0,0,0,7.593-4.02,39.167,39.167,0,0,0,6.4-5.85,38.079,38.079,0,0,0,4.824-7.2,34.116,34.116,0,0,0,2.735-8.175c.1-.708.275-1.415.332-2.127l.161-2.143-.045-2.14c-.006-.717-.165-1.409-.217-2.122a21.763,21.763,0,0,0-16.4-18.305l-.027-.007a1.4,1.4,0,0,1,.516-2.752" transform="translate(-917.285 -1609.523)" fill="#371a45"/>
        <g id="Group_5502" data-name="Group 5502" transform="translate(169.166 332.121)" opacity="0.35">
          <g id="Group_5501" data-name="Group 5501">
            <g id="Group_5500" data-name="Group 5500" clip-path="url(#clip-path-13)">
              <path id="Path_10522" data-name="Path 10522" d="M879.414,1652.217a22.355,22.355,0,1,1-27.123-16.278,22.421,22.421,0,0,1,27.123,16.278" transform="translate(-835.382 -1635.258)" fill="#371a45"/>
            </g>
          </g>
        </g>
        <path id="Path_10523" data-name="Path 10523" d="M832.419,1664.019a22.281,22.281,0,0,1-4.925-14.563,23.711,23.711,0,0,1,1.514-7.908,24.967,24.967,0,0,1,4.105-7.043,24.509,24.509,0,0,1,14.007-8.3,24.615,24.615,0,0,1,16.237,2.275,25.112,25.112,0,0,1,11.307,11.857,24.827,24.827,0,0,1,2.085,7.99,23.292,23.292,0,0,1-.642,8.149,23.675,23.675,0,0,1-3.228,7.41,24.5,24.5,0,0,1-5.445,5.793,22.186,22.186,0,0,1-14.471,4.538,1.135,1.135,0,0,1-.154-2.248l.039-.007a21.388,21.388,0,0,0,11.529-5.873,20.611,20.611,0,0,0,3.734-5.057,20.353,20.353,0,0,0,1.914-5.85,20.1,20.1,0,0,0,.255-3.037l-.074-1.52c-.01-.506-.128-1-.181-1.5a19.583,19.583,0,0,0-1.812-5.691,18.933,18.933,0,0,0-8.271-8.223,19.476,19.476,0,0,0-5.583-1.778,18.922,18.922,0,0,0-19.772,10.5,18.013,18.013,0,0,0-1.851,5.91,21.155,21.155,0,0,0,2.02,12.635l.008.015a1.407,1.407,0,0,1-2.344,1.522" transform="translate(-659.922 -1295.538)" fill="#371a45"/>
        <g id="Group_5505" data-name="Group 5505" transform="translate(267.793 307.398)" opacity="0.3">
          <g id="Group_5504" data-name="Group 5504">
            <g id="Group_5503" data-name="Group 5503" clip-path="url(#clip-path-14)">
              <path id="Path_10524" data-name="Path 10524" d="M1353.947,1548.333c-3.007,3.639-7.51,4.231-11.871,2.143a8.1,8.1,0,0,0,6.333-1.135c5.329-3.577,6.238-13.2,2.034-21.5s-11.927-12.125-17.256-8.548a8.292,8.292,0,0,0-.89.693,11.189,11.189,0,0,1,.772-1.056c4.773-5.777,13.315-3.881,19.081,4.241s6.57,19.39,1.8,25.167" transform="translate(-1330.299 -1515.165)" fill="#fff"/>
              <path id="Path_10525" data-name="Path 10525" d="M1339.15,1550.461a11.883,11.883,0,0,1-5.123-1.246l-3.146-1.507,3.412.721a7.692,7.692,0,0,0,6.016-1.073c5.148-3.457,6-12.863,1.894-20.968-2.447-4.831-6.249-8.328-10.169-9.355a7.775,7.775,0,0,0-6.484.964,7.87,7.87,0,0,0-.844.658l-2.275,2.022,1.648-2.562a11.361,11.361,0,0,1,.8-1.1,9.161,9.161,0,0,1,7.626-3.489c4.315.159,8.732,2.984,12.116,7.753,5.859,8.254,6.656,19.772,1.778,25.675a9.212,9.212,0,0,1-7.248,3.5m-2.033-1.06a8.509,8.509,0,0,0,8.64-2.974c4.653-5.631,3.838-16.692-1.815-24.657-3.234-4.556-7.414-7.254-11.469-7.4a8.215,8.215,0,0,0-5.995,2.18,8.805,8.805,0,0,1,5.766-.323c4.148,1.086,8.149,4.744,10.7,9.785,4.289,8.469,3.314,18.357-2.174,22.041a8.2,8.2,0,0,1-3.655,1.352" transform="translate(-1322.43 -1513.526)" fill="#371a45"/>
            </g>
          </g>
        </g>
        <g id="Group_5508" data-name="Group 5508" transform="translate(266.005 310.182)" opacity="0.35">
          <g id="Group_5507" data-name="Group 5507">
            <g id="Group_5506" data-name="Group 5506" clip-path="url(#clip-path-15)">
              <path id="Path_10526" data-name="Path 10526" d="M1335.533,1537.126c4.2,8.3,3.292,17.924-2.036,21.5s-13.054-.251-17.257-8.549-3.292-17.924,2.036-21.5,13.054.251,17.257,8.549" transform="translate(-1313.599 -1527.238)" fill="#371a45"/>
            </g>
          </g>
        </g>
        <g id="Group_5511" data-name="Group 5511" transform="translate(272.287 305.799)" opacity="0.4">
          <g id="Group_5510" data-name="Group 5510">
            <g id="Group_5509" data-name="Group 5509" clip-path="url(#clip-path-16)">
              <path id="Path_10527" data-name="Path 10527" d="M1364.5,1540.633a9.189,9.189,0,0,1-7.85,1.069c.151-.083.295-.174.446-.273,5.327-3.577,6.233-13.2,2.032-21.5-3.521-6.957-9.52-10.768-14.506-9.715a10.016,10.016,0,0,1,2.916-3.069c5.939-3.979,14.544.28,19.229,9.533s3.664,19.967-2.267,23.953" transform="translate(-1344.623 -1505.657)" fill="#fff"/>
            </g>
          </g>
        </g>
        <path id="Path_10528" data-name="Path 10528" d="M1309.209,1546.257a21.477,21.477,0,0,1-5.858-8.191,22.144,22.144,0,0,1-1.746-10.384,16.494,16.494,0,0,1,1.386-5.57,12.821,12.821,0,0,1,3.934-5,11.31,11.31,0,0,1,6.364-2.217,13.237,13.237,0,0,1,6.171,1.364,20.161,20.161,0,0,1,8.155,7.546,25.862,25.862,0,0,1,3.666,9.863,20.992,20.992,0,0,1-1,10.489,12.916,12.916,0,0,1-2.955,4.59,8.865,8.865,0,0,1-4.823,2.5,1.143,1.143,0,0,1-.724-2.126l.052-.029a8.31,8.31,0,0,0,3.938-6.276,16.329,16.329,0,0,0,.136-3.935,22.6,22.6,0,0,0-4.212-11.058,14.728,14.728,0,0,0-5.415-4.721c-2-.908-3.687-.852-5.03.045-1.385.867-2.562,2.952-3.019,5.406a20.265,20.265,0,0,0,.134,7.913,25.64,25.64,0,0,0,2.966,7.963l.024.042a1.418,1.418,0,0,1-2.141,1.786" transform="translate(-1037.976 -1207.217)" fill="#371a45"/>
        <g id="Group_5514" data-name="Group 5514" transform="translate(173.526 255.806)" opacity="0.4">
          <g id="Group_5513" data-name="Group 5513">
            <g id="Group_5512" data-name="Group 5512" clip-path="url(#clip-path-17)">
              <path id="Path_10529" data-name="Path 10529" d="M875.231,1295.576a18.893,18.893,0,0,1-17.917-.627,17.047,17.047,0,0,0,9.556.344,17.235,17.235,0,0,0-8.376-33.436c-.541.136-1.063.3-1.58.482.508-.314,1.029-.6,1.573-.871a19,19,0,0,1,16.745,34.109" transform="translate(-856.913 -1259.507)" fill="#fff"/>
            </g>
          </g>
        </g>
        <g id="Group_5517" data-name="Group 5517" transform="translate(162.105 257.632)" opacity="0.35">
          <g id="Group_5516" data-name="Group 5516">
            <g id="Group_5515" data-name="Group 5515" clip-path="url(#clip-path-18)">
              <path id="Path_10530" data-name="Path 10530" d="M834.373,1281.538a17.188,17.188,0,1,1-20.855-12.516,17.24,17.24,0,0,1,20.855,12.516" transform="translate(-800.517 -1268.498)" fill="#371a45"/>
            </g>
          </g>
        </g>
        <path id="Path_10531" data-name="Path 10531" d="M795.6,1287.379a17.283,17.283,0,0,1-4.122-11.42,19.1,19.1,0,0,1,4.345-11.973,19.6,19.6,0,0,1,11.194-6.7,19.661,19.661,0,0,1,13.035,1.815,20.031,20.031,0,0,1,9.044,9.537,19.708,19.708,0,0,1,1.635,6.409,19.178,19.178,0,0,1-3.2,12.385,19.291,19.291,0,0,1-4.385,4.539,17.165,17.165,0,0,1-11.467,3.335,1.139,1.139,0,0,1-.135-2.252l.021,0c6.784-1.369,11.782-6.828,12.5-12.8a14.228,14.228,0,0,0-1.417-8.525,13.856,13.856,0,0,0-6.009-5.9,14.277,14.277,0,0,0-4.021-1.28,13.948,13.948,0,0,0-11.819,3.906,14.858,14.858,0,0,0-2.615,3.582,13.162,13.162,0,0,0-1.462,4.313,16.129,16.129,0,0,0,1.217,9.492l.013.03a1.413,1.413,0,0,1-2.35,1.507" transform="translate(-631.2 -1001.613)" fill="#371a45"/>
        <path id="Path_10532" data-name="Path 10532" d="M441.826,1299.084c-.767-4.5,4.926-12.188,13.76-15.541s16.61-.9,18.231,3.4" transform="translate(-352.301 -1021.608)" fill="#ffa726"/>
        <path id="Path_10533" data-name="Path 10533" d="M434.314,1287.217a7.331,7.331,0,0,1-.315-3.3,12.468,12.468,0,0,1,.76-3.042,18.994,18.994,0,0,1,3.068-5.159,25.039,25.039,0,0,1,9.439-6.987A22.246,22.246,0,0,1,459.049,1267a15.169,15.169,0,0,1,5.9,2.073,10.842,10.842,0,0,1,2.488,2.18,8.97,8.97,0,0,1,.932,1.442,6.786,6.786,0,0,1,.542,1.65,1.44,1.44,0,0,1-2.511,1.189l-.153-.178a6.623,6.623,0,0,0-3.374-1.98,14.892,14.892,0,0,0-4.269-.492,25.13,25.13,0,0,0-8.8,1.947,29.377,29.377,0,0,0-7.9,4.821,21.932,21.932,0,0,0-3.182,3.322,9.009,9.009,0,0,0-1.858,3.8l-.038.219a1.306,1.306,0,0,1-2.518.22" transform="translate(-346.067 -1009.522)" fill="#371a45"/>
        <g id="Group_5520" data-name="Group 5520" transform="translate(88.173 260.362)" opacity="0.35">
          <g id="Group_5519" data-name="Group 5519">
            <g id="Group_5518" data-name="Group 5518" clip-path="url(#clip-path-19)">
              <path id="Path_10534" data-name="Path 10534" d="M435.841,1301.005c-2.081-4.574,3.8-11.744,13.125-16.015s18.581-4.023,20.662.551-3.8,11.745-13.125,16.015-18.581,4.023-20.662-.551" transform="translate(-435.422 -1281.942)" fill="#371a45"/>
            </g>
          </g>
        </g>
        <g id="Group_5523" data-name="Group 5523" transform="translate(53.146 309.035)" opacity="0.3">
          <g id="Group_5522" data-name="Group 5522">
            <g id="Group_5521" data-name="Group 5521" clip-path="url(#clip-path-20)">
              <path id="Path_10535" data-name="Path 10535" d="M262.447,1524.356c.675-.925,1.358-1.85,2.075-2.766-.709.916-1.4,1.833-2.075,2.766" transform="translate(-262.447 -1521.59)" fill="#293856"/>
            </g>
          </g>
        </g>
        <g id="Group_5526" data-name="Group 5526" transform="translate(37.297 187.599)" opacity="0.35">
          <g id="Group_5525" data-name="Group 5525">
            <g id="Group_5524" data-name="Group 5524" clip-path="url(#clip-path-21)">
              <path id="Path_10536" data-name="Path 10536" d="M369.631,966.851a74.24,74.24,0,0,1-6.324,14.7,60.765,60.765,0,0,1-5.449,8.061,55.365,55.365,0,0,1-6.432,6.786c-5.187,4.623-11.763,7.12-18.6,8.242-15.552,2.569-32.431-2.018-37.284-5.1-6.315-4.017-13.27-9.989-14.344-25.451-.054-.724-.09-1.466-.117-2.235-3.257.479-6.549.805-9.851,1q-3.18.177-6.369.181a110.78,110.78,0,0,1-48.425-11.346c-1.777-.887-3.527-1.792-5.232-2.75a111.49,111.49,0,0,1-10.077-6.361,109.875,109.875,0,0,1-15.219-13c-2.643-9.328-1.461-15.888-1.461-15.888H287.63a196.7,196.7,0,0,1,3.834,36.019c.505-.081,1.019-.163,1.534-.235,1.515-.226,3.022-.425,4.538-.6.622-.081,1.245-.145,1.867-.208h.009c.695-.081,1.4-.145,2.093-.208h.009c.685-.063,1.371-.126,2.057-.181h.054c.695-.054,1.4-.108,2.093-.154q2.111-.136,4.222-.217c.695-.027,1.389-.054,2.093-.072h.009c.695-.018,1.389-.027,2.084-.036s1.407-.018,2.1-.018c.722,0,1.434.009,2.147.018.406,0,.812.009,1.218.018h.027l1.272.027,2.057.081c.406.009.821.027,1.227.054h.045c.577.027,1.164.063,1.741.1.767.045,1.525.091,2.292.154a1.585,1.585,0,0,1,.207.018c.758.054,1.525.118,2.282.181.424.045.848.081,1.272.127,1.11.109,2.219.226,3.329.362h.009c.695.081,1.4.172,2.093.262h.009l1.2.163a.688.688,0,0,0,.135.018c.532.072,1.055.154,1.579.235.875.126,1.75.271,2.616.416.253.045.5.081.749.127.144.027.28.045.424.073q1.867.326,3.735.706c1.389.271,2.769.57,4.141.878.685.163,1.371.317,2.057.488s1.362.326,2.048.507h.009c.677.172,1.362.353,2.039.534s1.353.362,2.03.561h.009c.677.19,1.344.38,2.021.588h.009c.677.2,1.344.4,2.012.606h.009q2.016.624,4.005,1.3h.009c.451.154.893.307,1.344.47" transform="translate(-184.184 -923.683)" fill="#371a45"/>
            </g>
          </g>
        </g>
        <path id="Path_10537" data-name="Path 10537" d="M28.892,176.816a110.354,110.354,0,0,0,35.929,42.768A111.745,111.745,0,0,0,74.9,225.941c1.7.956,3.453,1.868,5.233,2.754a110.6,110.6,0,0,0,16.413,6.5,109.744,109.744,0,0,0,32.01,4.846q3.192,0,6.365-.175A110.7,110.7,0,0,0,228.3,177.753c26.892-55.1,4.148-121.63-50.782-148.6a110.29,110.29,0,0,0-32.662-10.161c-1.292-.2-2.594-.365-3.9-.5q-5.228-.582-10.442-.66A111.08,111.08,0,0,0,84.1,27.311q-3.459,1.528-6.817,3.3A110.769,110.769,0,0,0,29.354,80.093a111.177,111.177,0,0,0-.462,96.723" transform="translate(-14.396 -14.199)" fill="#fff"/>
        <path id="Path_10538" data-name="Path 10538" d="M127,238.985a110.148,110.148,0,0,1-32.116-4.861,111.362,111.362,0,0,1-16.465-6.517c-1.957-.973-3.673-1.877-5.251-2.763a112.414,112.414,0,0,1-10.113-6.377,111.519,111.519,0,0,1,12.5-189.594c2.2-1.161,4.5-2.273,6.839-3.306a111.439,111.439,0,0,1,46.566-9.512c3.476.052,7,.275,10.477.663,1.364.142,2.683.311,3.915.5a110.616,110.616,0,0,1,32.764,10.193C231.146,54.432,254,121.311,227.068,176.5a111.331,111.331,0,0,1-93.681,62.311c-2.114.115-4.262.174-6.384.176m.365-222.219a110.759,110.759,0,0,0-44.68,9.462c-2.321,1.026-4.608,2.131-6.794,3.284A110.881,110.881,0,0,0,63.472,217.875a111.918,111.918,0,0,0,10.049,6.336c1.569.881,3.276,1.779,5.219,2.745A110.665,110.665,0,0,0,95.1,233.431,109.408,109.408,0,0,0,127,238.261c2.108,0,4.243-.061,6.343-.174a110.606,110.606,0,0,0,93.072-61.906c26.76-54.829,4.053-121.274-50.616-148.117a109.924,109.924,0,0,0-32.554-10.128c-1.224-.19-2.53-.357-3.885-.5-3.456-.385-6.958-.606-10.41-.658q-.792-.012-1.586-.012" transform="translate(-12.839 -12.785)" fill="#371a45"/>
        <g id="Group_5529" data-name="Group 5529" transform="translate(3.654 91.172)" opacity="0.35">
          <g id="Group_5528" data-name="Group 5528">
            <g id="Group_5527" data-name="Group 5527" clip-path="url(#clip-path-22)">
              <path id="Path_10539" data-name="Path 10539" d="M28.884,520.343a110.354,110.354,0,0,0,35.929,42.768A111.722,111.722,0,0,0,74.9,569.468c1.7.956,3.453,1.868,5.233,2.754a110.625,110.625,0,0,0,16.413,6.5,109.745,109.745,0,0,0,32.01,4.846q3.192,0,6.365-.175A111.1,111.1,0,0,0,238.8,459.283a111.644,111.644,0,0,1-8.787,25.3c-6.843,14.029-17.93,19.166-29.047,28.719-18.528,15.921-40.139,32.025-64.329,33.389q-3.172.172-6.365.175a109.745,109.745,0,0,1-32.01-4.846,110.611,110.611,0,0,1-16.413-6.5c-1.78-.885-3.531-1.8-5.233-2.754a111.606,111.606,0,0,1-10.082-6.356A110.356,110.356,0,0,1,30.6,483.646,112.04,112.04,0,0,1,20.561,448.9a111.4,111.4,0,0,0,8.324,71.441" transform="translate(-18.042 -448.902)" fill="#371a45"/>
            </g>
          </g>
        </g>
        <path id="Path_10540" data-name="Path 10540" d="M118.775,232.854A112.244,112.244,0,0,1,86.042,227.9a113.492,113.492,0,0,1-16.77-6.639c-2-.994-3.744-1.913-5.353-2.816a114.821,114.821,0,0,1-10.3-6.493A113.614,113.614,0,0,1,66.355,18.794c2.245-1.184,4.589-2.317,6.97-3.369a113.531,113.531,0,0,1,47.439-9.689c3.543.053,7.135.28,10.677.675,1.384.144,2.737.318,4,.515a112.659,112.659,0,0,1,33.362,10.381c56.063,27.527,79.347,95.664,51.907,151.889a113.419,113.419,0,0,1-95.439,63.481c-2.156.117-4.341.177-6.5.179m.363-222.218A108.668,108.668,0,0,0,75.3,19.92c-2.279,1.008-4.522,2.092-6.665,3.222a108.784,108.784,0,0,0-12.19,184.8,109.917,109.917,0,0,0,9.86,6.217c1.543.866,3.22,1.748,5.132,2.7A108.52,108.52,0,0,0,87.476,223.2a107.343,107.343,0,0,0,31.3,4.739c2.065,0,4.162-.06,6.225-.172a108.514,108.514,0,0,0,91.309-60.735c26.253-53.792,3.976-118.98-49.659-145.316a107.807,107.807,0,0,0-31.936-9.936c-1.209-.188-2.48-.351-3.8-.488-3.405-.379-6.84-.6-10.226-.647q-.777-.012-1.554-.011" transform="translate(-4.609 -4.56)" fill="#371a45"/>
        <path id="Path_10541" data-name="Path 10541" d="M114.208,229.456a113.38,113.38,0,0,1-33.073-5.005A114.533,114.533,0,0,1,64.2,217.745c-2.021-1.005-3.785-1.933-5.411-2.846a115.79,115.79,0,0,1-10.4-6.557A114.776,114.776,0,0,1,61.248,13.2c2.268-1.2,4.637-2.341,7.043-3.4A114.663,114.663,0,0,1,116.214.011c3.58.054,7.209.283,10.789.682,1.4.145,2.767.321,4.053.521A113.788,113.788,0,0,1,164.748,11.7c56.638,27.81,80.161,96.644,52.44,153.444a114.58,114.58,0,0,1-96.415,64.131c-2.178.118-4.384.179-6.563.181M114.57,7.237A107.523,107.523,0,0,0,71.2,16.422c-2.256,1-4.474,2.069-6.6,3.187a107.62,107.62,0,0,0-12.06,182.818,108.609,108.609,0,0,0,9.755,6.151c1.528.858,3.189,1.731,5.083,2.674a107.331,107.331,0,0,0,15.861,6.277,106.157,106.157,0,0,0,30.967,4.688c2.04,0,4.116-.059,6.16-.17a107.351,107.351,0,0,0,90.33-60.085c25.972-53.216,3.933-117.706-49.128-143.76a106.639,106.639,0,0,0-31.593-9.83q-1.8-.28-3.752-.482c-3.377-.376-6.774-.591-10.124-.641q-.769-.011-1.537-.012" transform="translate(-0.042 0.001)" fill="#371a45"/>
        <path id="Path_10542" data-name="Path 10542" d="M44.151,291.485c62.465,48.761,152.274,20.937,160.952-57.21,5.9-53.167-41.441-100.013-92.717-102.43-37.32-1.759-74.521,12.9-93.078,70.243,0,0-4.306,26.658,2.023,44.882a254.368,254.368,0,0,0,15.55,34.876Z" transform="translate(-14.257 -104.958)" fill="#371a45"/>
        <g id="Group_5532" data-name="Group 5532" transform="translate(17.454 63.262)" opacity="0.35">
          <g id="Group_5531" data-name="Group 5531">
            <g id="Group_5530" data-name="Group 5530" clip-path="url(#clip-path-23)">
              <path id="Path_10543" data-name="Path 10543" d="M238.382,311.481a83.822,83.822,0,0,1,8.04,45.746c-8.645,77.848-97.8,105.747-160.229,57.756,2.978,6.163,5.17,10.124,5.17,10.124l7.27,9.639c62.465,48.761,152.274,20.937,160.952-57.21,2.736-24.643-5.972-47.923-21.2-66.056" transform="translate(-86.194 -311.481)" fill="#111a28"/>
            </g>
          </g>
        </g>
        <path id="Path_10544" data-name="Path 10544" d="M101.532,273.995a120.5,120.5,0,0,1-16.614-1.154l-.434-.1a113.792,113.792,0,0,1-16.831-6.662c-2-1-3.756-1.919-5.371-2.825a115.035,115.035,0,0,1-10.329-6.514,114.094,114.094,0,0,1,2.73-187.816l.243-.163.273-.109c13.593-5.421,29.169-7.76,46.3-6.952,30.514,1.438,61.145,16.886,81.936,41.321,19.106,22.455,27.966,49.783,24.948,76.95-3.282,29.526-16.655,54.209-38.673,71.38-18.878,14.722-43.061,22.637-68.178,22.637m-15.618-6.724c29.3,4.02,58.566-3.4,80.335-20.377,20.789-16.213,33.421-39.568,36.529-67.543,2.844-25.6-5.549-51.4-23.633-72.653-19.8-23.27-48.923-37.978-77.911-39.344-16.2-.764-30.9,1.406-43.681,6.45a108.426,108.426,0,0,0-2.35,178.32,109.315,109.315,0,0,0,9.826,6.2c1.539.864,3.21,1.743,5.116,2.691a108.219,108.219,0,0,0,15.769,6.26" transform="translate(-3.152 -49.048)" fill="#371a45"/>
        <path id="Path_10545" data-name="Path 10545" d="M98.5,305.128c-24.69,0-49.765-8.556-70.822-24.993l-.376-.292L19.47,269.4a255.374,255.374,0,0,1-15.8-35.442c-6.554-18.872-2.359-45.526-2.177-46.651l.13-.538c16.349-50.521,48.869-75,96.679-72.741,27.446,1.294,54.99,15.18,73.68,37.147,17.2,20.211,25.171,44.822,22.454,69.3-3.922,35.319-24.335,63.261-56,76.662a102.286,102.286,0,0,1-39.93,8M32.483,274.712c30.612,23.7,70.089,29.737,103.142,15.75,29.189-12.352,48.01-38.155,51.635-70.794,2.495-22.468-4.883-45.125-20.771-63.8-17.42-20.473-43.038-33.413-68.529-34.615-44.073-2.083-74.138,20.62-89.387,67.467-.41,2.766-3.716,26.656,1.908,42.853a252.771,252.771,0,0,0,15.18,34.093Z" transform="translate(0 -90.752)" fill="#371a45"/>
        <path id="Path_10546" data-name="Path 10546" d="M901.466,478.987c0,.158,0,.327.01.485.395,21.676,13.388,38.45,29.175,37.559,15.905-.891,28.622-19.389,28.414-41.3-.168-16.9-7.987-30.915-18.867-36a21.153,21.153,0,0,0-10.317-2.04c-15.906.9-28.632,19.4-28.415,41.3" transform="translate(-718.916 -348.763)" fill="#fff"/>
        <g id="Group_5535" data-name="Group 5535" transform="translate(182.56 104.322)" opacity="0.35">
          <g id="Group_5534" data-name="Group 5534">
            <g id="Group_5533" data-name="Group 5533" clip-path="url(#clip-path-24)">
              <path id="Path_10547" data-name="Path 10547" d="M901.526,540.039c.395,21.676,13.388,38.45,29.175,37.559,15.905-.891,28.622-19.389,28.415-41.3a53.134,53.134,0,0,0-1.145-10.541c-3.024-14.186-22.293-16.543-28.9-3.64L921.953,536s-4.028,9.308-13.1,9.308c-3.08,0-5.489-2.268-7.326-5.268" transform="translate(-901.526 -513.652)" fill="#371a45"/>
            </g>
          </g>
        </g>
        <path id="Path_10548" data-name="Path 10548" d="M915.2,506.5c-6.628,0-12.914-2.626-18.265-7.649-8.32-7.811-13.168-20.208-13.3-34.014-.229-23.78,14.046-43.945,31.822-44.95,7.148-.409,13.96,2.226,19.693,7.609,8.32,7.811,13.167,20.209,13.3,34.013.231,23.781-14.045,43.945-31.822,44.95-.477.027-.954.041-1.428.041m1.655-79.415q-.5,0-.995.028c-13.983.791-25.2,17.682-25.011,37.653.114,11.663,4.232,22.429,11.018,28.8,4.257,4,9.2,5.955,14.355,5.666,13.984-.791,25.2-17.682,25.011-37.653-.113-11.662-4.231-22.429-11.017-28.8a19.423,19.423,0,0,0-13.361-5.695" transform="translate(-704.692 -334.579)" fill="#371a45"/>
        <path id="Path_10549" data-name="Path 10549" d="M1018.845,535.977c-5.108,16.031-18.921,24.116-30.853,18.059s-17.464-23.963-12.357-39.993,18.921-24.116,30.853-18.059,17.464,23.963,12.357,39.993" transform="translate(-776.551 -393.647)" fill="#fff"/>
        <path id="Path_10550" data-name="Path 10550" d="M994.805,554.993a18.509,18.509,0,0,1-8.41-2.039c-12.069-6.127-17.7-24.268-12.543-40.44,2.864-8.992,8.549-15.846,15.6-18.8a18.512,18.512,0,0,1,15.779.526c12.069,6.127,17.7,24.268,12.543,40.44-2.865,8.992-8.549,15.846-15.6,18.8a18.987,18.987,0,0,1-7.368,1.513m2.027-62.073a18.261,18.261,0,0,0-7.1,1.478c-6.846,2.875-12.378,9.561-15.176,18.344-5.046,15.838.413,33.578,12.171,39.547a17.548,17.548,0,0,0,15.155.5c6.846-2.875,12.377-9.561,15.176-18.344,5.047-15.839-.413-33.579-12.171-39.547a17.687,17.687,0,0,0-8.058-1.982" transform="translate(-775.122 -392.231)" fill="#371a45"/>
        <g id="Group_5538" data-name="Group 5538" transform="translate(197.089 116.37)" opacity="0.35">
          <g id="Group_5537" data-name="Group 5537">
            <g id="Group_5536" data-name="Group 5536" clip-path="url(#clip-path-25)">
              <path id="Path_10551" data-name="Path 10551" d="M974.394,600.752a37.753,37.753,0,0,1-.1-17.84c4.544,12.886,16.32,18.046,27.3,11.495,7.1-4.23,12.229-12.384,14.3-21.434.292.811.547,1.664.777,2.54,3.833,14.716-1.628,33.918-13.306,40.887s-25.144-.939-28.976-15.648" transform="translate(-973.276 -572.972)" fill="#371a45"/>
            </g>
          </g>
        </g>
        <path id="Path_10552" data-name="Path 10552" d="M989.587,539.748a19.855,19.855,0,0,1-13.672-5.741c-6.751-6.312-10.822-17.091-10.89-28.831-.116-20.053,10.835-36.473,24.931-37.383a19.687,19.687,0,0,1,14.878,5.7c6.75,6.312,10.821,17.09,10.888,28.831.117,20.053-10.834,36.473-24.93,37.382q-.6.039-1.205.039m1.55-64.755q-.354,0-.719.023c-9.943.641-18.268,14.433-18.177,30.117.057,9.786,3.27,18.6,8.6,23.579a12.739,12.739,0,0,0,9.493,3.774c9.944-.641,18.268-14.433,18.176-30.116h0c-.056-9.785-3.269-18.6-8.593-23.579a13.019,13.019,0,0,0-8.775-3.8" transform="translate(-769.605 -372.754)" fill="#371a45"/>
        <g id="Group_5541" data-name="Group 5541" transform="translate(17.427 49.427)" opacity="0.7">
          <g id="Group_5540" data-name="Group 5540">
            <g id="Group_5539" data-name="Group 5539" clip-path="url(#clip-path-26)">
              <path id="Path_10553" data-name="Path 10553" d="M133.939,243.721c.62-.877-3.205.115-3.205.115l-2.725.2s-4.842.562-7.221,1.013q-3.6.683-7.1,1.705a15.092,15.092,0,0,0-7.246,4.6,83.478,83.478,0,0,0-17.509,33.6c-6.657,25.75-1.408,45.415,12.337,64.332,0,0-2.574-13.6,2.657-40.54,2.926-15.068,7.642-33.354,30.015-65.022" transform="translate(-86.06 -243.359)" fill="#fff"/>
            </g>
          </g>
        </g>
        <g id="Group_5544" data-name="Group 5544" transform="translate(131.791 89.711)" opacity="0.7">
          <g id="Group_5543" data-name="Group 5543">
            <g id="Group_5542" data-name="Group 5542" clip-path="url(#clip-path-27)">
              <path id="Path_10554" data-name="Path 10554" d="M680.4,460.142c-.732,9.527-7.935,16.739-16.086,16.109s-14.166-8.865-13.434-18.392,7.935-16.739,16.086-16.109,14.166,8.865,13.434,18.392" transform="translate(-650.817 -441.711)" fill="#fff"/>
            </g>
          </g>
        </g>
        <g id="Group_5547" data-name="Group 5547" transform="translate(141.036 136.339)" opacity="0.7">
          <g id="Group_5546" data-name="Group 5546">
            <g id="Group_5545" data-name="Group 5545" clip-path="url(#clip-path-28)">
              <path id="Path_10555" data-name="Path 10555" d="M708.647,679.4c-.633,3.894-3.847,6.61-7.179,6.066s-5.521-4.143-4.888-8.037,3.847-6.61,7.179-6.066,5.521,4.143,4.888,8.037" transform="translate(-696.471 -671.293)" fill="#fff"/>
            </g>
          </g>
        </g>
        <path id="Path_10556" data-name="Path 10556" d="M751.13,840.022c33.879-9.1,31.386-36.38,27.279-42.116-5.726-8-29.626-4.9-38.314,13.266-8.51,17.8-23.577,11.446-25.777,38.659-1.973,24.405,5.72,32.214,12.564,37.117,6.2,4.44,34.542,11.991,49.631-3.138,24.169-24.234,19.984-69.037,19.984-69.037" transform="translate(-569.418 -632.54)" fill="#fff"/>
        <g id="Group_5550" data-name="Group 5550" transform="translate(184.213 192.884)" opacity="0.35">
          <g id="Group_5549" data-name="Group 5549">
            <g id="Group_5548" data-name="Group 5548" clip-path="url(#clip-path-29)">
              <path id="Path_10557" data-name="Path 10557" d="M909.689,964.358s1.526,14.4,8.756,14.114S930.928,949.7,930.928,949.7a35.485,35.485,0,0,1-21.239,14.655" transform="translate(-909.689 -949.702)" fill="#371a45"/>
            </g>
          </g>
        </g>
        <g id="Group_5553" data-name="Group 5553" transform="translate(144.587 182.235)" opacity="0.35">
          <g id="Group_5552" data-name="Group 5552">
            <g id="Group_5551" data-name="Group 5551" clip-path="url(#clip-path-30)">
              <path id="Path_10558" data-name="Path 10558" d="M776.515,966.3c-15.083,15.128-43.427,7.582-49.625,3.14-6.847-4.9-14.542-12.712-12.566-37.114.054-.724.126-1.42.207-2.1,1.687,12.54,7.253,17.806,12.359,21.461,6.2,4.442,34.541,11.988,49.625-3.14,14.343-14.386,18.71-36.019,19.882-51.219l.108-.063s4.177,44.8-19.991,69.034" transform="translate(-714.008 -897.267)" fill="#371a45"/>
            </g>
          </g>
        </g>
        <path id="Path_10559" data-name="Path 10559" d="M736.657,824.682c5.8-3.533,11.3-6.447,15.859-10.361a34.134,34.134,0,0,0,5.872-6.541,26.982,26.982,0,0,0,3.658-7.864,23.786,23.786,0,0,0,.784-8.647,17.4,17.4,0,0,0-.846-4.022,6.816,6.816,0,0,0-.656-1.384,4.266,4.266,0,0,0-.947-.922,8.492,8.492,0,0,0-3.222-1.352,17.532,17.532,0,0,0-4.1-.385,26.648,26.648,0,0,0-8.574,1.679,27.666,27.666,0,0,0-13.655,10.749c-.373.629-.782,1.238-1.107,1.9l-.506.976-.651,1.208c-.45.811-.867,1.636-1.352,2.431l-1.6,2.313a38.539,38.539,0,0,1-7.9,7.616,61.336,61.336,0,0,0-7.369,5.885,20.259,20.259,0,0,0-4.443,7.149,31.721,31.721,0,0,0-1.19,4.333c-.147.752-.327,1.49-.453,2.254l-.274,2.339c-.081.785-.211,1.546-.255,2.35l-.142,2.408c-.133,1.61-.084,3.2-.123,4.793.065,6.325.923,12.638,3.614,17.762a22.077,22.077,0,0,0,5.387,6.663c.587.466,1.149.945,1.782,1.4.31.232.639.478.835.595.209.151.533.313.8.471a29.859,29.859,0,0,0,4.079,1.7,55.346,55.346,0,0,0,18.407,2.824c6.178-.117,12.283-1.489,17.224-4.584a23.311,23.311,0,0,0,3.445-2.631l.794-.741.794-.849c.518-.578,1.088-1.105,1.567-1.721a52.717,52.717,0,0,0,5.445-7.618,61.691,61.691,0,0,0,4.225-8.485,81.164,81.164,0,0,0,3.124-9.056q1.29-4.639,2.14-9.419a89.773,89.773,0,0,0,1.071-9.645c.554-6.47.809-12.874,2.937-19.533l.01-.032a1.292,1.292,0,0,1,2.385-.193,23.349,23.349,0,0,1,1.769,5.051,33.65,33.65,0,0,1,.793,5.133,55.2,55.2,0,0,1-.226,10.3c-.4,3.419-1.022,6.808-1.629,10.2s-1.372,6.765-2.305,10.1a88.422,88.422,0,0,1-3.4,9.864,68.834,68.834,0,0,1-4.694,9.42,59.889,59.889,0,0,1-6.18,8.639c-.551.7-1.2,1.317-1.8,1.978l-.916.975-1.031.968a30.555,30.555,0,0,1-4.488,3.427,35.6,35.6,0,0,1-10.2,4.286,47.053,47.053,0,0,1-10.69,1.4,62.412,62.412,0,0,1-20.893-3.21,36.7,36.7,0,0,1-5.129-2.154c-.45-.255-.872-.469-1.35-.792-.51-.325-.844-.585-1.2-.85-.723-.517-1.436-1.114-2.15-1.688a29.405,29.405,0,0,1-7.106-8.8,37.445,37.445,0,0,1-3.512-10.491,62.067,62.067,0,0,1-.94-10.6c.038-1.74-.007-3.5.132-5.219l.154-2.592c.047-.863.189-1.753.281-2.629l.314-2.635c.145-.883.352-1.771.528-2.656a38.872,38.872,0,0,1,1.474-5.31,27.592,27.592,0,0,1,6.051-9.7,66.225,66.225,0,0,1,8.2-6.618,31.327,31.327,0,0,0,6.47-6.186l1.249-1.8c.382-.629.711-1.3,1.074-1.946l.542-.992.643-1.247c.42-.835.934-1.622,1.418-2.422a34.89,34.89,0,0,1,17.214-13.6,33.773,33.773,0,0,1,10.945-2.124,24.655,24.655,0,0,1,5.819.563,15.567,15.567,0,0,1,5.888,2.57,11.456,11.456,0,0,1,2.581,2.589,13.449,13.449,0,0,1,1.546,3.1,25.088,25.088,0,0,1,1.247,5.746,33.885,33.885,0,0,1-.743,11.224,32.611,32.611,0,0,1-4.412,10.356,33.816,33.816,0,0,1-27.583,14.9,1.25,1.25,0,0,1-.649-2.315Z" transform="translate(-555.256 -618.366)" fill="#371a45"/>
        <path id="Path_10560" data-name="Path 10560" d="M937.847,993.773a25.784,25.784,0,0,1-.014,4.4c-.1,1.469-.312,2.931-.472,4.4s-.282,2.914-.327,4.363a10.545,10.545,0,0,0,.511,4.231l.038.1a.4.4,0,0,1-.6.481,7.452,7.452,0,0,1-1.081-.8,10.154,10.154,0,0,1-.873-1.017c-.243-.357-.484-.731-.706-1.115-.189-.38-.39-.764-.57-1.159a24.8,24.8,0,0,1-1.467-4.8,27.275,27.275,0,0,1-.578-4.842,17.316,17.316,0,0,1,.531-4.825,2.856,2.856,0,0,1,5.591.435Z" transform="translate(-743.036 -789.798)" fill="#371a45"/>
        <path id="Path_10561" data-name="Path 10561" d="M288.077,1099.616c1.028.285,2.176.551,3.275.8s2.23.47,3.346.66a37.094,37.094,0,0,0,6.6.648h.1a1.819,1.819,0,0,1,.506,3.57,40.854,40.854,0,0,1-7.411,1.208c-1.224.108-2.442.175-3.664.227s-2.416.081-3.71.067h-.049a3.652,3.652,0,0,1,.08-7.3,3.787,3.787,0,0,1,.928.131" transform="translate(-226.065 -876.18)" fill="#371a45"/>
      </g>
    </g>
  </g>
</svg>
