<svg width="147" height="140" viewBox="0 0 147 140" fill="none" xmlns="http://www.w3.org/2000/svg">
<path fill-rule="evenodd" clip-rule="evenodd" d="M63.5253 89.6H82.4753C88.6603 91.455 94.0154 95.075 94.0154 99.244V123.993H51.9854V99.244C51.9854 95.073 57.3393 91.455 63.5253 89.6Z" fill="#EBD2FF"/>
<path fill-rule="evenodd" clip-rule="evenodd" d="M86.935 99.244V123.993H94.048V99.244C94.048 95.075 88.694 91.454 82.508 89.6H75.396C81.58 91.455 86.935 95.073 86.935 99.244Z" fill="#D7BEF0"/>
<path fill-rule="evenodd" clip-rule="evenodd" d="M25.4341 122.856H36.6681L45.8621 121.582L54.9671 122.856H91.0281L99.9961 121.098L109.328 122.856H120.57V140H25.4341V122.856Z" fill="#D09080"/>
<path fill-rule="evenodd" clip-rule="evenodd" d="M0 136.879V100.414C0.00632036 98.2508 0.867913 96.1778 2.3968 94.6474C3.92569 93.117 5.99778 92.2534 8.161 92.245H21.636C21.87 92.245 22.096 92.261 22.33 92.277C23.3951 92.1726 24.4692 92.3431 25.4496 92.7722C26.4301 93.2013 27.284 93.8747 27.93 94.728L38.889 109.243C39.1313 109.61 39.4661 109.907 39.8597 110.104C40.2533 110.301 40.6918 110.391 41.131 110.364H54.86C56.5164 110.364 58.105 111.022 59.2762 112.193C60.4475 113.365 61.1055 114.953 61.1055 116.609C61.1055 118.266 60.4475 119.854 59.2762 121.026C58.105 122.197 56.5164 122.855 54.86 122.855H36.628C35.6629 122.855 34.711 122.63 33.8475 122.199C32.984 121.768 32.2324 121.142 31.652 120.371L29.797 117.911V140H3.121C2.34412 139.861 1.62844 139.488 1.07041 138.93C0.512371 138.372 0.13879 137.656 0 136.879H0Z" fill="#FF6978"/>
<path fill-rule="evenodd" clip-rule="evenodd" d="M146.002 136.879V100.414C145.997 98.2503 145.136 96.1764 143.607 94.6457C142.078 93.115 140.005 92.2519 137.841 92.245H124.372C124.138 92.245 123.905 92.261 123.678 92.277C122.613 92.1732 121.539 92.3439 120.559 92.773C119.578 93.2021 118.724 93.8751 118.078 94.728L107.119 109.243C106.875 109.609 106.54 109.905 106.147 110.102C105.754 110.298 105.316 110.389 104.877 110.364H91.14C89.4836 110.364 87.895 111.022 86.7238 112.193C85.5525 113.365 84.8945 114.953 84.8945 116.609C84.8945 118.266 85.5525 119.854 86.7238 121.026C87.895 122.197 89.4836 122.855 91.14 122.855H109.373C110.338 122.855 111.29 122.63 112.154 122.199C113.017 121.768 113.769 121.142 114.349 120.371L116.212 117.911V140H142.88C143.657 139.861 144.373 139.488 144.931 138.93C145.489 138.372 145.863 137.656 146.002 136.879V136.879Z" fill="#CCF49F"/>
<path fill-rule="evenodd" clip-rule="evenodd" d="M65.097 55.335H100.885L109.941 64.391C110.658 65.109 111.481 64.691 111.481 63.746V55.335C113.703 55.3284 115.832 54.4427 117.403 52.8715C118.975 51.3002 119.86 49.1711 119.867 46.949V25.781C119.861 23.5587 118.975 21.4293 117.404 19.8578C115.833 18.2864 113.703 17.4006 111.481 17.394H65.097C62.8745 17.4003 60.7449 18.286 59.1734 19.8575C57.6019 21.429 56.7163 23.5586 56.71 25.781V46.949C56.7166 49.1712 57.6023 51.3006 59.1738 52.8718C60.7453 54.4431 62.8747 55.3286 65.097 55.335V55.335Z" fill="#ECF4FF"/>
<path fill-rule="evenodd" clip-rule="evenodd" d="M22.943 46.876H60.594C63.5426 46.8673 66.368 45.6921 68.453 43.6071C70.538 41.522 71.7133 38.6966 71.722 35.748V11.128C71.7133 8.17935 70.538 5.35395 68.453 3.26893C66.368 1.18391 63.5426 0.00870554 60.594 0H12.339C9.39014 0.00844184 6.56448 1.18353 4.47925 3.26858C2.39401 5.35363 1.21867 8.17917 1.20996 11.128V35.748C1.21867 38.6968 2.39401 41.5224 4.47925 43.6074C6.56448 45.6925 9.39014 46.8676 12.339 46.876V55.292C12.3149 55.481 12.3539 55.6727 12.4497 55.8374C12.5455 56.002 12.6929 56.1306 12.8691 56.2031C13.0453 56.2756 13.2405 56.288 13.4245 56.2385C13.6085 56.1889 13.771 56.0802 13.887 55.929L22.943 46.876Z" fill="#ECF4FF"/>
<path d="M16.1209 14.015C15.5541 14.015 15.0106 13.7899 14.6098 13.3891C14.209 12.9883 13.9839 12.4448 13.9839 11.878C13.9839 11.3113 14.209 10.7677 14.6098 10.3669C15.0106 9.96617 15.5541 9.74103 16.1209 9.74103H56.8089C57.3757 9.74103 57.9192 9.96617 58.32 10.3669C58.7207 10.7677 58.9459 11.3113 58.9459 11.878C58.9459 12.4448 58.7207 12.9883 58.32 13.3891C57.9192 13.7899 57.3757 14.015 56.8089 14.015H16.1209ZM16.1209 37.134C15.5552 37.134 15.0126 36.9093 14.6126 36.5093C14.2126 36.1093 13.9879 35.5667 13.9879 35.001C13.9879 34.4353 14.2126 33.8928 14.6126 33.4928C15.0126 33.0928 15.5552 32.868 16.1209 32.868H36.4669C37.0326 32.868 37.5751 33.0928 37.9751 33.4928C38.3752 33.8928 38.5999 34.4353 38.5999 35.001C38.5999 35.5667 38.3752 36.1093 37.9751 36.5093C37.5751 36.9093 37.0326 37.134 36.4669 37.134H16.1209ZM16.1209 25.57C15.5552 25.57 15.0126 25.3453 14.6126 24.9453C14.2126 24.5453 13.9879 24.0027 13.9879 23.437C13.9879 22.8713 14.2126 22.3288 14.6126 21.9288C15.0126 21.5288 15.5552 21.304 16.1209 21.304H56.8089C57.089 21.304 57.3664 21.3592 57.6251 21.4664C57.8839 21.5736 58.1191 21.7307 58.3172 21.9288C58.5152 22.1268 58.6723 22.362 58.7795 22.6208C58.8867 22.8795 58.9419 23.1569 58.9419 23.437C58.9419 23.7171 58.8867 23.9945 58.7795 24.2533C58.6723 24.5121 58.5152 24.7472 58.3172 24.9453C58.1191 25.1434 57.8839 25.3005 57.6251 25.4077C57.3664 25.5149 57.089 25.57 56.8089 25.57H16.1209Z" fill="#477B9E"/>
<path fill-rule="evenodd" clip-rule="evenodd" d="M84.8588 83.628C84.8588 86.774 83.609 89.7912 81.3845 92.0157C79.1599 94.2403 76.1428 95.49 72.9968 95.49C69.8508 95.49 66.8336 94.2403 64.6091 92.0157C62.3845 89.7912 61.1348 86.774 61.1348 83.628V70.919C61.1406 69.1592 61.8428 67.4732 63.088 66.2296C64.3331 64.9859 66.0199 64.2857 67.7798 64.282H83.0938C83.3326 64.2532 83.5749 64.279 83.8023 64.3575C84.0297 64.4361 84.2363 64.5653 84.4064 64.7354C84.5765 64.9055 84.7058 65.1121 84.7843 65.3395C84.8628 65.5669 84.8886 65.8092 84.8598 66.048L84.8588 83.628Z" fill="#FFCBBE"/>
<path fill-rule="evenodd" clip-rule="evenodd" d="M61.1318 71.0011V74.8311H84.8558V66.131C84.8847 65.8922 84.8589 65.6499 84.7804 65.4225C84.7018 65.1951 84.5726 64.9885 84.4025 64.8184C84.2324 64.6483 84.0258 64.5191 83.7984 64.4405C83.571 64.362 83.3287 64.3362 83.0898 64.365H67.7798C66.0196 64.3679 64.3322 65.0676 63.0864 66.3112C61.8407 67.5547 61.1379 69.2409 61.1318 71.0011V71.0011Z" fill="#FFE5A0"/>
<path fill-rule="evenodd" clip-rule="evenodd" d="M3.04004 83.6281C3.04004 85.1853 3.34677 86.7274 3.94271 88.1661C4.53866 89.6048 5.41215 90.9121 6.51331 92.0133C7.61448 93.1144 8.92175 93.9879 10.3605 94.5839C11.7992 95.1798 13.3413 95.4865 14.8985 95.4865C16.4558 95.4865 17.9979 95.1798 19.4366 94.5839C20.8753 93.9879 22.1826 93.1144 23.2838 92.0133C24.3849 90.9121 25.2584 89.6048 25.8544 88.1661C26.4503 86.7274 26.757 85.1853 26.757 83.6281V70.9191C26.7531 69.16 26.0526 67.4742 24.8087 66.2304C23.5649 64.9865 21.8791 64.286 20.12 64.282H9.67704C7.91801 64.286 6.23217 64.9865 4.98835 66.2304C3.74453 67.4742 3.044 69.16 3.04004 70.9191V83.6281Z" fill="#FFCBBE"/>
<path fill-rule="evenodd" clip-rule="evenodd" d="M142.968 83.6281C142.968 86.7742 141.718 89.7915 139.494 92.0161C137.269 94.2408 134.252 95.4905 131.106 95.4905C127.96 95.4905 124.942 94.2408 122.718 92.0161C120.493 89.7915 119.243 86.7742 119.243 83.6281V70.9191C119.249 69.1605 119.95 67.4756 121.193 66.2321C122.437 64.9886 124.122 64.2876 125.88 64.282H136.331C138.09 64.2876 139.775 64.9886 141.018 66.2321C142.262 67.4756 142.963 69.1605 142.968 70.9191V83.6281Z" fill="#D8A595"/>
<path fill-rule="evenodd" clip-rule="evenodd" d="M142.968 83.6071C142.969 85.4697 142.531 87.3064 141.69 88.9683C140.849 90.6302 139.628 92.0705 138.126 93.1724C136.624 94.2744 134.884 95.0069 133.046 95.3107C131.209 95.6145 129.325 95.481 127.549 94.9211C129.764 94.2151 131.725 92.8775 133.191 91.0723C134.657 89.2672 135.563 87.0733 135.799 84.7601C138.208 85.0665 140.656 84.8126 142.952 84.0181L142.968 70.8981V83.6071V83.6071Z" fill="#D09080"/>
<path fill-rule="evenodd" clip-rule="evenodd" d="M26.7531 70.9641V75.5851C25.5028 76.0565 24.162 76.2389 22.8311 76.1187C21.5002 75.9985 20.2138 75.5788 19.0681 74.8911C17.8181 74.1811 17.6001 74.1811 17.4551 75.3181C17.0201 78.6561 15.5201 87.8501 3.04413 84.0831L3.03613 70.9631C3.03878 69.2036 3.73888 67.517 4.98299 66.2729C6.22709 65.0288 7.9137 64.3287 9.67313 64.326H20.1201C21.8791 64.3303 23.5648 65.0309 24.8085 66.2747C26.0523 67.5184 26.7529 69.2041 26.7571 70.9631L26.7531 70.9641Z" fill="#D09080"/>
<path fill-rule="evenodd" clip-rule="evenodd" d="M119.243 70.9641V75.5851C120.495 76.0564 121.837 76.2388 123.169 76.1187C124.501 75.9985 125.789 75.5788 126.936 74.8911C128.178 74.1811 128.395 74.1811 128.536 75.3181C128.971 78.6561 130.479 87.8501 142.947 84.0831L142.963 70.9631C142.958 69.2045 142.257 67.5196 141.013 66.2761C139.77 65.0326 138.085 64.3316 136.326 64.326H125.88C124.121 64.3316 122.436 65.0328 121.193 66.2765C119.949 67.5202 119.248 69.2053 119.243 70.9641V70.9641Z" fill="#477B9E"/>
<path fill-rule="evenodd" clip-rule="evenodd" d="M135.855 70.964V83.673C135.856 84.0581 135.838 84.4429 135.799 84.826C138.208 85.1325 140.656 84.8786 142.952 84.084L142.968 70.964C142.964 69.2846 142.325 67.669 141.179 66.441C140.033 65.2131 138.466 64.4636 136.791 64.343C136.638 64.3296 136.485 64.3242 136.332 64.327H129.218C130.976 64.3325 132.661 65.0336 133.905 66.2771C135.148 67.5205 135.849 69.2055 135.855 70.964V70.964Z" fill="#365E7D"/>
<path fill-rule="evenodd" clip-rule="evenodd" d="M19.6439 83.5951C19.6358 86.1174 18.8271 88.5721 17.3344 90.6054C15.8417 92.6387 13.742 94.1456 11.3379 94.9091C13.1144 95.469 14.9978 95.6025 16.8355 95.2987C18.6732 94.9949 20.4135 94.2623 21.9152 93.1604C23.417 92.0585 24.6379 90.6182 25.4791 88.9563C26.3203 87.2944 26.7581 85.4577 26.7569 83.5951V75.507C25.6096 75.9409 24.3844 76.1306 23.1596 76.064C21.9348 75.9973 20.7374 75.6758 19.6439 75.1201V83.5951Z" fill="#F7BEAF"/>
<path fill-rule="evenodd" clip-rule="evenodd" d="M13.0078 64.359C14.7667 64.3632 16.4523 65.0639 17.6959 66.3077C18.9395 67.5515 19.6399 69.2372 19.6438 70.996V75.23C20.7373 75.7859 21.9347 76.1074 23.1595 76.174C24.3843 76.2407 25.6095 76.0509 26.7568 75.617V70.996C26.7529 69.237 26.0523 67.5511 24.8085 66.3073C23.5647 65.0635 21.8788 64.363 20.1198 64.359H13.0078Z" fill="#BE694F"/>
<path fill-rule="evenodd" clip-rule="evenodd" d="M77.7533 83.596C77.7451 86.1184 76.9365 88.5731 75.4437 90.6064C73.951 92.6397 71.8514 94.1466 69.4473 94.91C71.2237 95.4698 73.107 95.6032 74.9446 95.2993C76.7822 94.9954 78.5223 94.2628 80.0239 93.1609C81.5255 92.0589 82.7463 90.6188 83.5875 88.957C84.4286 87.2952 84.8664 85.4586 84.8652 83.596V74.717H77.7533V83.596Z" fill="#F7BEAF"/>
<path fill-rule="evenodd" clip-rule="evenodd" d="M77.766 66.13V74.83H84.878V66.13C84.9069 65.8912 84.8811 65.6489 84.8026 65.4215C84.724 65.1941 84.5948 64.9875 84.4247 64.8174C84.2546 64.6472 84.048 64.518 83.8206 64.4395C83.5931 64.3609 83.3509 64.3351 83.112 64.364H75.999C76.238 64.335 76.4803 64.3607 76.7079 64.4391C76.9354 64.5176 77.1421 64.6468 77.3124 64.8169C77.4826 64.9871 77.6119 65.1937 77.6905 65.4212C77.7691 65.6487 77.7949 65.8911 77.766 66.13V66.13Z" fill="#F2CE7E"/>
<path fill-rule="evenodd" clip-rule="evenodd" d="M23.5441 109.639C23.4855 109.555 23.4012 109.492 23.3038 109.459C23.2063 109.427 23.101 109.427 23.0037 109.46C22.9064 109.493 22.8223 109.556 22.7641 109.641C22.7059 109.725 22.6768 109.826 22.6811 109.929V139.999H29.7931V117.912L23.5441 109.639Z" fill="#CF4351"/>
<path fill-rule="evenodd" clip-rule="evenodd" d="M138.888 100.414V136.878C138.751 137.654 138.379 138.37 137.822 138.928C137.266 139.486 136.551 139.86 135.775 139.999H142.875C143.652 139.86 144.368 139.487 144.926 138.928C145.484 138.37 145.857 137.655 145.996 136.878V100.414C145.989 98.4133 145.251 96.4842 143.92 94.9901C142.589 93.4959 140.758 92.54 138.771 92.3021C137.906 93.0389 136.939 93.6472 135.9 94.1081C136.833 94.8732 137.584 95.8357 138.1 96.9261C138.616 98.0165 138.883 99.2078 138.883 100.414H138.888Z" fill="#B3E59F"/>
<path fill-rule="evenodd" clip-rule="evenodd" d="M56.7921 48.142C57.0877 50.1361 58.0881 51.9582 59.612 53.2779C61.1359 54.5976 63.0822 55.3274 65.0981 55.335H100.886L109.942 64.391C110.659 65.109 111.482 64.691 111.482 63.746V55.335C113.704 55.3287 115.834 54.4432 117.405 52.8719C118.977 51.3006 119.862 49.1713 119.869 46.949V25.781C119.865 23.7649 119.136 21.8176 117.815 20.2941C116.495 18.7705 114.671 17.7721 112.676 17.481C112.732 17.8735 112.759 18.2696 112.757 18.666V39.836C112.753 42.0578 111.87 44.1876 110.299 45.7593C108.729 47.3309 106.6 48.2165 104.378 48.222H57.9811C57.5821 48.2194 57.1837 48.1923 56.7881 48.141L56.7921 48.142Z" fill="#DDEAFB"/>
<path fill-rule="evenodd" clip-rule="evenodd" d="M64.6101 28.635C64.6101 31.5873 63.4378 34.4187 61.3509 36.5069C59.264 38.5951 56.4334 39.7692 53.4811 39.771H5.22611C4.05068 39.7693 2.88291 39.5817 1.76611 39.215C2.50189 41.4396 3.91871 43.3764 5.81602 44.7513C7.71333 46.1262 9.99502 46.8695 12.3381 46.876V55.293C12.3141 55.482 12.353 55.6737 12.4488 55.8384C12.5447 56.0031 12.6921 56.1316 12.8683 56.2041C13.0445 56.2766 13.2396 56.2891 13.4236 56.2395C13.6076 56.19 13.7701 56.0812 13.8861 55.93L22.9421 46.874H60.5931C63.5418 46.8656 66.3673 45.6906 68.4525 43.6058C70.5377 41.521 71.7131 38.6957 71.7221 35.747V11.128C71.7158 8.78446 70.9723 6.50229 69.5967 4.60484C68.2212 2.7074 66.2835 1.2909 64.0581 0.55603C64.4279 1.67205 64.6157 2.84033 64.6141 4.01603V28.636L64.6101 28.635Z" fill="#DDEAFB"/>
<path fill-rule="evenodd" clip-rule="evenodd" d="M109.023 122.855H116.138V139.999H109.025L109.023 122.855Z" fill="#BE694F"/>
</svg>
