<svg xmlns="http://www.w3.org/2000/svg" xmlns:xlink="http://www.w3.org/1999/xlink" width="405" height="275" viewBox="0 0 405 275">
  <defs>
    <filter id="Rectangle_8179" x="0" y="0" width="405" height="275" filterUnits="userSpaceOnUse">
      <feOffset input="SourceAlpha"/>
      <feGaussianBlur stdDeviation="12.5" result="blur"/>
      <feFlood flood-opacity="0.078"/>
      <feComposite operator="in" in2="blur"/>
      <feComposite in="SourceGraphic"/>
    </filter>
  </defs>
  <g id="bits_logo_with_white_bg" transform="translate(-187.5 -13403.5)">
    <g transform="matrix(1, 0, 0, 1, 187.5, 13403.5)" filter="url(#Rectangle_8179)">
      <rect id="Rectangle_8179-2" data-name="Rectangle 8179" width="330" height="200" rx="20" transform="translate(37.5 37.5)" fill="#fff"/>
    </g>
    <g id="bits_logo" transform="translate(296.403 13448.207)">
      <path id="path240" d="M52.527,107.386,39.48,127.425a80.421,80.421,0,0,0,90.269-.784l-12.4-18.255-64.822-1Z" transform="translate(9.576 31.897)" fill="#b78a2d"/>
      <path id="path242" d="M105.42,110.892l-53.3-.751L41.47,126.012a78.3,78.3,0,0,0,84.841-.612l-10.383-15.76-10.508,1.253Z" transform="translate(10.24 32.65)" fill="#2b2b88"/>
      <path id="path244" d="M153.838,95.892l20.687.568c.042-1.154.071-2.307.071-3.47,0-44.225-36.336-80.2-81-80.2s-81,35.972-81,80.2q0,2.2.121,4.365l21.134-.85,119.987-.614Z" fill="#b78a2d"/>
      <path id="path246" d="M14.172,92.286c0,.692.005,1.4.031,2.117,3.043-.132,12.658-.516,15.7-.634-.009-.5,126.232-.937,126.222-.67,3.035.084,12.672.351,15.71.426,0-.415.019-.839.019-1.241,0-43.032-35.366-78.035-78.842-78.035s-78.836,35-78.836,78.036Z" transform="translate(0.526 0.487)" fill="#2b2b88"/>
      <path id="path248" d="M27.522,88.153c0,33.323,27.408,60.431,61.092,60.431s61.08-27.108,61.08-60.431-27.4-60.432-61.08-60.432S27.522,54.828,27.522,88.153Z" transform="translate(4.986 4.987)" fill="#b78a2d"/>
      <path id="path250" d="M141.766,90.758l.063-10.236-4.15.092a49.619,49.619,0,0,0-2.16-9.573l3.674-1.489-3.9-9.478L131.357,61.8a50.8,50.8,0,0,0-5.7-7.938l2.963-2.922-7.275-7.262-3.111,3.247a50,50,0,0,0-8.248-5.156l1.672-3.99-9.519-3.94-1.673,4.326a50.9,50.9,0,0,0-9.563-1.615l.014-4.468L80.6,32.067l.127,4.745A51.494,51.494,0,0,0,71.3,38.917l-1.744-4.2-9.542,3.91L62,43a50.817,50.817,0,0,0-7.9,5.5l-3.248-3.223-7.3,7.234,3.5,3.273a49.781,49.781,0,0,0-5.22,8.061L37.6,62.04l-4.079,9.4,4.59,1.8A48.738,48.738,0,0,0,36.482,82l-4.448-.056L31.9,92.18l4.64-.068a49.319,49.319,0,0,0,1.978,9.439l-4.067,1.619,3.828,9.5,4.234-1.818a50.518,50.518,0,0,0,5.494,7.963l-3.124,3.033,7.206,7.321,3.2-3.284a51.272,51.272,0,0,0,8.143,5.3l-1.7,3.95,9.492,4.012,1.657-4.168a50.747,50.747,0,0,0,9.6,1.8l-.047,4.208,10.321.1-.085-4.389a50.963,50.963,0,0,0,9.6-1.97l1.545,3.792,9.568-3.838-1.727-3.914a51.182,51.182,0,0,0,8.132-5.513l2.829,2.843,7.345-7.178-3.037-2.889a49.392,49.392,0,0,0,5.407-8.214l3.606,1.51,4.009-9.434-3.827-1.478a49.668,49.668,0,0,0,1.752-9.674l3.887.021Z" transform="translate(6.45 6.438)" fill="#2b2b88"/>
      <path id="path252" d="M132.1,84.632c0,25.619-21.047,46.374-47.009,46.374S38.067,110.25,38.067,84.632s21.054-46.37,47.025-46.37S132.1,59.02,132.1,84.632Z" transform="translate(8.508 8.508)" fill="#fff"/>
      <path id="path254" d="M50.159,127.471c-.374-1.582-.932-3.13-1.306-4.708a2.288,2.288,0,0,0-.938-1.511.848.848,0,0,0-.847-.164c-1.069.484-.312,1.641.2,2.194a3.1,3.1,0,0,0,2.852.993c.683-.084,1.423-.454,1.418-1.261-.017-.959-1.026-1.6-1.083-2.5-.057-.957.79-.836,1.473-.6l3.61,1.55m-1.96,5.259,2.481-7.118m0,8.151,2.473-7.118M49.345,116.1s5.779,4.021,17.038,6.607m-3.517,7.226,1.862-7.535m-.926,3.61s-2.785-.922-2.788-.924a1.923,1.923,0,0,0-1.37.039.91.91,0,0,0-.252,1.365c.566.6,1.355-.61.9-.79m9.6-1.445-.315,3.926s.418,1.55,2.785,1.55h.418m.307-5.271-.307,7.337m-4.129-8.468s11.254,2.162,20.027.82m-11.563.415c.694.973,1.806,1.92,1.98,3.16.219,1.618-1.3,1.884-2.6,1.7m-1.135-1.86a13.309,13.309,0,0,0,4.13,5.265m3.5-8.03c.005,1.11.229,2.4.229,3.5,0,.56.063,1.81-.55,2.118s-1.277-.342-1.4-.894c-.358-1.67,4.62-1.042,5.659-1.037m-.518-3.823.62,7.543m10.223-9.087,1.646,7.124m-1.235-4.234-2.685.312s-2.906.153-2.689,1.858c0,0-.1,1.55,2.173,1.241l3.925-.519m-4.442-2.272L96.427,129m7.629.724s-3.3-.309-3.192-2.689c0,0,.1-2.477,2.272-2.173,0,0,1.137.216.724,1.553,0,0,2.165-4.648,4.437-2.477,0,0,1.137,1.246-.714,4.237m-16.525-4.134A60.226,60.226,0,0,0,115,115.786m-5.257,3.2s2.042,3.685,2.064,3.721c.424.76-.459,1.876-1.271,1.517-1.022-.451-.4-1.5.24-1.933l4.336-1.856m-2.064-3.31,3.51,6.613m-12.088-2.687.938,2.89" transform="translate(11.919 34.703)" fill="none" stroke="#fff" stroke-width="0.5"/>
      <path id="path256" d="M61.31,119.2a.613.613,0,1,1-.611-.612.609.609,0,0,1,.611.612Z" transform="translate(16.328 35.64)" fill="#fff"/>
      <path id="path258" d="M77.1,120.96a.608.608,0,0,1-1.217,0,.608.608,0,1,1,1.217,0Z" transform="translate(21.761 36.227)" fill="#fff"/>
      <path id="path260" d="M60.78,72.671a2.213,2.213,0,1,1-2.212-2.209,2.217,2.217,0,0,1,2.212,2.209Z" transform="translate(15.055 19.412)" fill="#2b2b88"/>
      <path id="path262" d="M39.7,81.868c0,24.289,19.949,43.9,44.187,44.09L57.753,46.246A44.129,44.129,0,0,0,39.7,81.868Z" transform="translate(9.419 11.342)" fill="#5ccae8"/>
      <path id="path264" d="M97.423,45.521,73.39,126.293A44.191,44.191,0,0,0,97.423,45.521Z" transform="translate(21.118 11.098)" fill="#ffe275"/>
      <path id="path266" d="M78.853,39.826A43.993,43.993,0,0,0,54.79,46.951L79.25,121.9l22.688-75.559a43.959,43.959,0,0,0-23.084-6.511Z" transform="translate(14.675 9.169)" fill="#cf2027"/>
      <path id="polygon268" d="M73.752,74.925l-4.891-9.369,4.682-4.889,5.093,5.089Z" transform="translate(19.378 16.123)" fill="#b78a2d"/>
      <path id="polygon270" d="M73.752,74.925l-4.891-9.369,4.682-4.889,5.093,5.089Z" transform="translate(19.378 16.123)" fill="none" stroke="#fff" stroke-width="0.387"/>
      <path id="polygon272" d="M68.465,66.579l-6.933-4.688L68.865,57,76.2,61.891Z" transform="translate(16.87 14.886)" fill="#b78a2d"/>
      <path id="polygon274" d="M68.465,66.579l-6.933-4.688L68.865,57,76.2,61.891Z" transform="translate(16.87 14.886)" fill="none" stroke="#fff" stroke-width="0.387"/>
      <path id="polygon276" d="M74.256,64.493l-9.361-6.11,3.871-11.606,4.549,7.947Z" transform="translate(18.01 11.448)" fill="#b78a2d"/>
      <path id="polygon278" d="M74.256,64.493l-9.361-6.11,3.871-11.606,4.549,7.947Z" transform="translate(18.01 11.448)" fill="none" stroke="#fff" stroke-width="0.387"/>
      <path id="polygon280" d="M69.115,50.79l4.552-6.608,4.313,6.924-3,5.535-2.176.611Z" transform="translate(19.462 10.571)" fill="#b78a2d"/>
      <path id="polygon282" d="M69.115,50.79l4.552-6.608,4.313,6.924-3,5.535-2.176.611Z" transform="translate(19.462 10.571)" fill="none" stroke="#fff" stroke-width="0.387"/>
      <path id="polygon284" d="M78.293,56.235l8.951,5.912-6.912,4.688-9.218-5.962Z" transform="translate(20.18 14.628)" fill="#b78a2d"/>
      <path id="polygon286" d="M78.293,56.235l8.951,5.912-6.912,4.688-9.218-5.962Z" transform="translate(20.18 14.628)" fill="none" stroke="#fff" stroke-width="0.387"/>
      <path id="polygon288" d="M73.822,97.034H71.678V69.785h2.144Z" transform="translate(20.318 19.209)" fill="#b78a2d"/>
      <path id="polygon290" d="M73.822,97.034H71.678V69.785h2.144Z" transform="translate(20.318 19.209)" fill="none" stroke="#fff" stroke-width="0.387"/>
      <path id="path292" d="M52.574,58.182l5.359,6.757L62.357,76.35,59.8,86.362,54.44,94.518,44.2,86.593l6.745-6.98L57.467,66.8m4.657,10.476-17-7.922,5.818-12.336m1.4,22.591,6.289,7.447m-14.672,0L48.849,98.7l.67.7,8.878,9.313,13.975,6.055,1.626.468-4.888-13.27-21.892-2.8m8.158-3.263,3.494,14.2" transform="translate(10.852 14.948)" fill="none" stroke="#fff" stroke-width="0.5"/>
      <path id="path294" d="M47.685,66.737a2.561,2.561,0,1,1-2.559-2.561,2.559,2.559,0,0,1,2.559,2.561Z" transform="translate(10.311 17.297)" fill="#fff"/>
      <path id="path296" d="M65.846,90.825a2.565,2.565,0,1,1-2.567-2.557,2.565,2.565,0,0,1,2.567,2.557Z" transform="translate(16.557 25.407)" fill="#fff"/>
      <path id="path298" d="M69.33,101.132a2.561,2.561,0,1,1-2.561-2.567,2.557,2.557,0,0,1,2.561,2.567Z" transform="translate(17.759 28.873)" fill="#fff"/>
      <path id="path300" d="M52.748,57.138a2.561,2.561,0,1,1-2.556-2.564,2.561,2.561,0,0,1,2.556,2.564Z" transform="translate(12.053 14.064)" fill="#fff"/>
      <path id="path302" d="M57.637,64.121a2.213,2.213,0,1,1-2.216-2.215,2.219,2.219,0,0,1,2.216,2.215Z" transform="translate(13.973 16.532)" fill="#2b2b88"/>
      <path id="path304" d="M52.571,73.9a2.209,2.209,0,1,1-2.209-2.209A2.21,2.21,0,0,1,52.571,73.9Z" transform="translate(12.233 19.825)" fill="#2b2b88"/>
      <path id="path306" d="M58.337,80.532a2.212,2.212,0,1,1-2.215-2.215,2.21,2.21,0,0,1,2.215,2.215Z" transform="translate(14.215 22.056)" fill="#2b2b88"/>
      <path id="path308" d="M46.99,79.657a2.213,2.213,0,1,1-2.215-2.212,2.214,2.214,0,0,1,2.215,2.212Z" transform="translate(10.31 21.763)" fill="#2b2b88"/>
      <path id="path310" d="M54.673,85.944a2.214,2.214,0,1,1-2.22-2.216,2.214,2.214,0,0,1,2.22,2.216Z" transform="translate(12.953 23.878)" fill="#2b2b88"/>
      <path id="path312" d="M50.658,89.082a2.215,2.215,0,1,1-2.212-2.213,2.209,2.209,0,0,1,2.212,2.213Z" transform="translate(11.571 24.935)" fill="#2b2b88"/>
      <path id="path314" d="M58.16,96.76a2.211,2.211,0,1,1-2.209-2.208A2.208,2.208,0,0,1,58.16,96.76Z" transform="translate(14.155 27.521)" fill="#2b2b88"/>
      <path id="polygon316" d="M73.131,56.656l5.292-9.577,4.649,10.956L72.545,65.33Z" transform="translate(20.649 11.55)" fill="#b78a2d"/>
      <path id="polygon318" d="M73.131,56.656l5.292-9.577,4.649,10.956L72.545,65.33Z" transform="translate(20.649 11.55)" fill="none" stroke="#fff" stroke-width="0.387"/>
      <path id="polygon320" d="M72.624,62.58l-2.843-6.928,3.663-4.684,3.666,4.684-3.666,7.741Z" transform="translate(19.685 12.856)" fill="#b78a2d"/>
      <path id="polygon322" d="M72.624,62.58l-2.843-6.928,3.663-4.684,3.666,4.684-3.666,7.741Z" transform="translate(19.685 12.856)" fill="none" stroke="#fff" stroke-width="0.387"/>
      <path id="path324" d="M25.23,71.07l.035-.532a.794.794,0,0,0-.283-.731,2.191,2.191,0,0,0-1.115-.273,2.09,2.09,0,0,0-1.17.156.96.96,0,0,0-.36.818l-.027.383,2.92.18Zm-4.149-.252.029-.43a.746.746,0,0,0-.24-.7,2.055,2.055,0,0,0-1.019-.251,1.567,1.567,0,0,0-.93.137.8.8,0,0,0-.3.687l-.024.4,2.483.152m5.379,1.588-9.182-.558.129-2.081a1.6,1.6,0,0,1,.631-1.3,2.666,2.666,0,0,1,1.709-.338,3.763,3.763,0,0,1,1.409.3.96.96,0,0,1,.559.683,1.075,1.075,0,0,1,.687-.724,3.258,3.258,0,0,1,1.471-.185,3.844,3.844,0,0,1,2.113.6,1.613,1.613,0,0,1,.6,1.49l-.127,2.114" transform="translate(1.564 18.623)" fill="#fff"/>
      <path id="polygon326" d="M26.722,68.236l-9.134-1.081.151-1.282,9.133,1.079Z" transform="translate(1.667 17.866)" fill="#fff"/>
      <path id="path328" d="M21.891,65.088l.127-.731a.92.92,0,0,0-.149-.82,1.914,1.914,0,0,0-1.021-.407,1.457,1.457,0,0,0-.987.069,1.1,1.1,0,0,0-.42.8l-.115.627,2.565.458ZM26.9,67.266l-9.049-1.618.4-2.293a1.873,1.873,0,0,1,.828-1.4,2.885,2.885,0,0,1,1.886-.137,3.481,3.481,0,0,1,1.347.494,1.008,1.008,0,0,1,.466.831c.322-.568,1.053-.77,2.2-.591.051.012.088.023.119.028l1.2.172a3.78,3.78,0,0,0,.839.051,1.345,1.345,0,0,0,.572-.156l-.273,1.523a3.743,3.743,0,0,1-.547-.015c-.211-.013-.5-.061-.878-.12l-.95-.156-.241-.039a1.673,1.673,0,0,0-1.126.061,1.34,1.34,0,0,0-.479.974l-.085.432,3.981.714L26.9,67.266" transform="translate(1.755 16.475)" fill="#fff"/>
      <path id="polygon330" d="M27.59,63.034l-8.907-2.291.327-1.251,7.385,1.9.586-2.287L28.5,59.5Z" transform="translate(2.033 15.588)" fill="#fff"/>
      <path id="path332" d="M25.237,57.825l.344-1.05-3.835-.7,3.491,1.752Zm2.89,2.94-8.208-4.421.552-1.65L29.7,56.127l-.447,1.322-2.3-.412-.475,1.418,2.08,1.055-.424,1.255" transform="translate(2.446 14.106)" fill="#fff"/>
      <path id="polygon334" d="M30.173,55.043l-8.407-3.717.523-1.187,8.406,3.721Z" transform="translate(3.063 12.571)" fill="#fff"/>
      <path id="polygon336" d="M30.82,54.216l-8.163-4.224.612-1.193,6.545,1.341-5.722-2.924.554-1.085,8.167,4.218-.607,1.183L25.648,50.2l5.732,2.923Z" transform="translate(3.36 11.224)" fill="#fff"/>
      <path id="path338" d="M29.682,48.926l.69-1.109.5.312a2.853,2.853,0,0,0,1.061.475.586.586,0,0,0,.559-.308.772.772,0,0,0,.092-.674,1.288,1.288,0,0,0-.574-.612,1.625,1.625,0,0,0-.676-.244,3.128,3.128,0,0,0-.986.137l-.878.24a4.655,4.655,0,0,1-1.694.247,3.122,3.122,0,0,1-1.217-.478,2.865,2.865,0,0,1-1.269-1.4,1.933,1.933,0,0,1,1.589-2.468,3.309,3.309,0,0,1,1.978.619c.08.047.135.084.173.111a.556.556,0,0,1,.1.073l-.651,1.046-.209-.133a2.255,2.255,0,0,0-1.015-.4.657.657,0,0,0-.595.339.591.591,0,0,0-.055.554,1.137,1.137,0,0,0,.478.51,1.915,1.915,0,0,0,1.527,0h.009l.922-.268a4.1,4.1,0,0,1,1.62-.22,3.662,3.662,0,0,1,1.427.568,3.006,3.006,0,0,1,1.35,1.479,1.884,1.884,0,0,1-.245,1.677,1.81,1.81,0,0,1-1.437.959,3.721,3.721,0,0,1-2.117-.718c-.091-.053-.237-.148-.428-.284l-.029-.017Z" transform="translate(4.205 10.18)" fill="#fff"/>
      <path id="polygon340" d="M35.164,46.828l-6.2-4.513-.883,1.219-1.233-.891,2.533-3.5,1.237.894-.883,1.215,6.2,4.51Z" transform="translate(4.759 8.873)" fill="#fff"/>
      <path id="polygon342" d="M36.389,44.589l-7.153-5.78.824-1.01,7.14,5.786Z" transform="translate(5.558 8.418)" fill="#fff"/>
      <path id="polygon344" d="M38.188,43l-5.71-5.128L31.47,39l-1.127-1.022,2.883-3.206,1.134,1.017-1.009,1.119,5.708,5.125Z" transform="translate(5.928 7.399)" fill="#fff"/>
      <path id="path346" d="M33.126,34.883l.934-.894,4.3,4.478a3.484,3.484,0,0,0,1.139.907.716.716,0,0,0,.771-.219.694.694,0,0,0,.236-.752,3.662,3.662,0,0,0-.875-1.191l-4.278-4.462.92-.88,4.4,4.578a8.325,8.325,0,0,1,.878,1.03,2.36,2.36,0,0,1,.328.728,1.765,1.765,0,0,1-.039,1.034,2.254,2.254,0,0,1-.616.934,1.938,1.938,0,0,1-1.693.678,4.375,4.375,0,0,1-2.01-1.375l-4.39-4.593Z" transform="translate(7.069 6.423)" fill="#fff"/>
      <path id="polygon348" d="M43.174,38.083l-4.891-5.918-1.165.958-.959-1.169,3.326-2.747.966,1.171-1.157.954,4.888,5.912Z" transform="translate(8.112 5.483)" fill="#fff"/>
      <path id="polygon350" d="M44.7,36.684l-5.368-7.468,2.914-2.089.9,1.246L41.282,29.71l1.237,1.717,1.729-1.246.85,1.186-1.733,1.239,1.479,2.061L46.753,33.3l.9,1.266Z" transform="translate(9.205 4.788)" fill="#fff"/>
      <path id="path352" d="M47.222,29.275A11.518,11.518,0,0,0,48.8,31.659a.738.738,0,0,0,.928.145.727.727,0,0,0,.363-.856,11.859,11.859,0,0,0-1.246-2.593,11.554,11.554,0,0,0-1.585-2.4.74.74,0,0,0-.93-.148.73.73,0,0,0-.346.867,11.577,11.577,0,0,0,1.234,2.6Zm-1.161.652a22.344,22.344,0,0,1-1.05-2.09,3.888,3.888,0,0,1-.362-1.307,2.166,2.166,0,0,1,.193-1.133,2.009,2.009,0,0,1,.83-.778,2.059,2.059,0,0,1,1.1-.312,2.12,2.12,0,0,1,1.075.422,4.217,4.217,0,0,1,.931.994A21.478,21.478,0,0,1,50.012,27.7a21.257,21.257,0,0,1,1.046,2.07,3.96,3.96,0,0,1,.371,1.318,2.191,2.191,0,0,1-.193,1.142A2,2,0,0,1,50.4,33a2.065,2.065,0,0,1-1.093.316,2.234,2.234,0,0,1-1.07-.431,4,4,0,0,1-.934-.982,22.4,22.4,0,0,1-1.242-1.978" transform="translate(11.031 3.846)" fill="#fff"/>
      <path id="polygon354" d="M51.947,32.019,48.041,23.7l3.307-1.553.636,1.361-2.133,1,.916,1.962,2.018-.947.62,1.331-2.014.949,1.73,3.667Z" transform="translate(12.197 3.124)" fill="#fff"/>
      <path id="polygon356" d="M57.354,29.7l-2.532-7.247-1.418.5L52.9,21.524,56.974,20.1l.5,1.435-1.419.495,2.539,7.241Z" transform="translate(13.868 2.44)" fill="#fff"/>
      <path id="polygon358" d="M59.211,28.957l-2.44-8.869,3.462-.949.4,1.482-2.212.61.568,2.04,2.058-.566.383,1.4-2.058.572.67,2.444,2.271-.624.407,1.5Z" transform="translate(15.202 2.12)" fill="#fff"/>
      <path id="path360" d="M64.272,24.314l1.235-.244a.993.993,0,0,0,.044.169c.016.075.027.135.039.175a4.416,4.416,0,0,1-.039,2.416,1.769,1.769,0,0,1-1.394,1.063,1.973,1.973,0,0,1-.867,0,1.653,1.653,0,0,1-.71-.4,3.1,3.1,0,0,1-.747-1.191,19.975,19.975,0,0,1-.708-2.826c-.188-.932-.3-1.676-.366-2.235a5.114,5.114,0,0,1,.029-1.279A2.059,2.059,0,0,1,61.3,18.93a1.909,1.909,0,0,1,.986-.484,1.737,1.737,0,0,1,1.66.416,4.439,4.439,0,0,1,.93,2.2l-1.233.247-.047-.217A2.594,2.594,0,0,0,63.2,20.04a.6.6,0,0,0-.623-.249.639.639,0,0,0-.53.619,13.3,13.3,0,0,0,.383,2.781,15.158,15.158,0,0,0,.752,2.931.636.636,0,0,0,.722.4A.623.623,0,0,0,64.428,26a4.673,4.673,0,0,0-.136-1.561l-.02-.121Z" transform="translate(16.564 1.872)" fill="#fff"/>
      <path id="polygon362" d="M65.7,27.356l-1.058-9.134,1.277-.148.419,3.579,1.764-.205-.416-3.579,1.287-.151,1.066,9.132L68.755,27l-.483-4.141-1.766.207.487,4.138Z" transform="translate(17.91 1.645)" fill="#fff"/>
      <path id="polygon364" d="M69.522,26.848l-.307-9.192,1.331-.047,2.037,6.369-.255-6.427,1.227-.043.309,9.188-1.326.049L70.5,20.368l.255,6.435Z" transform="translate(19.48 1.575)" fill="#fff"/>
      <path id="path366" d="M74.852,22.2a11.728,11.728,0,0,0,.068,2.863.755.755,0,0,0,.722.62.733.733,0,0,0,.752-.542,12.2,12.2,0,0,0,.331-2.852,11.62,11.62,0,0,0-.065-2.883.756.756,0,0,0-.706-.616.743.743,0,0,0-.766.551,11.881,11.881,0,0,0-.336,2.859Zm-1.322-.059a19.4,19.4,0,0,1,.213-2.333,4,4,0,0,1,.4-1.3,2.12,2.12,0,0,1,.76-.856,2.376,2.376,0,0,1,2.207.1,2.187,2.187,0,0,1,.7.928,4.31,4.31,0,0,1,.248,1.339,18.014,18.014,0,0,1,0,2.327,22.522,22.522,0,0,1-.211,2.315,4.453,4.453,0,0,1-.386,1.315,2.19,2.19,0,0,1-.766.856,2.055,2.055,0,0,1-1.121.221A1.8,1.8,0,0,1,73.8,25.806a3.941,3.941,0,0,1-.271-1.325,20.584,20.584,0,0,1,.005-2.337" transform="translate(20.952 1.55)" fill="#fff"/>
      <path id="polygon368" d="M77.428,26.917l1.11-9.126,1.285.156L78.9,25.518l2.345.284L81.05,27.36Z" transform="translate(22.303 1.67)" fill="#fff"/>
      <path id="path370" d="M82.643,22.992a11.3,11.3,0,0,0-.358,2.842.748.748,0,0,0,.612.719.736.736,0,0,0,.827-.419,12.358,12.358,0,0,0,.751-2.775,12.209,12.209,0,0,0,.367-2.862.758.758,0,0,0-.618-.715.744.744,0,0,0-.83.431,11.315,11.315,0,0,0-.752,2.779Zm-1.3-.26a22.752,22.752,0,0,1,.55-2.269,4.035,4.035,0,0,1,.586-1.226,1.774,1.774,0,0,1,2.017-.788,2.04,2.04,0,0,1,1.031.48,2.141,2.141,0,0,1,.552,1.021,4.631,4.631,0,0,1,.049,1.363,19.585,19.585,0,0,1-.355,2.3,20.565,20.565,0,0,1-.55,2.264,4.626,4.626,0,0,1-.574,1.242,2.269,2.269,0,0,1-.886.735,2.13,2.13,0,0,1-1.145.049,2.073,2.073,0,0,1-1.031-.48,2.035,2.035,0,0,1-.528-1.022,3.774,3.774,0,0,1-.073-1.351,19.916,19.916,0,0,1,.356-2.316" transform="translate(23.523 1.871)" fill="#fff"/>
      <path id="path372" d="M87.75,28.935l.188-.994a1.959,1.959,0,0,1-.792.758,1.425,1.425,0,0,1-1,.015,1.572,1.572,0,0,1-1.2-1.477,12.231,12.231,0,0,1,.664-3.977,19.821,19.821,0,0,1,.7-2.07A4,4,0,0,1,87,20.058a1.813,1.813,0,0,1,.912-.582,2.192,2.192,0,0,1,1.151.053,1.952,1.952,0,0,1,1.394,1.133,3.612,3.612,0,0,1-.076,2.247l-.071.225-1.17-.334.031-.095a2.629,2.629,0,0,0,.117-1.271.739.739,0,0,0-.55-.6.786.786,0,0,0-.915.334,12.628,12.628,0,0,0-1.037,2.867,10.847,10.847,0,0,0-.519,2.564c.005.46.177.732.508.834a.772.772,0,0,0,.844-.247,4.336,4.336,0,0,0,.639-1.461l.085-.3-.867-.249.4-1.41,2.085.591-1.381,4.816-.838-.239Z" transform="translate(24.894 2.215)" fill="#fff"/>
      <path id="polygon374" d="M89.294,29.634l1.365-3.654.131-5.607,1.355.512-.227,3.6,2.2-2.868,1.317.491L91.883,26.44l-1.367,3.651Z" transform="translate(26.396 2.532)" fill="#fff"/>
      <path id="path376" d="M98.051,26.224a1.865,1.865,0,0,0,.588-.308,1.361,1.361,0,0,0,.372-.444.952.952,0,0,0,.131-.5.384.384,0,0,0-.221-.308.431.431,0,0,0-.388-.015.844.844,0,0,0-.326.371.518.518,0,0,0-.055.167c-.013.077-.024.152-.036.237l-.065.8Zm-1.457,4.417L96.7,27.9a1.869,1.869,0,0,0-.724.374,2.022,2.022,0,0,0-.522.667,1.952,1.952,0,0,0-.248,1.067.747.747,0,0,0,.815.775,1.769,1.769,0,0,0,.57-.141m-.137,1.84.063-.623a1.94,1.94,0,0,1-.842.2,1.873,1.873,0,0,1-.834-.231,1.685,1.685,0,0,1-.954-1.321,3.4,3.4,0,0,1,.44-2.029,3.468,3.468,0,0,1,.93-1.158,5.005,5.005,0,0,1,1.545-.743,6.242,6.242,0,0,1,.109-1.138,2.934,2.934,0,0,1,.289-.822,2,2,0,0,1,.982-1.014,1.317,1.317,0,0,1,1.2.047,1.4,1.4,0,0,1,.79.92,1.932,1.932,0,0,1-.243,1.337,3.1,3.1,0,0,1-.82,1.023,2.858,2.858,0,0,1-1.11.566l-.123,2.062a5.164,5.164,0,0,0,.41-.53,5.868,5.868,0,0,0,.4-.682l.068-.133.946.487a8.584,8.584,0,0,1-.918,1.447,4.38,4.38,0,0,1-.993.955l-.117,2.016-1.221-.636" transform="translate(27.971 3.57)" fill="#fff"/>
      <path id="path378" d="M100.273,30.955l1.085.731-.331.488a2.7,2.7,0,0,0-.514,1.042.554.554,0,0,0,.281.564.739.739,0,0,0,.67.121,1.257,1.257,0,0,0,.631-.548,1.5,1.5,0,0,0,.276-.67,3.422,3.422,0,0,0-.1-.986l-.205-.891a4.665,4.665,0,0,1-.185-1.692,3.066,3.066,0,0,1,.528-1.206,2.832,2.832,0,0,1,1.446-1.211,1.752,1.752,0,0,1,1.569.261,1.772,1.772,0,0,1,.844,1.413,3.309,3.309,0,0,1-.7,1.961,1.882,1.882,0,0,1-.115.167c-.028.033-.052.065-.076.095l-1.029-.69.148-.2a2.519,2.519,0,0,0,.451-1,.67.67,0,0,0-.328-.61.589.589,0,0,0-.552-.075,1.16,1.16,0,0,0-.524.458A1.962,1.962,0,0,0,103.482,30c0,.008.005.012.005.015l.229.931a3.925,3.925,0,0,1,.159,1.622,3.507,3.507,0,0,1-.615,1.409,3.049,3.049,0,0,1-1.534,1.3,1.882,1.882,0,0,1-1.668-.305,1.8,1.8,0,0,1-.9-1.473,3.73,3.73,0,0,1,.8-2.09,4.583,4.583,0,0,1,.3-.416l.019-.028Z" transform="translate(29.795 4.617)" fill="#fff"/>
      <path id="path380" d="M105.812,34.834l.982.779c-.027.031-.06.08-.107.14a1.68,1.68,0,0,1-.1.149,4.255,4.255,0,0,1-1.87,1.529,1.738,1.738,0,0,1-1.7-.366,1.885,1.885,0,0,1-.555-.662,1.614,1.614,0,0,1-.167-.8,3.161,3.161,0,0,1,.419-1.338,19.046,19.046,0,0,1,1.706-2.373,22.22,22.22,0,0,1,1.462-1.718,4.218,4.218,0,0,1,.993-.807,2.043,2.043,0,0,1,1.115-.284,1.813,1.813,0,0,1,1,.434,1.73,1.73,0,0,1,.766,1.531,4.543,4.543,0,0,1-1.074,2.14l-.993-.78.136-.176a2.412,2.412,0,0,0,.547-.986.593.593,0,0,0-.205-.634.651.651,0,0,0-.818,0,12.84,12.84,0,0,0-1.868,2.094,14.285,14.285,0,0,0-1.744,2.467.635.635,0,0,0,.153.815.619.619,0,0,0,.743.051,4.572,4.572,0,0,0,1.107-1.109l.075-.1Z" transform="translate(30.875 5.44)" fill="#fff"/>
      <path id="polygon382" d="M104.661,38.087l6.107-6.872.965.856-6.107,6.877Z" transform="translate(31.69 6.202)" fill="#fff"/>
      <path id="polygon384" d="M105.995,39.19l6.454-6.545L115,35.162l-1.074,1.093-1.633-1.61-1.483,1.506,1.519,1.5L111.3,38.687l-1.517-1.5-1.774,1.8,1.657,1.652-1.089,1.1Z" transform="translate(32.162 6.684)" fill="#fff"/>
      <path id="polygon386" d="M108.353,41.413l6.928-6.043.883,1.017-3.658,5.587,4.825-4.249.807.92-6.928,6.043-.878-1,3.655-5.612-4.833,4.262Z" transform="translate(33.16 7.602)" fill="#fff"/>
      <path id="path388" d="M115.092,44.448l.752,1.01c-.028.023-.073.06-.133.107s-.109.087-.145.115a4.3,4.3,0,0,1-2.2.994,1.74,1.74,0,0,1-1.558-.8,2.015,2.015,0,0,1-.37-.784,1.68,1.68,0,0,1,.06-.81,2.875,2.875,0,0,1,.76-1.181,18.746,18.746,0,0,1,2.252-1.86c.751-.562,1.373-.982,1.853-1.27a4.382,4.382,0,0,1,1.174-.526,2.059,2.059,0,0,1,1.146.016,1.79,1.79,0,0,1,.864.686,1.737,1.737,0,0,1,.334,1.674,4.37,4.37,0,0,1-1.592,1.781l-.746-1.007.175-.135a2.724,2.724,0,0,0,.784-.806.613.613,0,0,0-.047-.671.636.636,0,0,0-.774-.209,12.319,12.319,0,0,0-2.363,1.538,15.4,15.4,0,0,0-2.329,1.921.651.651,0,0,0-.052.831.615.615,0,0,0,.7.244,4.618,4.618,0,0,0,1.347-.787l.1-.071Z" transform="translate(34.183 8.948)" fill="#fff"/>
      <path id="polygon390" d="M113.14,47.183l7.757-4.928,1.921,3.023-1.29.824L120.3,44.167,118.516,45.3l1.138,1.8-1.225.78-1.141-1.8-2.148,1.359,1.265,1.981-1.317.834Z" transform="translate(34.759 9.919)" fill="#fff"/>
      <path id="path392" d="M113.726,49.875l.539-.305a.62.62,0,0,0,.514.236,1.414,1.414,0,0,0,.738-.221l.076-.041-.307-.552,1.442-.81.571,1.01-1.454.822a2.15,2.15,0,0,1-1.226.332,1.118,1.118,0,0,1-.892-.47Z" transform="translate(34.955 11.911)" fill="#fff"/>
      <path id="path394" d="M121.715,51.717l.224.5a1.055,1.055,0,0,0,.651.655,2.49,2.49,0,0,0,1.946-.86,1.032,1.032,0,0,0-.084-.907l-.229-.518-2.508,1.133Zm-5.227.978,8.382-3.777.932,2.066a1.777,1.777,0,0,1,.063,1.6,3.545,3.545,0,0,1-1.641,1.238,3.469,3.469,0,0,1-2.045.39,1.708,1.708,0,0,1-1.222-1.07l-.386-.868-3.549,1.6-.535-1.182" transform="translate(35.877 12.161)" fill="#fff"/>
      <path id="polygon396" d="M117.963,55.968l8.585-3.294.464,1.207-8.585,3.3Z" transform="translate(36.37 13.424)" fill="#fff"/>
      <path id="polygon398" d="M118.607,57.515l8.739-2.828.4,1.223-7.256,2.355.728,2.243-1.493.48Z" transform="translate(36.585 14.103)" fill="#fff"/>
      <path id="path400" d="M123.529,60.659l.257,1.074,3.611-1.465-3.869.391Zm-4.027-.931,9.3-.668.419,1.689-8.551,3.733-.336-1.357,2.165-.887-.352-1.453-2.327.228-.318-1.285" transform="translate(36.884 15.574)" fill="#fff"/>
      <path id="polygon402" d="M120.447,63.878l9.075-1.466.213,1.327-6.058,2.812,6.342-1.063.2,1.214-9.079,1.467-.213-1.311,6.069-2.831-6.347,1.067Z" transform="translate(37.2 16.703)" fill="#fff"/>
      <path id="polygon404" d="M121.037,67.752l9.144-.918.135,1.281-9.156.923Z" transform="translate(37.397 18.189)" fill="#fff"/>
      <path id="path406" d="M102.4,62.524,104.23,56h-1.009s-1.23,9.769-7.545,13.239c0,0,1.222,3.459-.407,6.11l-5.7,18.527-3.254,3.256-2.637,7.5,2.947,1.039.5-1s1.427-2.243,2.241-.207l-.61,1.829,2.641,1.023,1.019-4.074.615-2.24.2-5.089,6.522-20.361,3.469-4.28s-1.841-4.881-.827-8.753Z" transform="translate(24.536 14.594)" fill="#2b2b88"/>
      <path id="path408" d="M75.732,106.062l2.241-.82,1.014.2,1.022-1.421.4.807,1.626-1.63.615.614c2.319-1.538,5.726-8.739,6.078-9.5l-2.772-1c-2.2,7.016-10.225,12.743-10.225,12.743Z" transform="translate(21.758 27.118)" fill="#2b2b88"/>
      <path id="path410" d="M82.6,102.8l2.448-1.221v1.018l1.418-1.218.412,1.014c1.579-1.222,3.989-5.472,4.732-6.837L88.792,94.54C87.461,98.367,82.6,102.8,82.6,102.8Z" transform="translate(24.105 27.522)" fill="#2b2b88"/>
      <path id="path412" d="M111.919,80.334S104.8,77.687,99.1,69.132M87.077,72.8s11.2,0,15.276-3.459M88.506,70.968s-.815,9.366-4.484,15.273M83.206,84s4.278,1.83,7.739,10.383m-1.011-.406,2.233-1.225,10.8-4.067m-1.629,2.437s1.019-10.177,2.441-12.016m.61,2.244s-5.495-3.866-7.332-7.739m-4.268,1.628-3.466,9.574m-.41-2.041,3.254,5.3m-1.007-.61a12.4,12.4,0,0,1,6.1-.814m-1.222,1.218L99.1,81.153m-4.073-2.244,2.843,4.48m-6.925-6.317,7.54-2.444m-7.288,6.1,6.465-.6" transform="translate(24.423 18.987)" fill="none" stroke="#b38d06" stroke-width="0.774"/>
      <path id="path414" d="M98.769,123.718s-.039-2.52,4.15-.706" transform="translate(29.646 36.898)" fill="none" stroke="#fff" stroke-width="0.5"/>
    </g>
  </g>
</svg>
