<svg xmlns="http://www.w3.org/2000/svg" width="200" height="216" viewBox="0 0 200 216">
  <g id="created_experts_icon" transform="translate(-1490 -1647)">
    <path id="Path_48333" data-name="Path 48333" d="M179.769,176.784l-64.442,34.9a35.835,35.835,0,0,1-35.548-.827L17.061,173A35.168,35.168,0,0,1,.01,142.073l1.724-72.76a35.2,35.2,0,0,1,18.5-30.1l64.442-34.9a35.835,35.835,0,0,1,35.548.827L182.939,43A35.164,35.164,0,0,1,199.99,73.928l-1.724,72.759a35.2,35.2,0,0,1-18.5,30.1" transform="translate(1490 1647)" fill="#0081fe"/>
    <g id="created_experts_icon-2" data-name="created_experts_icon" transform="translate(1539.471 1424.403)">
      <path id="path3466" d="M52.193,280.6a5.006,5.006,0,0,0-4.684,3.327H5.529a5.026,5.026,0,0,0-5,5v16.667a1.667,1.667,0,1,0,3.333,0V288.924a1.628,1.628,0,0,1,1.667-1.667H47.2v3.333H8.862A1.667,1.667,0,0,0,7.2,292.257v46.667a1.667,1.667,0,0,0,1.667,1.667H85.523a1.667,1.667,0,0,0,1.667-1.667V317.261h3.333v25a1.628,1.628,0,0,1-1.667,1.667H5.529a1.628,1.628,0,0,1-1.667-1.667V320.591a1.667,1.667,0,1,0-3.333,0v21.667a5.026,5.026,0,0,0,5,5H88.857a5.026,5.026,0,0,0,5-5v-25h1.663a5.043,5.043,0,0,0,5.009-5.01v-26.66a5.029,5.029,0,0,0-5.009-4.993Zm0,3.32H95.52a1.641,1.641,0,0,1,1.676,1.673v26.66a1.644,1.644,0,0,1-1.676,1.677H67.188a1.67,1.67,0,0,0-1.081.391l-8.922,7.653v-6.383a1.667,1.667,0,0,0-1.66-1.66H52.193a1.631,1.631,0,0,1-1.66-1.677v-26.66a1.628,1.628,0,0,1,1.66-1.673Zm13.336,6.67v16.67a1.667,1.667,0,0,0,2.545,1.416l13.336-8.33a1.667,1.667,0,0,0,0-2.829l-13.336-8.343a1.65,1.65,0,0,0-2.545,1.416Zm3.333,3.014,8.515,5.326-8.515,5.316Zm-58.332.323H47.2v18.327a5.029,5.029,0,0,0,4.993,5.01h1.66v8.327a1.667,1.667,0,0,0,2.757,1.269l11.194-9.6H83.857v20H50.526a10.009,10.009,0,0,0-10-9.99h-1.66v-4.245a9.971,9.971,0,0,0,3.336-7.432v-1.66a1.666,1.666,0,0,0,1.66-1.673v-5a10.02,10.02,0,0,0-10-10H30.524a10.009,10.009,0,0,0-9.99,10v5a1.667,1.667,0,0,0,1.66,1.673v1.66a9.968,9.968,0,0,0,3.33,7.432v4.245h-1.67a10,10,0,0,0-9.99,9.99H10.529Zm20,6.67h3.333a6.615,6.615,0,0,1,6.666,6.667v2.646l-2.155-2.155a1.662,1.662,0,0,0-2.1-.209s-4.822,3.053-9.081,3.053H23.855V307.26a6.618,6.618,0,0,1,6.669-6.667ZM2.17,310.568A1.666,1.666,0,0,0,.53,312.257v1.667a1.667,1.667,0,1,0,3.333,0v-1.667a1.666,1.666,0,0,0-1.693-1.689Zm34.757.446,1.937,1.943v2.633a6.669,6.669,0,0,1-13.339,0v-1.66h1.663A21.036,21.036,0,0,0,36.927,311.014Zm-8.063,13.994a9.776,9.776,0,0,0,6.666,0v3.6s-.565,1.979-3.333,1.979-3.333-1.956-3.333-1.956Zm-5.009,5.579h2.259s1.438,3.333,6.084,3.333,6.08-3.333,6.08-3.333h2.246a6.621,6.621,0,0,1,6.669,6.67H17.2a6.607,6.607,0,0,1,6.653-6.67Zm-8.323,20a8.357,8.357,0,0,0-8.343,8.33v1.673a8.233,8.233,0,0,0,1.823,5.124,10,10,0,0,0-8.476,9.873v3.337A1.667,1.667,0,0,0,2.2,380.6H28.854a1.667,1.667,0,0,0,1.673-1.673v-3.337a10.013,10.013,0,0,0-8.482-9.873,8.243,8.243,0,0,0,1.816-5.124v-1.673a8.346,8.346,0,0,0-8.329-8.33Zm35,0a8.357,8.357,0,0,0-8.343,8.33v1.673a8.233,8.233,0,0,0,1.82,5.124,10.012,10.012,0,0,0-8.486,9.873v3.337A1.667,1.667,0,0,0,37.2,380.6H63.855a1.667,1.667,0,0,0,1.673-1.673v-3.337a10.014,10.014,0,0,0-8.482-9.873,8.243,8.243,0,0,0,1.816-5.124v-1.673a8.346,8.346,0,0,0-8.329-8.33Zm34.988,0a8.346,8.346,0,0,0-8.329,8.33v1.673a8.243,8.243,0,0,0,1.816,5.124,10.016,10.016,0,0,0-8.486,9.873v3.337A1.667,1.667,0,0,0,72.2,380.6H98.856a1.667,1.667,0,0,0,1.673-1.673v-3.337a10.014,10.014,0,0,0-8.489-9.873,8.231,8.231,0,0,0,1.82-5.124v-1.673a8.354,8.354,0,0,0-8.339-8.33Zm-69.989,3.337a4.942,4.942,0,0,1,4.993,4.994v1.673a5,5,0,0,1-10,0v-1.673A4.953,4.953,0,0,1,15.532,353.924Zm35,0a4.942,4.942,0,0,1,4.993,4.994v1.673a5,5,0,0,1-10,0v-1.673A4.956,4.956,0,0,1,50.532,353.924Zm34.988,0a4.953,4.953,0,0,1,5.006,4.994v1.673a5,5,0,0,1-10,0v-1.673A4.945,4.945,0,0,1,85.52,353.924Zm-74.995,15h10a6.618,6.618,0,0,1,6.669,6.667v1.677H3.856v-1.677A6.618,6.618,0,0,1,10.525,368.921Zm35,0h10a6.618,6.618,0,0,1,6.669,6.667v1.677H38.857v-1.677A6.615,6.615,0,0,1,45.523,368.921Zm35,0h10a6.618,6.618,0,0,1,6.669,6.667v1.677H73.857v-1.677a6.615,6.615,0,0,1,6.666-6.667Z" transform="translate(0 0)" fill="#fff"/>
    </g>
  </g>
</svg>
