<svg xmlns="http://www.w3.org/2000/svg" xmlns:xlink="http://www.w3.org/1999/xlink" width="405" height="275" viewBox="0 0 405 275">
  <defs>
    <filter id="Rectangle_8170" x="0" y="0" width="405" height="275" filterUnits="userSpaceOnUse">
      <feOffset input="SourceAlpha"/>
      <feGaussianBlur stdDeviation="12.5" result="blur"/>
      <feFlood flood-opacity="0.078"/>
      <feComposite operator="in" in2="blur"/>
      <feComposite in="SourceGraphic"/>
    </filter>
  </defs>
  <g id="google_logo_with_white_bg" transform="translate(-377.5 -13123.5)">
    <g transform="matrix(1, 0, 0, 1, 377.5, 13123.5)" filter="url(#Rectangle_8170)">
      <rect id="Rectangle_8170-2" data-name="Rectangle 8170" width="330" height="200" rx="20" transform="translate(37.5 37.5)" fill="#fff"/>
    </g>
    <g id="google_logo" transform="translate(439.89 13217)">
      <path id="Path_11535" data-name="Path 11535" d="M35.015,31.311v9.4h22.48c-.688,5.276-2.447,9.137-5.123,11.852-3.288,3.288-8.411,6.882-17.357,6.882a24.673,24.673,0,0,1-24.659-25,24.673,24.673,0,0,1,24.659-25,23.9,23.9,0,0,1,16.936,6.729l6.614-6.614A32.472,32.472,0,0,0,35.015,0C16.052,0,.11,15.445.11,34.408s15.942,34.408,34.9,34.408c10.246,0,17.968-3.364,24.009-9.634,6.193-6.193,8.143-14.948,8.143-21.983a30.219,30.219,0,0,0-.5-5.888Z" transform="translate(0)" fill="#4285f4"/>
      <path id="Path_11536" data-name="Path 11536" d="M41.459,6.19A21.888,21.888,0,0,0,19.17,28.4,21.959,21.959,0,0,0,41.459,50.614,21.935,21.935,0,0,0,63.747,28.4,21.888,21.888,0,0,0,41.459,6.19Zm0,35.669c-6.729,0-12.54-5.543-12.54-13.457,0-7.99,5.811-13.457,12.54-13.457S54,20.412,54,28.4C54,36.316,48.187,41.859,41.459,41.859Z" transform="translate(53.973 17.533)" fill="#ea4335"/>
      <path id="Path_11537" data-name="Path 11537" d="M77.8,11.16h-.344a15.4,15.4,0,0,0-11.7-4.97C54.672,6.19,45,15.862,45,28.4c0,12.463,9.672,22.212,20.759,22.212a15.169,15.169,0,0,0,11.7-5.046H77.8v3.1C77.8,57.152,73.253,61.7,65.95,61.7c-5.964,0-9.672-4.282-11.2-7.914L46.262,57.3A21.158,21.158,0,0,0,65.95,70.418c11.431,0,21.1-6.729,21.1-23.13V7.337H77.8Zm-11.2,30.7c-6.729,0-11.852-5.735-11.852-13.457,0-7.837,5.123-13.457,11.852-13.457,6.652,0,11.852,5.735,11.852,13.534C78.49,36.239,73.253,41.859,66.6,41.859Z" transform="translate(127.113 17.582)" fill="#4285f4"/>
      <path id="Path_11538" data-name="Path 11538" d="M54.459,6.19A21.888,21.888,0,0,0,32.17,28.4,21.959,21.959,0,0,0,54.459,50.614,21.935,21.935,0,0,0,76.747,28.4,21.888,21.888,0,0,0,54.459,6.19Zm0,35.669c-6.729,0-12.54-5.543-12.54-13.457,0-7.99,5.811-13.457,12.54-13.457S67,20.412,67,28.4C67,36.316,61.187,41.859,54.459,41.859Z" transform="translate(90.786 17.533)" fill="#fbbc05"/>
      <path id="Path_11539" data-name="Path 11539" d="M58,.24h9.6V67.411H58Z" transform="translate(163.865 0.678)" fill="#34a853"/>
      <path id="Path_11540" data-name="Path 11540" d="M84.521,41.859c-4.97,0-8.487-2.256-10.781-6.729l29.705-12.272-.994-2.523c-1.835-4.97-7.493-14.145-19-14.145C72.019,6.19,62.5,15.174,62.5,28.4c0,12.463,9.4,22.212,22.021,22.212a22.16,22.16,0,0,0,18.5-9.825l-7.57-5.046c-2.523,3.67-5.964,6.117-10.934,6.117Zm-.688-27.335c3.938,0,7.3,2.026,8.411,4.894l-20.071,8.3C72.172,18.386,78.786,14.524,83.833,14.524Z" transform="translate(176.665 17.533)" fill="#ea4335"/>
    </g>
  </g>
</svg>
