<svg xmlns="http://www.w3.org/2000/svg" xmlns:xlink="http://www.w3.org/1999/xlink" width="405" height="275" viewBox="0 0 405 275">
  <defs>
    <filter id="Rectangle_8171" x="0" y="0" width="405" height="275" filterUnits="userSpaceOnUse">
      <feOffset input="SourceAlpha"/>
      <feGaussianBlur stdDeviation="12.5" result="blur"/>
      <feFlood flood-opacity="0.078"/>
      <feComposite operator="in" in2="blur"/>
      <feComposite in="SourceGraphic"/>
    </filter>
  </defs>
  <g id="iit_bombay_logo_with_white_bg" transform="translate(-757.5 -13123.5)">
    <g transform="matrix(1, 0, 0, 1, 757.5, 13123.5)" filter="url(#Rectangle_8171)">
      <rect id="Rectangle_8171-2" data-name="Rectangle 8171" width="330" height="200" rx="20" transform="translate(37.5 37.5)" fill="#fff"/>
    </g>
    <g id="iit_bombay_logo" transform="translate(878 13181)">
      <g id="Group_5915" data-name="Group 5915" transform="translate(3.11 3.042)">
        <path id="Path_11541" data-name="Path 11541" d="M81.958,8.948c4.5-.107,9.059-.387,13.523.335l2.7,11.349A86.435,86.435,0,0,1,112,24.3c2.893-2.706,5.572-5.643,8.542-8.263a59.046,59.046,0,0,1,11.918,6.6l-3.228,11.183a77.154,77.154,0,0,1,10.409,9.935c3.635-1.23,7.181-2.744,10.782-4.085a84.4,84.4,0,0,1,7.323,11.345l-8.082,8.328a75.179,75.179,0,0,1,4.326,12.734l11.642,1.569a84.64,84.64,0,0,1,1.26,13.267l-11.041,3.66a88.173,88.173,0,0,1-2.054,13.439c3.131,2.474,6.57,4.534,9.643,7.084a69.275,69.275,0,0,1-5.289,12.769L146.765,121.4a92.177,92.177,0,0,1-5.61,8.439c-3.8-2.83-7.461-5.844-11.045-8.943a54.109,54.109,0,0,0,11.307-38.048,53.573,53.573,0,0,0-106.721.28c-1.326,13.716,3.684,27.49,11.953,38.3a13.354,13.354,0,0,1-1.315,1.223c-3.242,2.516-6.346,5.2-9.57,7.744a65.28,65.28,0,0,1-6.118-8.563c-3.915.363-7.83,1.424-11.77,1.921-.456-.083-.545-.653-.791-.975A80.516,80.516,0,0,1,12.4,110.874c3.235-2.146,6.643-4.019,9.878-6.162.521-.273.093-.912.069-1.337a57.589,57.589,0,0,1-1.8-13.159c-3.815-1.22-7.678-2.295-11.528-3.4a51.188,51.188,0,0,1,1.353-13.56q6-.68,11.991-1.51a66.561,66.561,0,0,1,4.578-13.08C24.266,55.676,21.311,52.953,18.59,50a60.762,60.762,0,0,1,8-11.822l10.558,4.976A97.206,97.206,0,0,1,47.8,33.369c-1.1-3.694-2.4-7.326-3.573-10.993.2-.494.78-.67,1.174-.981a85.037,85.037,0,0,1,10.889-5.951c.487-.342.825.314,1.16.56l7.209,8.079a70.721,70.721,0,0,1,14.024-3.473c1.16-3.867,2.13-7.789,3.273-11.663m8.1,15.934-.2,5.056L91,29.91c.031-1.693.162-3.38.148-5.073l-1.091.045m-7.005.169.2,4.251c-.128.726.552.822,1.108.784-.055-1.178-.1-2.353-.224-3.525.7.975,1.288,2.025,1.968,3.013.259.429.86.225,1.267.346.017-1.686-.142-3.366-.19-5.052l-1.032,0c.024,1.061.09,2.122.121,3.183-.742-.992-1.395-2.046-2.04-3.1l-1.174.1m9.16-.152c-.131,1.662-.394,3.317-.425,4.987l.974.235.328-3.356c.632,1.1,1.053,2.3,1.647,3.414a3.518,3.518,0,0,0,1.129.1c.124-1.669.311-3.335.435-5.007l-1.046-.021a29.514,29.514,0,0,1-.387,3.3A18.824,18.824,0,0,0,93.3,25.086L92.212,24.9m-12.978.625-1.056,5.2,1.081-.187a4.8,4.8,0,0,1,.407-1.037,16.2,16.2,0,0,1,1.688-.2l.428.933,1.208-.162c-.87-1.569-1.64-3.19-2.441-4.793l-1.315.245m-3.418.543c.28,1.628.642,3.238.887,4.873l1.153-.055-.946-5.007-1.094.19m21.219,1.1c.055,1.282,1.681,1.431,2.524,2.07.249,1.31-1.851.733-1.968-.245l-1.056-.173c-.073,1.766,2.068,2.661,3.484,1.925a1.42,1.42,0,0,0,.3-2.295c-.735-.5-1.571-.84-2.327-1.3l.818-.612c.922.162,1.226,1.362,2.292,1.216-.19-.525-.183-1.182-.639-1.576-1.036-.971-3.394-.726-3.425.992m4.63.1,1.36.294c-.283,1.324-.639,2.633-1,3.936l1.067.387q.577-1.978,1.018-3.991l1.533.339.155-.961-4.012-.988-.121.985M70.82,27.249l1.264,4.907c1.188-.38,2.765-.352,3.459-1.569.432-1.334.076-3.231-1.308-3.867a8.836,8.836,0,0,0-3.415.529m35.54.263-1.505,4.807,1.077.346,1.505-4.845-1.077-.308m-37.712.411L69.691,31q-1.457-1.161-2.817-2.436l-1.143.47c.611,1.562,1.132,3.155,1.681,4.741l1-.408-1.091-3.141c.994.8,1.951,1.645,2.9,2.5L71.3,32.4c-.5-1.6-1.1-3.159-1.592-4.759l-1.06.28m39.338.055-.314.9,1.384.57a30.8,30.8,0,0,0-1.319,3.832l.842.346a26.931,26.931,0,0,0,1.557-3.815l1.391.522.328-.94-3.87-1.413m-52.1,2.35c-.356.85.57,1.379,1.063,1.9a51.562,51.562,0,0,0-9.595,6.87c-.021.943.96.37,1.291-.066l.76.937-.2,1.057,1.985,0-.325-1.044.918-.76a20.084,20.084,0,0,0,1.719,2.1,2.1,2.1,0,0,1,1.471-.632c-.19,1.089-1.195,1.431-2.175,1.465l.024.574c1.3.418,3.062-.625,2.921-2.087-.3-.933-1.371-.95-2.141-.684L51.192,36.88l2.828-2.042,1.112,1.773-1.567.093.936-.791c-.552-.753-1.343-.024-1.7.539a1.431,1.431,0,0,0,1.05,2.149c.853.18,1.433-.536,2.013-1.023l.521.968.839-.587c-.815-1.2-1.578-2.433-2.4-3.629a20.563,20.563,0,0,1,2.741-1.545c.407,1.04-1.792.843-1.44,2.008a2.109,2.109,0,0,0,3.09.114l-.138,1.168-1.647.169.01.9a14.09,14.09,0,0,1,3.411.1l.255-.819-1.257.028c.231-.836.49-2.053-.494-2.5-.76.059-1.329.7-2.065.9.069-.854,1-1.047,1.588-1.462l-.618-1.057.8-.46-.349-.733-1.1.681a7.6,7.6,0,0,1-1-.909,7.271,7.271,0,0,1,.839-1.358c-.528.183-1.329.149-1.571.771m7.892-.667c.525,1.648,1.274,3.207,1.909,4.81l1.05-.432c-.642-1.5-1.188-3.034-1.892-4.5l-1.067.124m48.743.021c-.48,1.147-1.112,2.236-1.491,3.425-.663,1.894,2.638,3.411,3.625,1.679.625-1.068,1.032-2.243,1.616-3.328-.352-.086-.766-.667-1.094-.346-.608,1.089-1.036,2.267-1.63,3.366a2.9,2.9,0,0,1-1.519-.667,23.705,23.705,0,0,1,1.547-3.618l-1.053-.511m3.9,2.91,1.312.733c-.628,1.189-1.364,2.319-1.926,3.542.3.207.608.411.922.6l2-3.577,1.405.712.307-.881c-1.122-.729-2.344-1.286-3.48-1.987l-.542.854m1.989,5.692a15.1,15.1,0,0,0,2.907,1.97c.4.37,1.1-.67.456-.809-.639-.47-1.315-.885-1.971-1.324.224-.3.442-.612.7-.892.718.363,1.371.84,2.054,1.265l.47-.847-1.989-1.234.487-.836q1.093.689,2.172,1.413l.583-.784-3.138-2.091c-.9,1.389-1.882,2.737-2.727,4.168m-69.547-2.55.632.764.887-.65L49.756,35l-.894.736m76.953,3.29a3.033,3.033,0,0,0-1.6,2.692,2.428,2.428,0,0,0,3.5,2.025,3.3,3.3,0,0,0,1.7-2.73,2.469,2.469,0,0,0-3.6-1.987m1.636,6.238.753.84,1.564-1.5,1.5,1.5.653-.76c-.452-.5-1.174-.885-1.381-1.541l.525-.674,1.719,1.724.836-.615-2.572-2.592c-1.291,1.113-2.362,2.443-3.594,3.615M41.905,43.906a44.4,44.4,0,0,0-4.84,6.006c.3.591.763.031,1.146-.145a13.242,13.242,0,0,1,1.295,1.113,1.945,1.945,0,0,1-.7,2.288c-.1-.7.055-1.548-.514-2.084a1.769,1.769,0,0,0-1.643-.373c-.708.232-.877,1-1.122,1.607a1.32,1.32,0,0,0,2.182.328l-1.229-.608c0-.885,1.018-.615,1.215.007.3.38-.024.829-.086,1.234L36.443,54c.166.256.335.511.508.764.459-.843,1.405-.636,2.154-.905a3.019,3.019,0,0,0,1.416-2.288l1.146.795.456-.843c-1.184-.829-2.32-1.728-3.47-2.606l.691-.778,3.432,2.768L43.3,50.1,39.91,47.324l2.6-2.937q.353.383.68.788c-.442.826-1.433,1.362-1.64,2.288.366.674,1.353.238,1.978.335q-.234-.623-.49-1.237.416-.374.86-.715a14.081,14.081,0,0,1,1.781,1.676l.625-.809c-1-.964-2.04-1.9-3.011-2.9l.3-.812c-.756-.46-1.2.494-1.685.909M135.144,45.9l-.763.622.943,1.151L132.192,50.3l.746.85c1.056-.822,2.016-1.762,3.118-2.526a8.152,8.152,0,0,1,.9,1.047l.86-.587c-.911-1.044-1.782-2.122-2.669-3.183m-1.056,6.714,2.289,3.172.735-.743c-.532-.677-1.043-1.365-1.554-2.053l.929-.746q.727.97,1.412,1.97l.808-.6c-.321-.729-1.851-1.641-.9-2.378.829.238,1.108,1.372,1.744,1.952l.873-.422-2.185-3.11c-1.422.93-2.79,1.942-4.153,2.955m-99.771,1.31a50.85,50.85,0,0,0-3.97,7.758l.573.477.894-2,1.36.625c-.552.321-1.284.556-1.181,1.351a20.987,20.987,0,0,0,3.953-.684l.038-.912-1.947.511a5.14,5.14,0,0,0-1.726-1.9c.173-.411.376-.8.577-1.2.366.387,1.661.594.815,1.334l.535.6.483-.864a21.115,21.115,0,0,0,2.075.943l.5-.715c-1.3-.719-2.61-1.42-3.946-2.07a7.95,7.95,0,0,1,1.426-2.243,8.045,8.045,0,0,1,1.046.8c-.608.2-1.271.4-1.16,1.192a26.4,26.4,0,0,0,3.977-.335l.083-.86-1.954.249a3.85,3.85,0,0,0-1.457-1.894l.031-1.2a2.6,2.6,0,0,0-1.022,1.033m102.961,3.311a2.36,2.36,0,0,0,3.156,1.79l-.58-1.04c-.563.073-1.374-.045-1.454-.736-.3-1.189,1.1-1.9,2.085-1.987a1.3,1.3,0,0,1,.687,2.015l.532.93a2.264,2.264,0,0,0,.321-3.114c-1.443-2.029-5.217-.249-4.747,2.143M30.519,56.782l.932.5.535-.923-.884-.57-.583,1m109.017,3.29c-.725.183-.117.843-.021,1.272l2.054-1.023L142.377,62l-2.03,1.019.573.943c1.505-.729,3.028-1.424,4.5-2.219l-.514-1-1.661.8-.8-1.6,1.664-.9-.47-.971c-1.381.639-2.738,1.324-4.1,1.994m1.619,4.613c.173.335.359.663.539,1q1.471-.669,3-1.2-1.156,1.506-2.393,2.948l.338,1.1c1.616-.581,3.211-1.21,4.8-1.856L147,65.77c-1.039.3-2.023.75-3.028,1.137.718-1.04,1.647-1.935,2.292-3.02l-.373-1.057c-1.567.65-3.156,1.244-4.733,1.856M28.078,67.076c-1.443-.156-3.156.636-3.118,2.288.055,1.106,1.34,1.13,2.168,1.151a43.82,43.82,0,0,0-1.177,4.648c-1.426,1.054-3.456,2.443-2.862,4.51.176.957,1.309.95,2.058.937.276,1.728-1.561,2.26-2.648,3.121l.494.843c.642-.619,1.295-1.223,1.975-1.8-.114,2.433,0,4.873.1,7.305L22.782,91.55l.449.867a11.807,11.807,0,0,1,2.1-1.7,16.553,16.553,0,0,1-1.516,2.143c.577,1.078,1.036-.328,1.364-.781.4,1.23.349,2.554.725,3.787l.511.166.228-.784c.974-.263,2.237-.4,2.375-1.652q.632.7,1.326,1.344c.7-1.165-.984-1.7-1.571-2.467.653-.221,2.223.086,1.623-1.151-1.481.041-2.938.37-4.416.48L25.9,90.779q2.135-.241,4.278-.4l.038-1a39.005,39.005,0,0,1-4.485.349l-.007-2.7.428-.059a5.513,5.513,0,0,0,.18,1.683c.521.511,1.143-.062,1.668-.242.494-.038,1.119.169,1.44-.339.7-1,.162-2.239-.373-3.176l1,.01-.048-.978c-1.464.1-2.931.149-4.4.117l.128-1.234,4.4.225-.024-.954c-1.44-.048-2.872-.162-4.312-.218l0-1.272c1.457.131,2.907.384,4.374.394l.19-.878-4.405-.463.19-1.424,1.246.183c-.079,1.572,1.847.242,1.554-.653a24.678,24.678,0,0,0-2.648-.508l.231-1.182c1.46.273,2.907.608,4.367.867l.138-.943q-2.167-.406-4.312-.916.4-1.463.742-2.944a10.68,10.68,0,0,1,2.3.629c.148.4.242,1.248-.411,1.21-.849.086-.78-.885-.911-1.431l-.628.2a1.51,1.51,0,0,0,1.819,2.063c.88-.159,1.056-1.113,1.06-1.859l1.1.263.135-.885c-.894-.439-2.824-.273-2.469-1.78.849-.394,1.384.65,1.968,1.089,1.063-.822-.511-2.136-1.454-2.1-1.063-.1-1.416,1.071-1.426,1.921l-.8-.273.749-2.854c1.44.435,2.845.971,4.274,1.438l.183-.9c-1.236-.553-2.548-.905-3.818-1.375a8.659,8.659,0,0,0-.487-1l-.6.608M145.09,68.424a2.4,2.4,0,0,0-1.526,3.425c1.036,2.464,5.51,1.216,5.075-1.458a2.476,2.476,0,0,0-3.549-1.966m-.739,5.868.718,3.584.867-.238a11.475,11.475,0,0,0-.421-2.34,26.032,26.032,0,0,1,3.919-.812l-.09-1.189-4.992,1m2.534,3.49c-1.782.418-2.141,2.927-.915,4.1a3.024,3.024,0,0,0,4.443-.871,2.7,2.7,0,0,0-.5-2.72,3.074,3.074,0,0,0-3.031-.511m-.007,5.546a2.28,2.28,0,0,0-.677,3.442l-.394,1.061,2.859-.107-.107-2.136h-.939l.1,1.168a1.292,1.292,0,0,1-.939-1.856,1.953,1.953,0,0,1,3.287.332c-.059.9-1.018,1.486-.846,2.457,1.813-.066,2.272-2.516,1.284-3.736a3.074,3.074,0,0,0-3.629-.625m-1.046,6.231-.048,1.078a18.168,18.168,0,0,1,1.978.235c1.022.491,1.94,1.175,2.973,1.655l.066-1.234q-1.009-.506-2-1.044l2.106-.885-.021-1.313c-1.605.746-3.159,2.039-5.051,1.507m-.659,8.363a1.54,1.54,0,0,0,2.434.591c.6.518,1.612.867,2.151.069a13.32,13.32,0,0,0,.722-3.269c-1.636-.356-3.3-.529-4.947-.847a9.534,9.534,0,0,0-.359,3.456m.342,1.669a2.52,2.52,0,0,0-1.322,3.362c.96,1.991,4.689,2.022,5.041-.435.628-2.115-1.93-3.521-3.718-2.927M28,102.525l-.766-.719-.148.622a51.032,51.032,0,0,0,1.467,5.177,3.369,3.369,0,0,0-1.567,2.139c-.1.85.366,2.011,1.357,2.039a3.974,3.974,0,0,0,1.474-.826,63.29,63.29,0,0,0,4.878,9.368l.639.252-.131-1.133,1.25-.67.5.881a6.123,6.123,0,0,0-1.654,1.472c.173.791.887,1.963,1.809,1.23.829-.546-.349-1.019-.877-.691.311-.784,1.215-1.5,1.951-.695.573-.384.438-1.279.525-1.887-.577-.314-1.4.145-1.719-.7l1.833-1.116-.49-.867-3.743,2.3-.532-.9c1.229-.726,2.513-1.355,3.7-2.146l-.3-.909-3.888,2.2-1.208-2.336a12.423,12.423,0,0,1,1.491-.463l-.366,1.472.718.37a27.7,27.7,0,0,0,1.927-3.839l-.839-.349-.77,1.973c-.742-.937-1.757-.47-2.645-.035-.483-1.206-1.05-2.374-1.491-3.594,1.485-.28.967,2.336,2.465,2.219,1.333.041,1.678-1.569,2.165-2.526l-.711-.342c-.39.826-.722,1.849-1.712,2.118l-.811-1.845,2.7-1.1L34.1,107.8l-4.053,1.635-.456-1.12c1.346-.543,2.769-.9,4.091-1.5l-.169-.9L29.3,107.391c-.166-.691-1.06-1.828-.01-2.2.618-.366.86.574,1.2.9.442-.346.994-.643,1.191-1.206.318-.75-.128-1.517-.352-2.222.863.035,1.15-.439.873-1.23L28,102.525m115.407,1.7-.276,1.023a23.594,23.594,0,0,1,3.276,1.248l-3.539-.477-.414,1.019c.987.639,2.009,1.234,2.952,1.942l-3.218-1.12-.352.978q2.385.893,4.809,1.676l.487-1.479q-1.552-1.011-3.152-1.946c1.253,0,2.5.183,3.743.29l.514-1.472q-2.4-.88-4.83-1.683m-3,8.978a1.593,1.593,0,0,0,2.092.836c.435.726,1.44,1.265,2.154.563a11.9,11.9,0,0,0,1.46-2.982c-1.54-.65-3.049-1.362-4.568-2.046-.476,1.161-1.371,2.3-1.139,3.629m-.7.276-.476,1.051.7.74c-.418.515-.556,1.617-1.422,1.476-.656-.169-.836.536-1.139.933l5.331.916.632-1.127c-1.222-1.317-2.306-2.761-3.625-3.988m-3.577,6.023a15.619,15.619,0,0,1,1.581,1.106c.7.9,1.074,1.991,1.7,2.937.407-.138.542-.608.8-.909q-.621-.949-1.2-1.914c.753.086,1.505.187,2.258.29l.687-1.13c-1.73-.187-3.729.156-5.034-1.272ZM79.741,28.524l.321-1.766.794,1.638Zm-7.592-.674c.656-.083,1.505-.529,1.985.166.456.719.784,1.88.052,2.526A10.061,10.061,0,0,1,72.947,31l-.8-3.148Zm-18.478,9.42a1.162,1.162,0,0,1,1.246-.035C55.166,37.934,53.392,37.983,53.671,37.271Z" transform="translate(-8.999 -8.804)" fill="#fff"/>
        <path id="Path_11542" data-name="Path 11542" d="M77.277,92.8l1.1-.757c.3.314.576.66.859,1l-.994.905ZM154.1,94.621a1.28,1.28,0,0,1,2.116.491,2.237,2.237,0,0,1-1.536,2.308,1.381,1.381,0,0,1-1.515-1.23A2.71,2.71,0,0,1,154.1,94.621Zm-37.955,6.393c1.978,1.794,2.937,4.375,3.724,6.856a21.308,21.308,0,0,1-.328,14.244,5.879,5.879,0,0,1-2.848,3.362c-1.018.325-1.916-.463-2.647-1.057a11.11,11.11,0,0,1-2.63-5.851,23.293,23.293,0,0,1,2.644-14.687,12.626,12.626,0,0,1,2.085-2.868Zm-9.5.778a6.265,6.265,0,0,1,4.715,4.71,31.052,31.052,0,0,0-1.753,7.945,15.369,15.369,0,0,0,3.189,10.654c-3.628-.342-6.161-3.508-7.162-6.794-1.177-3.2-.39-6.628.128-9.876C106.178,106.236,106.413,104.014,106.641,101.792Zm14.162,4.181c1.339-1.586,3.027-3.255,5.226-3.362-1.7,5.235.376,10.74-.715,16.048a9.139,9.139,0,0,1-4.57,6.78c-.487.4-1.032.083-1.522-.111a15.666,15.666,0,0,0,3.065-8.086A25.925,25.925,0,0,0,120.8,105.973Zm-21.639-.118c2.161-.276,3.714,1.541,4.85,3.114-.559,3.933-.994,8.169.859,11.846,1.056,2.34,3.179,3.874,5.247,5.249a8.423,8.423,0,0,1-6.62-2.516,13.571,13.571,0,0,1-3.424-6.652C99.344,113.255,99.782,109.512,99.164,105.856Zm27.91,3.432a6.135,6.135,0,0,1,4.394-2.709,27.987,27.987,0,0,1-.428,4.482c-.487,3.819-.708,7.858-2.765,11.235a7.73,7.73,0,0,1-5.944,3.936,13.951,13.951,0,0,0,3.272-3.87c2.078-4.036,1.691-8.7,1.47-13.073Zm-34.117.228a5.433,5.433,0,0,1,5.278,3.024c0,4.143,1.129,8.473,4.038,11.542a21.07,21.07,0,0,0,3.766,2.948,9.526,9.526,0,0,1-8.319-4.928c-1.557-2.9-2.251-6.158-3.189-9.289a34.714,34.714,0,0,0-1.574-3.3Zm39.481,2.454a6.775,6.775,0,0,1,4.7-1.362,22.6,22.6,0,0,0-1.85,4.2c-.766,2.72-1.346,5.605-3.131,7.879-1.412,2.015-3.41,3.933-6.02,4.012a14.86,14.86,0,0,0,4.884-7.24C131.71,117,131.931,114.45,132.439,111.969Zm-43.6,3.145a4.548,4.548,0,0,1,5.385,1.154c.9,2.571,1.346,5.4,3.1,7.582a17.139,17.139,0,0,0,3.479,3.165,7.508,7.508,0,0,1-6.03-2c-2.088-2.208-2.572-5.37-4.225-7.855-.518-.726-1.149-1.355-1.712-2.046Zm47.809,2.063a5.345,5.345,0,0,1,4.542-1.476c-.652,1.013-1.408,1.956-2.005,3-1.18,2.028-2.005,4.3-3.6,6.061a8.21,8.21,0,0,1-6.821,2.737,17.678,17.678,0,0,0,5.737-6.2c.777-1.344.918-3.058,2.143-4.119Zm-83.1,6.542a1.761,1.761,0,0,1,2.251-1.234l-.456,1.614a3.826,3.826,0,0,1-1.795-.38Zm120.164.156a1.421,1.421,0,0,1,1.76.646c.77,1.811-2.792,2.927-3.193,1.03-.255-.9.663-1.538,1.432-1.676Zm-59.628,3.262a8.314,8.314,0,0,1,6.217.985,6.565,6.565,0,0,1,3.179,5.028c-.01,2.45-2.8,4.1-5.039,3.577-.873-.062-1.577-.7-2.4-.857-1.332.477-2.737,1.075-4.183.74-2.237-.356-4-2.948-3.013-5.114A7.233,7.233,0,0,1,114.089,127.136Zm-14.967,1.814c3.251-1.068,6.734-.6,10.093-.643a23.732,23.732,0,0,0-2.306,4.054c-.6,1.386-2.2,1.818-3.483,2.315a16.492,16.492,0,0,1-9.792.159c2.361-1.451,2.744-4.879,5.488-5.885Zm24.155-.477c2.071.221,4.139.5,6.223.56a3.851,3.851,0,0,1,2.492.885c1.422,1.275,2.292,3.017,3.521,4.458a31.146,31.146,0,0,0,2.4,2.067c-3.752,2.1-8.432,1.127-12.071-.753-.649-.387-.49-1.247-.625-1.876A14.29,14.29,0,0,0,123.278,128.474ZM51.71,133.536c-.093-1.22,1.118-1.952,1.916-2.664l-.487,3.394C52.629,134.172,51.707,134.3,51.71,133.536Zm123.453-.2c.97-.373,2.416-.048,2.416,1.216a2,2,0,0,1-3.1.9A1.286,1.286,0,0,1,175.164,133.336Zm-68.9,4.213c.114-1.037-.545-2.592.787-3.02C107.114,135.6,107.531,137.04,106.268,137.548Zm-1.95-1.863,1.042-.408.052,2.785-1.087.384Zm-1.743.27.96-.048v2.443c.124.587-.628.567-.966.764Zm-7.994.525L96,136.64l-.041,1.185A4.488,4.488,0,0,1,94.58,136.481Zm5.992-.107,1.029-.131a24.33,24.33,0,0,1,.152,2.792l-1.111.27A13.861,13.861,0,0,1,100.573,136.373Zm-3.762.3,1.118,0,0,2.067-1.139-.453Zm1.94-.045,1.035-.073v2.561l-1.035-.1Zm10.452.48.915.311.021,1.655-.891-.867-.045-1.1Zm12.8.3.953-.439a10.7,10.7,0,0,1,.024,1.821,7.653,7.653,0,0,1-.956.937Zm3.238.035c.324-.577.835.131,1.243.225l-.069,2.008-1.073-.695A3.4,3.4,0,0,1,125.238,137.441Zm-14.048.238,1,.1-.021,2.661-1.039-.639.055-2.118Zm4.263.4.6-.536.746.391-.007,3.387-1.453-.048.117-3.193Zm2.32-.038,1.156-.228a16.734,16.734,0,0,1,.145,3.221l-1.343.2Zm2.161-.321,1.2-.1.007,2.82-1.215.349Z" transform="translate(-36.947 -63.276)" fill="#fff"/>
        <path id="Path_11543" data-name="Path 11543" d="M116.675,224.92l1.35.111-.014,3.024-1.291-.3-.045-2.834Zm14.138.114,1.232.359.01,1.825-1.16-.294a11.537,11.537,0,0,1-.083-1.89Zm7.317,1.292c.072-1.051,1.2-.968,1.974-1.13A2.471,2.471,0,0,1,138.131,226.326Zm-5.24-.636,1.108.028-.028,1.852-1.094-.308Zm1.961.19,1,.024,0,1.431-.97.18Zm1.86-.076.708-.107.079,1.261-.832.225Zm-79.622.619a13.442,13.442,0,0,1,2.53.069c.5.646,1.356,1.745.48,2.454-.642-.221-.476-.957-.6-1.476-.911.263-.518,1.251-.611,1.942-.873-.207-.411-1.317-.57-1.959l-1.022.024-.211-1.054Zm61.788,3.093,1.533.076a22.713,22.713,0,0,0-1.253,6.082,25.17,25.17,0,0,0,.6,5.657c-.711-.114-1.795-.308-1.912-1.178A17.446,17.446,0,0,1,118.878,229.516Zm-61.2,4.738a11.563,11.563,0,0,1,1.76-.259,3.41,3.41,0,0,1,.262,1.237,6.324,6.324,0,0,1-1.895.467A11.282,11.282,0,0,1,57.673,234.254Zm119.989,2.875,1.294.211-.438,1.863C177.21,239.313,177.583,237.972,177.662,237.129Zm2.112.373,1.073.09-.421,1.842c-1.07-.124-.7-1.161-.652-1.932Zm-59.855,4.769a12.318,12.318,0,0,1,11.256-.95,16.187,16.187,0,0,0,7.369,1.12c2.019,3.5,4.363,6.839,6.12,10.481-5.353.218-10.489-1.78-15.822-1.838a17.759,17.759,0,0,0-5.488.536,30.449,30.449,0,0,0-3.842,1.742c-.041-3.7.48-7.385.407-11.089m1.722.795.49.681q.872-.355,1.753-.688l-.352-.691-1.891.7m2.661-.771c.142.847,1,.729,1.653.829l.079-.805c-.58-.021-1.156-.035-1.733-.024m2.616.048-.1.753c.632.124,1.26.259,1.892.394l.079-.791-1.874-.356m2.433.663.021.729,1.432.128-.052-.757-1.4-.1m2.413.318-.076.743,1.657.238c.066-.159.2-.473.273-.632a13.162,13.162,0,0,0-1.854-.349m2.661,1.147,1.6-.021c.031-1.064-1.871-1.116-1.6.021m-12.467.342.518.643a12.337,12.337,0,0,1,2.613-.639l.083-.712a8.069,8.069,0,0,0-3.213.708m4.2-.764.007.805,1.615.207.131-.764-1.753-.249m2.73.394-.293.715,1.8.384.11-.771-1.619-.328m2.344,1.182,2.036.28.086-.795-1.864-.228-.259.743m3.376-.363c-.1.176-.293.532-.39.712a22.346,22.346,0,0,0,2.844.249l-.121-.719c-.78-.083-1.553-.221-2.333-.242m-9.5.567.079.781,2.026,0,.066-.774c-.725-.038-1.45-.038-2.171-.01m-1.636.391c-.4.169-1,.214-1.108.726.535.653,1.287.142,1.891-.1a.52.52,0,0,0-.784-.625m4.615-.3c-.356,1.165.991.905,1.691,1.106l.066-.809-1.757-.3m2.406.473c-.173,1.182,1.115.947,1.878,1.144.331-1.223-1.163-.909-1.878-1.144m2.872.439-.035.826c.728-.059,2.261.736,2.147-.563l-2.112-.263m3.048.263-.152.805c.777-.014,1.892.411,2.406-.373-.407-.753-1.539-.252-2.254-.432m-10.621.453-.021.874,1.7-.055-.038-.888-1.643.069m-3.262.909.784.736c.649-.37,1.871-.449,1.391-1.507a15.046,15.046,0,0,0-2.175.771m5.719.079,1.874.225.045-.829-1.595-.321-.324.926m2.754-.373-.124.878,2.24.318.117-.85-2.233-.346m3.1.422-.2.905q1.143.121,2.292.18l-.035-.84q-1.029-.107-2.054-.245m2.861,1c.528.677,1.57.352,2.326.5l-.028-.843C138.524,249.338,137.278,248.533,136.975,249.587Zm-26.757-8.37c2.858-.677,6.1-.632,8.595,1.092l-.5,10.9a15.937,15.937,0,0,0-10.2-2.143c-5.374.263-10.6,2.049-16.009,1.814a18.237,18.237,0,0,1,1.605-2.229l6.948-8.726a32.784,32.784,0,0,0,9.561-.7m2.292,1.292c-.121.957.987.6,1.567.753.331-1.04-.932-.975-1.567-.753m-2.713,1.13a16.826,16.826,0,0,0,2.178-.46l-.428-.6c-.69.124-1.929,0-1.75,1.057m4.915-.377c.725.311,1.74,1.092,2.288.111-.663-.169-2.171-1.358-2.288-.111m-7.128.332c.29.6,1.067.235,1.588.311l-.1-.867c-.5.159-1.174.059-1.488.556m-4.853-.159-.055.778,1.249-.01-.028-.767h-1.167m2.344-.024-.031.833c.607-.083,1.312.1,1.85-.252-.069-.947-1.2-.432-1.819-.581m5.526,1,.117.791c.549-.19,1.695.117,1.729-.7-.511-.415-1.249-.062-1.847-.086m2.723-.159,0,.757a23.175,23.175,0,0,1,2.72.639l.559-.567a8.7,8.7,0,0,0-3.276-.829m-5.353.608.072.757c.663-.083,1.322-.194,1.978-.342-.331-.975-1.308-.487-2.05-.415m-6.6.287-.138.788a17.709,17.709,0,0,0,3.027,0l-.155-.66c-.915-.017-1.826-.073-2.734-.124m3.824-.007.017.8,2.068-.2c-.028-1.213-1.325-.532-2.085-.594m3.245,1.275.331.816c.632-.214,1.836-.128,1.495-1.151l-1.826.335m2.464-.287c.352.985,1.439.632,2.25.7l.159-.788a19.338,19.338,0,0,0-2.409.09m-5.06.76.328.729,1.736-.273-.193-.84-1.871.384m8.139.128c.718.276,1.695.975,2.105-.083-.58-.235-1.167-.46-1.757-.667l-.349.75m-11.125.1c.052,1.237,1.443.539,2.209.629l-.1-.833-2.105.2m-3.082-.052c-.107,1.254,1.415.643,2.161.874.021-.28.152-.57.028-.84-.728-.059-1.46-.041-2.188-.035m10.859.719.3.8c.49,0,.984.01,1.477.024l.148-.857a6.541,6.541,0,0,0-1.926.035m-2.589.27.211.905,1.781-.342-.231-.843-1.76.28m5.633-.169-.335.805,1.695.719.611-.733q-.969-.434-1.971-.791m-8.639.657.076.888c.773-.09,1.539-.207,2.306-.346l-.245-.816-2.137.273m-3.079.311.114.843,2.254-.187-.1-.86-2.268.2m-3.39.031,0,.923a23.891,23.891,0,0,0,2.585-.069l0-.85Zm78.362-6.625c1.077-.677,3.314.152,2.765,1.669-.445,1.127-1.985.905-2.789.314a1.221,1.221,0,0,1,.024-1.984Zm-117.3,2.668,2.24-.6c.421.574.973,1.237.435,1.942-.625-.885-1.64-.7-2.461-.232l-.214-1.106Zm.687,4.976.628,1.666c-.49.232-1.1,1.116-1.6.446C58.657,251.194,59.8,250.427,60.321,249.9Zm36.1,3.722c4.608-.5,9.14-1.814,13.807-1.724a13.371,13.371,0,0,1,6.434,1.448,1.4,1.4,0,0,1,.842.964c-1.08-.363-2.088-.926-3.193-1.227a19.546,19.546,0,0,0-7.238-.387c-4.249.546-8.477,1.3-12.754,1.583-.953,0-2.023.194-2.8-.494,1.633-.059,3.272.014,4.9-.162Zm24.127.332c2.485-1.78,5.681-2.17,8.66-2.018,5.316.349,10.486,2.111,15.846,1.911l-.677.4c-5.25.318-10.293-1.8-15.539-1.7a12.817,12.817,0,0,0-7.721,2.274A3.724,3.724,0,0,1,120.552,253.955Zm52.855-1.572,1.146.546-.973,1.714c-1.156-.37-.556-1.5-.173-2.26Zm-76.7,2.381c5.409-.446,10.786-2.146,16.243-1.327,1.35.276,2.861.56,3.8,1.662a26.7,26.7,0,0,0-4.491-1.158c-5.557-.715-11.011,1.006-16.523,1.372a15.117,15.117,0,0,1-3.282-.149C93.86,254.9,95.293,254.923,96.708,254.764Zm27.858-.926c2.275-.774,4.711-.563,7.069-.5,4.277.453,8.46,1.818,12.8,1.583a7.757,7.757,0,0,1-3.21.245c-5.026-.37-10.051-2.225-15.1-1.04-1.664.27-3.086,1.241-4.7,1.655.656-1.13,2-1.51,3.148-1.939Zm50.718-.5,1.025.332c-.314.574-.514,1.3-1.139,1.617-.673-.518-.035-1.33.114-1.949Zm-82.363,2.644c5.481.29,10.793-1.448,16.247-1.628a16.222,16.222,0,0,1,7.041,1.4l-.362.781a25.756,25.756,0,0,0-7.687-1.4c-3.151.138-6.182,1.182-9.337,1.279a18.007,18.007,0,0,1-5.9-.429Zm26.008-1.783a8.137,8.137,0,0,1,2.685,4.617c-.179,1.265-1.76,1.362-2.768,1.358-.96.1-2.23-.235-2.426-1.324C116.455,257,117.832,255.562,118.929,254.2Zm6.962.67c6.227-1.5,12.374,1.413,18.632.968a1.321,1.321,0,0,1-1.153.549,22.649,22.649,0,0,1-5.94-.612c-3.773-.532-7.652-.975-11.421-.166a37.744,37.744,0,0,0-3.824,1.154C123.006,255.545,124.58,255.275,125.891,254.871Zm-24.306,1.942c2.644-.411,5.284-1.158,7.987-.947a23.583,23.583,0,0,1,5.792,1.247l.155.684a27.878,27.878,0,0,0-9.813-.985c-4,.5-8.077,1.2-12.094.463l-.418-.4a30.736,30.736,0,0,0,8.391-.062Zm23.5-.311c4.87-1.41,9.979-.432,14.863.366a27.046,27.046,0,0,0,4.232.252,2.2,2.2,0,0,1-1.529.415c-4.163.093-8.253-1.061-12.426-.843-2.675-.145-5.226.75-7.835,1.134C123.03,256.972,124.148,256.83,125.087,256.5Zm-20.078,1.051a26.867,26.867,0,0,1,7.663.283,6.451,6.451,0,0,1,2.737.892c-2.188-.328-4.38.041-6.575-.035-5.167-.041-10.334.052-15.5,0l.007-.736a38.452,38.452,0,0,0,11.67-.4Zm19.66.511c4.636-1.116,9.461-.733,14.131-.055a38.379,38.379,0,0,0,5.744.138l-.3.515q-10.5.067-21.007,0a4.609,4.609,0,0,1,1.432-.594Zm46.8.4.649-1,1.194,1.348ZM72.864,282.074a117.054,117.054,0,0,1,68.391-7.126,122.829,122.829,0,0,1,23.492,7.212c-1.5,3.615-3.272,7.115-4.87,10.692a117.219,117.219,0,0,0-39.652-7.126,127.632,127.632,0,0,0-42.5,6.708c-1.629-3.449-3.4-6.835-4.863-10.36m63.292-7.426.179,1.1a2.771,2.771,0,0,1,1.291,1.928q-2.216-.321-4.435-.556l.463,1.051c.58.1,1.163.207,1.736.356a2.868,2.868,0,0,1-1.64.767l.228,1.044c-.773.359-1.981.937-2.527-.079.418-.695,1.243-.311,1.881-.359a.977.977,0,0,0-1.022-.885c.293-.256.859-.335.856-.812a1.326,1.326,0,0,0-2.112-.933c-.518.532,0,1.165.19,1.717-.19.577-.652,1.237-.162,1.8.566,1.085,2.516,1.41,3.093.2a2.619,2.619,0,0,0,2.3.829c-.162.753.483,1.161.949,1.614l.708-4.613q1.3.216,2.585.494c-.286.664-1.06.625-1.65.8.207.733.145,1.673.8,2.191a2.936,2.936,0,0,0,1.781.453c-.179.743.328,1.234.828,1.686l1.077-4.486,1.774.359a7.747,7.747,0,0,1-.345,1.268c-.173.339-.794.594-.521,1.03.224.394.376,1.171.953,1.092l.632-.581,1.422.328-.369,1.279.342.5a.694.694,0,0,0,.059,1.2c.839.47,1.149,1.417,1.7,2.149a6.141,6.141,0,0,0-1.191-2.854c.359-1.476.742-2.948,1.222-4.389l1.149.346-.159-1.113c-4-1.089-8.025-2.084-12.108-2.789-.331-1.2-.483-2.848-1.964-3.127m-28.076,2.34c.242.456.414,1.047,1.053,1.016.142.791,0,1.731.58,2.381a2.3,2.3,0,0,0,2.216.266,1.623,1.623,0,0,0,1.232,1.669c-.041-1.569-.2-3.131-.169-4.7l1.833.028-.069,1.213-1.225-.114c.107,1.445,1.394,2.367,2.261,3.4,1.191-.543-.746-1.351-.583-1.98.891-.594.687-1.68.7-2.6l1.495-.01c-.021.719.076,1.524-.583,2.008a11.574,11.574,0,0,0,1.325,1.4l.5-.94,1.422.052-.052,1.32,1.139.684.007-4.613,1.087.028a2.882,2.882,0,0,1-.552,2.067c.142.622.742.985,1.177,1.4l.576-.819,1.3,0c.038.65-.031,1.379.521,1.852l-.621.024.431.812c1.143,0,1.688,1.071,2.527,1.648a7.066,7.066,0,0,0-1.767-2.4l.166-4.451,1.174.01-.476-1.04a178.274,178.274,0,0,0-18.632.38M86.7,281.715l.939.764a11.641,11.641,0,0,1,3.724-1.23c-.728,1.071-2.713.719-2.993,2.042.787-.052,1.677,0,1.885.919l-1.26.173.162.936a10.916,10.916,0,0,1,2.509.9c.221-.57-.369-.778-.632-1.127a1.606,1.606,0,0,0-.242-1.745c-.5-.484.49-.591.718-.8l.8,2.378,1.239.325-1.388-4.382.853-.318,1.018,3.794,1.294.411c-.435-1.489-.828-2.993-1.222-4.492l3.852-.9.235.943a19.992,19.992,0,0,0-2.734.677c-.645.757.566,1.406,1.177,1.686.09-.988.839-1.323,1.726-1.382l.338,1.9,1.253.591-.825-4.579,1.16-.207c.093.719.425,1.541-.3,2.056a6.075,6.075,0,0,0,1.564,1.265l.335-.954,1.346-.194a3.313,3.313,0,0,0,.611,1.631c.059.349.076.909.552.926a4.874,4.874,0,0,1,2.461,1.32,4.523,4.523,0,0,0-2.2-2.167c-.228-1.462-.393-2.937-.59-4.4l1.122-.211-.545-.881A64.543,64.543,0,0,0,86.7,281.715Zm23.547-3.829,1.581-.194.021,1.752a9.52,9.52,0,0,1-1.218.67C110.173,279.531,110.407,278.6,110.252,277.886Zm8.232-.425,1.595.045-.028,1.517-1.526.052Zm4.86.079,1.55.031v1.538l-1.564.021Zm8.664.045c.766-.2.635,1.123-.072.947C131.383,278.442,131.521,277.651,132.008,277.585Zm-30.64,1.292,1.564-.308.273,1.545-1.584.266Zm34.513-.4,1.184.152a13.885,13.885,0,0,1-.4,1.825,2.434,2.434,0,0,1-2.161.062c.683-.581,1.743-.926,1.377-2.039Zm5.485.916,1.18.314c-.314.6-.162,1.652-.973,1.856a1.655,1.655,0,0,1-1.8-.47C140.685,280.9,141.5,280.481,141.365,279.4Zm4.763,2.765.28-1.6,1.747.48-.352,1.4Zm-75.018,6.676,1.488-.667c2.03,4.168,4,8.363,5.826,12.624l-1.08.467Zm88.054,12.033,5.847-12.638,1.5.691-6.237,12.437-1.115-.491ZM68.46,290.161l1.415-.729,6.189,12.278-1.239.6C72.657,298.288,70.5,294.252,68.46,290.161Zm98.71.467a3.576,3.576,0,0,1,.656-1.033c.476.2.928.449,1.391.688l-6.344,12.078-1.3-.47c1.747-3.812,3.728-7.513,5.6-11.262Zm-101.115.978a4.526,4.526,0,0,1,1.184-.726l6.22,11.929-1.122.6-6.282-11.808Zm98.34,11.1c1.926-3.936,4.025-7.8,6.1-11.66l.9.6c-1.992,3.953-4.152,7.82-6.23,11.729l-.766-.674Zm-86.677-6.873,1.688.387,1.491,3.653-1.156.494C79.042,298.859,78.318,297.369,77.717,295.828Zm80.506.418,1.715-.373c-.621,1.545-1.35,3.044-2.061,4.548l-1.163-.453C157.156,298.7,157.695,297.476,158.223,296.246Zm-77.123.335,1.488.332a12.874,12.874,0,0,1,.777,2.187l-1.2.328A21.722,21.722,0,0,1,81.1,296.581Zm73.9.5a5.568,5.568,0,0,1,1.581-.422l-1.153,2.854-1.184-.339A8.579,8.579,0,0,1,155,297.079Zm-70.71.211a9.917,9.917,0,0,1,2.6.684l-2.219.646Zm66.292.736a15.186,15.186,0,0,1,2.827-.625l-.49,1.275Z" transform="translate(-40.471 -150.236)" fill="#fff"/>
      </g>
      <g id="Group_5916" data-name="Group 5916">
        <path id="Path_11544" data-name="Path 11544" d="M79.169,0H84.1c2.6.152,5.2.311,7.786.667l2.8,11.59a82.047,82.047,0,0,1,10.569,2.837L113.958,6.6a74.746,74.746,0,0,1,15.972,9.016l-3.256,11.286a81.983,81.983,0,0,1,7.927,7.565l10.8-4.157a87.764,87.764,0,0,1,10.037,15.371l-8.255,8.56a67.859,67.859,0,0,1,3.29,9.379c3.9.518,7.82.971,11.7,1.624A94.092,94.092,0,0,1,164,82.785v.453L152.627,87.07a88.665,88.665,0,0,1-1.422,9.908c3.239,2.4,6.65,4.586,9.695,7.24a79.376,79.376,0,0,1-7.119,17.265l-11.466-2.53a104.4,104.4,0,0,1-6.646,9.32l-6.826-5.329-8.963-7.478c1.34-1.655,2.776-3.231,3.967-5a51.007,51.007,0,0,0,8.828-28.921,50.035,50.035,0,0,0-8.825-28.209,50.569,50.569,0,0,0-58.6-19.155A51.236,51.236,0,0,0,39.457,54.69a53.8,53.8,0,0,0-5.531,11.77,50.68,50.68,0,0,0-2.344,18.6,56.415,56.415,0,0,0,13.324,31.1L29.327,128.84a93.888,93.888,0,0,1-6.657-8.829c-.252-.273-.438-.885-.925-.7l-11.656,2.049a79.3,79.3,0,0,1-7.157-17.669l10.285-6.334a80.564,80.564,0,0,1-1.588-10.74L.121,83.241,0,82.111V78.9A72.22,72.22,0,0,1,1.882,64.795L13.962,63.3a89.594,89.594,0,0,1,3.446-9.832c-2.766-2.962-5.621-5.84-8.449-8.743A66.368,66.368,0,0,1,19.9,28.738l10.579,5.045c2.507-2.554,5.186-4.928,7.879-7.285L34.651,15.188A91.07,91.07,0,0,1,51.62,5.847l8,8.954a97.258,97.258,0,0,1,10.758-2.72C71.545,8.228,72.547,4.32,73.634.439Q76.4.15,79.169,0m-3.1,3.186c-1.143,3.874-2.113,7.8-3.273,11.663a70.725,70.725,0,0,0-14.025,3.473c-2.462-2.637-4.789-5.4-7.209-8.079-.335-.245-.673-.9-1.16-.56a85.041,85.041,0,0,0-10.89,5.951c-.394.311-.977.487-1.174.981,1.174,3.667,2.476,7.3,3.573,10.993a97.208,97.208,0,0,0-10.655,9.787C27.707,35.8,24.2,34.108,20.7,32.418a60.762,60.762,0,0,0-8,11.822c2.721,2.951,5.676,5.674,8.355,8.664a66.56,66.56,0,0,0-4.578,13.08q-5.986.83-11.991,1.51a51.185,51.185,0,0,0-1.353,13.56l11.528,3.4a57.587,57.587,0,0,0,1.8,13.159c.024.425.452,1.064-.069,1.337-3.235,2.143-6.643,4.016-9.878,6.162a80.515,80.515,0,0,0,4.685,11.908c.245.321.335.892.791.975,3.939-.5,7.855-1.559,11.77-1.921a65.279,65.279,0,0,0,6.118,8.563l9.571-7.744a13.355,13.355,0,0,0,1.315-1.223c-8.269-10.813-13.279-24.587-11.953-38.3a53.569,53.569,0,0,1,106.724-.28,54.108,54.108,0,0,1-11.307,38.048c3.584,3.1,7.244,6.113,11.045,8.943a92.169,92.169,0,0,0,5.611-8.439l11.387,2.464a69.273,69.273,0,0,0,5.289-12.769c-3.073-2.55-6.512-4.61-9.643-7.084a88.168,88.168,0,0,0,2.054-13.439l11.042-3.66a84.636,84.636,0,0,0-1.26-13.267L148.1,66.315a75.178,75.178,0,0,0-4.326-12.734l8.083-8.328a84.4,84.4,0,0,0-7.323-11.345c-3.6,1.341-7.147,2.854-10.783,4.085a77.155,77.155,0,0,0-10.41-9.935l3.228-11.183a59.049,59.049,0,0,0-11.918-6.6c-2.969,2.619-5.648,5.557-8.542,8.263A86.44,86.44,0,0,0,92.3,14.87l-2.7-11.349c-4.464-.722-9.022-.442-13.524-.335Zm8.1,15.934,1.091-.045c.014,1.693-.117,3.38-.148,5.073l-1.139.028.2-5.056Zm-7.005.169,1.174-.1c.646,1.057,1.3,2.111,2.041,3.1l-.121-3.183,1.032,0c.048,1.686.207,3.366.19,5.052-.407-.121-1.008.083-1.267-.346-.68-.988-1.267-2.039-1.968-3.013.124,1.171.169,2.346.224,3.525-.556.038-1.236-.059-1.108-.784l-.2-4.251Zm9.16-.152,1.088.187A18.824,18.824,0,0,1,88.978,22.8a29.512,29.512,0,0,0,.387-3.3l1.046.021-.435,5.007a3.519,3.519,0,0,1-1.129-.1C88.253,23.3,87.831,22.1,87.2,21l-.328,3.356-.974-.235C85.929,22.455,86.191,20.8,86.323,19.138Zm-12.978.625,1.315-.245c.8,1.6,1.571,3.224,2.441,4.793l-1.208.162-.428-.933a16.2,16.2,0,0,0-1.688.2,4.8,4.8,0,0,0-.407,1.037l-1.081.187c.325-1.738.729-3.463,1.057-5.2m.508,3,1.115-.128q-.374-.83-.794-1.638C74.042,21.581,73.942,22.172,73.852,22.763Zm-3.926-2.457,1.094-.19.946,5.007-1.153.055c-.245-1.635-.608-3.245-.887-4.873Zm21.22,1.1c.031-1.717,2.389-1.963,3.425-.992.456.394.449,1.051.639,1.576-1.067.145-1.371-1.054-2.293-1.216l-.818.612c.756.463,1.592.8,2.327,1.3a1.42,1.42,0,0,1-.3,2.295c-1.416.736-3.556-.159-3.484-1.925l1.057.173c.117.978,2.217,1.555,1.968.245C92.827,22.839,91.2,22.69,91.146,21.408Zm4.63.1.121-.985,4.012.988-.155.961-1.533-.339q-.442,2.012-1.019,3.991l-1.067-.387c.363-1.3.718-2.613,1-3.936l-1.36-.294ZM64.93,21.488a8.836,8.836,0,0,1,3.415-.529c1.384.636,1.74,2.533,1.309,3.867-.694,1.216-2.272,1.189-3.46,1.569L64.93,21.488m1.329.6.8,3.148a10.062,10.062,0,0,0,1.239-.456c.732-.646.4-1.807-.052-2.526C67.765,21.56,66.915,22.006,66.259,22.089Zm34.212-.339,1.077.308L100.043,26.9l-1.077-.346,1.505-4.807Zm-37.713.411,1.06-.28c.487,1.6,1.091,3.162,1.592,4.759l-1.084.321c-.946-.854-1.9-1.7-2.9-2.5L62.52,27.6l-1,.408-1.681-4.741c.376-.162.76-.314,1.143-.47q1.359,1.275,2.817,2.436c-.331-1.03-.694-2.049-1.043-3.076Zm39.339.055,3.87,1.413-.328.94-1.391-.522a26.928,26.928,0,0,1-1.557,3.815l-.842-.346a30.8,30.8,0,0,1,1.319-3.832l-1.385-.57.314-.9ZM50,24.567c.242-.622,1.043-.587,1.571-.771a7.271,7.271,0,0,0-.839,1.358,7.6,7.6,0,0,0,1,.909l1.1-.681.349.733-.8.46.618,1.057c-.587.415-1.519.608-1.588,1.462.735-.194,1.305-.84,2.065-.9.984.449.725,1.666.494,2.5l1.257-.028-.256.819a14.091,14.091,0,0,0-3.411-.1l-.01-.9,1.647-.169.138-1.168a2.109,2.109,0,0,1-3.09-.114c-.352-1.165,1.847-.968,1.44-2.008a20.565,20.565,0,0,0-2.741,1.545c.818,1.2,1.581,2.429,2.4,3.629l-.839.587-.521-.968c-.58.487-1.16,1.2-2.013,1.023a1.431,1.431,0,0,1-1.05-2.149c.356-.563,1.146-1.292,1.7-.539l-.936.791,1.567-.093L48.13,29.076,45.3,31.119c.794,1.033,1.605,2.049,2.413,3.072.77-.266,1.844-.249,2.141.684.142,1.462-1.619,2.505-2.921,2.087l-.024-.574c.981-.035,1.985-.377,2.175-1.465a2.1,2.1,0,0,0-1.471.632,20.082,20.082,0,0,1-1.719-2.1l-.918.76.325,1.044q-.993.017-1.985,0l.2-1.057-.76-.937c-.331.435-1.312,1.009-1.291.066a51.564,51.564,0,0,1,9.595-6.87c-.494-.518-1.419-1.047-1.063-1.9m-2.217,6.943c-.28.712,1.495.663,1.246-.035a1.162,1.162,0,0,0-1.246.035m-4.35,1.054.967,1.147.994-.905c-.283-.339-.556-.684-.86-1A13.232,13.232,0,0,0,43.431,32.563ZM57.89,23.9l1.067-.124c.7,1.469,1.25,3.006,1.892,4.5l-1.05.432C59.164,27.107,58.415,25.548,57.89,23.9Zm48.744.021,1.053.511a23.707,23.707,0,0,0-1.547,3.618,2.9,2.9,0,0,0,1.519.667c.594-1.1,1.022-2.277,1.63-3.366.328-.321.742.259,1.094.346-.583,1.085-.991,2.26-1.616,3.328-.987,1.731-4.288.214-3.625-1.679.38-1.189,1.012-2.277,1.492-3.425Zm3.9,2.91.542-.854c1.136.7,2.358,1.258,3.48,1.987l-.307.881-1.405-.712-2,3.577c-.314-.194-.621-.4-.922-.6.563-1.223,1.3-2.353,1.927-3.542l-1.312-.733Z" fill="#004f9f"/>
        <path id="Path_11545" data-name="Path 11545" d="M143.989,86.218c.846-1.431,1.823-2.778,2.727-4.168l3.138,2.091-.583.784q-1.077-.726-2.171-1.413l-.487.836,1.988,1.234-.469.847c-.683-.425-1.336-.9-2.054-1.265-.255.28-.473.591-.7.892.656.439,1.332.854,1.971,1.324.649.138-.052,1.178-.456.809a15.1,15.1,0,0,1-2.906-1.97Zm-69.532-2.55.894-.736.625.85-.887.65Zm76.936,3.29a2.469,2.469,0,0,1,3.6,1.987,3.3,3.3,0,0,1-1.7,2.73,2.427,2.427,0,0,1-3.5-2.025,3.033,3.033,0,0,1,1.6-2.692m.345,1.127a2.71,2.71,0,0,0-.935,1.569,1.381,1.381,0,0,0,1.515,1.23,2.237,2.237,0,0,0,1.536-2.308A1.28,1.28,0,0,0,151.738,88.084Zm1.291,5.111c1.232-1.171,2.3-2.5,3.593-3.615l2.572,2.592-.835.615-1.719-1.724-.525.674c.207.657.929,1.04,1.381,1.541l-.652.76-1.5-1.5-1.564,1.5ZM67.5,91.84c.48-.415.929-1.368,1.684-.909l-.3.812c.97,1,2.005,1.939,3.01,2.9l-.625.809a14.079,14.079,0,0,0-1.781-1.676q-.444.341-.859.715l.49,1.237c-.625-.1-1.612.339-1.978-.335.207-.926,1.2-1.462,1.64-2.288q-.327-.4-.68-.788l-2.6,2.937L68.9,98.036l-.528.805c-1.16-.9-2.292-1.838-3.431-2.768l-.69.778c1.149.878,2.285,1.776,3.469,2.606l-.456.843L66.118,99.5a3.019,3.019,0,0,1-1.415,2.288c-.749.27-1.695.062-2.154.905l-.507-.764,1.16-.722c.062-.4.383-.854.086-1.234-.2-.622-1.215-.892-1.215-.007l1.229.608a1.319,1.319,0,0,1-2.181-.328c.245-.6.414-1.375,1.122-1.607a1.768,1.768,0,0,1,1.643.373c.57.536.411,1.386.514,2.084a1.945,1.945,0,0,0,.7-2.288A13.241,13.241,0,0,0,63.809,97.7c-.383.176-.849.736-1.146.145A44.4,44.4,0,0,1,67.5,91.84Zm42.529,5.246a29.643,29.643,0,0,1,3.842-5.629,31.6,31.6,0,0,1,3.859,6.065c2.1-2.239,5.167-3.8,8.291-3.031a23.735,23.735,0,0,0-1.215,5.495c1.974-1.241,4.477-2.257,6.786-1.358a25.161,25.161,0,0,0-1.239,4.762c2.192-.736,4.929-1.59,6.969-.031a14.1,14.1,0,0,0-2.779,4.759,8.346,8.346,0,0,1,6.334-.142,2.872,2.872,0,0,1,1.343,1.348c-3.576,1.444-4.877,5.336-6.831,8.318a9.759,9.759,0,0,1-5.6,4.289,11.469,11.469,0,0,1,1.957,1.745c1.07,1.251,1.667,2.875,2.968,3.929.991.923,2.444.753,3.683,1.006-.607,2.288-2.482,3.967-4.4,5.2-3.172,1.994-7.187,1.8-10.642.719a4.963,4.963,0,0,1-1.943-1.265c-1.049,1.87-3.255,2.319-5.14,2.865a17.046,17.046,0,0,0-1.042,10.523,22.936,22.936,0,0,1,5.288-.93c3.151-.145,5.934,1.645,9,2.015a14.345,14.345,0,0,0,3.769-.086l7.318,12.4a7.465,7.465,0,0,0-1.139,3.874c.142,1.071,1.129,1.673,1.812,2.395H117.8a8,8,0,0,1-5.219,1.745,8.184,8.184,0,0,1-4.177-1.693,29.4,29.4,0,0,0-4.777-.014q-9.149,0-18.3,0c.407-.736,1.149-1.472.932-2.388a13.3,13.3,0,0,0-2.206-3.85c3.331-4.375,6.81-8.632,10.252-12.921a31.455,31.455,0,0,0,10.341-.733,13.922,13.922,0,0,1,5.644-.069,20.017,20.017,0,0,1,1.039-10.512,18.889,18.889,0,0,1-3.714-1.507,23.8,23.8,0,0,1-2.075-1.745c-2.834.809-5.747,2.025-8.76,1.334-3.2-.809-6.424-2.751-7.725-5.923a7,7,0,0,0,2.792-2.46,14.147,14.147,0,0,1,3.179-4.022,8.56,8.56,0,0,1-3.918-2.44c-1.936-2.232-2.375-5.315-4.118-7.672a8.768,8.768,0,0,0-2.689-2.343c1.049-2.619,4.246-2.958,6.624-2.208a10.415,10.415,0,0,0-2.506-4.109c-.635-.477.19-.954.645-1.085a6.821,6.821,0,0,1,6.672,1.8,21.3,21.3,0,0,0-1.394-5.7,7.666,7.666,0,0,1,7.58,2.281c.356-2.136.87-4.347.214-6.479a8.908,8.908,0,0,1,7.891,3.494m3.752-2.609a12.627,12.627,0,0,0-2.085,2.868,23.293,23.293,0,0,0-2.644,14.687,11.11,11.11,0,0,0,2.63,5.851c.732.594,1.629,1.382,2.647,1.057a5.879,5.879,0,0,0,2.848-3.362,21.308,21.308,0,0,0,.328-14.244c-.787-2.481-1.747-5.063-3.724-6.856m-9.5.778c-.228,2.222-.463,4.444-.884,6.638-.518,3.248-1.3,6.676-.128,9.876,1,3.286,3.535,6.452,7.162,6.794a15.369,15.369,0,0,1-3.189-10.654A31.051,31.051,0,0,1,109,99.964a6.265,6.265,0,0,0-4.715-4.71m14.162,4.181a25.925,25.925,0,0,1,1.484,11.269,15.666,15.666,0,0,1-3.065,8.086c.49.194,1.036.511,1.522.111a9.139,9.139,0,0,0,4.57-6.78c1.091-5.308-.984-10.813.715-16.048-2.2.107-3.887,1.776-5.226,3.362M96.8,99.318c.618,3.656.179,7.4.911,11.041a13.571,13.571,0,0,0,3.424,6.652,8.423,8.423,0,0,0,6.62,2.516c-2.068-1.375-4.19-2.91-5.247-5.249-1.854-3.677-1.419-7.914-.859-11.846-1.136-1.572-2.689-3.39-4.85-3.114m27.911,3.432c.221,4.375.608,9.037-1.47,13.073a13.951,13.951,0,0,1-3.272,3.87,7.73,7.73,0,0,0,5.944-3.936c2.057-3.376,2.278-7.416,2.765-11.235a27.987,27.987,0,0,0,.428-4.482,6.135,6.135,0,0,0-4.394,2.709m-34.117.228a34.717,34.717,0,0,1,1.574,3.3c.939,3.131,1.633,6.39,3.189,9.289a9.526,9.526,0,0,0,8.319,4.928,21.072,21.072,0,0,1-3.766-2.948c-2.91-3.069-4.039-7.4-4.039-11.542a5.433,5.433,0,0,0-5.278-3.024m39.481,2.454c-.507,2.481-.728,5.035-1.415,7.485a14.861,14.861,0,0,1-4.884,7.24c2.609-.079,4.608-2,6.02-4.012,1.785-2.274,2.364-5.159,3.131-7.879a22.6,22.6,0,0,1,1.85-4.2,6.775,6.775,0,0,0-4.7,1.362m-43.6,3.145c.563.691,1.194,1.32,1.712,2.046,1.653,2.485,2.137,5.647,4.225,7.855a7.508,7.508,0,0,0,6.03,2,17.139,17.139,0,0,1-3.479-3.165c-1.757-2.177-2.206-5.011-3.1-7.582a4.548,4.548,0,0,0-5.385-1.154m47.81,2.063c-1.225,1.061-1.367,2.775-2.144,4.119a17.678,17.678,0,0,1-5.737,6.2,8.21,8.21,0,0,0,6.821-2.737c1.591-1.766,2.416-4.033,3.6-6.061.6-1.044,1.353-1.987,2.005-3a5.345,5.345,0,0,0-4.542,1.476m-22.56,9.959a7.233,7.233,0,0,0-5.24,4.358c-.984,2.167.777,4.759,3.013,5.114,1.446.335,2.851-.263,4.183-.74.822.156,1.526.795,2.4.857,2.237.522,5.029-1.127,5.04-3.577a6.565,6.565,0,0,0-3.179-5.028,8.314,8.314,0,0,0-6.217-.985m-14.967,1.814c-2.744,1.006-3.127,4.434-5.488,5.885a16.492,16.492,0,0,0,9.793-.159c1.284-.5,2.886-.93,3.483-2.315a23.733,23.733,0,0,1,2.306-4.054c-3.359.045-6.841-.425-10.093.643m24.155-.477a14.289,14.289,0,0,1,1.943,5.339c.135.629-.024,1.489.625,1.876,3.638,1.88,8.319,2.851,12.071.753a31.157,31.157,0,0,1-2.4-2.067c-1.229-1.441-2.1-3.183-3.521-4.458a3.851,3.851,0,0,0-2.492-.885c-2.085-.062-4.152-.339-6.223-.56m-17.01,9.075c1.263-.508.846-1.949.787-3.02-1.332.429-.673,1.984-.787,3.02m-1.95-1.863.007,2.761,1.087-.384c0-.93-.014-1.856-.052-2.785l-1.042.408m-1.743.27q-.053,1.579-.007,3.159c.338-.2,1.091-.176.966-.764.038-.816.007-1.631,0-2.443l-.96.048m-7.994.525a4.488,4.488,0,0,0,1.377,1.344l.041-1.185-1.419-.159m5.992-.107a13.861,13.861,0,0,0,.069,2.93l1.111-.27a24.332,24.332,0,0,0-.152-2.792l-1.029.131m-3.762.3-.017,1.61,1.139.453,0-2.067-1.118,0m1.94-.045v2.388l1.036.1v-2.561l-1.036.073m10.452.48.045,1.1.891.867-.021-1.655-.915-.311m12.8.3q-.008,1.159.021,2.319a7.655,7.655,0,0,0,.956-.937,10.7,10.7,0,0,0-.024-1.821l-.953.439m3.238.035a3.4,3.4,0,0,0,.1,1.538,11.175,11.175,0,0,0,1.073.695l.069-2.008c-.407-.093-.918-.8-1.243-.225m-14.049.238-.055,2.118,1.039.639c.035-.888.038-1.776.021-2.661l-1-.1m4.263.4c-.01,1.064-.066,2.129-.117,3.193l1.453.048.007-3.387-.746-.391-.6.536m2.32-.038-.041,3.2,1.343-.2a16.736,16.736,0,0,0-.145-3.221l-1.156.228m2.161-.321,0,3.065,1.215-.349-.007-2.82-1.2.1m-6.783.235c0,.943.007,1.89.045,2.834l1.291.3c.017-1.006.017-2.015.014-3.024l-1.35-.111m14.138.114a11.538,11.538,0,0,0,.083,1.89l1.16.294-.01-1.825-1.232-.359m7.318,1.292a2.471,2.471,0,0,0,1.974-1.13c-.77.162-1.9.079-1.974,1.13m-5.24-.636-.014,1.572,1.094.308c.028-.619.035-1.237.028-1.852l-1.108-.028m1.961.19.024,1.635.97-.18,0-1.431-1-.024m1.86-.076-.045,1.379.832-.225-.079-1.261-.708.107m-17.835,3.711a17.445,17.445,0,0,0-1.032,10.637c.117.871,1.2,1.064,1.912,1.178a25.168,25.168,0,0,1-.6-5.657,22.713,22.713,0,0,1,1.253-6.082l-1.533-.076m1.042,12.755c.072,3.7-.449,7.385-.407,11.089a30.448,30.448,0,0,1,3.842-1.742,17.76,17.76,0,0,1,5.488-.536c5.333.059,10.469,2.056,15.823,1.838-1.757-3.642-4.1-6.977-6.12-10.481a16.188,16.188,0,0,1-7.369-1.12,12.318,12.318,0,0,0-11.256.95m-9.7-1.054a32.785,32.785,0,0,1-9.561.7l-6.948,8.726a18.234,18.234,0,0,0-1.605,2.229c5.409.235,10.635-1.552,16.009-1.814a15.938,15.938,0,0,1,10.2,2.143l.5-10.9c-2.5-1.724-5.737-1.769-8.595-1.092M90.539,160.125c-1.629.176-3.269.1-4.9.162.777.688,1.847.494,2.8.494,4.277-.283,8.505-1.037,12.754-1.583a19.548,19.548,0,0,1,7.238.387c1.1.3,2.112.864,3.193,1.227a1.4,1.4,0,0,0-.842-.964,13.372,13.372,0,0,0-6.434-1.448c-4.667-.09-9.2,1.22-13.807,1.724m24.128.332a3.724,3.724,0,0,0,.57.86,12.818,12.818,0,0,1,7.722-2.274c5.247-.1,10.29,2.022,15.54,1.7l.677-.4c-5.361.2-10.531-1.562-15.847-1.911-2.979-.152-6.175.238-8.66,2.018m-23.845.809c-1.415.159-2.848.138-4.249.4a15.114,15.114,0,0,0,3.283.149c5.512-.366,10.966-2.087,16.523-1.372a26.7,26.7,0,0,1,4.491,1.158c-.942-1.1-2.454-1.386-3.8-1.662-5.457-.819-10.835.881-16.244,1.327m27.859-.926c-1.146.429-2.492.809-3.148,1.939,1.615-.415,3.038-1.386,4.7-1.655,5.053-1.185,10.079.67,15.1,1.04a7.758,7.758,0,0,0,3.21-.245c-4.339.235-8.522-1.13-12.8-1.583-2.358-.059-4.794-.27-7.069.5m-31.645,2.146a18.007,18.007,0,0,0,5.9.429c3.155-.1,6.185-1.14,9.337-1.279a25.758,25.758,0,0,1,7.687,1.4l.362-.781a16.223,16.223,0,0,0-7.042-1.4c-5.454.18-10.766,1.918-16.247,1.628m26.009-1.783c-1.1,1.362-2.475,2.8-2.509,4.651.2,1.089,1.467,1.42,2.427,1.324,1.008,0,2.589-.093,2.768-1.358a8.137,8.137,0,0,0-2.685-4.617m6.962.67c-1.312.4-2.886.674-3.707,1.894a37.755,37.755,0,0,1,3.825-1.154c3.769-.809,7.649-.366,11.422.166a22.65,22.65,0,0,0,5.94.612,1.321,1.321,0,0,0,1.153-.549c-6.258.446-12.406-2.471-18.632-.968M95.7,163.315a30.737,30.737,0,0,1-8.391.062l.418.4c4.018.733,8.094.038,12.095-.463a27.88,27.88,0,0,1,9.813.985l-.155-.684a23.585,23.585,0,0,0-5.792-1.248c-2.7-.211-5.343.536-7.987.947M119.2,163c-.939.328-2.057.47-2.7,1.324,2.61-.384,5.16-1.279,7.835-1.133,4.173-.218,8.263.936,12.426.843a2.2,2.2,0,0,0,1.529-.415,27.053,27.053,0,0,1-4.232-.252c-4.884-.8-9.993-1.776-14.863-.366m-20.079,1.051a38.452,38.452,0,0,1-11.67.4l-.007.736,15.5,0c2.2.076,4.387-.294,6.576.035a6.451,6.451,0,0,0-2.737-.892,26.867,26.867,0,0,0-7.663-.283m19.661.511a4.61,4.61,0,0,0-1.432.594l21.007,0,.3-.515a38.385,38.385,0,0,1-5.744-.138c-4.67-.677-9.5-1.061-14.131.055ZM160.72,93.834l2.668,3.183-.859.587a8.151,8.151,0,0,0-.9-1.047c-1.1.764-2.061,1.7-3.117,2.526l-.746-.85,3.131-2.626-.942-1.151Zm-1.056,6.714c1.363-1.013,2.73-2.025,4.152-2.955L166,100.7l-.873.422c-.635-.581-.915-1.714-1.743-1.952-.953.736.576,1.648.9,2.378l-.808.6q-.685-1-1.412-1.97l-.928.746,1.553,2.053-.735.743Zm-99.748,1.31a2.6,2.6,0,0,1,1.022-1.033l-.031,1.2a3.849,3.849,0,0,1,1.457,1.894l1.954-.249-.083.86a26.385,26.385,0,0,1-3.976.335c-.11-.788.552-.992,1.16-1.192a8.043,8.043,0,0,0-1.046-.8,7.95,7.95,0,0,0-1.426,2.243c1.336.65,2.644,1.351,3.945,2.07l-.5.715a21.11,21.11,0,0,1-2.074-.943l-.483.864q-.272-.3-.535-.6c.846-.74-.449-.947-.815-1.334-.2.394-.4.784-.576,1.2a5.139,5.139,0,0,1,1.726,1.9l1.947-.511-.038.912a20.979,20.979,0,0,1-3.952.684c-.1-.795.628-1.03,1.18-1.351l-1.36-.625-.894,2-.573-.477a50.852,50.852,0,0,1,3.969-7.758Zm102.937,3.311c-.469-2.391,3.3-4.171,4.746-2.143a2.264,2.264,0,0,1-.321,3.114l-.532-.93a1.3,1.3,0,0,0-.687-2.015c-.98.09-2.385.8-2.085,1.987.079.691.891.809,1.453.736l.58,1.04a2.359,2.359,0,0,1-3.155-1.79Zm-106.734-.453.583-1,.884.57-.535.923-.932-.5Zm108.992,3.29,4.1-1.994.469.971-1.664.9.8,1.6,1.66-.8.514,1c-1.474.795-3,1.489-4.5,2.219l-.573-.943,2.03-1.019-.808-1.676-2.054,1.023c-.1-.429-.7-1.089.021-1.272Zm1.619,4.613,4.732-1.856.373,1.057c-.645,1.085-1.574,1.98-2.292,3.02,1-.387,1.988-.84,3.027-1.137l.445.905-4.8,1.856-.338-1.1q1.236-1.441,2.392-2.948-1.527.526-3,1.2l-.538-1ZM53.678,115.011l.6-.608a8.661,8.661,0,0,1,.487,1c1.27.47,2.582.822,3.818,1.375l-.183.9c-1.429-.467-2.834-1-4.273-1.438l-.749,2.854.8.273c.01-.85.362-2.022,1.426-1.921.942-.035,2.516,1.279,1.453,2.1-.583-.439-1.118-1.482-1.967-1.089-.356,1.507,1.574,1.341,2.468,1.78l-.135.885-1.1-.263c0,.746-.179,1.7-1.06,1.859a1.51,1.51,0,0,1-1.819-2.063l.628-.2c.131.546.062,1.517.911,1.431.652.038.559-.809.411-1.21a10.677,10.677,0,0,0-2.3-.629q-.338,1.48-.742,2.944,2.144.51,4.311.916l-.138.943c-1.46-.259-2.906-.594-4.366-.867l-.231,1.182a24.666,24.666,0,0,1,2.647.508c.293.9-1.633,2.225-1.553.653l-1.246-.183-.19,1.424,4.4.463-.19.878c-1.467-.01-2.917-.263-4.373-.394l0,1.272,4.311.218.024.954-4.4-.225-.128,1.234c1.467.031,2.934-.014,4.4-.117l.048.978c-.252,0-.752-.007-1-.01.535.937,1.07,2.177.373,3.176-.321.508-.946.3-1.439.339-.525.18-1.146.753-1.667.242a5.515,5.515,0,0,1-.179-1.683l-.428.059.007,2.7a38.984,38.984,0,0,0,4.484-.349l-.038,1-4.277.4.072,1.019c1.477-.111,2.934-.439,4.415-.48.6,1.237-.97.93-1.622,1.151.587.771,2.268,1.3,1.571,2.467q-.694-.643-1.325-1.344c-.138,1.251-1.4,1.389-2.375,1.652l-.228.784L51.5,143.8c-.376-1.234-.324-2.557-.725-3.787-.328.453-.787,1.859-1.363.781a16.553,16.553,0,0,0,1.515-2.143,11.8,11.8,0,0,0-2.1,1.7l-.449-.867,2.288-1.469c-.1-2.433-.217-4.873-.1-7.305-.68.574-1.332,1.178-1.974,1.8l-.494-.843c1.087-.86,2.924-1.393,2.647-3.121-.749.014-1.881.021-2.057-.937-.594-2.067,1.436-3.456,2.861-4.51a43.826,43.826,0,0,1,1.177-4.648c-.828-.021-2.112-.045-2.168-1.151-.038-1.652,1.674-2.443,3.117-2.288m-2.485,2.17a3.827,3.827,0,0,0,1.795.38l.456-1.614a1.761,1.761,0,0,0-2.251,1.234M49.35,127c0,.767.918.636,1.429.729.142-1.133.321-2.263.487-3.394-.8.712-2.009,1.444-1.916,2.664m1.854,5.927.211,1.054,1.022-.024c.159.643-.3,1.752.57,1.959.093-.691-.3-1.679.611-1.942.121.518-.045,1.254.6,1.476.877-.708.024-1.807-.48-2.454a13.447,13.447,0,0,0-2.53-.069m.583,7.831a11.283,11.283,0,0,0,.128,1.445,6.325,6.325,0,0,0,1.9-.467,3.41,3.41,0,0,0-.262-1.237A11.562,11.562,0,0,0,51.786,140.756Zm118.878-24.4a2.475,2.475,0,0,1,3.548,1.966c.435,2.675-4.039,3.922-5.074,1.458a2.4,2.4,0,0,1,1.526-3.425m.694.978c-.77.138-1.688.778-1.432,1.676.4,1.9,3.963.781,3.193-1.03a1.421,1.421,0,0,0-1.76-.646Zm-1.432,4.89c1.667-.308,3.324-.667,4.991-1l.09,1.189a26.021,26.021,0,0,0-3.918.812,11.478,11.478,0,0,1,.421,2.34l-.866.238-.718-3.584Z" transform="translate(-31.478 -53.696)" fill="#004f9f"/>
        <path id="Path_11546" data-name="Path 11546" d="M180.935,208.093a3.073,3.073,0,0,1,3.031.511,2.7,2.7,0,0,1,.5,2.72,3.023,3.023,0,0,1-4.442.871c-1.225-1.175-.866-3.684.915-4.1m.345,1.082a1.286,1.286,0,0,0-.68,2.111,2,2,0,0,0,3.1-.9C183.7,209.127,182.25,208.8,181.28,209.175Zm-.352,4.465a3.073,3.073,0,0,1,3.628.625c.987,1.22.528,3.67-1.284,3.736-.173-.971.787-1.555.846-2.457a1.952,1.952,0,0,0-3.286-.332,1.292,1.292,0,0,0,.939,1.856l-.1-1.168h.939l.107,2.136-2.858.107.393-1.061a2.28,2.28,0,0,1,.676-3.442Zm-1.046,6.231c1.891.532,3.445-.76,5.05-1.507l.021,1.313-2.105.885q.993.537,2,1.044l-.066,1.234c-1.032-.48-1.95-1.165-2.972-1.655a18.149,18.149,0,0,0-1.978-.235l.048-1.078Zm-.659,8.363a9.536,9.536,0,0,1,.359-3.456c1.643.318,3.31.491,4.946.847a13.323,13.323,0,0,1-.721,3.269c-.538.8-1.55.449-2.15-.069a1.54,1.54,0,0,1-2.433-.591m1.032-2.225c-.079.843-.452,2.184.856,2.073.159-.619.3-1.241.438-1.863l-1.294-.211m2.112.373c-.045.771-.418,1.807.652,1.932q.228-.917.421-1.842l-1.073-.09Zm-2.8,3.521c1.788-.594,4.346.812,3.717,2.927-.352,2.457-4.08,2.426-5.039.435a2.521,2.521,0,0,1,1.322-3.362m-.041,1.234a1.221,1.221,0,0,0-.024,1.984c.8.591,2.344.812,2.789-.314C182.837,231.288,180.6,230.459,179.523,231.136Zm-64.421.252c.635-.221,1.9-.287,1.567.753C116.089,231.99,114.981,232.346,115.1,231.388Zm9.133.556,1.891-.7.352.691-1.753.688Zm2.661-.771,1.733.024-.079.805C127.9,231.9,127.038,232.021,126.9,231.174Zm2.616.048,1.874.356-.079.791-1.891-.394.1-.753Zm-17.124,1.3c-.179-1.061,1.06-.933,1.75-1.057l.428.6A16.826,16.826,0,0,1,112.389,232.518Zm4.915-.377c.117-1.248,1.626-.059,2.288.111C119.044,233.234,118.029,232.453,117.3,232.142Zm-55.226.695,4.2-1.1c.276.791-.01,1.265-.873,1.23.224.7.67,1.472.352,2.222-.2.563-.749.86-1.191,1.206-.342-.328-.583-1.268-1.2-.9-1.049.377-.155,1.514.01,2.2,1.391-.532,2.8-1.009,4.214-1.476l.169.9c-1.322.6-2.744.957-4.09,1.5l.456,1.12,4.052-1.635.369.892-2.7,1.1.811,1.845c.991-.27,1.322-1.292,1.712-2.118l.711.342c-.487.957-.832,2.568-2.164,2.526-1.5.118-.98-2.5-2.464-2.219.442,1.22,1.008,2.388,1.491,3.594.887-.435,1.9-.9,2.644.035l.77-1.973.839.349a27.7,27.7,0,0,1-1.926,3.839l-.718-.37q.2-.733.366-1.472a12.416,12.416,0,0,0-1.491.463l1.208,2.336,3.887-2.2.3.909c-1.184.791-2.468,1.42-3.7,2.146l.532.9,3.742-2.3.49.867L71.063,248.7c.318.843,1.142.384,1.719.7-.086.608.048,1.5-.525,1.887-.735-.809-1.64-.09-1.95.695.528-.328,1.705.145.877.691-.922.733-1.636-.439-1.809-1.23a6.122,6.122,0,0,1,1.653-1.472l-.5-.881-1.249.67.131,1.133-.639-.252a63.3,63.3,0,0,1-4.877-9.368,3.973,3.973,0,0,1-1.474.826c-.991-.028-1.46-1.189-1.356-2.039a3.369,3.369,0,0,1,1.567-2.139,51.037,51.037,0,0,1-1.467-5.177l.148-.622.766.719m.148.968.214,1.106c.821-.467,1.836-.653,2.461.232.538-.7-.014-1.368-.435-1.942l-2.24.6m.687,4.976c-.521.525-1.664,1.292-.97,2.111.5.67,1.108-.214,1.6-.446Zm47.263-6.307c.314-.5.991-.4,1.488-.556l.1.867c-.521-.076-1.3.294-1.588-.311Zm21.769-.587,1.4.1.052.757-1.432-.128-.021-.729Zm-26.622.429h1.167l.028.767-1.249.01.055-.778Zm2.344-.024c.614.149,1.75-.366,1.819.581-.538.356-1.243.169-1.85.252Zm26.691-.086a13.162,13.162,0,0,1,1.854.349l-.273.632-1.657-.238Zm2.661,1.147c-.273-1.137,1.629-1.085,1.6-.021Zm-12.467.342a8.069,8.069,0,0,1,3.213-.708l-.083.712a12.336,12.336,0,0,0-2.613.639l-.518-.643Zm4.2-.764,1.753.249-.131.764-1.615-.207Zm-15.563.356c.6.024,1.336-.328,1.847.086-.035.822-1.18.515-1.729.7l-.117-.791Zm2.723-.159a8.7,8.7,0,0,1,3.276.829l-.559.567a23.178,23.178,0,0,0-2.72-.639Zm15.57.2,1.619.328-.11.771-1.8-.384.293-.715Zm-20.924.411c.742-.073,1.719-.56,2.05.415-.656.149-1.315.259-1.978.342Zm-6.6.287,2.734.124.155.66a17.711,17.711,0,0,1-3.027,0l.138-.788Zm3.824-.007c.759.062,2.057-.619,2.085.594l-2.068.2Zm26.046.491.259-.743,1.864.228-.086.795Zm3.376-.363c.78.021,1.553.159,2.333.242l.121.719a22.346,22.346,0,0,1-2.844-.249l.39-.712Zm-9.5.567,2.171.01-.066.774c-.677.007-1.353,0-2.026,0Zm49.745-.169,4.829,1.683-.514,1.472c-1.246-.107-2.489-.29-3.742-.29q1.6.934,3.151,1.946l-.487,1.479q-2.423-.783-4.808-1.676l.352-.978,3.217,1.12c-.942-.708-1.964-1.3-2.951-1.942l.414-1.019,3.538.477a23.583,23.583,0,0,0-3.276-1.248Zm-66.427.75,1.826-.335c.342,1.023-.863.937-1.495,1.151Zm2.464-.287a19.341,19.341,0,0,1,2.409-.09l-.159.788C114.933,235.635,113.846,235.988,113.494,235Zm12.581.1a.52.52,0,0,1,.784.625c-.6.242-1.356.753-1.891.1.1-.511.708-.556,1.108-.726Zm4.615-.3,1.757.3-.066.809C131.68,235.708,130.334,235.967,130.69,234.8Zm-22.256.961,1.871-.384.193.84-1.736.273-.328-.729Zm8.139.128.349-.75,1.757.667c-.411,1.057-1.388.359-2.105.083Zm16.523-.615c.714.235,2.209-.079,1.878,1.144C134.21,236.223,132.923,236.458,133.1,235.276Zm-27.648.719,2.105-.2.1.833C106.891,236.534,105.5,237.232,105.448,235.995Zm30.519-.28,2.112.263c.114,1.3-1.419.5-2.147.563Zm-33.6.228,2.188.035c.124.27-.007.56-.028.84C103.781,236.586,102.259,237.2,102.366,235.943Zm36.649.035c.714.18,1.847-.321,2.254.432-.514.784-1.629.359-2.406.373Zm-25.791.684a6.541,6.541,0,0,1,1.926-.035l-.148.857-1.477-.024Zm15.17-.232,1.643-.069.038.888-1.7.055Zm-17.759.5,1.76-.28.231.843-1.781.342Zm5.633-.169,1.971.791-.611.733-1.695-.719.335-.805Zm8.864.577a15.046,15.046,0,0,1,2.175-.771c.48,1.057-.742,1.137-1.391,1.507Zm5.719.079.324-.926,1.595.321-.045.829Zm-23.223,0,2.137-.273.245.816-2.306.346-.076-.888Z" transform="translate(-39.952 -136.073)" fill="#004f9f"/>
        <path id="Path_11547" data-name="Path 11547" d="M140.78,292.19l2.236.346-.117.85-2.243-.318Zm-29.09.684,2.27-.2.1.861-2.257.187Zm32.194-.263,2.056.245.035.84-2.295-.18Zm-35.587.294,2.588,0,0,.85-2.588.069Zm38.452.7c.3-1.054,1.552-.249,2.3-.346l.028.843C148.321,293.963,147.277,294.288,146.748,293.61Zm34.927,5.052c-.232-1.324.664-2.467,1.14-3.628l4.572,2.046a11.9,11.9,0,0,1-1.462,2.982c-.715.7-1.721.162-2.156-.563a1.6,1.6,0,0,1-2.094-.836m1.548-2.257c-.384.757-.985,1.89.173,2.26q.513-.842.975-1.714l-1.147-.546m1.88.957c-.149.619-.788,1.431-.114,1.949.625-.321.826-1.044,1.14-1.617l-1.026-.332Zm-4.13,1.576c1.32,1.227,2.405,2.671,3.628,3.988l-.632,1.127-5.336-.916c.3-.4.484-1.1,1.14-.933.867.142,1.006-.961,1.424-1.476l-.7-.74.477-1.051m.311,3.546,1.845.352-1.2-1.348Zm-3.891,2.478.8-.892c1.306,1.427,3.307,1.085,5.038,1.272l-.688,1.13-2.26-.29q.581.964,1.2,1.914c-.263.3-.4.771-.805.909-.629-.947-1-2.042-1.7-2.937A15.637,15.637,0,0,0,177.394,304.962ZM78.639,324.743a118.834,118.834,0,0,1,45.45-10.785,120.94,120.94,0,0,1,54.251,10.823c-.681,1.679-1.479,3.3-2.236,4.949a56.563,56.563,0,0,1,9.1,4.873c-3,5.536-5.823,11.172-8.992,16.615h-.162a15.126,15.126,0,0,0-2.834-1.451,96.381,96.381,0,0,0-15.838-5.55c-.432-.159-.968-.173-1.3-.511.449-2.519,1.213-4.969,1.79-7.461a121.837,121.837,0,0,0-58.651-.207l1.9,7.734a97.346,97.346,0,0,0-16.8,5.754,11.942,11.942,0,0,0-3.21,1.693h-.442l-.017-.228c-2.82-5.519-5.826-10.948-8.767-16.4a54.744,54.744,0,0,1,9.071-4.914l-2.312-4.928m3.922,1.355c1.462,3.525,3.238,6.911,4.869,10.36a127.923,127.923,0,0,1,42.547-6.708,117.482,117.482,0,0,1,39.7,7.126l4.876-10.692a123.082,123.082,0,0,0-23.52-7.212A117.322,117.322,0,0,0,82.562,326.1m-1.756,6.763,6.241,12.423,1.082-.467c-1.825-4.261-3.8-8.456-5.833-12.624l-1.489.667m88.159,12.033,1.116.491,6.244-12.437-1.507-.691-5.854,12.638M78.152,334.184c2.042,4.092,4.2,8.128,6.372,12.154l1.241-.6-6.2-12.278-1.417.729m98.827.467c-1.87,3.749-3.853,7.451-5.6,11.262l1.3.47,6.352-12.078c-.463-.238-.916-.487-1.393-.688a3.577,3.577,0,0,0-.657,1.033m-101.235.978,6.289,11.808,1.123-.6L76.929,334.9a4.534,4.534,0,0,0-1.185.726m98.457,11.1.767.674,6.238-11.729-.9-.6c-2.077,3.863-4.178,7.724-6.106,11.66m-86.78-6.873c.6,1.541,1.327,3.031,2.025,4.534l1.158-.494c-.473-1.227-.978-2.443-1.493-3.653l-1.69-.387m80.6.418c-.529,1.23-1.068,2.457-1.51,3.722l1.165.453c.712-1.5,1.441-3,2.063-4.548l-1.718.373m-77.215.335a21.706,21.706,0,0,0,1.061,2.848l1.206-.328a12.861,12.861,0,0,0-.778-2.187l-1.489-.332m73.984.5a8.57,8.57,0,0,0-.757,2.094l1.185.339c.4-.943.8-1.89,1.154-2.854a5.578,5.578,0,0,0-1.583.422M94,341.313q.179.668.38,1.33,1.118-.3,2.222-.646a9.938,9.938,0,0,0-2.6-.684m66.371.736,2.34.65.491-1.275A15.219,15.219,0,0,0,160.367,342.049Z" transform="translate(-47.187 -191.217)" fill="#004f9f"/>
        <path id="Path_11548" data-name="Path 11548" d="M192.4,368.82c1.483.28,1.635,1.932,1.966,3.127,4.088.7,8.121,1.7,12.123,2.789l.159,1.113L205.5,375.5c-.48,1.441-.864,2.913-1.223,4.389a6.138,6.138,0,0,1,1.192,2.854c-.553-.733-.864-1.679-1.7-2.149a.693.693,0,0,1-.059-1.2l-.342-.5.37-1.279-1.424-.328-.632.581c-.577.08-.729-.7-.954-1.092-.273-.435.349-.691.522-1.03a7.738,7.738,0,0,0,.346-1.268l-1.776-.359c-.339,1.5-.722,2.989-1.078,4.486-.5-.453-1.009-.943-.829-1.686a2.942,2.942,0,0,1-1.783-.453c-.66-.518-.6-1.458-.805-2.191.591-.176,1.365-.138,1.652-.8q-1.288-.278-2.588-.494l-.708,4.613c-.467-.453-1.113-.861-.95-1.614a2.624,2.624,0,0,1-2.3-.829c-.577,1.213-2.53.888-3.1-.2-.491-.563-.028-1.223.162-1.8-.187-.553-.708-1.185-.19-1.717a1.327,1.327,0,0,1,2.115.933c0,.477-.563.556-.857.812a.977.977,0,0,1,1.023.885c-.639.048-1.465-.335-1.883.359.546,1.016,1.755.439,2.53.079l-.228-1.044a2.873,2.873,0,0,0,1.641-.767c-.574-.149-1.158-.256-1.738-.356l-.463-1.051,4.441.556a2.77,2.77,0,0,0-1.292-1.928l-.18-1.1m-4.154,2.937c-.487.066-.625.857-.073.947.708.176.84-1.144.073-.947m3.877.9c.366,1.113-.695,1.458-1.379,2.039a2.439,2.439,0,0,0,2.163-.062,13.87,13.87,0,0,0,.4-1.825l-1.185-.152m5.491.916c.135,1.085-.681,1.5-1.593,1.7a1.658,1.658,0,0,0,1.8.47c.812-.2.66-1.254.975-1.856l-1.182-.314m4.769,2.765,1.676.273.352-1.4-1.749-.48C202.564,375.261,202.467,375.794,202.384,376.333Zm-38.092-5.173a178.7,178.7,0,0,1,18.654-.38l.477,1.04-1.175-.01c-.024,1.486-.1,2.968-.166,4.451a7.066,7.066,0,0,1,1.769,2.4c-.84-.577-1.386-1.652-2.53-1.648l-.432-.812.622-.024c-.553-.473-.484-1.2-.522-1.852l-1.3,0-.577.819c-.435-.418-1.037-.781-1.178-1.4a2.879,2.879,0,0,0,.553-2.067l-1.089-.028-.007,4.613-1.14-.684.052-1.32-1.424-.052-.5.94a11.576,11.576,0,0,1-1.327-1.4c.66-.484.563-1.289.584-2.008l-1.5.01c-.017.919.187,2-.7,2.6-.162.629,1.776,1.438.584,1.98-.867-1.03-2.156-1.953-2.264-3.4l1.227.114.069-1.213-1.835-.028c-.031,1.569.128,3.131.169,4.7a1.623,1.623,0,0,1-1.234-1.669,2.308,2.308,0,0,1-2.219-.266c-.577-.65-.439-1.59-.581-2.381-.639.031-.812-.56-1.054-1.016m2.174.9c.156.715-.079,1.645.384,2.229a9.534,9.534,0,0,0,1.22-.67l-.021-1.752-1.583.194m8.242-.425.041,1.614,1.527-.052.028-1.517-1.6-.045m4.866.079-.014,1.59,1.565-.021v-1.538Zm-36.682,4.174a64.684,64.684,0,0,1,17.966-4.333l.546.881-1.123.211.591,4.4a4.526,4.526,0,0,1,2.2,2.167,4.881,4.881,0,0,0-2.464-1.32c-.477-.017-.494-.577-.553-.926a3.311,3.311,0,0,1-.612-1.631l-1.348.194-.335.954a6.082,6.082,0,0,1-1.565-1.265c.726-.515.394-1.337.3-2.056l-1.161.207c.249,1.531.553,3.051.826,4.579l-1.254-.591-.339-1.9c-.888.059-1.638.394-1.728,1.382-.612-.28-1.825-.93-1.178-1.686a20.035,20.035,0,0,1,2.737-.677l-.235-.943-3.857.9,1.223,4.492-1.3-.411-1.019-3.794-.854.318,1.389,4.382-1.241-.325c-.287-.788-.546-1.583-.8-2.378-.228.211-1.22.318-.719.8a1.6,1.6,0,0,1,.242,1.745c.263.349.854.556.632,1.127a10.939,10.939,0,0,0-2.512-.9l-.162-.936,1.261-.173c-.207-.919-1.1-.971-1.887-.919.28-1.324,2.267-.971,3-2.042a11.665,11.665,0,0,0-3.729,1.23l-.94-.764m14.68-2.837.252,1.5,1.586-.266-.273-1.545-1.565.308Z" transform="translate(-93.583 -241.366)" fill="#004f9f"/>
      </g>
    </g>
  </g>
</svg>
