<svg xmlns="http://www.w3.org/2000/svg" xmlns:xlink="http://www.w3.org/1999/xlink" width="405" height="275" viewBox="0 0 405 275">
  <defs>
    <filter id="Rectangle_8169" x="0" y="0" width="405" height="275" filterUnits="userSpaceOnUse">
      <feOffset input="SourceAlpha"/>
      <feGaussianBlur stdDeviation="12.5" result="blur"/>
      <feFlood flood-opacity="0.078"/>
      <feComposite operator="in" in2="blur"/>
      <feComposite in="SourceGraphic"/>
    </filter>
  </defs>
  <g id="iit_delhi_logo_with_white_bg" transform="translate(2.5 -13123.5)">
    <g transform="matrix(1, 0, 0, 1, -2.5, 13123.5)" filter="url(#Rectangle_8169)">
      <rect id="Rectangle_8169-2" data-name="Rectangle 8169" width="330" height="200" rx="20" transform="translate(37.5 37.5)" fill="#fff"/>
    </g>
    <g id="iit_delhi_logo" transform="translate(120 13414.999)">
      <path id="path152" d="M78.992-233.92a5.365,5.365,0,0,1-.824.352,6.536,6.536,0,0,0-1.064.5,5.865,5.865,0,0,0-1.456,1.656,4.777,4.777,0,0,0-.472,3.6,6.952,6.952,0,0,1,.1.968,9.719,9.719,0,0,1-1.064.064l-1.024.04.064-.688a3.707,3.707,0,0,0-.24-2.376A5.046,5.046,0,0,0,68-233.024a3.516,3.516,0,0,0-1.4.264,5.364,5.364,0,0,0-2.864,2.592l-.336.672v2.736l.352.744a4.112,4.112,0,0,1,.32.776,19.39,19.39,0,0,1-2.224.472,5.876,5.876,0,0,1-.1-.9,4.2,4.2,0,0,0-1.464-3.176,4.667,4.667,0,0,0-3.448-1.48,4.881,4.881,0,0,0-3.568,1.6,4.165,4.165,0,0,0-1.04,1.392l-.352.712v1.288c0,1.224.008,1.312.216,1.744a8.311,8.311,0,0,0,.52.92c.176.256.344.5.376.56s-.216.224-.792.5c-1.208.568-1.12.568-1.216.016a5.4,5.4,0,0,0-.368-1.056,5.243,5.243,0,0,0-3.168-2.9,7.436,7.436,0,0,0-2.728,0,4.736,4.736,0,0,0-3.448,3.168,4.762,4.762,0,0,0-.136,1.8,3.739,3.739,0,0,0,1.024,3,4.814,4.814,0,0,1,.6.864,6.692,6.692,0,0,1-.776.48c-.408.24-.824.48-.92.536-.16.112-.176.1-.256-.3a5.251,5.251,0,0,0-4.5-3.576,4.479,4.479,0,0,0-2.448.512,5.172,5.172,0,0,0-2.624,2.8,3.475,3.475,0,0,0-.192,1.464,4.637,4.637,0,0,0,1.832,4.1,2.993,2.993,0,0,1,.48.392,10.974,10.974,0,0,1-.744.832l-.744.792-.68-.912a5.043,5.043,0,0,0-1.928-1.84,4.824,4.824,0,0,0-2.576-.456,2.861,2.861,0,0,0-1.64.312,5.506,5.506,0,0,0-2.144,1.984l-.7.936-.1.792a5.5,5.5,0,0,0,.336,2.96,5.7,5.7,0,0,0,2.048,2.152c.64.416.712.488.624.6-.056.072-.384.456-.728.864l-.624.736-.392-.48a7.1,7.1,0,0,0-1.968-1.6c-.528-.272-.544-.272-1.8-.3a4.352,4.352,0,0,0-1.784.144,5.56,5.56,0,0,0-3.272,3.648,5.7,5.7,0,0,0-.04,2.176,7.447,7.447,0,0,0,.448,1.128,4.06,4.06,0,0,0,.976,1.368,4.435,4.435,0,0,0,2.1,1.248,1.022,1.022,0,0,1,.3.08c0,.024-.248.464-.552.992l-.544.968-.712-.576a8.1,8.1,0,0,0-1.232-.816c-.5-.248-.552-.256-1.824-.28a4.923,4.923,0,0,0-1.84.136,4.766,4.766,0,0,0-3.168,3.416,6.6,6.6,0,0,0,.04,2.8,4.864,4.864,0,0,0,3.136,3.192,4.079,4.079,0,0,0,.944.2c.168,0,.312.032.312.072a10.358,10.358,0,0,1-.816,2.072,3.579,3.579,0,0,1-.856-.464,5.425,5.425,0,0,0-1-.528c-.136-.024-.864-.032-1.616-.016l-1.36.024-.608.3A6.121,6.121,0,0,0,3.84-178.5a4.974,4.974,0,0,0,.4,3.52,4.267,4.267,0,0,0,1.552,1.8c.312.224.7.5.848.624.256.2.392.232,1.4.32.616.056,1.136.12,1.152.128A8.74,8.74,0,0,1,9-171.087c-.192.872-.248,1.008-.384,1.008a4.793,4.793,0,0,1-.864-.288l-.7-.288-1.272.032L4.5-170.6l-.688.344a5.163,5.163,0,0,0-2.84,4.328,4.065,4.065,0,0,0,.464,2.288,5.582,5.582,0,0,0,2.72,2.656c.5.216.576.224,1.824.224H7.3l-.072.52c-.032.288-.064.76-.064,1.048v.52l-.36-.056a3.455,3.455,0,0,1-.584-.144,5.835,5.835,0,0,0-1.2-.088,3.923,3.923,0,0,0-2.144.432A4.625,4.625,0,0,0,.52-155.983L0-154.919v.824a2.325,2.325,0,0,0,.152,1.12,7.113,7.113,0,0,1,.288.736,3.9,3.9,0,0,0,1.072,1.76,5.016,5.016,0,0,0,1.984,1.24,5.035,5.035,0,0,0,2.544.08c1.248-.184,1.128-.248,1.192.7.032.456.072.912.1,1.024l.032.2H6.024c-1.288,0-1.368.008-1.864.224a5.582,5.582,0,0,0-2.72,2.656,4.065,4.065,0,0,0-.464,2.288,5.163,5.163,0,0,0,2.84,4.328l.688.344,1.376.024c1.368.032,1.384.024,1.808-.192a5.242,5.242,0,0,1,.752-.312l.32-.1.256,1.056a6.51,6.51,0,0,1,.208,1.088,9.4,9.4,0,0,1-1.168.064c-.84.024-1.152.056-1.192.136a7.746,7.746,0,0,1-.856.672A4.489,4.489,0,0,0,4.24-133a5.252,5.252,0,0,0-.56,2.408,4.182,4.182,0,0,0,1.552,3.216A5.117,5.117,0,0,0,8.9-125.839a3.724,3.724,0,0,0,2.4-.792,3.03,3.03,0,0,1,.776-.392,15.845,15.845,0,0,1,.88,2.032,4.911,4.911,0,0,1-.528.1,4.891,4.891,0,0,0-3.944,3.4,6.6,6.6,0,0,0-.04,2.8,4.776,4.776,0,0,0,3.064,3.384,4.422,4.422,0,0,0,1.7.184,3.977,3.977,0,0,0,3.344-1.152c.376-.3.7-.5.744-.464s.3.456.584.944c.44.744.5.88.376.92l-.576.192a5.313,5.313,0,0,0-3.152,3.528,5.59,5.59,0,0,0,0,2.3,5.829,5.829,0,0,0,1.336,2.344,4.452,4.452,0,0,0,1.864,1.272,6.089,6.089,0,0,0,4.016-.32,5.248,5.248,0,0,0,1.616-1.4,2.178,2.178,0,0,1,.32-.4,17.92,17.92,0,0,1,1.512,1.624c-.016.016-.232.128-.472.256a6.177,6.177,0,0,0-2.456,2.888,3.471,3.471,0,0,0-.184,1.408,4.6,4.6,0,0,0,1.44,3.68,3.773,3.773,0,0,0,1.288.928,4.526,4.526,0,0,0,2.256.488,4.311,4.311,0,0,0,2.08-.464,5.079,5.079,0,0,0,2.336-2.184l.248-.464.816.688a5.89,5.89,0,0,1,.816.744c0,.04-.12.144-.272.232a5.512,5.512,0,0,0-1.52,1.784,5.4,5.4,0,0,0-.512,2.792,2.73,2.73,0,0,0,.336,1.64,5.689,5.689,0,0,0,2.376,2.344,4.879,4.879,0,0,0,2.552.552A4.8,4.8,0,0,0,39.6-90a3.978,3.978,0,0,0,1.176-1.992,1.075,1.075,0,0,1,.072-.328c.032,0,1.9,1.032,1.936,1.072a5.754,5.754,0,0,1-.512.7,4.114,4.114,0,0,0-.992,1.664,7.891,7.891,0,0,0,0,3.3,4.694,4.694,0,0,0,2.976,3.016,6.928,6.928,0,0,0,3.152.136,5.1,5.1,0,0,0,3.352-3.448,3.986,3.986,0,0,0,.12-.728c0-.144.032-.264.072-.264.056,0,2.1.72,2.136.752.008,0-.2.368-.456.8a3.868,3.868,0,0,0-.792,2.592,3.889,3.889,0,0,0,.184,1.464,5.389,5.389,0,0,0,3.352,3.28,7.421,7.421,0,0,0,3.3-.072,5.03,5.03,0,0,0,2.608-2.376A4.214,4.214,0,0,0,61.76-82.5c0-.5.024-.7.1-.7.048,0,.536.1,1.08.208,1.144.256,1.128.232.7,1.144l-.28.584v1.216a4.587,4.587,0,0,0,.168,1.712,5.319,5.319,0,0,0,2.76,2.952,4.316,4.316,0,0,0,1.952.424A5.126,5.126,0,0,0,73-78.175a3.365,3.365,0,0,0,.24-2.12,7.807,7.807,0,0,1-.072-.976,6.072,6.072,0,0,1,.864.072,5.826,5.826,0,0,0,1.072.056l.232-.048-.064.336c-.04.184-.1.48-.152.656a8.122,8.122,0,0,0-.08,1.24,3.454,3.454,0,0,0,.2,1.464,5.293,5.293,0,0,0,1.144,1.9A4.074,4.074,0,0,0,78.256-74.4a3.824,3.824,0,0,1,.752.328,6.87,6.87,0,0,0,1.984,0,3.824,3.824,0,0,1,.752-.328,4.091,4.091,0,0,0,1.832-1.144,5.181,5.181,0,0,0,1.392-2.84,4.3,4.3,0,0,0-.08-1.584c-.1-.536-.168-1.024-.168-1.088,0-.1.184-.128,1.064-.16.576-.024,1.064-.04,1.072-.032s-.04.432-.1.944a3.328,3.328,0,0,0,.28,2.216,5.1,5.1,0,0,0,4.72,3.128,4.316,4.316,0,0,0,1.952-.424,5.319,5.319,0,0,0,2.76-2.952,4.587,4.587,0,0,0,.168-1.712v-1.216l-.28-.584c-.432-.912-.448-.888.7-1.144.536-.112,1.024-.208,1.08-.208.072,0,.1.192.1.7a4.214,4.214,0,0,0,.472,2.064,5.03,5.03,0,0,0,2.608,2.376,7.421,7.421,0,0,0,3.3.072A5.459,5.459,0,0,0,108-81.263a4.579,4.579,0,0,0,.16-1.464,3.648,3.648,0,0,0-.752-2.5,3.634,3.634,0,0,1-.432-.864,13.941,13.941,0,0,1,2.08-.784c.032,0,.064.12.064.264a3.986,3.986,0,0,0,.12.728,5.1,5.1,0,0,0,3.352,3.448,6.928,6.928,0,0,0,3.152-.136,4.694,4.694,0,0,0,2.976-3.016,7.891,7.891,0,0,0,0-3.3,4.114,4.114,0,0,0-.992-1.664,5.755,5.755,0,0,1-.512-.7c.04-.04,1.9-1.072,1.936-1.072a.792.792,0,0,1,.064.3c.176,1.272,1.784,2.9,3.4,3.448a5.508,5.508,0,0,0,5.592-2.032,3.866,3.866,0,0,0,.752-2.728,4.082,4.082,0,0,0-.5-2.416,7.419,7.419,0,0,0-1.52-1.7l-.376-.3.792-.728c.432-.4.808-.728.824-.728a9.216,9.216,0,0,1,.648.832,4.658,4.658,0,0,0,2.9,2.16,6.427,6.427,0,0,0,2.472.008,4.953,4.953,0,0,0,3.6-3.6,6.523,6.523,0,0,0,.12-1.248,4.793,4.793,0,0,0-1.5-3.52,4.448,4.448,0,0,0-1.112-.888,1.615,1.615,0,0,1-.488-.312,18.321,18.321,0,0,1,1.52-1.592,4.62,4.62,0,0,0,2.92,2.168,6.222,6.222,0,0,0,3.008-.04,4.517,4.517,0,0,0,1.88-1.288,5.991,5.991,0,0,0,1.36-2.5,5.435,5.435,0,0,0-.04-2.128,5.288,5.288,0,0,0-3.528-3.648l-.336-.08.488-.864c.272-.472.528-.9.584-.96.072-.088.224,0,.76.424a4.018,4.018,0,0,0,3.328,1.16,4.885,4.885,0,0,0,1.64-.16,4.712,4.712,0,0,0,3.016-2.976,6.563,6.563,0,0,0,.144-3.024,4.907,4.907,0,0,0-4-3.608,4.911,4.911,0,0,1-.528-.1,16.508,16.508,0,0,1,.872-2.032,2.9,2.9,0,0,1,.784.392,3.724,3.724,0,0,0,2.4.792,5.117,5.117,0,0,0,3.672-1.536,4.187,4.187,0,0,0,1.552-3.192,5.443,5.443,0,0,0-1.456-3.712,3.919,3.919,0,0,0-3.12-1.472,6.774,6.774,0,0,1-.976-.1,6.652,6.652,0,0,1,.208-1.08l.248-1.048.248.056a7.015,7.015,0,0,1,.808.288c.536.224.608.232,1.88.232h1.32l.552-.256a5.325,5.325,0,0,0,2.48-2.48,4.638,4.638,0,0,0,.528-2.192,4.872,4.872,0,0,0-3.36-4.648,3.815,3.815,0,0,0-1.864-.256l-1.192-.008.048-.36c.024-.2.064-.656.1-1.024.064-.76-.048-.712,1.192-.536a5.035,5.035,0,0,0,2.544-.08,5.016,5.016,0,0,0,1.984-1.24,3.858,3.858,0,0,0,1.12-1.9,5.4,5.4,0,0,1,.32-.776,3.377,3.377,0,0,0,.072-.912v-.832l-.512-1.048a4.681,4.681,0,0,0-2.36-2.576,3.923,3.923,0,0,0-2.144-.432,5.836,5.836,0,0,0-1.2.088,3.568,3.568,0,0,1-.592.144l-.368.064-.048-.928a6.805,6.805,0,0,0-.1-1.048c-.04-.1.112-.12,1.112-.1a4.18,4.18,0,0,0,2.568-.488,6.018,6.018,0,0,0,2.1-2.176,4.21,4.21,0,0,0,.56-2.48,3.929,3.929,0,0,0-.256-1.392,6.027,6.027,0,0,0-2.552-3.024l-.568-.3-1.36-.024c-1.32-.024-1.384-.024-1.832.176-.256.112-.64.256-.848.32l-.376.112-.248-1.048a6.826,6.826,0,0,1-.208-1.088,5.723,5.723,0,0,1,.9-.1,4.549,4.549,0,0,0,3.224-1.432A5.014,5.014,0,0,0,156.3-177.5a2.635,2.635,0,0,0-.288-1.328,6.4,6.4,0,0,0-2.8-2.952l-.68-.336-1.152-.024a3.484,3.484,0,0,0-2.712.792,2.777,2.777,0,0,1-.76.376,16.505,16.505,0,0,1-.872-2.032,4.921,4.921,0,0,1,.528-.1,4.907,4.907,0,0,0,4-3.608,6.563,6.563,0,0,0-.144-3.024,4.688,4.688,0,0,0-3.04-2.984,4.923,4.923,0,0,0-1.84-.136c-1.216.024-1.336.04-1.76.24a6.4,6.4,0,0,0-1.536,1.048c-.312.256-.5.36-.552.3-.04-.04-.3-.464-.584-.944-.512-.88-.528-.984-.144-.984a5.555,5.555,0,0,0,1.856-1,5.911,5.911,0,0,0,1.664-2.7,5.6,5.6,0,0,0-.016-2.248,5.552,5.552,0,0,0-3.28-3.648,4.454,4.454,0,0,0-1.816-.144l-1.3.024-.6.32a7.993,7.993,0,0,0-2.032,1.8l-.136.2-.792-.832-.792-.832.616-.36a6.828,6.828,0,0,0,1.264-1.008,3.925,3.925,0,0,0,1.312-3.184,4.5,4.5,0,0,0-.536-2.376,4.9,4.9,0,0,0-3.024-2.608,7.276,7.276,0,0,0-2.632,0,5.423,5.423,0,0,0-3.176,2.456l-.272.536-.864-.72-.856-.72.376-.3a7.472,7.472,0,0,0,1.528-1.7,4.045,4.045,0,0,0,.48-2.576l-.024-1.216-.312-.64a5.689,5.689,0,0,0-2.376-2.344,4.818,4.818,0,0,0-2.552-.552A4.816,4.816,0,0,0,120.4-218a3.978,3.978,0,0,0-1.176,1.992,1.075,1.075,0,0,1-.072.328c-.032,0-1.9-1.032-1.936-1.072a5.757,5.757,0,0,1,.512-.7,4.114,4.114,0,0,0,.992-1.664,7.891,7.891,0,0,0,0-3.3,4.694,4.694,0,0,0-2.976-3.016,4.691,4.691,0,0,0-1.64-.24,4.05,4.05,0,0,0-1.616.136,5.606,5.606,0,0,0-3.456,3.888c-.056.264-.112.5-.12.5a8.651,8.651,0,0,1-1.032-.344l-1-.384.136-.208a10.951,10.951,0,0,0,.96-1.808,4.783,4.783,0,0,0,.144-1.608v-1.2l-.3-.624a5.983,5.983,0,0,0-1.888-2.08,4.933,4.933,0,0,0-2.864-.928,4.468,4.468,0,0,0-3.344,1.48,4.435,4.435,0,0,0-1.48,3.336c0,.552-.024.7-.112.7-.12,0-1.936-.376-2.1-.44-.072-.024.008-.264.264-.776l.36-.744-.024-1.4c-.024-1.4-.024-1.408-.28-1.92a5.726,5.726,0,0,0-2.432-2.4,4.305,4.305,0,0,0-2.192-.56,5.115,5.115,0,0,0-4.68,3.128,4.362,4.362,0,0,0-.208,2.92l.032.256-1.048-.048a10.073,10.073,0,0,1-1.088-.064,9.552,9.552,0,0,1,.144-1.1,4.582,4.582,0,0,0,.1-1.68,5.3,5.3,0,0,0-1.624-3.048,3.47,3.47,0,0,0-1.624-.928,3.478,3.478,0,0,1-.728-.32A6.708,6.708,0,0,0,78.992-233.92Zm5.328,10.08a58.527,58.527,0,0,1,10.2,1.48,43.972,43.972,0,0,1,9.456,2.672c2.488.992,6.688,2.816,8.12,3.536a68.744,68.744,0,0,1,15.952,11.48,77.478,77.478,0,0,1,10.536,12.48,54.267,54.267,0,0,1,5.176,9.632c2.944,6.912,3.936,10.032,5.072,16.08a58.522,58.522,0,0,1,1.016,8.56c.1,2.176.048,8.584-.088,10.24-.592,7.312-2.336,13.632-6.352,23.048a63.973,63.973,0,0,1-12.664,18.6,71.085,71.085,0,0,1-18.464,14.072c-2.336,1.176-7.024,3.2-9.84,4.24a45.61,45.61,0,0,1-8.48,2.192A56.8,56.8,0,0,1,78.6-84.1a53.658,53.658,0,0,1-11.92-1.224,55.625,55.625,0,0,1-13.04-4.016c-1.056-.44-2.48-1.024-3.16-1.3a55.923,55.923,0,0,1-9.88-5.6,59.1,59.1,0,0,1-9.88-8.32,69.039,69.039,0,0,1-9.16-11.04,70.542,70.542,0,0,1-8.04-16.88,60.518,60.518,0,0,1-3.368-17.28c-.12-2.6-.04-9.032.12-10.976.6-7.088,2.336-13.28,6.344-22.7a66.1,66.1,0,0,1,14.016-19.928,69.509,69.509,0,0,1,16.96-12.624,105.114,105.114,0,0,1,11.328-4.688,69.5,69.5,0,0,1,17.28-3.184C77.728-223.928,82.873-223.9,84.321-223.839Z" fill="red"/>
      <path id="path154" d="M81.553-214.989c-1.439.1-3.549.3-4.556.432a65.1,65.1,0,0,0-30.132,12.244A73.44,73.44,0,0,0,33.719-189.94,66.216,66.216,0,0,0,19.38-155.093a56.278,56.278,0,0,0-.368,7.953,40.977,40.977,0,0,0,.528,8.152,69.8,69.8,0,0,0,5.755,19.326A69.45,69.45,0,0,0,36.22-103.326,67.926,67.926,0,0,0,47.338-93.4,66.472,66.472,0,0,0,74.528-82.01a58.905,58.905,0,0,0,12.125.9A61.248,61.248,0,0,0,98.937-82.37a67.114,67.114,0,0,0,34.416-18.455,66.73,66.73,0,0,0,16.736-27.854,67.762,67.762,0,0,0,2.693-14.386c.144-1.646.136-8.368,0-10.071a65.632,65.632,0,0,0-4.492-19.462,68.331,68.331,0,0,0-36.214-37.149,68.188,68.188,0,0,0-21.172-5.1C89.514-214.965,82.752-215.069,81.553-214.989Zm9.311.751a64.922,64.922,0,0,1,21.5,5.315,86.944,86.944,0,0,1,16.744,10.31,29.293,29.293,0,0,1,3.237,3.2,5.784,5.784,0,0,0,.831.863c1.423,1.087,5.139,5.563,7.257,8.728a74.926,74.926,0,0,1,4.971,8.432,54.683,54.683,0,0,1,2.446,5.435,65.19,65.19,0,0,1,4.284,18.982c.128,1.678.128,7.913,0,9.671a64.824,64.824,0,0,1-5.323,21.66,87.739,87.739,0,0,1-8.176,13.947,33.273,33.273,0,0,1-5.331,6.034,4.84,4.84,0,0,0-.839.823,25.855,25.855,0,0,1-3.109,3.037c-4.692,3.9-11.453,8.232-15.521,9.935-.543.224-1.71.719-2.59,1.087a43.335,43.335,0,0,1-11.07,3.5,54.374,54.374,0,0,1-12.828,1.535A58.217,58.217,0,0,1,72.2-83.169,41.462,41.462,0,0,1,62.164-86.15c-4.38-1.83-5.363-2.262-6.458-2.837A83.8,83.8,0,0,1,42.59-97.763a26.1,26.1,0,0,1-3.157-3.077,4.839,4.839,0,0,0-.839-.823,27.48,27.48,0,0,1-3.245-3.317A84.774,84.774,0,0,1,24.7-122.524a65.007,65.007,0,0,1-4.484-16.265,72.481,72.481,0,0,1-.04-18.183,64.577,64.577,0,0,1,9.008-25.3,59.2,59.2,0,0,1,9.767-12.516c.2-.176.655-.647,1.023-1.055A57.316,57.316,0,0,1,49.3-203.28a63.085,63.085,0,0,1,6.4-3.884c1.175-.6,4.963-2.158,7.673-3.165a57.421,57.421,0,0,1,18.982-4.02C83.767-214.4,89.738-214.325,90.865-214.238Z" transform="translate(-5.949 -5.939)" fill="red"/>
      <path id="path156" d="M114.185-210.738a2.172,2.172,0,0,0-.732.724,2.273,2.273,0,0,0,.008,1.407c.169.394.153.563-.056.619-.1.024-1.391.048-2.854.048h-2.677v.643h3.537v1.3a5.263,5.263,0,0,1-.1,1.5,1.059,1.059,0,0,1-1.431.354,1.234,1.234,0,0,1-.161-1.085.993.993,0,0,1,.756-.539c.273-.056.346-.2.257-.547-.048-.193-.064-.2-.555-.169a1.846,1.846,0,0,0-1.479.828,1.385,1.385,0,0,0-.161.9,1.37,1.37,0,0,0,.265.916,1.672,1.672,0,0,0,1.519.715,1.537,1.537,0,0,0,.724-.121c.322-.241.37-.161.37.563v.683h.949l.032-1.487.024-1.487.33-.322c.386-.394.74-.45,1.021-.169.145.137.177.265.177.635a1.5,1.5,0,0,1-.442,1.262c-.177.209-.305.41-.273.45a2.629,2.629,0,0,0,.74.474,4.814,4.814,0,0,0,.949-1.326,2.046,2.046,0,0,0,.08-1.519,2.3,2.3,0,0,0-.4-.563l-.3-.289h-.78a1.864,1.864,0,0,0-.965.129l-.177.121V-207.3h3.216v-.643h-.965a2.6,2.6,0,0,1-.965-.08c0-.048.217-.08.482-.08s.482-.024.482-.064-.072-.281-.161-.563a1.01,1.01,0,0,1-.056-.8.971.971,0,0,1,.933-.611c.281-.008.378.032.643.3a3.356,3.356,0,0,1,.788,1.584l.048.314h-.908v.8l.386.024.378.024-.145,1.688a8.913,8.913,0,0,0,.056,3.384c.113.161.2.193.523.193h.386l.048-.587c.024-.314.113-1.471.185-2.573l.145-1.986h.611v-.8h-.6l-.1-.474a3.92,3.92,0,0,0-1.584-2.452A4.633,4.633,0,0,0,114.185-210.738Z" transform="translate(-34.139 -7.248)" fill="red"/>
      <path id="path158" d="M95.281-208.6a2.443,2.443,0,0,0-.812.852,2.91,2.91,0,0,0-.032,1.777c.169.41.153.458-.145.458-.346,0-.458.121-.458.5v.306h.474a.978.978,0,0,1,.547.1,1.668,1.668,0,0,1,.137.547c.032.241.2,1.021.37,1.728s.362,1.535.426,1.849l.113.563.426.024c.748.04.8-.265.362-1.841a21.734,21.734,0,0,1-.675-2.95l-.056-.5h.225c.225,0,.233-.016.209-.346l-.024-.338-.394-.008c-.37-.008-.41-.024-.547-.281a1.2,1.2,0,0,1-.121-.74.863.863,0,0,1,.281-.724c.257-.257.273-.257.957-.241a12.214,12.214,0,0,1,1.576.185,7.448,7.448,0,0,1,2.315.764,12.289,12.289,0,0,1-1.833.322l-1.833.241-.024.466-.024.466.426-.056c.233-.024.627-.072.876-.1l.458-.056.129.587c.072.33.129.627.129.667s-.2.169-.442.281a1.632,1.632,0,0,0-.442.241,1.7,1.7,0,0,0,.579.788c.683.555,1.431.788,1.544.49a6.788,6.788,0,0,0-.121-2.2,8.755,8.755,0,0,1-.137-1c.016-.008.322-.056.683-.1.571-.064.659-.056.691.056.016.064.193,1.182.386,2.476l.354,2.347h1.214l-.41-2.653-.41-2.653h.225c.217,0,.225-.016.225-.4v-.4h-.627c-.523,0-.659-.024-.78-.153a8.661,8.661,0,0,0-2.339-1.109,4.929,4.929,0,0,0-2.163-.33C95.659-208.733,95.458-208.717,95.281-208.6Z" transform="translate(-29.693 -7.91)" fill="red"/>
      <path id="path160" d="M140.385-207.37a1.468,1.468,0,0,0-.145.595l-.016.386.595.072c.45.048.6.04.651-.032a2.151,2.151,0,0,0,.1-1.053,1.577,1.577,0,0,0-.563-.121C140.546-207.571,140.514-207.563,140.385-207.37Z" transform="translate(-44.348 -8.276)" fill="red"/>
      <path id="path162" d="M86.72-206.22l-.257.4,1.455.732c1.326.659,1.447.74,1.335.852a.908.908,0,0,1-.434.177c-.289.048-.305.072-.33.354-.032.37.088.539.378.539.547,0,.764.4,1.246,2.267a9.224,9.224,0,0,0,.8,2.388,1.325,1.325,0,0,0,.957-.056,18.784,18.784,0,0,0-.579-2.524c-.354-1.343-.643-2.492-.643-2.54s.088-.1.2-.1c.177,0,.2-.032.2-.273,0-.474-.056-.531-.515-.531-.394,0-.466-.04-1.929-1.045-.836-.579-1.544-1.045-1.568-1.045A1.97,1.97,0,0,0,86.72-206.22Z" transform="translate(-27.353 -8.566)" fill="red"/>
      <path id="path164" d="M131.274-205.026v.426l1.125.225a7.7,7.7,0,0,1,1.174.3,5.642,5.642,0,0,1-.305,1.56c-.048.056-.249-.1-.595-.466l-.515-.547-.346.1a2.873,2.873,0,0,0-.386.121c-.04.024,1.648,4.172,1.745,4.285a2.3,2.3,0,0,0,.925-.281c.056-.072-.064-.386-.41-1.077a8.062,8.062,0,0,1-.466-1c.016-.016.306-.193.643-.394l.619-.362.088.265c.129.4.346.547.868.6l.474.048-.193.884c-.314,1.463-.322,1.648-.08,1.905.265.281.571.3.74.032a5.293,5.293,0,0,0,.322-1.15c.1-.523.265-1.222.354-1.56a12.057,12.057,0,0,0,.273-1.326l.1-.715.378-.024.378-.024v-.836l-3.4-.707c-1.865-.386-3.417-.7-3.449-.7S131.274-205.259,131.274-205.026Zm4.446,1.31.707.048-.056.619a3.457,3.457,0,0,1-.145.812c-.1.233-.225.241-1.134.072l-.563-.1.121-.788c.1-.635.137-.78.241-.756A7.278,7.278,0,0,0,135.72-203.716Z" transform="translate(-41.533 -8.932)" fill="red"/>
      <path id="path166" d="M142.3-202.4a1.581,1.581,0,0,0-.024.394c.016.008.539.193,1.158.4s1.142.4,1.15.41a4.2,4.2,0,0,1-.281.8c-.193.49-.346.772-.426.772-.064,0-.265-.241-.45-.547-.257-.426-.37-.547-.547-.563-.394-.048-.474.1-.426.788a8.268,8.268,0,0,0,.531,2.01,12.8,12.8,0,0,1,.49,1.592.249.249,0,0,0,.113.225,2.45,2.45,0,0,0,1.053-.289,6.46,6.46,0,0,0-.442-1.174c-.265-.6-.482-1.109-.482-1.117a3.907,3.907,0,0,1,.563-.072c.756-.08.884-.209,1.174-1.166l.225-.748.354.048c.458.064.579-.04.579-.466v-.338l-2.042-.659c-1.125-.362-2.082-.659-2.13-.659S142.337-202.6,142.3-202.4Z" transform="translate(-45.005 -9.774)" fill="red"/>
      <path id="path168" d="M85.241-202.544c-1.744.619-5.579,2.187-5.965,2.444a.359.359,0,0,0,.169.675,10.4,10.4,0,0,0,1.335-.442c.643-.241,1.206-.442,1.262-.442.121,0,.225.314.129.4a5.623,5.623,0,0,1-.7.33c-.852.346-1.254.707-1.254,1.117s.273.732.844.973l.442.193v.426c0,.514.088.7.418.868a5.993,5.993,0,0,0,1.278.434,10.864,10.864,0,0,0,1.367-.924l1.238-.933.169.466a2.366,2.366,0,0,0,.2.458,4.17,4.17,0,0,1,.434-.064,2.293,2.293,0,0,0,.515-.121c.08-.056-.088-.595-.756-2.388-.482-1.278-.884-2.38-.9-2.452-.024-.088.04-.161.2-.217.241-.08.241-.088.169-.426C85.716-202.689,85.7-202.705,85.241-202.544Zm-.418,2.589c.249.683.458,1.286.458,1.351a5.171,5.171,0,0,1-1.093,1.5c-.539.45-1.391.514-1.511.113-.121-.362.362-.9.812-.9.249,0,.289-.121.145-.4-.177-.338-.265-.354-.772-.161-.667.257-1.1.338-1.278.241-.088-.048-.161-.121-.161-.161a4.536,4.536,0,0,1,.957-.563,7.008,7.008,0,0,0,1-.555,1.6,1.6,0,0,0-.072-.587c-.177-.764-.185-.74.426-.933.3-.088.563-.169.587-.169A9.586,9.586,0,0,1,84.823-199.956Z" transform="translate(-25.025 -9.814)" fill="red"/>
      <path id="path170" d="M72.017-199.869c-.257.273-.209.314,1.166.884.619.257,1.246.514,1.4.579l.273.113-.515.3c-.41.241-.523.346-.539.523-.048.378.113.482.643.426l.458-.056,1.134,2.259c.619,1.238,1.15,2.251,1.182,2.251a8.072,8.072,0,0,0,.86-.651,18.637,18.637,0,0,0-1.069-2.259l-1.125-2.211.273-.129.273-.129-.121-.305c-.193-.458-.241-.49-.7-.49-.362,0-.579-.088-1.68-.651a7.44,7.44,0,0,0-1.5-.651A.607.607,0,0,0,72.017-199.869Z" transform="translate(-22.745 -10.616)" fill="red"/>
      <path id="path172" d="M148.53-199.587c-.233.233-.249.281-.249.844a2.819,2.819,0,0,0,.08.764,1.03,1.03,0,0,0,.756.394c.273,0,.362-.378.153-.724-.161-.281-.1-.458.225-.619.386-.2.74.257.691.884-.064.748-.651,1.061-1.592.868-.37-.08-.45-.129-.555-.354a1.361,1.361,0,0,0-1-.667c-.482-.072-.539-.016-.386.418a.633.633,0,0,0,.675.515c.113,0,.153-.056.153-.217v-.217l.249.241.241.233-.225.04c-.209.04-.225.064-.225.442a2.726,2.726,0,0,0,1.431,2.163,2.194,2.194,0,0,0,1.278.209,2.206,2.206,0,0,1,.868.08,3.774,3.774,0,0,1-.281.587,2.364,2.364,0,0,0-.281.715c0,.281.249.482.659.523l.346.04,1.109-2.227c1.214-2.444,1.069-2.259,1.656-2.114.064.016.145-.113.209-.314l.1-.346L153.53-198a5.03,5.03,0,0,0-1.142-.506c-.563.683-.563.78,0,.868.362.056.37.1.153.732a2.231,2.231,0,0,1-1.954,1.648,1.683,1.683,0,0,1-1.6-.322,1.068,1.068,0,0,1-.305-.458c0-.145.072-.169.667-.209.884-.072,1.246-.185,1.56-.5.265-.265.265-.273.265-1.037,0-.908-.1-1.19-.523-1.568a1.781,1.781,0,0,0-1.359-.49C148.819-199.836,148.755-199.812,148.53-199.587Z" transform="translate(-46.377 -10.689)" fill="red"/>
      <path id="path174" d="M67.5-197.578c-.088.209-.145.41-.113.434s.675.257,1.423.506,1.415.49,1.479.531-.434.354-1.471.924c-.868.474-1.656.924-1.744,1l-.169.137.169.338.169.33.37-.153c.2-.088.378-.161.394-.161a4.619,4.619,0,0,1,.362.643,2.723,2.723,0,0,0,2.074,1.736l.33.048-.474.651a2.388,2.388,0,0,0-.434.715,1.119,1.119,0,0,0,.74.289c.177-.016.281-.145.571-.627a9.156,9.156,0,0,1,1.093-1.745c.048-.016.233.281.426.659l.338.683.418-.169c.233-.1.474-.185.531-.209a.16.16,0,0,0,.1-.121c0-.04-.547-1.109-1.214-2.372-1.222-2.307-1.27-2.428-.892-2.436.129,0,.121-.1-.04-.442-.129-.265-.161-.281-.506-.281a5.15,5.15,0,0,1-2.171-.707,13.006,13.006,0,0,0-1.335-.547C67.68-197.964,67.656-197.948,67.5-197.578ZM71-194.491a3.023,3.023,0,0,1,.539,1.616,1.176,1.176,0,0,1-.691.667c-.458.1-.941-.346-1.439-1.326-.4-.8-.418-.74.378-1.2a3.679,3.679,0,0,1,.788-.378A2.639,2.639,0,0,1,71-194.491Z" transform="translate(-21.167 -11.41)" fill="red"/>
      <path id="path176" d="M157.506-195.678c-.137.338-.121.362.346.675l.193.121-.145.362c-.08.193-.458.933-.844,1.64-1.27,2.307-1.367,2.548-1.093,2.774a1.211,1.211,0,0,0,.506.137l.378.04,1.077-2.082c.587-1.142,1.1-2.106,1.142-2.146s.177-.04.354.008l.289.088.169-.354c.1-.193.161-.362.137-.386-.088-.08-2.227-1.174-2.3-1.174C157.667-195.975,157.57-195.838,157.506-195.678Z" transform="translate(-49.295 -12.029)" fill="red"/>
      <path id="path178" d="M89.124-194.631a61.262,61.262,0,0,0-7.182.958,53.386,53.386,0,0,0-38.9,32.511A53.387,53.387,0,0,0,39.511-146.6a85.58,85.58,0,0,0-.04,9.377,54.141,54.141,0,0,0,1.468,8.579A53.252,53.252,0,0,0,61.568-98.549a52.909,52.909,0,0,0,24.284,9.48,39.926,39.926,0,0,0,6.464.327,39.926,39.926,0,0,0,6.464-.327,53.018,53.018,0,0,0,17.4-5.3,53.675,53.675,0,0,0,23.462-23.462,53.231,53.231,0,0,0,5.482-18.993,79.257,79.257,0,0,0,0-9.736,53.168,53.168,0,0,0-3.527-14.6,53.512,53.512,0,0,0-29.806-29.806A53.259,53.259,0,0,0,97.3-194.487C96.163-194.607,90.305-194.711,89.124-194.631Zm7.174.67a52.072,52.072,0,0,1,18.482,4.988,49.739,49.739,0,0,1,14.444,10.287,49.548,49.548,0,0,1,9.824,13.415,54.571,54.571,0,0,1,5.474,18.235c.144,1.3.144,9.1,0,10.454a55.154,55.154,0,0,1-4.365,16.208,62.452,62.452,0,0,1-6.217,10.422A51.34,51.34,0,0,1,115.579-94.8,52.5,52.5,0,0,1,96.306-89.42c-1.716.1-6.743.1-8.22,0A53.25,53.25,0,0,1,80.3-90.7c-1.444-.343-6.464-1.987-8.052-2.633a54.543,54.543,0,0,1-11.093-6.3,58,58,0,0,1-11.747-12.09,58.361,58.361,0,0,1-5.02-8.858,57.713,57.713,0,0,1-4.277-15.681c-.144-1.389-.144-9.385,0-10.733a56.335,56.335,0,0,1,3.408-13.726,54.694,54.694,0,0,1,6.879-12.29,60.665,60.665,0,0,1,10.191-10.3,53.37,53.37,0,0,1,12.018-6.879,52.678,52.678,0,0,1,15.083-3.759C89.2-194.048,94.726-194.048,96.3-193.961Z" transform="translate(-12.316 -12.309)" fill="red"/>
      <path id="path180" d="M94.457-188.42c-.215.008-1.459.08-2.751.144s-2.6.144-2.9.168l-.542.048-.183.415a9.213,9.213,0,0,0-.351,1.085,7.248,7.248,0,0,1-.774,2.225c-.239.287-.694.439-1.707.566a36.746,36.746,0,0,0-4.937,1.308c-1.292.375-2.432.686-2.528.686a4.7,4.7,0,0,1-1.2-.925c-.558-.51-1.172-1.029-1.356-1.156-.638-.447-1.236-.3-3.366.813a49.182,49.182,0,0,0-6.245,3.924c-.279.255-.3.3-.263.622.024.191.072.925.12,1.627s.1,1.515.128,1.81l.048.534-.391.415c-.207.231-1.021.973-1.81,1.651a20.972,20.972,0,0,0-2.273,2.241,27.637,27.637,0,0,1-2.3,2.552c-.215.144-.247.144-2.289-.12l-2.074-.263-.144.167c-.183.215-2.632,4.315-3.445,5.766a16.263,16.263,0,0,0-1.555,3.174c0,.319.191.558,1.491,1.914.853.885,1.14,1.228,1.14,1.38,0,.112-.391,1.6-.869,3.286a38.966,38.966,0,0,0-1.284,5.024c-.207,1.491-.439,1.842-1.475,2.209-1.938.686-2.672,1-2.712,1.18-.016.1-.112.877-.2,1.739a17.434,17.434,0,0,0-.088,3.629A34.6,34.6,0,0,0,45.7-134.5c.112.638.407.941,1.252,1.3a9.678,9.678,0,0,0,2.4.63h.287l.375,1.491c.63,2.48,1.635,6.037,1.938,6.811a2.344,2.344,0,0,1,.183,1.723c-.056.12-.463.813-.909,1.539-1.164,1.906-1.1,1.77-1.037,2.1.223,1.172,3.868,7.074,5.1,8.262l.287.279,1.81-.407a6.572,6.572,0,0,1,1.978-.319c.088.04,1.077,1,2.193,2.129s2.759,2.688,3.645,3.469a15.308,15.308,0,0,1,1.619,1.531,7.5,7.5,0,0,1-.861,1.755c-.71,1.276-.766,1.531-.447,1.866,1.061,1.124,6.875,4.618,7.9,4.753.431.056.885-.191,2.536-1.372.7-.5,1.3-.917,1.324-.917a5.745,5.745,0,0,1,.558.191A41.881,41.881,0,0,0,86-95.566h.335l.144.463a9,9,0,0,0,1.866,3.4c.837.415,5.312.734,7.593.534a11.858,11.858,0,0,0,2.791-.447c.183-.1.391-.439,1.021-1.739.439-.885.845-1.739.893-1.9l.1-.287.845-.048a26.932,26.932,0,0,0,4.434-.813c.3-.1,1.268-.51,2.129-.909a13.41,13.41,0,0,1,1.763-.726,5.915,5.915,0,0,1,1.22.654c2.209,1.4,2.68,1.659,2.959,1.659a16.007,16.007,0,0,0,3.573-1.675,19.749,19.749,0,0,0,3.709-2.472c.678-.542,1.372-1.069,1.539-1.18s.3-.223.3-.263-.3-.566-.678-1.188a10.715,10.715,0,0,1-.678-1.22c0-.048,1.627-1.715,3.613-3.7l3.6-3.6.4.08c.223.04.869.2,1.436.359a10.3,10.3,0,0,0,1.523.327l.487.048.439-.55c.654-.813,2.257-3.158,4.227-6.165,1.34-2.042,1.739-2.7,1.683-2.807-.032-.072-.582-.718-1.212-1.42-1.3-1.451-1.683-1.954-1.683-2.209,0-.1.359-1.292.8-2.664a51.652,51.652,0,0,0,1.731-6.3l.144-.853,1.938-1.292a8.964,8.964,0,0,0,1.9-1.4,13.657,13.657,0,0,1,.08-1.531,23.658,23.658,0,0,0,.08-3.054c-.056-1.866-.319-5.351-.407-5.5a9.217,9.217,0,0,0-2.193-.973c-1.842-.7-1.962-.813-2.193-1.914-.367-1.731-1.117-4.546-1.467-5.5a15.6,15.6,0,0,1-.518-1.675c-.112-.534-.112-.6.024-.9a10.046,10.046,0,0,1,.869-1.228c.869-1.093,1.212-1.7,1.212-2.145,0-.614-1.691-3.669-3.709-6.715-.534-.813-1.117-1.643-1.284-1.85-.3-.367-.327-.383-.71-.383a7.027,7.027,0,0,0-1.228.2,10.67,10.67,0,0,1-1.635.247l-.805.048-2.09-1.954c-2.345-2.193-4.331-4-4.69-4.267l-.247-.175.191-2.161.191-2.161-.231-.239a38.752,38.752,0,0,0-5.966-3.661,10.406,10.406,0,0,0-2.807-1.188c-.327,0-.885.359-2.058,1.308-1.332,1.085-1.372,1.1-2.161,1a18.815,18.815,0,0,1-3.342-.885,16.375,16.375,0,0,0-3.828-.869c-1.085-.1-1.38-.207-1.611-.526-.088-.128-.526-.949-.973-1.826s-.861-1.667-.925-1.755c-.1-.128-.287-.167-1.22-.247A17.25,17.25,0,0,0,94.457-188.42Zm1.4,8.717a31.418,31.418,0,0,1,7.537,1.244,42.764,42.764,0,0,1,17.873,10.918c5.647,5.622,10.607,14.028,12.3,20.815a24.04,24.04,0,0,1,.79,6.7c.1,6.045-.383,9.913-1.779,14.116a39.565,39.565,0,0,1-3.477,7.728,43.118,43.118,0,0,1-5.814,6.787,32.127,32.127,0,0,1-3.732,3.222c-.136.08-.183.064-.279-.088-.08-.136-6-9.953-6.237-10.36-.016-.032.941-.981,2.129-2.113s2.217-2.177,2.281-2.3.654-1.045,1.3-2.034a21.293,21.293,0,0,0,2.5-4.705,29.505,29.505,0,0,0,1.794-11.771,17.721,17.721,0,0,0-.255-3.5c-.766-4.362-2.584-8.366-5.934-13.079a19.547,19.547,0,0,0-2.488-2.839,26.018,26.018,0,0,0-5.575-4.546,19.4,19.4,0,0,0-4.378-2.257c-.933-.375-1.834-.758-2.01-.845a3.108,3.108,0,0,0-.813-.231c-.279-.04-1.1-.223-1.834-.407l-1.324-.327-4.378.024c-4.363.032-4.37.032-5.455.247a25.187,25.187,0,0,0-6.372,2.185,27.433,27.433,0,0,0-8.031,5.63c-4.051,4.2-6.269,8.19-7.058,12.7a36.332,36.332,0,0,0-.144,6.252,31.009,31.009,0,0,0,3.094,9.7,50.893,50.893,0,0,0,3.677,5.264,13.038,13.038,0,0,0,3.533,3.326c.056.024-7.864,15.559-8.039,15.767a47.9,47.9,0,0,1-4.825-4.49,65.474,65.474,0,0,1-5.742-8.182,46.173,46.173,0,0,1-4.331-12.585,32.238,32.238,0,0,1-.343-6.675,35.172,35.172,0,0,1,.207-4.227,41.681,41.681,0,0,1,3.094-10.726,26.6,26.6,0,0,1,2.44-5,47.753,47.753,0,0,1,10.145-11.149,44.649,44.649,0,0,1,8.733-5.072,55.185,55.185,0,0,1,5.91-1.986A33.47,33.47,0,0,1,95.853-179.7Zm.3,11.484a23.574,23.574,0,0,1,12.107,3.98,29.962,29.962,0,0,1,8.534,8.581,31.441,31.441,0,0,1,3.453,6.579c1.14,3.078,1.436,5.112,1.348,9.411a26.612,26.612,0,0,1-.5,5.343,25.289,25.289,0,0,1-3.142,7.967,32.456,32.456,0,0,1-5.056,5.925c-.383.319-.486.375-.566.287-.056-.056-1.42-2.3-3.031-4.984l-2.935-4.881.319-.542a20.95,20.95,0,0,0,2.616-7.76,30.3,30.3,0,0,0,.088-5.8,19.608,19.608,0,0,0-3.94-8.047,15.546,15.546,0,0,0-7.313-4.57,13.881,13.881,0,0,0-4.043-.407,15.73,15.73,0,0,0-4.562.478,14.2,14.2,0,0,0-4.355,1.866,15.245,15.245,0,0,0-4.785,5.67,9.446,9.446,0,0,0-1.037,5.2,9.443,9.443,0,0,0,1.547,6.045,8.233,8.233,0,0,0,1.467,2.042,6.708,6.708,0,0,1,.734.861c0,.048-1.117,2.2-2.48,4.793l-2.48,4.705-.239-.144a27.9,27.9,0,0,1-4.466-4.482,30.094,30.094,0,0,1-4.57-10,19.7,19.7,0,0,1-.04-9.73c1.635-6.34,6.835-12.449,13.478-15.831C86.57-167.836,90.374-168.538,96.148-168.219Zm.423,12.569c6.013,1.029,11.086,6.755,11.556,13.039a23.223,23.223,0,0,1-2.121,10.36l-.351.758-.263-.311a36.462,36.462,0,0,1-2.409-3.884c-.638-1.117-1.467-2.552-1.842-3.2-.766-1.316-.718-1.093-.622-2.935a4.473,4.473,0,0,0-.407-2.528,10.069,10.069,0,0,0-2.943-3.517,10.587,10.587,0,0,0-2.4-1.252l-.247-.048-.048-.694a9.7,9.7,0,0,0-1.93-4.61c-.455-.486-.638-.518-.5-.088a7.457,7.457,0,0,1-.048,2.4c-.072.351-.255,1.125-.415,1.715l-.3,1.085-.534.136a10.445,10.445,0,0,0-2.759,1.324,5.531,5.531,0,0,0-1.467,1.26,3.188,3.188,0,0,0,.463.582l.455.5.845-.678a10.434,10.434,0,0,1,1.212-.845c.423-.207.933-.3.933-.183,0,.04-.152.447-.335.9l-.343.829-.024,1.691a6.922,6.922,0,0,0,.144,2.313c.1.343.2.774.231.957l.064.335-2.121.024c-1.164.016-2.177.056-2.241.088a15.2,15.2,0,0,0-1.037,1.85,16.326,16.326,0,0,1-.989,1.794A5.533,5.533,0,0,1,82.5-137.89a11.691,11.691,0,0,1-1.794-4.984,11.373,11.373,0,0,1,0-1.651,11.452,11.452,0,0,1,3.086-7.2,13.668,13.668,0,0,1,9.467-4.083A21.267,21.267,0,0,1,96.571-155.651Zm-3.094,5.272a7.972,7.972,0,0,1,.175,2.217l.008,1.515-.311.877a34.461,34.461,0,0,1-2.042,4.825.449.449,0,0,1-.183-.144c-.622-.686-.8-3.15-.343-4.737a21.632,21.632,0,0,1,.877-2.153,14.45,14.45,0,0,0,1.212-3.413l.056-.423.191.367A6.61,6.61,0,0,1,93.476-150.379Zm1.794,2.959a9.245,9.245,0,0,1,3.637,3.868,5.072,5.072,0,0,1,.2,1.786l.032,1.372-3.342-.048c-1.834-.024-3.35-.056-3.366-.072s2.2-6.938,2.281-7.074C94.76-147.675,94.824-147.66,95.271-147.42Zm7.226,13.079c1.26,2.281,2.289,4.171,2.289,4.2a12.819,12.819,0,0,1-1.866,2.5,19.588,19.588,0,0,1-11.094,5.527,25.935,25.935,0,0,1-6.293,0A16.325,16.325,0,0,1,81.84-123.3a15.525,15.525,0,0,1-2.257-1.18c0-.016,1.069-2.121,2.369-4.665,1.858-3.629,2.393-4.61,2.488-4.578.072.032.622.359,1.228.734a9.8,9.8,0,0,0,2.879,1.324,7.075,7.075,0,0,0,2.241.167A6.933,6.933,0,0,0,93-131.677a11.313,11.313,0,0,0,3.7-1.794,8.126,8.126,0,0,0,3.19-4.586c.04-.311.088-.415.183-.415A36.954,36.954,0,0,1,102.5-134.341Zm-15.759-2.887a15.079,15.079,0,0,0,2.935,1.356,8.155,8.155,0,0,0,2.919.255l2.209.024.622-.215a8.043,8.043,0,0,0,1.029-.415,5.618,5.618,0,0,0,1.428-1.069c.072-.1.144-.152.168-.128a14.783,14.783,0,0,1-1.444,2.161,8.315,8.315,0,0,1-3.541,2.1,5.269,5.269,0,0,1-2.233.223,5.93,5.93,0,0,1-4.355-1.276,10.214,10.214,0,0,0-1.109-.678l-.359-.16.622-1.228c.335-.678.622-1.236.63-1.236S86.482-137.388,86.737-137.228Zm20.186,10.8c.654,1.164,2.9,5.088,4.977,8.733,6.508,11.38,8.837,15.559,8.837,15.878s-.837.957-2.616,1.978c-1.531.877-3.884,2.121-4.012,2.121a13.359,13.359,0,0,1-1.467-.957,9.861,9.861,0,0,0-2.464-1.515c-.088,0-1.212.447-2.512,1s-2.7,1.077-3.118,1.188c-1.029.271-2.919.646-4.227.837a4.559,4.559,0,0,0-1.093.223c-.016.032-.375.885-.806,1.9l-.782,1.834-1.228.175c-.678.1-1.507.175-1.834.183-.734,0-4.785-.311-4.929-.383a16.835,16.835,0,0,1-.965-1.89l-.853-1.834-.319-.048c-.167-.032-.6-.1-.949-.144A28.534,28.534,0,0,1,81.7-98.517a24.3,24.3,0,0,0-4.721-1.332L76.4-99.9l-.463.439a11.152,11.152,0,0,1-2.448,1.9,2.875,2.875,0,0,1-1.763-.526,40.957,40.957,0,0,1-4.259-3.086c-.008-.064,11.221-21.748,11.325-21.86s.686.112,2.241.821a23.049,23.049,0,0,0,3.589,1.38,14.031,14.031,0,0,0,3.589.2,18.674,18.674,0,0,0,5.623-.423,25.955,25.955,0,0,0,4.123-1.356,24.524,24.524,0,0,0,3.916-2.385,15.41,15.41,0,0,0,1.38-1.292c.391-.431,1.077-1.188,1.531-1.683a3.826,3.826,0,0,1,.885-.837C105.7-128.575,106.269-127.594,106.923-126.43Z" transform="translate(-14.178 -14.251)" fill="red"/>
      <path id="path182" d="M115.1-83.284a10.389,10.389,0,0,1-2.05.531,1.7,1.7,0,0,0-1.423.764,10.205,10.205,0,0,0-1.865,3.778,7.227,7.227,0,0,0-.008,3.344,3.119,3.119,0,0,0,.973,1.527c.233.161.378.185,1.029.185a1.932,1.932,0,0,0,1.672-.579,1.239,1.239,0,0,0,.257-1.117c-.072-.86-.426-1.093-.989-.667-.249.193-.273.249-.273.627,0,.514-.137.715-.474.715a.668.668,0,0,1-.506-.249.869.869,0,0,1-.289-.724,3.65,3.65,0,0,1,.86-2.54c.33-.322.6-.3.908.064a.884.884,0,0,0,.33.289,1.173,1.173,0,0,0,.394-.2,2.1,2.1,0,0,1,.33-.2c.024,0,.064.1.1.217.177.732.941.643,1.166-.145a6.87,6.87,0,0,0,.08-1.254c0-.973,0-.989-.185-.989a.6.6,0,0,0-.579.514c-.064.305-.322.772-.434.772a5.682,5.682,0,0,1,.322-1.23c.217-.667.394-1.246.394-1.286a.978.978,0,0,0-.458-.056,1.273,1.273,0,0,0-.748.177,2.721,2.721,0,0,1-.555.233l-.265.056.225-.241a2.216,2.216,0,0,1,1.616-.659,1.546,1.546,0,0,1,.667.08,1.462,1.462,0,0,1,.153.547,1.407,1.407,0,0,0,.209.611c.153.161.153.209.016,1.712-.08.852-.137,1.6-.137,1.672a1.423,1.423,0,0,0,.33.506c.289.322.305.378.177.418-.314.1-.386.177-.41.458a.891.891,0,0,0,.563.924c.5.233.884.281,1.069.145.145-.1.161-.225.169-1.23,0-.611.032-2.243.072-3.626l.064-2.508-.177-.193c-.145-.153-.161-.225-.1-.394a.708.708,0,0,1,.161-.257c.161-.1.1-.667-.088-.844C117.108-83.863,116.69-83.807,115.1-83.284Z" transform="translate(-34.666 -47.548)" fill="red"/>
      <path id="path184" d="M121.878-81.227c-.2.2-.2.225-.169,1.021a21.173,21.173,0,0,1-.064,2.146,18.541,18.541,0,0,0-.088,4.43c.137.458.5.949.611.828a61.6,61.6,0,0,0,.281-8.216C122.384-81.508,122.224-81.572,121.878-81.227Z" transform="translate(-38.414 -48.272)" fill="red"/>
      <path id="path186" d="M93.483-78.428c-.876.193-1.125.338-1.367.812-.072.129-.338.539-.595.9a6.788,6.788,0,0,0-1.2,2.05c0,.185.137.346.756.876a5.348,5.348,0,0,1,.965,1.029,2.054,2.054,0,0,0,1.013,1.037c.354.177.458.273.531.5.1.314.145.289-.707.434-.3.056-.305.064-.305.41a2.6,2.6,0,0,0,.949,1.7l.426.346h1.656l.257.362c.45.627.531.514.611-.884.08-1.326.032-1.246.724-1.246,1.1,0,2.13-.466,2.13-.965,0-.193-.064-.273-.338-.426a4.385,4.385,0,0,0-.788-.338c-.241-.08-.466-.161-.506-.177s.064-.185.225-.37a.867.867,0,0,0,.281-.707c0-.314.032-.394.161-.434a1.634,1.634,0,0,0,.4-.257c.233-.193.241-.225.241-.876a2,2,0,0,0-.281-1.238,7.066,7.066,0,0,1-.418-1.061,3.064,3.064,0,0,0-.209-.611.983.983,0,0,0-.539-.1.944.944,0,0,1-.868-.362A3.119,3.119,0,0,0,96-78.5,5.5,5.5,0,0,0,93.483-78.428ZM93.13-77.19c-.113.748-.4,1.2-.8,1.238-.145.016-.225-.032-.305-.193-.088-.193-.088-.265.056-.579a1.681,1.681,0,0,1,.973-.852C93.178-77.576,93.186-77.52,93.13-77.19Zm3.529.233a2.791,2.791,0,0,1,.241.989l.032.523-.217-.2c-.458-.426-.868-1.431-.667-1.664S96.442-77.423,96.659-76.957Zm-2.3.1a1.027,1.027,0,0,1,.1.346c.056.289.048.305-.153.305a1,1,0,0,0-.563.322c-.346.322-.354.322-.531.177s-.177-.153-.048-.458a1.466,1.466,0,0,1,.651-.764A.6.6,0,0,1,94.36-76.86Zm3.971,1.278a5.261,5.261,0,0,1,.394,1.061c-.048.08-.418-.016-.659-.169a1.822,1.822,0,0,1-.587-1.214c-.08-.547-.008-.732.265-.691C97.865-76.579,98.009-76.322,98.331-75.582Zm-6.174.571c.257.121.273.145.233.474a1.041,1.041,0,0,1-.161.474c-.241.249-1.15-.338-1.2-.78C90.983-75.237,91.522-75.317,92.157-75.011Zm5.4,1.174c0,.547-.016.619-.241.868a5.36,5.36,0,0,1-2.782,1.045l-.33.04.064-.3c.088-.4.346-.595,1.166-.844a2.118,2.118,0,0,0,1.383-1,1.045,1.045,0,0,1,.442-.322c.145-.04.265-.08.281-.08A5.64,5.64,0,0,1,97.559-73.838Z" transform="translate(-28.582 -49.176)" fill="red"/>
      <path id="path188" d="M134.543-77.129a.942.942,0,0,1-.724.2,3.012,3.012,0,0,0-1.72.6c-.217.2-.217.2-.772.088a2.739,2.739,0,0,0-.579-.088,3.172,3.172,0,0,0-.177,1.093,1.794,1.794,0,0,0,.683,1.359c.531.571.555.908.08,1.367-.305.3-.362.595-.137.715a13.21,13.21,0,0,0,2.195.458l.531.048.4,1.061c.362.949.418,1.053.595,1.053.209,0,.249-.145.354-1.351l.056-.619.45-.314a2.331,2.331,0,0,1,1.7-.595c.82-.016.973-.1.973-.531,0-.241-.064-.354-.322-.611-.378-.362-.37-.418.088-1.125a2.53,2.53,0,0,0,.555-1.527v-.442h-.394c-.563,0-.8-.1-.828-.378l-.024-.225-1.117-.024c-1.045-.016-1.142-.032-1.375-.217l-.257-.185Zm-.667,1.31a4.447,4.447,0,0,1,.153.8c.088.651.016.9-.241.9s-.555-1.608-.33-1.881C133.587-76.156,133.78-76.076,133.876-75.818Z" transform="translate(-41.315 -49.577)" fill="red"/>
      <path id="path190" d="M161.98-193.5c-.072.338.2.619,1.222,1.23a9.012,9.012,0,0,1,1.978,1.367c.121.185.121.209-.1.49a2.2,2.2,0,0,0-.257.378,8.284,8.284,0,0,1-1.584-.772c-.86-.466-1.608-.852-1.664-.852a4.317,4.317,0,0,0-.024,1.937c.169.506.241.523.691.121a1.856,1.856,0,0,1,.5-.37,9.251,9.251,0,0,1,1.27.74c.064.056-.121.434-.7,1.391l-.788,1.31.426.289.434.289,1.423-2.1,1.431-2.09.306.048c.6.1.74-.33.249-.772a23.111,23.111,0,0,0-4.639-2.886C162.085-193.752,162.012-193.639,161.98-193.5Z" transform="translate(-51.076 -12.734)" fill="red"/>
      <path id="path192" d="M55.762-185.5c-1.23,1.061-2.251,1.954-2.259,1.986s.1.209.241.378l.273.314.659-.5c.635-.482.667-.5.933-.41.354.121.764.5.764.715a1.781,1.781,0,0,1-.442.957l-.225.265.193.209a1.867,1.867,0,0,0,1.527.507,1.953,1.953,0,0,0,1.1-.209,2.566,2.566,0,0,0,1.077-1.093c.056-.121.129-.225.153-.225a2.7,2.7,0,0,1,.466.45l.41.45.305-.241c.707-.563.812-.33-1.109-2.468l-1.712-1.905.185-.241.177-.233-.225-.322a2.585,2.585,0,0,0-.233-.314C58.013-187.434,56.992-186.566,55.762-185.5Zm2.026.418c.933,1.013,1.158,1.351,1.158,1.761a1.288,1.288,0,0,1-1.318,1.23l-.33.008.032-.732c.032-.868-.048-1.069-.611-1.552l-.386-.322.442-.45a3.24,3.24,0,0,1,.49-.442A3.562,3.562,0,0,1,57.788-185.087Z" transform="translate(-16.928 -14.732)" fill="red"/>
      <path id="path194" d="M176.364-184.707a2.7,2.7,0,0,0-.442.37,3.115,3.115,0,0,1-.426.378c-.217.153-.217.153-.49-.008l-.273-.169-.241.3-.241.306.265.314.265.322-1.793,1.849-1.793,1.849.362.426a1.764,1.764,0,0,0,.426.41c.024-.016.86-.86,1.849-1.889l1.793-1.865.2.161c.209.161.233.161.635-.193l.177-.153-.249-.314c-.225-.281-.241-.33-.153-.539a1.635,1.635,0,0,1,.338-.466c.217-.209.3-.233.756-.233s.539.032.764.241c.4.386.523.643,1.029,2.138a6.276,6.276,0,0,0,1.093,2.4l.209.193v-.434a9.165,9.165,0,0,0-.113-1.093c-.386-2.187-1.326-3.875-2.412-4.325A2.223,2.223,0,0,0,176.364-184.707Z" transform="translate(-54.173 -15.546)" fill="red"/>
      <path id="path196" d="M46.393-180.991a2.707,2.707,0,0,0-1,1.037,2.246,2.246,0,0,0-.016,1.648,1.545,1.545,0,0,0,.748.587c.33.177.6.322.611.33s-.523.659-1.182,1.455-1.206,1.455-1.206,1.479a1.991,1.991,0,0,0,.265.354l.257.314,1.407-1.608,1.4-1.608.305.249.305.241-.265.338c-1.616,2.122-1.5,1.937-1.5,2.4,0,.394.032.474.37.884.418.506.378.49,1.592.619a4.3,4.3,0,0,0,1.954-.1.82.82,0,0,0,.1-.466v-.386l-1.142-.032c-1.2-.032-1.463-.1-1.785-.458-.145-.161-.145-.169.024-.506a6.5,6.5,0,0,1,1.238-1.511l.225-.177.217.193c.121.1.619.555,1.1.989s.957.868,1.053.949c.169.137.177.129.539-.289l.37-.434-1.954-1.688-1.962-1.688.185-.233.185-.233-.33-.386-.33-.394-.121.265a.762.762,0,0,1-.884.426c-.7-.113-1.021-.5-.949-1.142.1-.908.957-1.077,2.347-.458l.466.2-.153.185c-.08.1-.233.273-.338.386l-.185.209.3.249.3.249.314-.241a3.46,3.46,0,0,0,.354-.322c.024-.048.177.072.338.265a39.011,39.011,0,0,0,2.878,2.886c.515.394.748.4,1.037.032a.849.849,0,0,0,.185-.362c-.016-.04-.8-.884-1.769-1.873l-1.736-1.793.193-.249.193-.249-.3-.249-.3-.241-.265.2c-.241.185-.281.193-.482.08-.129-.056-.458-.185-.74-.281A4.922,4.922,0,0,0,46.393-180.991Z" transform="translate(-14.032 -16.73)" fill="red"/>
      <path id="path198" d="M177.958-180.77l-.217.225,1.278,1.359,1.278,1.359-.209.257a1.034,1.034,0,0,1-.273.265,3.34,3.34,0,0,1-.643-.547c-.82-.772-1.142-.973-1.56-.973a1.306,1.306,0,0,0-1.029.41,1.561,1.561,0,0,0-.595,1.471,2.657,2.657,0,0,0,.82,1.769l.442.539-.161.418c-.1.233-.185.458-.2.5s.137.257.354.466c.458.45.49.434.7-.37.129-.474.169-.539.338-.539a1.169,1.169,0,0,0,.82-.386,1.16,1.16,0,0,0-.072-1.061,1,1,0,0,0-1.1,0c-.185.145-.233.153-.378.056a1.811,1.811,0,0,1-.547-1.254.95.95,0,0,1,.5-.949c.3-.145.531,0,1.5.957l.908.884.563-.5a7.618,7.618,0,0,0,.611-.571c.024-.04.225.088.45.281l.41.362.273-.209.273-.209-.265-.273c-.145-.153-1.117-1.109-2.163-2.122l-1.9-1.833Z" transform="translate(-55.677 -16.773)" fill="red"/>
      <path id="path200" d="M185.234-173.69l-.257.265,1.5,1.736,1.5,1.745.233-.169a.724.724,0,0,0,.233-.241c0-.064-2.444-3.071-2.806-3.465C185.5-173.947,185.483-173.947,185.234-173.69Z" transform="translate(-58.51 -19.009)" fill="red"/>
      <path id="path202" d="M42.021-169.756c-.587.78-1.736,2.484-2.018,2.966-.241.426-.217.531.217.707.233.1.257.088.378-.088.072-.1.45-.659.836-1.222l.707-1.037.249.145a4.294,4.294,0,0,1,.571.434c.257.217.322.338.322.547,0,.434-.241.6-.949.635l-.6.032v.949H43c.691,0,1.785-.056,2.428-.121s1.19-.121,1.23-.121.056-.2.056-.442v-.442h-.338c-.193,0-.772.04-1.3.088a6.362,6.362,0,0,1-.989.04.636.636,0,0,1,.088-.281,1.817,1.817,0,0,0,.129-.764c0-.482-.016-.531-.257-.732a6.96,6.96,0,0,0-.651-.45c-.49-.3-.579-.506-.354-.868l.161-.273-.193-.145C42.656-170.471,42.5-170.4,42.021-169.756Z" transform="translate(-12.608 -20.135)" fill="red"/>
      <path id="path204" d="M182.373-170.253a2.176,2.176,0,0,0-.788.828c-.153.281-.177.45-.177,1.3,0,.868.016,1,.169,1.206s.233.225.627.249a1.538,1.538,0,0,0,.45-.008c0-.016-.072-.305-.161-.643-.241-.965-.048-1.8.466-1.994a1.051,1.051,0,0,1,1.439.828l.04.362-.386.064c-.217.032-.418.072-.442.08a1.516,1.516,0,0,0,.04.523c.08.474.088.49.289.45.113-.024.442-.072.74-.1a1.193,1.193,0,0,1,.86.113l.322.169.249-.3c.129-.161.233-.33.217-.37a1.862,1.862,0,0,0-.563-.265l-.539-.2v-.458a2.028,2.028,0,0,0-.153-.772,2.417,2.417,0,0,0-1.2-1.069A3.145,3.145,0,0,0,182.373-170.253Z" transform="translate(-57.387 -20.135)" fill="red"/>
      <path id="path206" d="M188.566-167.712c-.193.088-.346.185-.346.225s.627,1.037,1.391,2.227,1.415,2.2,1.447,2.259-.113.209-.4.41l-.458.314-.506-.37c-.466-.338-.506-.394-.506-.675a4.327,4.327,0,0,0-.458-1.5,1.534,1.534,0,0,0-1.519-.892,1.758,1.758,0,0,0-1.761,1.359,6.615,6.615,0,0,0-.072,2.09c.048.241.064.249.474.249h.418l.04-.876c.064-1.351.33-1.736,1.133-1.672a.823.823,0,0,1,.828.691c.024.161.064.386.08.506.04.217.032.225-.265.225-.41,0-.506.113-.506.579v.386h.563c.8,0,1.359.129,1.31.305a9.213,9.213,0,0,1-1.278,1.021,12.418,12.418,0,0,0-1.238.941,2.807,2.807,0,0,0,.249.466l.241.394.3-.193c.161-.1,1.142-.732,2.179-1.4l1.881-1.2.249.185c.241.185.257.185.434.04.1-.08.177-.177.177-.217,0-.113-3.585-6.005-3.666-6.021A1.507,1.507,0,0,0,188.566-167.712Z" transform="translate(-58.635 -20.932)" fill="red"/>
      <path id="path208" d="M38.635-163.723a16.978,16.978,0,0,0-1.125,2.082.992.992,0,0,0,.33.161c.281.088.3.088.539-.209l.249-.3,2.251,1.214c1.238.667,2.275,1.214,2.307,1.214.1,0,.394-.651.37-.828s-.812-.683-3.184-2.018l-1.125-.627.113-.322c.1-.3.1-.314-.072-.378C38.8-163.908,38.756-163.908,38.635-163.723Z" transform="translate(-11.736 -22.186)" fill="red"/>
      <path id="path210" d="M193.743-162.742a.9.9,0,0,0-.49,1.367c.185.322.281.305.635-.072a.842.842,0,0,1,1.407-.04.738.738,0,0,1,.3.627,2.311,2.311,0,0,1-.595,1.367c-.426.547-.6.651-.7.4-.04-.1-.113-.281-.153-.4-.08-.2-.1-.209-.41-.113a1.455,1.455,0,0,0-.362.137,1.535,1.535,0,0,0,.064.506l.113.474L191.3-157.4l-2.251,1.093.048.233c.08.394.362.772.579.772a24.917,24.917,0,0,0,3.489-1.712l.924-.515.137.265.145.265.3-.121c.49-.2.539-.281.378-.619l-.137-.289.41-.45a5.61,5.61,0,0,0,.707-1.037,1.962,1.962,0,0,0,.265-1.343c-.032-.691-.056-.788-.289-1.125a1.761,1.761,0,0,0-1.471-.852A1.94,1.94,0,0,0,193.743-162.742Z" transform="translate(-59.934 -22.516)" fill="red"/>
      <path id="path212" d="M35.923-159.955a3.435,3.435,0,0,0-.844,1.745c.024.265.048.3.265.322a.486.486,0,0,0,.442-.185.628.628,0,0,1,.378-.2,4.318,4.318,0,0,1,1.31.611,4.737,4.737,0,0,1-.683,1.182,2.365,2.365,0,0,1-.772-.273c-.925-.426-1.31-.426-1.769-.016a1.472,1.472,0,0,0-.555,1.3c0,.426.024.506.249.724a.66.66,0,0,0,.547.249c.37,0,.49-.113.49-.458,0-.209-.032-.265-.161-.265-.145,0-.322-.209-.322-.394a.528.528,0,0,1,.153-.241c.137-.137.2-.145.466-.072a4.532,4.532,0,0,1,.7.281l.386.193-.056.45a4.4,4.4,0,0,1-.1.563c-.032.08.072.1.45.1a2.626,2.626,0,0,0,1.712-.643l.346-.314-.418-.41c-.37-.362-.41-.434-.346-.6a4.726,4.726,0,0,1,.434-.844c.016,0,.531.233,1.142.523a4.828,4.828,0,0,0,1.15.458c.024-.032.169-.233.314-.434a2.374,2.374,0,0,0,.257-.442c0-.04-1.013-.571-2.251-1.19a10.29,10.29,0,0,1-2.211-1.23,2.806,2.806,0,0,0,.088-.41c.04-.273.032-.314-.137-.354C36.26-160.316,36.212-160.292,35.923-159.955Z" transform="translate(-10.543 -23.324)" fill="red"/>
      <path id="path214" d="M30.243-129.512a2.975,2.975,0,0,0-1.1,1.037,3.068,3.068,0,0,0,.024,1.881,2.365,2.365,0,0,0,.812.844,3.044,3.044,0,0,0,1.761.024,3.018,3.018,0,0,0,.981-1.125,2.143,2.143,0,0,0-.016-1.624,2.477,2.477,0,0,0-1.085-1.045A2.231,2.231,0,0,0,30.243-129.512Z" transform="translate(-9.075 -33.016)" fill="red"/>
      <path id="path216" d="M204.585-129.289a2.266,2.266,0,0,0-.892.981,2.4,2.4,0,0,0,.056,1.608,2.477,2.477,0,0,0,1.085,1.045,2.4,2.4,0,0,0,1.608-.056,2.036,2.036,0,0,0,1.037-2.46,2.861,2.861,0,0,0-.924-1.109A4.286,4.286,0,0,0,204.585-129.289Z" transform="translate(-64.481 -33.087)" fill="red"/>
      <path id="path218" d="M29.088-101.609c-1.4.265-2.564.515-2.6.547a3.97,3.97,0,0,0,.121,1.27c.056.088.611.016,2.685-.33l2.621-.434-.008-.563q-.012-.929-.193-.965C31.669-102.1,30.487-101.882,29.088-101.609Z" transform="translate(-8.283 -41.723)" fill="red"/>
      <path id="path220" d="M199.65-101.541a4.581,4.581,0,0,0-.048.643c0,.386,0,.386.306.434.6.088,2.09.37,2.991.563a8.688,8.688,0,0,0,1.455.2c.6,0,.579.04.675-.82.056-.434.048-.458-.129-.506-.3-.064-4.9-.764-5.057-.764C199.747-101.79,199.682-101.7,199.65-101.541Z" transform="translate(-63.236 -41.815)" fill="red"/>
      <path id="path222" d="M29.819-97.655c-1.423.314-2.613.595-2.637.627a4.386,4.386,0,0,0,.129,1.334c.056.1.619-.032,3.1-.683a7.343,7.343,0,0,1-1.15,1.23l-1.31,1.27.008.4a2.762,2.762,0,0,0,.185,1.053c.04.048,5.209-1.093,5.3-1.166a2.873,2.873,0,0,0-.225-1.27c-.088-.032-2.355.386-2.806.514a7.216,7.216,0,0,1,1.109-1.286l1.27-1.335-.161-.611a5.5,5.5,0,0,0-.185-.635C32.424-98.226,31.25-97.977,29.819-97.655Z" transform="translate(-8.499 -42.958)" fill="red"/>
      <path id="path224" d="M198.515-98.023a2.229,2.229,0,0,0-.169.723l-.048.466h.3a2.855,2.855,0,0,1,.748.161,3.088,3.088,0,0,0,.6.161c.177,0,.185-.04-.032.941-.1.506-.209.828-.273.828-.048,0-.45-.072-.876-.161s-.828-.161-.876-.161a2.83,2.83,0,0,0-.3,1.391,54.272,54.272,0,0,0,5.33,1.117,2.739,2.739,0,0,0,.177-1.214,10.1,10.1,0,0,0-1.053-.37l-.981-.305.04-.49c.113-1.246.33-1.367,1.72-.965a3.394,3.394,0,0,0,.772.169,5.293,5.293,0,0,0,.322-1.391c-.024-.072-.169-.113-.362-.113a27.383,27.383,0,0,1-3.537-.844,5.741,5.741,0,0,0-1.061-.2C198.692-98.28,198.628-98.248,198.515-98.023Z" transform="translate(-62.6 -42.936)" fill="red"/>
      <path id="path226" d="M33.789-90.1c-.442.161-1.592.571-2.548.916-2,.715-1.857.571-1.592,1.624a4.394,4.394,0,0,0,1.873,2.822,3.2,3.2,0,0,0,3.3-.86c.949-.868.981-1.246.305-3.32-.257-.788-.482-1.439-.5-1.455A7.8,7.8,0,0,0,33.789-90.1Zm.354,2.05a1.715,1.715,0,0,1,.137.539,2.3,2.3,0,0,0-.08.322,1.839,1.839,0,0,1-1.592,1.117c-.852.137-1.158-.072-1.471-1.037a1.309,1.309,0,0,1-.1-.466c.056-.056,2.717-.908,2.846-.916C33.934-88.49,34.054-88.289,34.143-88.048Z" transform="translate(-9.229 -45.438)" fill="red"/>
      <path id="path228" d="M200.442-87.64a7.063,7.063,0,0,1-.434,1.142c-.137.1-.651-.024-2.323-.563A15.1,15.1,0,0,0,196-87.544a3.463,3.463,0,0,0-.354,1.3c.113.113,5.073,1.576,5.129,1.511a30.255,30.255,0,0,0,1.069-3.811,1.989,1.989,0,0,0-.563-.121l-.49-.048Z" transform="translate(-61.994 -45.958)" fill="red"/>
      <path id="path230" d="M194.257-83.9c-.048.056-.426.908-.852,1.889a6.9,6.9,0,0,0-.675,1.849c.265.177,4.928,2.09,4.976,2.05a35.091,35.091,0,0,0,1.608-3.811,2.367,2.367,0,0,0-1.061-.249c-.024.032-.265.571-.515,1.19s-.474,1.142-.49,1.15a7.409,7.409,0,0,1-1.069-.346c-.008-.008.2-.539.474-1.166.466-1.1.482-1.158.346-1.27a1.85,1.85,0,0,0-.828-.378,8.3,8.3,0,0,0-.539,1.125c-.289.675-.5,1.077-.563,1.053a3.445,3.445,0,0,0-.466-.088c-.233-.04-.362-.1-.346-.153s.281-.643.579-1.326a5.388,5.388,0,0,0,.466-1.286,1.771,1.771,0,0,0-.418-.161c-.185-.056-.394-.121-.442-.137A.177.177,0,0,0,194.257-83.9Z" transform="translate(-61.082 -47.463)" fill="red"/>
      <path id="path232" d="M35.038-81.421c-1.3.571-2.4,1.069-2.436,1.109A2.622,2.622,0,0,0,33.117-79c.161-.04,4.856-2.042,4.912-2.1a4.5,4.5,0,0,0-.547-1.351C37.442-82.458,36.34-82,35.038-81.421Z" transform="translate(-10.197 -47.936)" fill="red"/>
      <path id="path234" d="M36.477-76.664c-1.439.177-2.621.314-2.629.314s.1.3.241.651l.257.643H35.48l.394.8.394.8-.394.346-.386.354.289.571a3.054,3.054,0,0,0,.378.627,41.651,41.651,0,0,0,4.02-3.979,5.779,5.779,0,0,0-.217-.788l-.225-.659-.322.008C39.234-76.97,37.916-76.833,36.477-76.664Zm1.929,1.093a4.664,4.664,0,0,1-1.134,1.077c-.1,0-.225-.145-.362-.41-.273-.539-.3-.531,1.093-.659.153-.016.305-.04.346-.04S38.406-75.6,38.406-75.571Z" transform="translate(-10.591 -49.671)" fill="red"/>
      <path id="path236" d="M191.152-76.094a4.836,4.836,0,0,0-1.929,2.388c-.306.6-.362.772-.273.82.064.04.563.33,1.117.659s1.487.876,2.082,1.238a6.966,6.966,0,0,0,1.23.659c.322,0,.981-.924,1.487-2.082a2.442,2.442,0,0,0,.265-1.2,1.852,1.852,0,0,0-.7-1.608,3.576,3.576,0,0,0-2.275-1.045A1.731,1.731,0,0,0,191.152-76.094Zm1.576,1.511c.812.41,1.166.86,1.069,1.367a3.229,3.229,0,0,1-.474,1.037c-.072,0-2.484-1.294-2.573-1.375-.161-.161.305-1.061.635-1.206A2.111,2.111,0,0,1,192.728-74.582Z" transform="translate(-59.891 -49.901)" fill="red"/>
      <path id="path238" d="M40.44-70.654c-1.238.772-2.259,1.431-2.275,1.471a7.483,7.483,0,0,0,.667,1.2,13.122,13.122,0,0,0,1.246-.788,13.12,13.12,0,0,1,1.246-.788c.016.016-.281.675-.659,1.471a16.365,16.365,0,0,0-.724,1.688c-.032.209.024.314.338.667.241.265.442.418.555.418a32.544,32.544,0,0,0,4.389-2.87,4.856,4.856,0,0,0-.595-.908c-.1-.08-.724.265-2.573,1.431l-.314.193.161-.265a15.758,15.758,0,0,0,1.552-3.127,4.187,4.187,0,0,0-.715-1.2C42.715-72.06,41.678-71.425,40.44-70.654Z" transform="translate(-12.075 -51.234)" fill="red"/>
      <path id="path240" d="M184.891-67.571a3.1,3.1,0,0,0-.426.611,8.518,8.518,0,0,0,.523,1.045c.289.523.523.965.523.981a5.05,5.05,0,0,1-1.206-.185,3.133,3.133,0,0,0-.651-.08.609.609,0,0,0-.6.265c-.322.362-.571.933-.45,1.013a18.373,18.373,0,0,0,1.865.193l1.777.137.852.643c.466.354.876.643.9.643a7.879,7.879,0,0,0,.651-1.246,1.5,1.5,0,0,0-.386-.233c-.748-.378-1.238-1.029-2.074-2.757a16.156,16.156,0,0,0-.812-1.552A2.7,2.7,0,0,0,184.891-67.571Z" transform="translate(-57.759 -52.486)" fill="red"/>
      <path id="path242" d="M48.6-61.713a33,33,0,0,0-2.741,2.195c-.314.289-.466.49-.466.619a1.651,1.651,0,0,0,.78.836c.121,0,4.2-3.3,4.2-3.393a1.953,1.953,0,0,0-.844-.788A3.806,3.806,0,0,0,48.6-61.713Z" transform="translate(-14.361 -54.33)" fill="red"/>
      <path id="path244" d="M180.625-60.755a2.99,2.99,0,0,0-1.7,1.4,2.91,2.91,0,0,0-.153,1.27,2.282,2.282,0,0,0,.209,1.343,3.214,3.214,0,0,0,1.56,1.375,2.239,2.239,0,0,0,1.375.289c.716,0,.8-.016,1.166-.241a2.415,2.415,0,0,0,.973-1.841,1.388,1.388,0,0,1,.1-.531,1.939,1.939,0,0,1,.249.121,1.5,1.5,0,0,0,.257.121,1.75,1.75,0,0,0,.466-.691A18.257,18.257,0,0,0,183-59.967c-.024.008-.41.418-.844.916-.9,1.021-.884.933-.225,1.455l.3.233.265-.4c.185-.281.322-.41.442-.41.49,0,.378.933-.177,1.447-.434.41-1.648.185-2.275-.426a1.414,1.414,0,0,1-.523-1.158c0-.683.394-1.085,1.166-1.19.37-.056.418-.088.8-.587.241-.322.37-.555.322-.6A4.574,4.574,0,0,0,180.625-60.755Z" transform="translate(-56.56 -54.793)" fill="red"/>
      <path id="path246" d="M50.024-58.091c-.908.86-1.769,1.68-1.913,1.825l-.257.257.45.547.458.539,1.15-1.093c.667-.635,1.158-1.045,1.158-.965s-.2.715-.442,1.431c-.611,1.8-.595,2.146.169,2.741l.378.3,1.921-1.865c1.053-1.021,1.929-1.881,1.945-1.905a2.4,2.4,0,0,0-.418-.555l-.458-.5-1.142,1.093c-.635.595-1.15,1.077-1.15,1.061s.257-.788.563-1.712l.571-1.688-.587-.539a3.615,3.615,0,0,0-.667-.539C51.712-59.658,50.932-58.951,50.024-58.091Z" transform="translate(-15.14 -55.16)" fill="red"/>
      <path id="path248" d="M174.06-54.135a2.51,2.51,0,0,0-1.688,2.693,2.994,2.994,0,0,0,.836,1.978,2.621,2.621,0,0,0,2,.949,1.817,1.817,0,0,0,1.109-.169,3.884,3.884,0,0,0,1.5-1.383,1.682,1.682,0,0,0,.233-1.125,2.191,2.191,0,0,0-.241-1.23,4.206,4.206,0,0,0-1.552-1.664,2,2,0,0,0-1.093-.2A3.718,3.718,0,0,0,174.06-54.135Zm1.061,1.222a2.505,2.505,0,0,1,1.56,1.56,1.2,1.2,0,0,1-.868,1.487.821.821,0,0,1-.691-.072,3.117,3.117,0,0,1-1.511-1.785c-.072-.273.265-.788.691-1.069C174.679-53.034,174.687-53.034,175.121-52.913Z" transform="translate(-54.528 -56.853)" fill="red"/>
      <path id="path250" d="M57.184-52.763a1.788,1.788,0,0,0-.458.33c-.185.2-.2.281-.2.949a2.752,2.752,0,0,0,.683,1.97c.41.635.482.965.265,1.19-.121.113-.161.113-.5-.048a2.628,2.628,0,0,1-.643-.49c-.289-.322-.3-.4-.1-1.013.04-.145-.032-.249-.394-.555l-.45-.386-.2.193a1.262,1.262,0,0,0-.434,1.013A3.213,3.213,0,0,0,57.425-47.1a1.543,1.543,0,0,0,1.222-.523l.305-.305-.032-.732-.024-.74-.458-.724c-.563-.892-.643-1.093-.547-1.359.121-.314.515-.305.924.016.257.209.281.257.281.667a.711.711,0,0,0,.305.732c.667.619.627.611.812.305a2.123,2.123,0,0,0,0-1.688,3.192,3.192,0,0,0-1.3-1.246A2.522,2.522,0,0,0,57.184-52.763Z" transform="translate(-17.322 -57.298)" fill="red"/>
      <path id="path252" d="M63.3-48.884l-.338.346.563.555a3.676,3.676,0,0,1,.563.627c0,.056-1.736,2.508-2.355,3.328-.048.064.1.217.482.5a2.686,2.686,0,0,0,.595.386c.032-.008.627-.756,1.326-1.664s1.278-1.664,1.286-1.68a3.141,3.141,0,0,1,.611.322c.322.193.611.362.643.378s.185-.169.338-.4c.225-.33.265-.442.185-.515s-3.256-2.323-3.481-2.46C63.674-49.2,63.489-49.069,63.3-48.884Z" transform="translate(-19.528 -58.473)" fill="red"/>
      <path id="path254" d="M166.518-47.358c-.3.241-.442.4-.394.458.032.048.78,1.021,1.656,2.154s1.608,2.074,1.64,2.074c.072,0,3.007-2.468,3.1-2.6.056-.08-.024-.225-.265-.514l-.346-.41-.941.732c-.514.41-.973.764-1.021.8-.064.048-.547-.458-1.447-1.5a17.74,17.74,0,0,0-1.439-1.568A3.419,3.419,0,0,0,166.518-47.358Z" transform="translate(-52.554 -58.923)" fill="red"/>
      <path id="path256" d="M68.555-43.36c-2.163,3.425-2.09,3.216-1.326,3.626a2.319,2.319,0,0,0,.539.241c.072-.016,2.958-4.462,2.958-4.55a6.958,6.958,0,0,0-1.27-.651A14.793,14.793,0,0,0,68.555-43.36Z" transform="translate(-21.112 -60.014)" fill="red"/>
      <path id="path258" d="M161.438-44.485a4.039,4.039,0,0,0-1.447,1.375,2.229,2.229,0,0,0-.169,1.134,2.045,2.045,0,0,0,.217,1.214,4.446,4.446,0,0,0,1.576,1.648,3.027,3.027,0,0,0,3.167-.7,1.847,1.847,0,0,0,.667-1.769,2.117,2.117,0,0,0-.217-1.254,4.446,4.446,0,0,0-1.576-1.648,1.937,1.937,0,0,0-1.1-.209A2.012,2.012,0,0,0,161.438-44.485Zm1.238,1.166a2.215,2.215,0,0,1,1.431,1.777,1.36,1.36,0,0,1-.587,1.174.763.763,0,0,1-.683.137,1.715,1.715,0,0,1-1.061-.539,2.914,2.914,0,0,1-.6-1.511.739.739,0,0,1,.3-.724A1,1,0,0,1,162.676-43.319Z" transform="translate(-50.561 -60.014)" fill="red"/>
      <path id="path260" d="M72.679-42.46c-.305.442-.289.474.474.844a1.6,1.6,0,0,1,.571.354c0,.04-.474.924-1.045,1.962a7.584,7.584,0,0,0-.973,1.978,3.978,3.978,0,0,0,1.077.523c.016-.016.474-.8,1-1.72s1.013-1.736,1.053-1.8c.064-.1.2-.056.82.225l.748.346.145-.177a.854.854,0,0,0,.2-.675,16.955,16.955,0,0,0-3.642-2.219C72.984-42.822,72.848-42.709,72.679-42.46Z" transform="translate(-22.682 -60.6)" fill="red"/>
      <path id="path262" d="M155.1-41.048a4.035,4.035,0,0,0-.627.305,25.424,25.424,0,0,0,1.447,2.926c.08.137-.458-.193-1.7-1.061a8.306,8.306,0,0,0-1.471-.892,2.235,2.235,0,0,0-.6.193c-.233.1-.523.233-.651.281l-.217.088,1.222,2.452a13.149,13.149,0,0,0,1.359,2.452,2.134,2.134,0,0,0,.563-.225c.643-.322.635-.442-.169-1.986a6.211,6.211,0,0,1-.547-1.2c.056.032.764.49,1.576,1.013s1.5.949,1.544.949a6.018,6.018,0,0,0,1.286-.659c0-.072-2.4-4.888-2.436-4.88C155.67-41.289,155.413-41.177,155.1-41.048Z" transform="translate(-47.863 -61.079)" fill="red"/>
      <path id="path264" d="M78.911-38.99a14.608,14.608,0,0,0-1.19,2.653c-.426,1.238-.354,1.761.378,2.444a2.657,2.657,0,0,0,2.444.772,3.921,3.921,0,0,0,1.527-1.552,12.365,12.365,0,0,0,1.142-2.645l.048-.265-.611-.225a2.124,2.124,0,0,0-.683-.185,2.885,2.885,0,0,0-.249.547A7.961,7.961,0,0,1,80-34.44a1.133,1.133,0,0,1-1.125-.354c-.137-.153-.137-.177.024-.659.177-.523.916-2.235,1.262-2.918a.982.982,0,0,0,.145-.466,2.705,2.705,0,0,0-1-.474C79.208-39.312,79.055-39.183,78.911-38.99Z" transform="translate(-24.505 -61.698)" fill="red"/>
      <path id="path266" d="M147.028-37.284a2.99,2.99,0,0,0-.265.193,4.557,4.557,0,0,0,.249.941c.161.49.281.908.273.916a7.578,7.578,0,0,1-1.672.563,6.481,6.481,0,0,1-.338-.86c-.273-.788-.273-.788-.506-.748-.466.1-1.093.434-1.093.595s1.817,4.751,1.913,4.856a4.956,4.956,0,0,0,1.383-.378c0-.024-.185-.515-.41-1.093a9.584,9.584,0,0,1-.378-1.069,17.357,17.357,0,0,1,1.632-.611,4.25,4.25,0,0,1,.442,1.013c.2.555.378,1.021.4,1.037a3.233,3.233,0,0,0,.659-.225c.482-.193.627-.3.627-.41a19.813,19.813,0,0,0-1.809-4.446c-.257-.394-.305-.426-.587-.418A1.154,1.154,0,0,0,147.028-37.284Z" transform="translate(-45.455 -62.287)" fill="red"/>
      <path id="path268" d="M86.243-36.134a4.392,4.392,0,0,0-.209.555c-.048.209-.056.2,1,.442a1.007,1.007,0,0,1,.418.161c0,.04-.306.957-.691,2.042a16.234,16.234,0,0,0-.635,2.05,2.665,2.665,0,0,0,.611.289c.482.185.587.2.675.113.056-.064.394-.965.764-2s.667-1.9.683-1.913a5.172,5.172,0,0,1,.764.153c.6.137.756.153.812.064a3.073,3.073,0,0,0,.145-.908c-.048-.04-4.052-1.415-4.116-1.415A.912.912,0,0,0,86.243-36.134Z" transform="translate(-27.21 -62.577)" fill="red"/>
      <path id="path270" d="M92.926-33.947c-.129.354-1.2,4.655-1.2,4.848a.392.392,0,0,0,.185.281,16.136,16.136,0,0,0,3.658.933c.2,0,.241-.04.289-.249.1-.547.064-.691-.241-.836a7.475,7.475,0,0,0-1.769-.49l-.45-.056.056-.49a1.99,1.99,0,0,1,.088-.523,11.938,11.938,0,0,1,1.254.217c.675.129,1.246.225,1.262.209a4,4,0,0,0,.185-1.166,11.814,11.814,0,0,0-1.206-.273l-1.158-.225.056-.37a1.473,1.473,0,0,1,.113-.434,1.979,1.979,0,0,1,.78.145,3.64,3.64,0,0,0,1.865.209c.153-.08.177-.161.177-.555v-.458l-1.753-.426L93.2-34.124C93.054-34.164,93-34.132,92.926-33.947Z" transform="translate(-29.018 -63.317)" fill="red"/>
      <path id="path272" d="M138.019-34a2.244,2.244,0,0,0-1.286,1.2,2.317,2.317,0,0,0-.289,1.238,2.826,2.826,0,0,0,1.688,2.918,4.634,4.634,0,0,0,2.275-.032,2.494,2.494,0,0,0,1.3-2.026l.048-.466-.314.048c-1.037.153-.949.113-1.013.531-.08.563-.314.772-.973.892-.8.145-1.5-.8-1.527-2.042-.016-.41.016-.571.137-.732a1.111,1.111,0,0,1,1.029-.515c.386,0,.49.032.683.217.273.265.386.273.916.088.273-.1.394-.185.394-.289a1.341,1.341,0,0,0-.531-.908c-.289-.225-.346-.233-1.23-.249A3.052,3.052,0,0,0,138.019-34Z" transform="translate(-43.163 -63.318)" fill="red"/>
      <path id="path274" d="M131.728-32.58c-.129.024-.78.161-1.431.314s-1.262.273-1.343.273a.282.282,0,0,0-.209.088c-.056.088.836,5.209.933,5.322a41.962,41.962,0,0,0,4.2-.659,3.723,3.723,0,0,0-.2-1.182,8.067,8.067,0,0,0-1.343.2c-.707.137-1.335.249-1.4.249-.113,0-.305-.756-.233-.941.056-.145.675-.314,1.584-.434l.772-.1V-29.9a1.1,1.1,0,0,0-.1-.547c-.145-.145-.724-.113-1.712.1-.482.1-.892.177-.908.169a1.639,1.639,0,0,1,.032-.426l.048-.4.571-.129c.314-.072.868-.193,1.238-.265l.667-.145V-32c0-.442-.008-.458-.249-.547A1.748,1.748,0,0,0,131.728-32.58Z" transform="translate(-40.727 -63.791)" fill="red"/>
      <path id="path276" d="M104.278-31.365a4.3,4.3,0,0,0-1.166,1.326,3.3,3.3,0,0,0-.153,1.407c0,1.23.064,1.447.563,1.945a3.084,3.084,0,0,0,3.079.724,3.508,3.508,0,0,0,1.592-1.487,2.387,2.387,0,0,0,.193-1.286,2.462,2.462,0,0,0-.209-1.334,2.743,2.743,0,0,0-1.222-1.31c-.37-.193-.5-.209-1.383-.209C104.624-31.59,104.584-31.582,104.278-31.365Zm2.1,1.134c.4.225.563.6.555,1.294a1.8,1.8,0,0,1-.209,1c-.346.667-.547.8-1.19.8-.474,0-.579-.024-.764-.2a1.574,1.574,0,0,1-.434-1.576,1.912,1.912,0,0,1,.595-1.286A1.362,1.362,0,0,1,106.377-30.231Z" transform="translate(-32.572 -64.114)" fill="red"/>
      <path id="path278" d="M123.3-31.261a14.711,14.711,0,0,1-1.463.185l-.386.008v.611c0,.595.008.611.185.571a4.31,4.31,0,0,1,1.351-.088c0,.04.08,1,.177,2.122l.177,2.05.772.024.772.024-.032-.426c-.024-.233-.1-1.246-.177-2.259l-.129-1.825h1.407v-.555c0-.434-.032-.563-.129-.6A8.775,8.775,0,0,0,123.3-31.261Z" transform="translate(-38.417 -64.153)" fill="red"/>
      <path id="path280" d="M112.167-30.711c-.024.1-.064,1.053-.088,2.114s-.064,2.211-.1,2.548l-.048.627h1.552v-2.09h2.251v-1.125h-2.09v-1.125h.949a8.288,8.288,0,0,1,1.182.064c.4.113.442.056.442-.595v-.595H112.2Z" transform="translate(-35.408 -64.334)" fill="red"/>
    </g>
  </g>
</svg>
