<svg xmlns="http://www.w3.org/2000/svg" xmlns:xlink="http://www.w3.org/1999/xlink" width="405" height="275" viewBox="0 0 405 275">
  <defs>
    <filter id="Rectangle_8172" x="0" y="0" width="405" height="275" filterUnits="userSpaceOnUse">
      <feOffset input="SourceAlpha"/>
      <feGaussianBlur stdDeviation="12.5" result="blur"/>
      <feFlood flood-opacity="0.078"/>
      <feComposite operator="in" in2="blur"/>
      <feComposite in="SourceGraphic"/>
    </filter>
  </defs>
  <g id="microsoft_logo_with_white_bg" transform="translate(-1137.5 -13123.5)">
    <g transform="matrix(1, 0, 0, 1, 1137.5, 13123.5)" filter="url(#Rectangle_8172)">
      <rect id="Rectangle_8172-2" data-name="Rectangle 8172" width="330" height="200" rx="20" transform="translate(37.5 37.5)" fill="#fff"/>
    </g>
    <g id="microsoft_logo" transform="translate(1200 13231)">
      <path id="Path_11526" data-name="Path 11526" d="M132.48,13.857V49.731h-6.228V21.58h-.083L115.042,49.731H110.89L99.513,21.58H99.43V49.731H93.7V13.857h8.969l10.3,26.573h.166L124.01,13.857h8.47Zm5.149,2.74a3.158,3.158,0,0,1,1.08-2.491,3.713,3.713,0,0,1,2.574-1,3.635,3.635,0,0,1,2.657,1,3.452,3.452,0,0,1,1.08,2.491,3.158,3.158,0,0,1-1.08,2.491,3.772,3.772,0,0,1-2.657,1,3.441,3.441,0,0,1-2.574-1A3.761,3.761,0,0,1,137.629,16.6Zm6.726,7.391V49.731h-6.062V23.988h6.062ZM162.708,45.33a7,7,0,0,0,2.99-.664A13.119,13.119,0,0,0,168.687,43v5.647a10.6,10.6,0,0,1-3.322,1.246,20.435,20.435,0,0,1-4.069.415,12.2,12.2,0,0,1-9.218-3.571,12.392,12.392,0,0,1-3.571-9.135,14.653,14.653,0,0,1,3.654-10.214c2.408-2.657,5.813-3.986,10.3-3.986a15.285,15.285,0,0,1,3.4.415,11.316,11.316,0,0,1,2.74,1v5.813a12.064,12.064,0,0,0-2.823-1.578,9.541,9.541,0,0,0-2.99-.581,7.574,7.574,0,0,0-5.813,2.325,8.711,8.711,0,0,0-2.159,6.311,8.309,8.309,0,0,0,2.159,6.062A7.767,7.767,0,0,0,162.708,45.33Zm23.169-21.757a6.712,6.712,0,0,1,1.329.083,8.618,8.618,0,0,1,1,.249V30.05a3.727,3.727,0,0,0-1.412-.664,8.52,8.52,0,0,0-2.242-.332,4.643,4.643,0,0,0-3.737,1.91,9.17,9.17,0,0,0-1.578,5.813V49.731h-6.062V23.988h6.062v4.069h.083a7.823,7.823,0,0,1,2.491-3.322A7.317,7.317,0,0,1,185.876,23.573Zm2.657,13.7A14.345,14.345,0,0,1,192.1,27.144q3.612-3.737,9.965-3.737c3.986,0,7.142,1.163,9.384,3.571a13.711,13.711,0,0,1,3.4,9.716,14.063,14.063,0,0,1-3.571,9.965c-2.408,2.491-5.647,3.737-9.8,3.737q-5.979,0-9.467-3.488A13.326,13.326,0,0,1,188.534,37.275Zm6.311-.249c0,2.657.581,4.733,1.827,6.145A6.637,6.637,0,0,0,201.9,45.33a6.045,6.045,0,0,0,5.066-2.159c1.163-1.412,1.744-3.488,1.744-6.311a10.015,10.015,0,0,0-1.744-6.311,6.931,6.931,0,0,0-10.131.083C195.426,32.21,194.845,34.286,194.845,37.026ZM223.909,30.8a2.635,2.635,0,0,0,.83,2.076,14.2,14.2,0,0,0,3.654,1.827,12.663,12.663,0,0,1,5.066,3.239,6.728,6.728,0,0,1,1.495,4.4,6.972,6.972,0,0,1-2.823,5.813c-1.827,1.495-4.4,2.159-7.557,2.159A19.674,19.674,0,0,1,221,49.9a14.371,14.371,0,0,1-3.322-1V42.922a14.51,14.51,0,0,0,3.571,1.827,11.194,11.194,0,0,0,3.488.664,5.582,5.582,0,0,0,2.99-.581,2.038,2.038,0,0,0,1-1.91,2.924,2.924,0,0,0-1-2.159,15.335,15.335,0,0,0-3.82-1.993,11.421,11.421,0,0,1-4.733-3.156,7.06,7.06,0,0,1-1.412-4.484,7.078,7.078,0,0,1,2.74-5.73,10.969,10.969,0,0,1,7.142-2.242,13.168,13.168,0,0,1,2.99.332c1.08.249,2.076.5,2.823.747v5.9a17.889,17.889,0,0,0-2.823-1.412,8.788,8.788,0,0,0-3.156-.581,4.63,4.63,0,0,0-2.657.664A2.653,2.653,0,0,0,223.909,30.8Zm13.619,6.477A14.345,14.345,0,0,1,241.1,27.144q3.612-3.737,9.965-3.737c3.986,0,7.142,1.163,9.384,3.571a13.711,13.711,0,0,1,3.4,9.716,14.064,14.064,0,0,1-3.571,9.965c-2.408,2.491-5.647,3.737-9.8,3.737q-5.979,0-9.467-3.488A13.687,13.687,0,0,1,237.528,37.275Zm6.311-.249c0,2.657.581,4.733,1.827,6.145A6.637,6.637,0,0,0,250.9,45.33a6.045,6.045,0,0,0,5.066-2.159c1.163-1.412,1.744-3.488,1.744-6.311a10.015,10.015,0,0,0-1.744-6.311,6.931,6.931,0,0,0-10.131.083A9.509,9.509,0,0,0,243.839,37.026Zm40.192-8.055H274.98v20.76h-6.145V28.971h-4.318V23.988h4.318V20.418a8.955,8.955,0,0,1,9.384-9.218c.747,0,1.412.083,1.993.083a3.967,3.967,0,0,1,1.495.332v5.232a10.18,10.18,0,0,0-1.08-.415,5.52,5.52,0,0,0-1.744-.249,3.748,3.748,0,0,0-2.906,1.163,5.294,5.294,0,0,0-1,3.488v3.073h9.052V18.092l6.062-1.827v7.64h6.145v4.983h-6.145V40.929a5.527,5.527,0,0,0,.83,3.322,3.457,3.457,0,0,0,2.74,1A4.1,4.1,0,0,0,294.91,45a4.339,4.339,0,0,0,1.246-.581V49.4a5.791,5.791,0,0,1-1.91.581,14.391,14.391,0,0,1-2.657.249q-3.861,0-5.73-1.993c-1.246-1.329-1.91-3.4-1.91-6.145l.083-13.121Z" transform="translate(-16.239 -1.805)" fill="#737373"/>
      <g id="Group_5914" data-name="Group 5914">
        <rect id="Rectangle_8174" data-name="Rectangle 8174" width="28.4" height="28.4" fill="#f25022"/>
        <rect id="Rectangle_8175" data-name="Rectangle 8175" width="28.4" height="28.4" transform="translate(31.39)" fill="#7fba00"/>
        <rect id="Rectangle_8176" data-name="Rectangle 8176" width="28.4" height="28.4" transform="translate(0 31.6)" fill="#00a4ef"/>
        <rect id="Rectangle_8177" data-name="Rectangle 8177" width="28.4" height="28.4" transform="translate(31.39 31.6)" fill="#ffb900"/>
      </g>
    </g>
  </g>
</svg>
