<svg xmlns="http://www.w3.org/2000/svg" width="200" height="216" viewBox="0 0 200 216">
  <g id="project_based_learning_icon" transform="translate(-230 -1647)">
    <path id="Path_48331" data-name="Path 48331" d="M179.769,176.784l-64.442,34.9a35.835,35.835,0,0,1-35.548-.827L17.061,173A35.168,35.168,0,0,1,.01,142.073l1.724-72.76a35.2,35.2,0,0,1,18.5-30.1l64.442-34.9a35.835,35.835,0,0,1,35.548.827L182.939,43A35.164,35.164,0,0,1,199.99,73.928l-1.724,72.759a35.2,35.2,0,0,1-18.5,30.1" transform="translate(230 1647)" fill="#0081fe"/>
    <g id="project_based_learning_icon-2" data-name="project_based_learning_icon" transform="translate(255.936 1700)">
      <path id="Path_48588" data-name="Path 48588" d="M120.429,171.843H113.85v-.736a3.332,3.332,0,0,0-3.335-3.322H97.538a1.613,1.613,0,1,0,0,3.226h12.976a.1.1,0,0,1,.1.1v19.666a1.619,1.619,0,0,0,3.239,0v-15.7h6.579a.4.4,0,0,1,.4.4v56.271a6.715,6.715,0,0,1-6.721,6.694H34.023a6.715,6.715,0,0,1-6.721-6.694V175.464a.4.4,0,0,1,.4-.4h6.8v55.165a4.138,4.138,0,0,0,4.141,4.125h71.072a4.138,4.138,0,0,0,4.141-4.125V197.653a1.619,1.619,0,0,0-3.239,0v23.211h-26.2a11.845,11.845,0,0,0-8.619,3.712V203.713a1.619,1.619,0,0,0-3.239,0v20.864a11.846,11.846,0,0,0-8.619-3.712H56.575a1.613,1.613,0,1,0,0,3.226h7.358a8.623,8.623,0,0,1,8.477,7.043H38.636a.9.9,0,0,1-.9-.9V224.09H49.668a1.613,1.613,0,1,0,0-3.226H37.733V171.107a.1.1,0,0,1,.1-.1H50.806a1.613,1.613,0,1,0,0-3.226H37.83a3.333,3.333,0,0,0-3.335,3.322v.736H27.7a3.633,3.633,0,0,0-3.636,3.621v56.271a9.951,9.951,0,0,0,9.959,9.92H114.1a9.951,9.951,0,0,0,9.959-9.92V175.464a3.632,3.632,0,0,0-3.635-3.621ZM84.411,224.09h26.2v6.144a.9.9,0,0,1-.9.9H75.934A8.622,8.622,0,0,1,84.411,224.09Z" transform="translate(0 -131.655)" fill="#fff"/>
      <path id="Path_48589" data-name="Path 48589" d="M150.811,22.66A1.617,1.617,0,0,0,152.57,21.2a19.863,19.863,0,1,1,36.019,13.319l-.039.058L178.215,50.67a1.615,1.615,0,0,0-.256.873v2.092a.771.771,0,0,1-.77.77h-.105l1.029-17.458h1.84a4.78,4.78,0,0,0,4.774-4.774v-.2a4.774,4.774,0,0,0-9.54-.281l-.119,2.021H169.4l-.119-2.021a4.774,4.774,0,0,0-9.54.281v.2a4.78,4.78,0,0,0,4.774,4.774h1.84l1.028,17.447a.769.769,0,0,1-.659-.759V51.543a1.617,1.617,0,0,0-.256-.873L156.136,34.581l-.039-.058a19.678,19.678,0,0,1-3.11-6.963,1.615,1.615,0,1,0-3.148.724,22.894,22.894,0,0,0,3.6,8.071L163.5,52.016v1.618a4,4,0,0,0,2.385,3.657v2.731a5.218,5.218,0,0,0,5.212,5.212h2.5a5.218,5.218,0,0,0,5.212-5.212V57.291a4,4,0,0,0,2.385-3.657V52.016l10.06-15.662a23.093,23.093,0,1,0-41.9-15.454,1.614,1.614,0,0,0,1.456,1.759Zm27.6,9.226a1.544,1.544,0,0,1,3.086.091v.2a1.546,1.546,0,0,1-1.544,1.544H178.3Zm-13.892,1.831a1.546,1.546,0,0,1-1.544-1.544v-.2a1.544,1.544,0,0,1,3.086-.091l.108,1.831Zm10.358,3.23L173.848,54.4h-3.225l-1.029-17.458Zm.7,23.076A1.984,1.984,0,0,1,173.592,62h-2.5a1.984,1.984,0,0,1-1.982-1.982V57.635h6.462v2.388Z" transform="translate(-98.17)" fill="#fff"/>
      <path id="Path_48590" data-name="Path 48590" d="M381.626,33.907a1.609,1.609,0,0,0,1.065-.4l3.524-3.094a1.615,1.615,0,0,0-2.131-2.427l-3.524,3.094a1.615,1.615,0,0,0,1.066,2.829Z" transform="translate(-279.078 -21.644)" fill="#fff"/>
      <path id="Path_48591" data-name="Path 48591" d="M380.56,91.876l3.524,3.094a1.615,1.615,0,0,0,2.131-2.427l-3.524-3.094a1.615,1.615,0,0,0-2.131,2.427Z" transform="translate(-279.078 -69.89)" fill="#fff"/>
      <path id="Path_48592" data-name="Path 48592" d="M101.452,30.411l3.524,3.094a1.615,1.615,0,0,0,2.131-2.427l-3.524-3.094a1.615,1.615,0,1,0-2.131,2.427Z" transform="translate(-60.245 -21.643)" fill="#fff"/>
      <path id="Path_48593" data-name="Path 48593" d="M102.519,95.373a1.61,1.61,0,0,0,1.065-.4l3.524-3.094a1.615,1.615,0,0,0-2.131-2.427l-3.524,3.094a1.615,1.615,0,0,0,1.066,2.829Z" transform="translate(-60.246 -69.891)" fill="#fff"/>
      <path id="Path_48594" data-name="Path 48594" d="M120.042,254.269a1.615,1.615,0,0,0-1.615-1.615H102.518a1.615,1.615,0,1,0,0,3.23h15.909A1.615,1.615,0,0,0,120.042,254.269Z" transform="translate(-60.238 -198.298)" fill="#fff"/>
      <path id="Path_48595" data-name="Path 48595" d="M133.977,290.8H116.066a1.615,1.615,0,0,0,0,3.23h17.911a1.615,1.615,0,1,0,0-3.23Z" transform="translate(-70.857 -228.241)" fill="#fff"/>
      <path id="Path_48596" data-name="Path 48596" d="M133.977,327.346H116.066a1.615,1.615,0,0,0,0,3.23h17.911a1.615,1.615,0,1,0,0-3.23Z" transform="translate(-70.857 -256.92)" fill="#fff"/>
      <path id="Path_48597" data-name="Path 48597" d="M133.977,363.887H116.066a1.615,1.615,0,0,0,0,3.23h17.911a1.615,1.615,0,0,0,0-3.23Z" transform="translate(-70.857 -285.6)" fill="#fff"/>
      <path id="Path_48598" data-name="Path 48598" d="M341.635,254.269a1.615,1.615,0,0,0-1.615-1.615H324.111a1.615,1.615,0,0,0,0,3.23H340.02A1.615,1.615,0,0,0,341.635,254.269Z" transform="translate(-233.955 -198.298)" fill="#fff"/>
      <path id="Path_48599" data-name="Path 48599" d="M319.173,290.8H301.262a1.615,1.615,0,0,0,0,3.23h17.911a1.615,1.615,0,1,0,0-3.23Z" transform="translate(-216.038 -228.241)" fill="#fff"/>
      <path id="Path_48600" data-name="Path 48600" d="M319.173,327.346H301.262a1.615,1.615,0,0,0,0,3.23h17.911a1.615,1.615,0,1,0,0-3.23Z" transform="translate(-216.038 -256.92)" fill="#fff"/>
      <path id="Path_48601" data-name="Path 48601" d="M319.173,363.887H301.262a1.615,1.615,0,0,0,0,3.23h17.911a1.615,1.615,0,1,0,0-3.23Z" transform="translate(-216.038 -285.6)" fill="#fff"/>
    </g>
  </g>
</svg>
