<svg xmlns="http://www.w3.org/2000/svg" width="200" height="216" viewBox="0 0 200 216">
  <g id="stem_learning_curriculam_icon" transform="translate(-860 -1647)">
    <path id="Path_48332" data-name="Path 48332" d="M179.769,176.784l-64.442,34.9a35.835,35.835,0,0,1-35.548-.827L17.061,173A35.168,35.168,0,0,1,.01,142.073l1.724-72.76a35.2,35.2,0,0,1,18.5-30.1l64.442-34.9a35.835,35.835,0,0,1,35.548.827L182.939,43A35.164,35.164,0,0,1,199.99,73.928l-1.724,72.759a35.2,35.2,0,0,1-18.5,30.1" transform="translate(860 1647)" fill="#0081fe"/>
    <g id="stem_learning_curriculam_icon-2" data-name="stem_learning_curriculam_icon" transform="translate(894 1689)">
      <path id="Path_48602" data-name="Path 48602" d="M104.333,64.333H97.667A1.663,1.663,0,0,1,96,62.666v-.934a17.556,17.556,0,0,0,7.853-10.839,6.667,6.667,0,0,0,.481-13.016V31A11.68,11.68,0,0,0,93.643,19.377,7.646,7.646,0,0,0,87.273,16H81A15.017,15.017,0,0,0,66,31v5a1.667,1.667,0,0,0,1.667,1.667h1.667v.21a6.667,6.667,0,0,0,.474,13.014q.065.274.139.546l3.216-.875a14.2,14.2,0,0,1-.5-3.729V37.616a41.184,41.184,0,0,0,18.692-5.509,10.9,10.9,0,0,0,7.106,7.582l2.536.845v6.3A14.168,14.168,0,0,1,78.633,58.386L76.7,61.1a17.54,17.54,0,0,0,2.633,1.544v.02a1.669,1.669,0,0,1-1.667,1.667H76v-5a6.674,6.674,0,0,0-6.667-6.667H22.667A6.674,6.674,0,0,0,16,59.333v5h3.333v-5A3.337,3.337,0,0,1,22.667,56H69.333a3.337,3.337,0,0,1,3.333,3.333v30a3.337,3.337,0,0,1-3.333,3.333H50.919l1.711-7.984A1.667,1.667,0,0,0,51,82.666H39.333a1.667,1.667,0,0,0-1.532,1.01l-3.853,8.99H22.667a3.337,3.337,0,0,1-3.333-3.333V67.666H16V89.333A6.674,6.674,0,0,0,22.667,96h9.854l-4.286,10H17.667A1.667,1.667,0,0,0,16,107.666v6.667A1.667,1.667,0,0,0,17.667,116h96.667A1.667,1.667,0,0,0,116,114.333v-6.667A1.667,1.667,0,0,0,114.333,106h-2.862A13.3,13.3,0,0,0,116,96V94.333h-3.333V96a10.011,10.011,0,0,1-10,10H76v-3.333a5.006,5.006,0,0,1,5-5h21.667A1.667,1.667,0,0,0,104.333,96V84.333h8.333V91H116V76a11.68,11.68,0,0,0-11.667-11.667Zm0-17.5V41.451a3.329,3.329,0,0,1,.692,5.238,3.375,3.375,0,0,1-.7.534C104.326,47.093,104.333,46.964,104.333,46.833Zm-36.667-2.5a3.317,3.317,0,0,1,.975-2.356,3.367,3.367,0,0,1,.692-.528v5.383c0,.129,0,.257.006.386A3.333,3.333,0,0,1,67.667,44.333ZM91,28.429a37.9,37.9,0,0,1-20.352,5.9H69.333V32.477c14.267-1.869,19.3-6.751,19.512-6.965L86.5,23.144a16.117,16.117,0,0,1-4.15,2.5,46.736,46.736,0,0,1-12.856,3.45,11.577,11.577,0,0,1,.977-3.108c6.235-.176,9.468-1.755,9.61-1.826L78.6,21.171a18.843,18.843,0,0,1-5.544,1.3A11.622,11.622,0,0,1,81,19.333h6.273A4.337,4.337,0,0,1,91,21.426Zm8.518,8.1a7.573,7.573,0,0,1-5.185-7.194v-6.5A8.348,8.348,0,0,1,101,31v6.021ZM82.536,63.8a17.514,17.514,0,0,0,10.174-.484,4.977,4.977,0,0,0,1.422,2.89,5.044,5.044,0,0,0,.807.654l-.475.633a8.756,8.756,0,0,1-14.351-.467A5.016,5.016,0,0,0,82.536,63.8Zm-9.869,38.867V106H64.333v-3.333ZM69.128,96h.205A6.654,6.654,0,0,0,71,95.789v3.544H67.795ZM55.8,96h9.743l-1.333,3.333H62.667A1.667,1.667,0,0,0,61,101v5H57.667v-5A1.667,1.667,0,0,0,56,99.333H54.462ZM50.2,96h2l-1.333,3.333H49.49Zm4.129,6.667V106H48.063l.714-3.333ZM40.432,86h8.505l-4.286,20H31.86Zm72.234,23.333v3.333H19.333v-3.333Zm0-28.333h-8.333V76H101V94.333H81a8.326,8.326,0,0,0-6.666,3.339V93.735A6.637,6.637,0,0,0,76,89.333V67.666h.638a12.1,12.1,0,0,0,20.494,1.825L98.5,67.666h5.833A8.343,8.343,0,0,1,112.667,76ZM94.2,76.166l1.453,3A18.333,18.333,0,0,1,78.5,78.544l1.667-2.887a15,15,0,0,0,14.038.51Zm-11.538-33.5a3.333,3.333,0,1,1-3.333-3.333A3.333,3.333,0,0,1,82.667,42.666Zm6.667,0A3.333,3.333,0,1,1,92.667,46a3.333,3.333,0,0,1-3.333-3.333Zm.758,5.458,1.818,2.794a10.842,10.842,0,0,1-11.818,0l1.818-2.794a7.505,7.505,0,0,0,8.182,0ZM39.333,64.333H32.667V61h6.667Zm10-3.333v3.333H42.667V61Zm10,0v3.333H52.667V61Zm10,3.333H62.667V61h6.667ZM29.333,61v3.333H22.667V61Z" transform="translate(0 0)" fill="#fff"/>
    </g>
  </g>
</svg>
